<svg data-name="Layer 17" xmlns="http://www.w3.org/2000/svg" width="89.3" height="90">
    <path d="M44.6 0c.1 0 .19.12.34.34S55.08 12.57 67.26 27.1s22.09 26.48 22 26.55-9.71 8-21.51 17.62-21.85 17.8-22.3 18.18c-.79.64-.84.67-1.12.38s-10.24-8.4-22.38-18.29-22-18.06-22-18.18 10-12 22.21-26.47S44.32.48 44.36.29s.17-.29.24-.29z" fill="#5cbbff"/>
    <path d="M42.96 75.69a7.9 7.9 0 0 1-3.75-3.27 7.61 7.61 0 0 1 .17-6.27c.74-1.53.74-1.58.26-1.94-.26-.19-3.43-2-7-3.88l-6.92-3.75c-.28-.17-.76 0-1.62.55a6.21 6.21 0 0 1-8-.55 6.6 6.6 0 0 1-.33-9.37 6.35 6.35 0 0 1 6.65-1.67c1.29.43 1.31.43 2.12-.19s8.62-7.71 12.31-11.21l2.55-2.44-.76-1.59a7.18 7.18 0 0 1 2-8.95 6.44 6.44 0 0 1 4.7-1.53 7.2 7.2 0 0 1 6.55 9.86c-.5 1.28-.5 1.31 0 2.09s7.3 9 10.95 13.27a4.31 4.31 0 0 0 1.6 1.33 9 9 0 0 0 1.81-.52 6.48 6.48 0 0 1 6.83 10.85 5.62 5.62 0 0 1-4.39 1.69 5.38 5.38 0 0 1-3.24-.9 4.27 4.27 0 0 0-2.2-.77c-.57.15-9.37 6.18-11.33 7.75-1.19 1-1.29 1.34-.67 2.8a7 7 0 0 1-.14 5.08 7.54 7.54 0 0 1-4.17 3.57 5.6 5.6 0 0 1-4 0zm.41-26.29V35.81l-.76-1.05a5.21 5.21 0 0 0-.91-1c-.31 0-15.72 14-15.72 14.28a14.58 14.58 0 0 0 .53 1.55 8.43 8.43 0 0 1 .48 2.56v1.59c0 .55 5.18 3.84 12.91 8.3 2.12 1.25 2.86 1.56 3.12 1.34s.38-2.91.38-13.93zm6.52 12c10.2-6.41 12.11-7.7 12.23-8.18a17.9 17.9 0 0 0 .19-2.53l.07-2-5.2-6.18c-5.58-6.6-7.63-8.85-8.11-8.85a9 9 0 0 0-1.86 1l-1.57 1.05.07 13.57c.07 12.17.17 14.22.62 14.22.05 0 1.67-.95 3.56-2.15z" fill="#fff" stroke="#fff" stroke-linecap="round" stroke-linejoin="round" stroke-width=".29"/>
</svg>
