<svg id="Ebene_5" data-name="Ebene 5" xmlns="http://www.w3.org/2000/svg" viewBox="0 0 191 64.75">
	<defs>
		<style>
			.cls-1{fill:#3f3f3f;}.cls-2{fill:#acd653;}.cls-3{fill:#fff;}
		</style>
	</defs>
	<path class="cls-1" d="M45.51,46.26A.36.36,0,0,1,45.4,46V28.91a.93.93,0,0,1,.28-.67,1,1,0,0,1,.68-.28h4.57a5.33,5.33,0,0,1,5.38,5.25v.1a5.17,5.17,0,0,1-1.22,3.39A5.26,5.26,0,0,1,52,38.53l4.4,7.09a.53.53,0,0,1,.08.27.47.47,0,0,1-.15.35.44.44,0,0,1-.35.12H54.71a.41.41,0,0,1-.4-.23l-4.63-7.49h-2.1V46a.36.36,0,0,1-.11.26.32.32,0,0,1-.26.1H45.78A.34.34,0,0,1,45.51,46.26Zm5.3-9.67a3.26,3.26,0,0,0,2.37-.91A3.37,3.37,0,0,0,51,30H47.58V36.6Z" />
	<path class="cls-1" d="M58.5,46.16a.43.43,0,0,1,0-.41l5.7-17.44a.49.49,0,0,1,.21-.26.59.59,0,0,1,.3-.09h1.75a.53.53,0,0,1,.3.09.43.43,0,0,1,.2.26l5.75,17.48a.54.54,0,0,1,0,.18.36.36,0,0,1-.12.28.38.38,0,0,1-.3.11H71a.56.56,0,0,1-.31-.09.48.48,0,0,1-.2-.24L69,41.41H62.14L60.66,46a.35.35,0,0,1-.19.24.56.56,0,0,1-.31.09h-1.3A.38.38,0,0,1,58.5,46.16Zm9.9-6.68-2.83-8.77-2.83,8.77Z" />
	<path class="cls-1" d="M75.26,46.09a.9.9,0,0,1-.27-.68V28.91a.88.88,0,0,1,.27-.67,1,1,0,0,1,.68-.28h4.71a6.61,6.61,0,0,1,3.47.92A7,7,0,0,1,87.58,35v4.43a6.92,6.92,0,0,1-3.44,6,6.61,6.61,0,0,1-3.47.92H75.94A1,1,0,0,1,75.26,46.09Zm5.39-1.75A4.52,4.52,0,0,0,83,43.7a4.7,4.7,0,0,0,2.36-4.13V34.74a4.61,4.61,0,0,0-.63-2.38A4.71,4.71,0,0,0,83,30.64,4.56,4.56,0,0,0,80.63,30H77.15V44.34Z" />
	<path class="cls-1" d="M90.59,46.26a.36.36,0,0,1-.11-.26V44.76a.37.37,0,0,1,.37-.38h2.68V29.94H90.85a.28.28,0,0,1-.26-.1.36.36,0,0,1-.11-.26V28.33a.36.36,0,0,1,.34-.37h7.55a.36.36,0,0,1,.37.34v1.28a.36.36,0,0,1-.11.26.29.29,0,0,1-.26.1H95.69V44.38h2.68a.38.38,0,0,1,.37.38h0V46a.36.36,0,0,1-.11.26.29.29,0,0,1-.26.1H90.85A.28.28,0,0,1,90.59,46.26Z" />
	<path class="cls-1" d="M105.52,45.83a6.05,6.05,0,0,1-2.34-2.47,7.51,7.51,0,0,1-.91-3.65V28.33a.32.32,0,0,1,.11-.27.4.4,0,0,1,.26-.1h1.43a.35.35,0,0,1,.37.33V39.85a5.31,5.31,0,0,0,.57,2.51A4,4,0,0,0,106.56,44a4.32,4.32,0,0,0,2.23.58A4.2,4.2,0,0,0,111,44a4,4,0,0,0,1.55-1.68,5.31,5.31,0,0,0,.57-2.51V28.33a.35.35,0,0,1,.11-.27.4.4,0,0,1,.26-.1H115a.35.35,0,0,1,.36.33V39.72a7.49,7.49,0,0,1-.86,3.65,6.05,6.05,0,0,1-2.34,2.47,6.64,6.64,0,0,1-6.6,0Z" />
	<path class="cls-1" d="M120,46.34a7.31,7.31,0,0,1-2.27-1,.25.25,0,0,1-.15-.18.39.39,0,0,1,0-.26l.6-1.19a.45.45,0,0,1,.38-.25.39.39,0,0,1,.21.06,7.59,7.59,0,0,0,3.87,1.22,4.29,4.29,0,0,0,2.74-.87,2.81,2.81,0,0,0,1.09-2.31A2.49,2.49,0,0,0,126,40a3.46,3.46,0,0,0-1.2-1,19.79,19.79,0,0,0-2-.92,23.53,23.53,0,0,1-2.67-1.18,5.2,5.2,0,0,1-1.76-1.57,4.55,4.55,0,0,1-.74-2.68,4.92,4.92,0,0,1,.79-2.79,4.73,4.73,0,0,1,2.07-1.71,7.27,7.27,0,0,1,2.87-.56,8.7,8.7,0,0,1,2.48.36,8,8,0,0,1,2.12,1,.43.43,0,0,1,.15.48l-.59,1.09a.4.4,0,0,1-.23.21.36.36,0,0,1-.32,0,6.76,6.76,0,0,0-3.55-1.06,3.94,3.94,0,0,0-2.58.79,2.63,2.63,0,0,0-1,2.17,2.5,2.5,0,0,0,.48,1.58,3.6,3.6,0,0,0,1.17,1,18.6,18.6,0,0,0,2,.87c.17.07.76.3,1.83.69a5.49,5.49,0,0,1,2.47,1.77,4.6,4.6,0,0,1,.91,2.86,5.2,5.2,0,0,1-.79,2.87A5.1,5.1,0,0,1,125.79,46a7.44,7.44,0,0,1-3.15.64A9.82,9.82,0,0,1,120,46.34Z" />
	<path class="cls-1" d="M133.06,45.56a4.15,4.15,0,0,1-.16-5.87l0,0a5.71,5.71,0,0,1,3.3-1.43l3.44-.48a1.64,1.64,0,0,0,1.11-.52,1.82,1.82,0,0,0,.35-1.17v-.21a2.49,2.49,0,0,0-1-2.06,3.91,3.91,0,0,0-2.47-.78,4.35,4.35,0,0,0-2,.47,3.42,3.42,0,0,0-1.36,1.28.65.65,0,0,1-.53.35.58.58,0,0,1-.34-.14l-.72-.48a.58.58,0,0,1-.24-.44.5.5,0,0,1,.08-.27,5.48,5.48,0,0,1,2.11-2,6.36,6.36,0,0,1,3.08-.73,6.62,6.62,0,0,1,2.84.6,4.44,4.44,0,0,1,1.91,1.68,4.66,4.66,0,0,1,.68,2.52V46a.36.36,0,0,1-.11.26.31.31,0,0,1-.27.1h-1.1a.31.31,0,0,1-.27-.1.32.32,0,0,1-.1-.26V44.17a6,6,0,0,1-4.9,2.5A4.83,4.83,0,0,1,133.06,45.56ZM139,44.17a5.15,5.15,0,0,0,1.65-1.73,4.14,4.14,0,0,0,.59-2.06V39.3l-4.07.55-.74.11c-1.77.27-2.65,1.09-2.65,2.49a2.17,2.17,0,0,0,.8,1.75,3.12,3.12,0,0,0,2.06.66A4.2,4.2,0,0,0,139,44.17Z" />
	<path class="cls-1" d="M147.85,45.56a4.15,4.15,0,0,1-.16-5.87l0,0a5.74,5.74,0,0,1,3.3-1.43l3.44-.48a1.66,1.66,0,0,0,1.12-.52,1.81,1.81,0,0,0,.34-1.17v-.21a2.51,2.51,0,0,0-1-2.06,3.94,3.94,0,0,0-2.48-.78,4.29,4.29,0,0,0-2,.47,3.29,3.29,0,0,0-1.36,1.28.68.68,0,0,1-.53.35.64.64,0,0,1-.35-.14l-.71-.48a.53.53,0,0,1-.17-.71,5.48,5.48,0,0,1,2.11-2,6.37,6.37,0,0,1,3.09-.73,6.61,6.61,0,0,1,2.83.6,4.47,4.47,0,0,1,1.92,1.68,4.65,4.65,0,0,1,.67,2.52V46a.36.36,0,0,1-.11.26.29.29,0,0,1-.26.1h-1.11a.29.29,0,0,1-.26-.1.36.36,0,0,1-.11-.26V44.17A5.79,5.79,0,0,1,154,46a5.9,5.9,0,0,1-2.8.67A4.85,4.85,0,0,1,147.85,45.56Zm5.91-1.39a5.06,5.06,0,0,0,1.65-1.73,4.15,4.15,0,0,0,.6-2.06V39.3l-4.08.55-.74.11c-1.77.27-2.64,1.09-2.64,2.49a2.16,2.16,0,0,0,.79,1.75,3.14,3.14,0,0,0,2.06.66,4.33,4.33,0,0,0,2.4-.69Z" />
	<path class="cls-1" d="M163.45,46.34a7.66,7.66,0,0,1-2.27-1,.24.24,0,0,1-.14-.18.39.39,0,0,1,0-.26l.6-1.19a.41.41,0,0,1,.59-.19,7.56,7.56,0,0,0,3.89,1.22,4.31,4.31,0,0,0,2.74-.87,2.8,2.8,0,0,0,1.08-2.31,2.48,2.48,0,0,0-.47-1.56,3.55,3.55,0,0,0-1.2-1,20.89,20.89,0,0,0-2-.92,23.68,23.68,0,0,1-2.68-1.18,5.08,5.08,0,0,1-1.75-1.57,4.55,4.55,0,0,1-.74-2.68,4.85,4.85,0,0,1,.79-2.79A4.73,4.73,0,0,1,164,28.13a7.19,7.19,0,0,1,2.86-.56,8.7,8.7,0,0,1,2.48.36,8.34,8.34,0,0,1,2.13,1,.31.31,0,0,1,.14.21.32.32,0,0,1,0,.27L171,30.46a.39.39,0,0,1-.24.21.36.36,0,0,1-.32,0,6.76,6.76,0,0,0-3.55-1.06,3.89,3.89,0,0,0-2.57.79,2.63,2.63,0,0,0-1,2.17,2.49,2.49,0,0,0,.47,1.58,3.63,3.63,0,0,0,1.18,1,18.6,18.6,0,0,0,2,.87q.22.1,1.83.69a5.36,5.36,0,0,1,2.45,1.77,4.54,4.54,0,0,1,.91,2.86,5.19,5.19,0,0,1-.77,2.87A5.13,5.13,0,0,1,169.29,46a7.45,7.45,0,0,1-3.16.64A9.7,9.7,0,0,1,163.45,46.34Z" />
	<polygon class="cls-2" points="3.57 14.12 28.23 25.99 36.44 45.17 4.48 56.13 3.57 14.12" />
	<path class="cls-3" d="M10.87,49.65a.7.7,0,0,1-.21-.52V26.54a1.49,1.49,0,0,1,.43-1.06,1.46,1.46,0,0,1,1.06-.43h6.5a7.74,7.74,0,0,1,3.84,1,7.54,7.54,0,0,1,2.81,2.74,7.2,7.2,0,0,1,1,3.78A7.11,7.11,0,0,1,24.86,37,7.49,7.49,0,0,1,21,39.77l5.76,8.92a1,1,0,0,1,.13.49.64.64,0,0,1-.22.52.86.86,0,0,1-.57.21H23.22a1,1,0,0,1-.91-.5l-5.76-9.26H14.86v9a.73.73,0,0,1-.21.52.74.74,0,0,1-.52.21H11.39A.71.71,0,0,1,10.87,49.65ZM18.4,36.12a3.65,3.65,0,0,0,2.62-1,3.32,3.32,0,0,0,1-2.51,3.37,3.37,0,0,0-1-2.56,3.56,3.56,0,0,0-2.62-1H14.86v7.08Z" />
</svg>
