<svg xmlns="http://www.w3.org/2000/svg" xmlns:xlink="http://www.w3.org/1999/xlink" width="215" height="322" overflow="visible" viewBox="0 0 800.5 1201.8">
	<path d="M.026 1201.8208v-400.6h400.2v400.6z" fill="#0072c6" />
	<path fill="#ffd433" d="M1.1 800.1c0 221.2 179.2 400.6 400.2 400.6V800.1H1.1z" />
	<path fill="#5cbbff" d="M400.275 808.5658v-410.6h400.2v410.6z" />
	<path d="M400.2226 603.3181v-205.3h400.2v205.3z" fill="#0072c6" />
	<g>
		<path d="M400.0239 400.6229V.0229h400.2v400.6z" fill="#acd653" />
		<path d="M800.2 400.6h-10.6c0-107.4-85-194.8-189.5-194.8s-189.5 87.4-189.5 194.8H400c0-113.5 89.8-205.8 200.1-205.8s200.1 92.3 200.1 205.8z" fill="#008187" />
		<path d="M729.1 400.6h-10.6c0-67.1-53.1-121.7-118.4-121.7s-118.4 54.6-118.4 121.7h-10.6c0-73.1 57.9-132.6 129-132.6 71.2 0 129 59.5 129 132.6z" fill="#008187" />
		<path d="M658 400.6h-10.6c0-26.8-21.2-48.6-47.2-48.6-26.1 0-47.3 21.8-47.3 48.6h-10.6c0-32.8 26-59.5 57.9-59.5 31.8 0 57.8 26.7 57.8 59.5z" fill="#008187" />
	</g>
	<g>
		<path d="M400.2729 1201.7678v-400.6h400.2v400.6z" fill="#acd653" />
		<path fill="#f9f9f9" d="M600.4 846.6c-85.4 0-154.7 69.3-154.7 154.8s69.3 154.8 154.7 154.8 154.7-69.3 154.7-154.8-69.3-154.8-154.7-154.8zm0 229c-40.9 0-74.1-33.2-74.1-74.1 0-40.9 33.2-74.1 74.1-74.1 40.9 0 74.1 33.2 74.1 74.1-.1 40.9-33.2 74.1-74.1 74.1z" />
	</g>
</svg>
