<svg width="150" height="142" viewBox="0 0 150 142" fill="none"
  xmlns="http://www.w3.org/2000/svg">
  <g clip-path="url(#clip0_5900_296)">
    <mask id="mask0_5900_296" style="mask-type:luminance" maskUnits="userSpaceOnUse" x="0" y="0" width="150" height="142">
      <path d="M149.46 0H0V141.99H149.46V0Z" fill="white"/>
    </mask>
    <g mask="url(#mask0_5900_296)">
      <path d="M140.33 60.7901C139.67 54.7801 138.31 48.8601 136.28 43.1701C132.35 32.6301 125.45 23.4501 116.43 16.7301C107.55 10.0801 97.0696 5.88014 86.0596 4.57014C84.9496 4.46014 83.9496 5.23014 83.7696 6.33014C83.6696 7.43014 84.4397 8.41014 85.5296 8.56014C95.8196 10.0001 105.53 14.1501 113.67 20.6001C121.78 26.9301 127.89 35.4501 131.29 45.1501C133.21 50.4501 134.53 55.9501 135.22 61.5401C135.72 67.1501 135.72 72.7901 135.22 78.4001C134.68 83.9301 133.4 89.3701 131.4 94.5601C129.46 99.7901 126.91 104.78 123.82 109.42C117.27 118.79 108.03 125.96 97.3297 129.98C86.6297 134.25 75.0896 135.96 63.6096 134.97C57.2597 134.42 51.0196 133.02 45.0496 130.8C39.1296 128.61 33.6297 125.44 28.7797 121.4C16.5897 110.59 8.69965 95.7401 6.57965 79.5801C3.87965 63.3901 7.62965 46.8001 17.0397 33.3501C22.0097 26.4501 28.2296 20.5301 35.3696 15.9001C42.6096 11.4101 50.7996 8.67014 59.2796 7.91014C63.4496 7.50014 67.5597 7.14014 71.7297 7.14014C74.4797 7.11014 77.2296 7.29014 79.9596 7.67014C80.9096 7.81014 81.8096 7.15014 81.9596 6.20014C82.1296 5.27014 81.5196 4.38014 80.5896 4.22014C80.5596 4.22014 80.5196 4.21014 80.4896 4.20014C77.6196 3.65014 74.7197 3.29014 71.7997 3.14014C67.5097 3.14014 63.2197 3.14014 58.9296 3.67014C49.7996 4.49014 40.9796 7.38014 33.1396 12.1301C25.3696 16.9001 18.5497 23.0701 13.0497 30.3401C2.49965 44.7501 -1.91035 62.7201 0.75965 80.3501C2.83965 98.1001 11.2997 114.48 24.5497 126.46C29.9597 131.04 36.1196 134.66 42.7596 137.15C49.3396 139.57 56.2197 141.11 63.1996 141.73C75.7297 142.73 88.3196 140.8 99.9697 136.09C111.85 131.43 122 123.22 129.05 112.59C132.36 107.52 135.06 102.08 137.1 96.3801C139.15 90.7001 140.43 84.7701 140.92 78.7601C141.28 72.7601 141.09 66.7401 140.33 60.7801" fill="#AECC53"/>
      <path d="M48.6392 50.8599C45.4692 49.4399 41.7992 49.7299 38.8892 51.6299C33.0092 55.1499 29.4292 64.4899 36.1892 69.2499C42.0592 72.5799 49.5192 70.5099 52.8392 64.6399C52.8892 64.5499 52.9392 64.4599 52.9892 64.3699C55.2592 59.4199 53.3692 53.5599 48.6392 50.8599Z" fill="#030303"/>
      <path d="M107.56 61.9601C108.4 57.6901 106.38 53.3601 102.57 51.2701C92.58 46.9201 82.72 57.8501 88.82 66.1301C89.79 67.4101 91.04 68.4501 92.46 69.1801C97.12 72.0801 103.24 70.6501 106.13 65.9901C106.89 64.7601 107.38 63.3901 107.55 61.9501" fill="#030303"/>
      <path d="M56.3293 92.0999C57.5893 88.8299 59.9093 86.0799 62.9093 84.2899C69.6493 81.2799 77.5793 83.2899 82.0593 89.1699C84.2593 91.7799 85.4693 95.0899 85.4693 98.5099C85.4793 104.3 83.0193 109.81 78.7093 113.66C74.9493 117.44 69.2493 118.52 64.3793 116.36C60.2593 114.46 57.1993 110.82 56.0393 106.43C54.4593 101.77 54.5593 96.6899 56.3293 92.0999ZM61.6793 122.35C68.9793 125.53 77.4893 123.87 83.0593 118.18C88.3693 113.01 91.1793 105.79 90.7593 98.3799C90.5593 94.7299 89.3393 91.2099 87.2293 88.2199C81.3793 79.7499 70.3893 76.5599 60.9093 80.5799C56.8093 82.6299 53.5193 85.9999 51.5693 90.1499C48.9793 95.6499 48.3993 101.89 49.9193 107.77C51.3793 114.18 55.7093 119.56 61.6693 122.34" fill="#030303"/>
      <path d="M96.5696 23.1899C95.4896 22.9799 94.4396 23.6899 94.2296 24.7699C94.2296 24.7899 94.2296 24.8099 94.2196 24.8299C92.3396 31.3799 88.1196 36.9999 82.3496 40.6299C79.5996 42.3899 76.5196 43.59 73.2996 44.15C70.2396 44.8099 67.0396 44.4599 64.1996 43.15C59.8696 41.4 56.0296 38.6399 52.9796 35.0999C49.9696 31.2899 47.4096 27.1499 45.3396 22.7599C44.9396 21.8699 43.8996 21.4499 42.9896 21.8199C42.0996 22.2199 41.6996 23.2599 42.0996 24.1499C42.0996 24.1499 42.0996 24.1599 42.0996 24.1699C44.1096 30.2199 47.1296 35.8799 51.0296 40.9099C53.9196 44.2599 57.4296 47.0099 61.3696 49.0199C67.8296 51.8699 75.2596 51.4999 81.3996 48.0199C90.0796 43.4299 96.2396 35.1599 98.1396 25.5199C98.3596 24.4399 97.6496 23.3899 96.5696 23.1699C96.5696 23.1699 96.5696 23.1699 96.5596 23.1699" fill="#030303"/>
      <path d="M148.69 59.38C148.03 53.37 146.67 47.45 144.64 41.76C140.71 31.22 133.81 22.04 124.79 15.32C115.91 8.66998 105.43 4.46998 94.4199 3.15998C93.3099 3.04998 92.3099 3.81998 92.1299 4.91998C92.0299 6.01998 92.7999 6.99998 93.8899 7.14998C104.18 8.58998 113.89 12.74 122.03 19.19C130.14 25.52 136.25 34.04 139.65 43.74C141.57 49.04 142.89 54.54 143.58 60.13C144.08 65.74 144.08 71.38 143.58 76.99C143.04 82.52 141.76 87.96 139.76 93.15C137.82 98.38 135.27 103.37 132.18 108.01C125.63 117.38 116.39 124.55 105.69 128.57C94.9899 132.84 83.4499 134.55 71.9699 133.56C65.6199 133.01 59.3799 131.61 53.4099 129.39C47.4899 127.2 41.9899 124.03 37.1399 119.99C24.9499 109.18 17.0599 94.33 14.9399 78.17C12.2399 61.98 15.9899 45.39 25.3999 31.94C30.3699 25.04 36.5899 19.12 43.7299 14.49C50.9699 9.99998 59.1599 7.25998 67.6399 6.49998C71.8099 6.08998 75.9199 5.72998 80.0899 5.72998C82.8399 5.69998 85.5899 5.87998 88.3199 6.25998C89.2699 6.39998 90.1699 5.73998 90.3199 4.78998C90.4899 3.85998 89.8799 2.96998 88.9499 2.80998C88.9199 2.80998 88.8799 2.79998 88.8499 2.78998C85.9799 2.23998 83.0799 1.87998 80.1599 1.72998C75.8699 1.72998 71.5799 1.72998 67.2899 2.25998C58.1599 3.07998 49.3399 5.96998 41.4999 10.72C33.7299 15.49 26.9099 21.66 21.4099 28.93C10.8799 43.32 6.45993 61.29 9.12993 78.92C11.2099 96.67 19.6699 113.05 32.9199 125.03C38.3299 129.61 44.4899 133.23 51.1299 135.72C57.7099 138.14 64.5899 139.68 71.5699 140.3C84.0999 141.3 96.6899 139.37 108.34 134.66C120.22 130 130.37 121.79 137.42 111.16C140.73 106.09 143.43 100.65 145.47 94.95C147.52 89.27 148.8 83.34 149.29 77.33C149.65 71.33 149.46 65.31 148.7 59.35" fill="#09101E"/>
      <path d="M145.75 57.63C145.09 51.62 143.73 45.7 141.7 40.01C137.77 29.47 130.87 20.29 121.85 13.57C112.97 6.92 102.49 2.72 91.48 1.41C90.37 1.3 89.37 2.07 89.19 3.17C89.09 4.27 89.86 5.25 90.95 5.4C101.24 6.84 110.95 10.99 119.09 17.44C127.2 23.77 133.31 32.29 136.71 41.99C138.63 47.29 139.95 52.79 140.64 58.38C141.14 63.99 141.14 69.63 140.64 75.24C140.1 80.77 138.82 86.21 136.82 91.4C134.88 96.63 132.33 101.62 129.24 106.26C122.69 115.63 113.45 122.8 102.75 126.82C92.05 131.09 80.51 132.8 69.03 131.81C62.68 131.26 56.44 129.86 50.47 127.64C44.55 125.45 39.05 122.28 34.2 118.24C22.01 107.43 14.12 92.58 12 76.42C9.29997 60.23 13.05 43.64 22.46 30.19C27.43 23.29 33.65 17.37 40.79 12.74C48.03 8.25 56.22 5.51 64.7 4.75C68.87 4.34 72.98 3.98 77.15 3.98C79.9 3.95 82.65 4.13 85.38 4.51C86.33 4.65 87.23 3.99 87.38 3.04C87.55 2.11 86.94 1.22 86.01 1.06C85.97 1.06 85.94 1.05 85.91 1.04C83.02 0.5 80.11 0.15 77.19 0C72.91 0 68.62 0 64.33 0.53C55.2 1.35 46.38 4.24 38.54 8.99C30.77 13.76 23.95 19.93 18.45 27.2C7.91997 41.59 3.49997 59.56 6.16997 77.19C8.24997 94.94 16.71 111.32 29.96 123.3C35.37 127.88 41.53 131.5 48.17 133.99C54.75 136.41 61.63 137.95 68.61 138.57C81.14 139.57 93.73 137.64 105.38 132.93C117.26 128.27 127.41 120.06 134.46 109.43C137.77 104.36 140.47 98.92 142.51 93.22C144.56 87.54 145.84 81.61 146.33 75.6C146.69 69.6 146.5 63.58 145.74 57.62" fill="#09101E"/>
    </g>
  </g>
  <defs>
    <clipPath id="clip0_5900_296">
      <rect width="149.46" height="141.99" fill="white"/>
    </clipPath>
  </defs>
</svg>
