<svg width="44" height="46" viewBox="0 0 44 46" fill="none" xmlns="http://www.w3.org/2000/svg">
<path d="M27.833 32.9971V38.2027C27.833 40.9359 25.533 42.0361 22.083 42.0361C18.633 42.0361 16.333 40.9359 16.333 38.2027V32.9971" stroke="black" stroke-width="1.5" stroke-linecap="round" stroke-linejoin="round"/>
<path d="M23.9997 33.4109V21.9109C23.9997 21.5318 24.1121 21.1613 24.3227 20.8461C24.5333 20.5309 24.8326 20.2852 25.1829 20.1402C25.5331 19.9951 25.9185 19.9571 26.2903 20.0311C26.6621 20.105 27.0036 20.2876 27.2716 20.5556C27.5397 20.8237 27.7222 21.1652 27.7962 21.537C27.8701 21.9088 27.8322 22.2942 27.6871 22.6444C27.542 22.9946 27.2964 23.294 26.9812 23.5046C26.666 23.7152 26.2954 23.8276 25.9163 23.8276H18.2497C17.7413 23.8276 17.2538 23.6257 16.8944 23.2662C16.5349 22.9068 16.333 22.4193 16.333 21.9109C16.333 21.4026 16.5349 20.9151 16.8944 20.5556C17.2538 20.1962 17.7413 19.9943 18.2497 19.9943C18.5049 19.9807 18.7602 20.021 18.9989 20.1126C19.2375 20.2041 19.4543 20.3448 19.635 20.5256C19.8158 20.7063 19.9565 20.9231 20.048 21.1617C20.1396 21.4004 20.1799 21.6557 20.1663 21.9109V33.4109" stroke="black" stroke-width="1.5" stroke-linecap="round" stroke-linejoin="round"/>
<path d="M26.8749 33.411C29.1704 32.5009 31.134 30.9127 32.5038 28.858C33.8736 26.8034 34.5844 24.38 34.5415 21.911C34.483 18.6251 33.1516 15.4902 30.8278 13.1664C28.504 10.8426 25.3691 9.5112 22.0832 9.45264C18.7974 9.5112 15.6624 10.8426 13.3386 13.1664C11.0148 15.4902 9.68344 18.6251 9.62488 21.911C9.58202 24.38 10.2929 26.8034 11.6626 28.858C13.0324 30.9127 14.996 32.5009 17.2915 33.411H26.8749Z" stroke="black" stroke-width="1.5" stroke-linecap="round" stroke-linejoin="round"/>
<path d="M16.333 37.2441H27.833" stroke="black" stroke-width="1.5" stroke-linecap="round" stroke-linejoin="round"/>
<path d="M22.083 1V4.66083" stroke="black" stroke-width="1.5" stroke-linecap="round" stroke-linejoin="round"/>
<path d="M22.083 42.0361V44.9111" stroke="black" stroke-width="1.5" stroke-linecap="round" stroke-linejoin="round"/>
<path d="M1 19.9941H5.39108" stroke="black" stroke-width="1.5" stroke-linecap="round" stroke-linejoin="round"/>
<path d="M5.96582 5.79199L9.62474 9.45283" stroke="black" stroke-width="1.5" stroke-linecap="round" stroke-linejoin="round"/>
<path d="M43.1665 19.9941H38.7754" stroke="black" stroke-width="1.5" stroke-linecap="round" stroke-linejoin="round"/>
<path d="M38.2009 5.79199L34.542 9.45283" stroke="black" stroke-width="1.5" stroke-linecap="round" stroke-linejoin="round"/>
</svg>
