<svg width="131" height="88" viewBox="0 0 131 88" fill="none" xmlns="http://www.w3.org/2000/svg">
<path d="M49.2849 27.6436V60.1071C49.265 65.8409 46.9784 71.3341 42.924 75.3885C38.8696 79.4429 33.3763 81.7295 27.6426 81.7495" stroke="#FCD116" stroke-width="11.2917" stroke-linecap="round" stroke-linejoin="round"/>
<path d="M6 27.6424C6 30.4845 6.5598 33.2988 7.64743 35.9245C8.73506 38.5503 10.3292 40.9361 12.3389 42.9458C14.3486 44.9555 16.7344 46.5497 19.3602 47.6373C21.986 48.7249 24.8002 49.2847 27.6424 49.2847C30.4845 49.2847 33.2988 48.7249 35.9245 47.6373C38.5503 46.5497 40.9361 44.9555 42.9458 42.9458C44.9555 40.9361 46.5497 38.5503 47.6373 35.9245C48.7249 33.2988 49.2847 30.4845 49.2847 27.6424C49.2847 24.8002 48.7249 21.986 47.6373 19.3602C46.5497 16.7344 44.9555 14.3486 42.9458 12.3389C40.9361 10.3292 38.5503 8.73506 35.9245 7.64742C33.2988 6.55979 30.4845 6 27.6424 6C24.8002 6 21.986 6.55979 19.3602 7.64742C16.7344 8.73506 14.3486 10.3292 12.3389 12.3389C10.3292 14.3486 8.73506 16.7344 7.64743 19.3602C6.5598 21.986 6 24.8002 6 27.6424Z" fill="#FCD116" stroke="#FCD116" stroke-width="11.2917" stroke-linecap="round" stroke-linejoin="round"/>
<path d="M125.033 27.6436V60.1071C125.013 65.8409 122.726 71.3341 118.672 75.3885C114.618 79.4429 109.124 81.7295 103.391 81.7495" stroke="#FCD116" stroke-width="11.2917" stroke-linecap="round" stroke-linejoin="round"/>
<path d="M81.748 27.6424C81.748 30.4845 82.3078 33.2988 83.3955 35.9245C84.4831 38.5503 86.0773 40.9361 88.0869 42.9458C90.0966 44.9555 92.4825 46.5497 95.1082 47.6373C97.734 48.7249 100.548 49.2847 103.39 49.2847C106.233 49.2847 109.047 48.7249 111.673 47.6373C114.298 46.5497 116.684 44.9555 118.694 42.9458C120.704 40.9361 122.298 38.5503 123.385 35.9245C124.473 33.2988 125.033 30.4845 125.033 27.6424C125.033 24.8002 124.473 21.986 123.385 19.3602C122.298 16.7344 120.704 14.3486 118.694 12.3389C116.684 10.3292 114.298 8.73506 111.673 7.64742C109.047 6.55979 106.233 6 103.39 6C100.548 6 97.734 6.55979 95.1082 7.64742C92.4825 8.73506 90.0966 10.3292 88.0869 12.3389C86.0773 14.3486 84.4831 16.7344 83.3955 19.3602C82.3078 21.986 81.748 24.8002 81.748 27.6424Z" fill="#FCD116" stroke="#FCD116" stroke-width="11.2917" stroke-linecap="round" stroke-linejoin="round"/>
</svg>
