<svg data-name="Layer 17" xmlns="http://www.w3.org/2000/svg" width="113.46" height="90">
    <g fill="#0072c6" fill-rule="evenodd">
        <path d="m89.19 46.96 13.51 9.78-13.51 9.78V46.96z"/>
        <path d="M93.13 60h-40c-.13 9.78.27 12.39 19 12.39v5.22H17.05v-5.22c18.76 0 19.15-2.61 19-12.39H3.94A4.23 4.23 0 0 1 0 56.08V3.91A4.22 4.22 0 0 1 3.94 0h81.32a4.21 4.21 0 0 1 3.93 3.91v20.22h-6.56V6.52H6.56v47h86.57v6.52z"/>
        <path d="M110.18 26.71a3.24 3.24 0 0 1 3.28 3.26v56.74a3.25 3.25 0 0 1-3.28 3.26H80.01a3.25 3.25 0 0 1-3.28-3.26v-24.1h5.25v18.91h26.23V33.26H52.34a8.23 8.23 0 0 1-7.74 5.08 8.35 8.35 0 1 1 7.74-11.6z"/>
    </g>
</svg>
