<?xml version="1.0" encoding="UTF-8"?><svg id="Ebene_8" xmlns="http://www.w3.org/2000/svg" viewBox="0 0 1921.43 983.91"><path id="Rectangle-Copy-2" d="M462.22,28.65H1502.22V975.92H462.22V28.65Z" style="fill:#fff; stroke:#fff; stroke-miterlimit:10;"/><g id="Group-3"><path id="Rectangle" d="M513.9,136.28h454.41V924.7h-454.41V136.28Z" style="fill:#008187;"/></g><path id="Rectangle-2" d="M1073.89,404.74h364.2v246.99h-364.2v-246.99Z" style="fill:#808e99; opacity:.7;"/><path id="Rectangle-3" d="M1073.94,677.71h364.2v246.99h-364.2v-246.99Z" style="fill:#808e99; opacity:.7;"/><path id="Rectangle-4" d="M1073.89,134.38h364.2v246.99h-364.2V134.38Z" style="fill:#808e99; opacity:.7;"/><path id="Rectangle-5" d="M0,136.28H364.2V924.7H0V136.28Z" style="fill:#808e99; opacity:.7;"/><path d="M984.43,539.13h77.44m-63.7,0" style="fill:none; stroke:#f5c663; stroke-linecap:round; stroke-linejoin:round; stroke-width:5.67px;"/><path d="M984.43,355.59l77.44-95.92m-63.7,86.13" style="fill:none; stroke:#f5c663; stroke-linecap:round; stroke-linejoin:round; stroke-width:5.67px;"/><g><path d="M1163.48,309.02c-.14-.13-.21-.29-.21-.5,0-.1,0-.18,.03-.24l6.51-20.01c.06-.2,.17-.36,.34-.48s.36-.18,.58-.18h2.34c.22,0,.42,.06,.58,.18s.29,.28,.34,.48l6.51,20.01c.02,.06,.03,.14,.03,.24,0,.2-.07,.37-.21,.5-.14,.13-.31,.19-.51,.19h-2.16c-.22,0-.42-.06-.58-.19-.17-.13-.29-.29-.34-.5l-1.35-4.32h-7.02l-1.35,4.32c-.06,.2-.18,.37-.35,.5-.17,.13-.37,.19-.58,.19h-2.1c-.2,0-.37-.06-.51-.19Zm10.86-8.21l-2.46-8.01-2.46,8.01h4.92Z" style="fill:#fff;"/><path d="M1184.66,309.12c-.44,0-.82-.17-1.14-.53-.32-.35-.48-.74-.48-1.18,0-.3,.08-.57,.24-.81l7.53-11.16h-6.81c-.18,0-.33-.06-.45-.18-.12-.12-.18-.27-.18-.45v-2.16c0-.18,.06-.33,.18-.45,.12-.12,.27-.18,.45-.18h10.14c.46,0,.84,.17,1.16,.51,.31,.34,.46,.73,.46,1.17,0,.32-.08,.6-.24,.84l-7.59,11.25h7.32c.18,0,.33,.06,.46,.19,.13,.13,.2,.29,.2,.47l-.03,2.13c0,.2-.06,.35-.18,.46-.12,.11-.27,.17-.45,.17l-10.59-.09Z" style="fill:#fff;"/><path d="M1202.19,308.79c-.91-.54-1.62-1.29-2.15-2.25s-.78-2.04-.78-3.24v-10.65c0-.18,.06-.33,.18-.45,.12-.12,.27-.18,.45-.18h2.34c.18,0,.33,.06,.45,.18,.12,.12,.18,.27,.18,.45v10.2c0,1.06,.27,1.88,.81,2.44s1.3,.85,2.28,.85c1.18,0,2.12-.38,2.8-1.15,.69-.77,1.04-1.83,1.04-3.17v-9.18c0-.18,.06-.33,.18-.45,.12-.12,.27-.18,.45-.18h2.34c.18,0,.33,.06,.45,.18,.12,.12,.18,.27,.18,.45v15.93c0,.18-.06,.33-.18,.45-.12,.12-.27,.18-.45,.18h-2.34c-.18,0-.33-.06-.45-.18-.12-.12-.18-.27-.18-.45v-1.41c-.56,.76-1.22,1.35-2,1.79-.77,.43-1.62,.65-2.53,.65-1.14,0-2.17-.27-3.08-.81Z" style="fill:#fff;"/><path d="M1217.63,309.03c-.12-.12-.18-.27-.18-.45v-2.22c0-.18,.06-.33,.18-.45,.12-.12,.27-.18,.45-.18h2.28v-10.32h-2.58c-.18,0-.33-.06-.45-.18s-.18-.27-.18-.45v-2.13c0-.18,.06-.33,.18-.45,.12-.12,.27-.18,.45-.18h4.65c.36,0,.67,.12,.92,.38,.25,.25,.38,.56,.38,.92v1.08l1.62-1.29c.6-.48,1.12-.81,1.56-1.01,.44-.19,.96-.28,1.56-.28h.93c.18,0,.33,.06,.45,.18,.12,.12,.18,.27,.18,.45v2.31c0,.18-.06,.33-.18,.45-.12,.12-.27,.18-.45,.18h-.78c-.52,0-.97,.09-1.35,.27s-.96,.58-1.74,1.2l-1.65,1.32v7.56h2.97c.18,0,.33,.06,.45,.18,.12,.12,.18,.27,.18,.45v2.22c0,.18-.06,.33-.18,.45-.12,.12-.27,.18-.45,.18h-8.76c-.18,0-.33-.06-.45-.18Z" style="fill:#fff;"/><path d="M1235.79,308.25c-1.09-.64-1.96-1.51-2.59-2.61-.64-1.1-.96-2.3-.96-3.6v-3.24c0-1.3,.32-2.5,.96-3.6,.64-1.1,1.5-1.97,2.59-2.61,1.09-.64,2.29-.96,3.58-.96s2.5,.32,3.58,.96c1.09,.64,1.96,1.51,2.6,2.61,.64,1.1,.96,2.3,.96,3.6v2.01c0,.36-.12,.67-.38,.92-.25,.25-.56,.38-.92,.38h-9.39v.15c0,.98,.35,1.81,1.04,2.5,.69,.69,1.53,1.04,2.5,1.04h4.77c.18,0,.33,.06,.45,.18,.12,.12,.18,.27,.18,.45v2.16c0,.18-.06,.33-.18,.45-.12,.12-.27,.18-.45,.18h-4.77c-1.3,0-2.5-.32-3.58-.96Zm7.12-9.39v-.27c0-.98-.34-1.81-1.03-2.5-.69-.69-1.53-1.04-2.51-1.04s-1.81,.35-2.5,1.04c-.69,.69-1.04,1.53-1.04,2.5v.27h7.08Z" style="fill:#fff;"/><path d="M1256.69,309.02c-.14-.13-.21-.29-.21-.5,0-.1,0-.18,.03-.24l6.51-20.01c.06-.2,.17-.36,.34-.48s.36-.18,.58-.18h2.34c.22,0,.42,.06,.58,.18s.29,.28,.34,.48l6.51,20.01c.02,.06,.03,.14,.03,.24,0,.2-.07,.37-.21,.5-.14,.13-.31,.19-.51,.19h-2.16c-.22,0-.42-.06-.58-.19-.17-.13-.29-.29-.34-.5l-1.35-4.32h-7.02l-1.35,4.32c-.06,.2-.18,.37-.35,.5-.17,.13-.37,.19-.58,.19h-2.1c-.2,0-.37-.06-.51-.19Zm10.86-8.21l-2.46-8.01-2.46,8.01h4.92Z" style="fill:#fff;"/><path d="M1279.8,308.64c-1.09-.64-1.96-1.51-2.59-2.61-.64-1.1-.96-2.3-.96-3.6v-3.63c0-1.3,.32-2.5,.96-3.6,.64-1.1,1.5-1.97,2.59-2.61,1.09-.64,2.29-.96,3.58-.96,1,0,1.96,.21,2.88,.62,.92,.41,1.71,.99,2.37,1.72,.14,.14,.21,.3,.21,.48,0,.22-.09,.42-.27,.6l-1.29,1.29c-.14,.14-.3,.21-.48,.21s-.35-.09-.51-.27c-.78-.78-1.75-1.17-2.91-1.17-.98,0-1.81,.35-2.5,1.04-.69,.69-1.04,1.53-1.04,2.5v3.93c0,.98,.35,1.81,1.04,2.5,.69,.69,1.53,1.04,2.5,1.04,1.16,0,2.13-.39,2.91-1.17,.16-.18,.33-.27,.51-.27s.34,.07,.48,.21l1.29,1.29c.18,.18,.27,.38,.27,.6,0,.18-.07,.34-.21,.48-.66,.74-1.45,1.32-2.37,1.73-.92,.41-1.88,.62-2.88,.62-1.3,0-2.5-.32-3.58-.96Z" style="fill:#fff;"/><path d="M1295.55,307.77c-.97-.96-1.46-2.22-1.46-3.78v-8.61h-2.07c-.18,0-.33-.06-.45-.18-.12-.12-.18-.27-.18-.45v-2.1c0-.18,.06-.33,.18-.45,.12-.12,.27-.18,.45-.18h2.07v-3.24c0-.18,.06-.33,.18-.45s.27-.18,.45-.18h2.34c.18,0,.33,.06,.45,.18s.18,.27,.18,.45v3.24h5.07c.18,0,.33,.06,.45,.18,.12,.12,.18,.27,.18,.45v2.13c0,.18-.06,.33-.18,.45s-.27,.18-.45,.18h-5.07v8.43c0,.6,.17,1.08,.53,1.44,.35,.36,.81,.54,1.39,.54l3.15,.03c.18,0,.33,.06,.45,.18,.12,.12,.18,.27,.18,.45v2.1c0,.18-.06,.33-.18,.45-.12,.12-.27,.18-.45,.18h-3.42c-1.56,0-2.83-.48-3.79-1.44Z" style="fill:#fff;"/><path d="M1309.59,308.78c-.29-.29-.44-.65-.44-1.06v-12.27h-2.43c-.18,0-.33-.06-.45-.18-.12-.12-.18-.27-.18-.45v-2.16c0-.18,.06-.33,.18-.45,.12-.12,.27-.18,.45-.18h4.53c.42,0,.77,.15,1.06,.44s.44,.65,.44,1.06v12.27h2.43c.18,0,.33,.06,.45,.18,.12,.12,.18,.27,.18,.45v2.16c0,.18-.06,.33-.18,.45-.12,.12-.27,.18-.45,.18h-4.53c-.42,0-.78-.15-1.06-.44Zm-.11-18.94c-.12-.12-.18-.27-.18-.45v-3.27c0-.18,.06-.33,.18-.45,.12-.12,.27-.18,.45-.18h2.04c.18,0,.33,.06,.45,.18,.12,.12,.18,.27,.18,.45v3.27c0,.18-.06,.33-.18,.45s-.27,.18-.45,.18h-2.04c-.18,0-.33-.06-.45-.18Z" style="fill:#fff;"/><path d="M1323.38,309.39c-.46,0-.77-.21-.93-.63l-5.55-15.78c-.04-.12-.06-.21-.06-.27,0-.2,.07-.36,.21-.5,.14-.13,.32-.19,.54-.19h2.1c.2,0,.38,.06,.56,.18,.17,.12,.28,.28,.34,.48l4.05,12.06,4.05-12.06c.06-.2,.17-.36,.35-.48,.17-.12,.35-.18,.55-.18h1.95c.22,0,.4,.06,.54,.19,.14,.13,.21,.3,.21,.5,0,.06-.02,.15-.06,.27l-5.55,15.78c-.08,.2-.21,.36-.38,.48-.17,.12-.36,.18-.55,.18l-2.37-.03Z" style="fill:#fff;"/><path d="M1338.06,308.25c-1.09-.64-1.96-1.51-2.59-2.61-.64-1.1-.96-2.3-.96-3.6v-3.24c0-1.3,.32-2.5,.96-3.6,.64-1.1,1.5-1.97,2.59-2.61,1.09-.64,2.29-.96,3.58-.96s2.5,.32,3.58,.96c1.09,.64,1.96,1.51,2.6,2.61,.64,1.1,.96,2.3,.96,3.6v2.01c0,.36-.12,.67-.38,.92-.25,.25-.56,.38-.92,.38h-9.39v.15c0,.98,.35,1.81,1.04,2.5,.69,.69,1.53,1.04,2.5,1.04h4.77c.18,0,.33,.06,.45,.18,.12,.12,.18,.27,.18,.45v2.16c0,.18-.06,.33-.18,.45-.12,.12-.27,.18-.45,.18h-4.77c-1.3,0-2.5-.32-3.58-.96Zm7.12-9.39v-.27c0-.98-.34-1.81-1.03-2.5-.69-.69-1.53-1.04-2.51-1.04s-1.81,.35-2.5,1.04c-.69,.69-1.04,1.53-1.04,2.5v.27h7.08Z" style="fill:#fff;"/><path d="M1186.98,344.84c-.25-.25-.38-.56-.38-.92v-18.87c0-.36,.12-.66,.38-.92,.25-.25,.55-.38,.92-.38h5.88c1.54,0,2.94,.37,4.2,1.11,1.26,.74,2.25,1.75,2.99,3.03,.73,1.28,1.09,2.69,1.09,4.23v4.71c0,1.54-.37,2.95-1.09,4.23-.73,1.28-1.73,2.29-2.99,3.03-1.26,.74-2.66,1.11-4.2,1.11h-5.88c-.36,0-.67-.12-.92-.38Zm6.65-3.13c.86,0,1.65-.21,2.38-.65,.73-.43,1.31-1.01,1.74-1.74,.43-.73,.64-1.53,.64-2.42v-4.86c0-.86-.21-1.65-.64-2.39-.43-.73-1.01-1.31-1.74-1.74-.73-.43-1.53-.65-2.38-.65h-3.36v14.43h3.36Z" style="fill:#fff;"/><path d="M1208.52,344.78c-.29-.29-.44-.65-.44-1.06v-12.27h-2.43c-.18,0-.33-.06-.45-.18-.12-.12-.18-.27-.18-.45v-2.16c0-.18,.06-.33,.18-.45,.12-.12,.27-.18,.45-.18h4.53c.42,0,.77,.15,1.06,.44s.44,.65,.44,1.06v12.27h2.43c.18,0,.33,.06,.45,.18,.12,.12,.18,.27,.18,.45v2.16c0,.18-.06,.33-.18,.45-.12,.12-.27,.18-.45,.18h-4.53c-.42,0-.78-.15-1.06-.44Zm-.11-18.94c-.12-.12-.18-.27-.18-.45v-3.27c0-.18,.06-.33,.18-.45,.12-.12,.27-.18,.45-.18h2.04c.18,0,.33,.06,.45,.18,.12,.12,.18,.27,.18,.45v3.27c0,.18-.06,.33-.18,.45s-.27,.18-.45,.18h-2.04c-.18,0-.33-.06-.45-.18Z" style="fill:#fff;"/><path d="M1217.51,345.03c-.12-.12-.18-.27-.18-.45v-2.22c0-.18,.06-.33,.18-.45,.12-.12,.27-.18,.45-.18h2.28v-10.32h-2.58c-.18,0-.33-.06-.45-.18s-.18-.27-.18-.45v-2.13c0-.18,.06-.33,.18-.45,.12-.12,.27-.18,.45-.18h4.65c.36,0,.67,.12,.92,.38,.25,.25,.38,.56,.38,.92v1.08l1.62-1.29c.6-.48,1.12-.81,1.56-1.01,.44-.19,.96-.28,1.56-.28h.93c.18,0,.33,.06,.45,.18,.12,.12,.18,.27,.18,.45v2.31c0,.18-.06,.33-.18,.45-.12,.12-.27,.18-.45,.18h-.78c-.52,0-.97,.09-1.35,.27s-.96,.58-1.74,1.2l-1.65,1.32v7.56h2.97c.18,0,.33,.06,.45,.18,.12,.12,.18,.27,.18,.45v2.22c0,.18-.06,.33-.18,.45-.12,.12-.27,.18-.45,.18h-8.76c-.18,0-.33-.06-.45-.18Z" style="fill:#fff;"/><path d="M1235.67,344.25c-1.09-.64-1.96-1.51-2.59-2.61-.64-1.1-.96-2.3-.96-3.6v-3.24c0-1.3,.32-2.5,.96-3.6,.64-1.1,1.5-1.97,2.59-2.61,1.09-.64,2.29-.96,3.58-.96s2.5,.32,3.58,.96c1.09,.64,1.96,1.51,2.6,2.61,.64,1.1,.96,2.3,.96,3.6v2.01c0,.36-.12,.67-.38,.92-.25,.25-.56,.38-.92,.38h-9.39v.15c0,.98,.35,1.81,1.04,2.5,.69,.69,1.53,1.04,2.5,1.04h4.77c.18,0,.33,.06,.45,.18,.12,.12,.18,.27,.18,.45v2.16c0,.18-.06,.33-.18,.45-.12,.12-.27,.18-.45,.18h-4.77c-1.3,0-2.5-.32-3.58-.96Zm7.12-9.39v-.27c0-.98-.34-1.81-1.03-2.5-.69-.69-1.53-1.04-2.51-1.04s-1.81,.35-2.5,1.04c-.69,.69-1.04,1.53-1.04,2.5v.27h7.08Z" style="fill:#fff;"/><path d="M1253.37,344.64c-1.09-.64-1.96-1.51-2.59-2.61-.64-1.1-.96-2.3-.96-3.6v-3.63c0-1.3,.32-2.5,.96-3.6,.64-1.1,1.5-1.97,2.59-2.61,1.09-.64,2.29-.96,3.58-.96,1,0,1.96,.21,2.88,.62,.92,.41,1.71,.99,2.37,1.72,.14,.14,.21,.3,.21,.48,0,.22-.09,.42-.27,.6l-1.29,1.29c-.14,.14-.3,.21-.48,.21s-.35-.09-.51-.27c-.78-.78-1.75-1.17-2.91-1.17-.98,0-1.81,.35-2.5,1.04-.69,.69-1.04,1.53-1.04,2.5v3.93c0,.98,.35,1.81,1.04,2.5,.69,.69,1.53,1.04,2.5,1.04,1.16,0,2.13-.39,2.91-1.17,.16-.18,.33-.27,.51-.27s.34,.07,.48,.21l1.29,1.29c.18,.18,.27,.38,.27,.6,0,.18-.07,.34-.21,.48-.66,.74-1.45,1.32-2.37,1.73-.92,.41-1.88,.62-2.88,.62-1.3,0-2.5-.32-3.58-.96Z" style="fill:#fff;"/><path d="M1269.12,343.77c-.97-.96-1.46-2.22-1.46-3.78v-8.61h-2.07c-.18,0-.33-.06-.45-.18-.12-.12-.18-.27-.18-.45v-2.1c0-.18,.06-.33,.18-.45,.12-.12,.27-.18,.45-.18h2.07v-3.24c0-.18,.06-.33,.18-.45s.27-.18,.45-.18h2.34c.18,0,.33,.06,.45,.18s.18,.27,.18,.45v3.24h5.07c.18,0,.33,.06,.45,.18,.12,.12,.18,.27,.18,.45v2.13c0,.18-.06,.33-.18,.45s-.27,.18-.45,.18h-5.07v8.43c0,.6,.17,1.08,.53,1.44,.35,.36,.81,.54,1.39,.54l3.15,.03c.18,0,.33,.06,.45,.18,.12,.12,.18,.27,.18,.45v2.1c0,.18-.06,.33-.18,.45-.12,.12-.27,.18-.45,.18h-3.42c-1.56,0-2.83-.48-3.79-1.44Z" style="fill:#fff;"/><path d="M1283.28,344.66c-1.09-.63-1.96-1.48-2.59-2.56-.64-1.08-.96-2.25-.96-3.51v-3.93c0-1.26,.32-2.43,.96-3.51,.64-1.08,1.5-1.94,2.59-2.56,1.09-.63,2.29-.95,3.58-.95s2.5,.31,3.58,.95c1.09,.63,1.96,1.48,2.6,2.56,.64,1.08,.96,2.25,.96,3.51v3.93c0,1.26-.32,2.43-.96,3.51-.64,1.08-1.51,1.94-2.6,2.56-1.09,.63-2.29,.95-3.58,.95s-2.5-.31-3.58-.95Zm6.09-3.57c.69-.69,1.03-1.52,1.03-2.5v-3.93c0-.98-.34-1.81-1.03-2.5-.69-.69-1.53-1.04-2.51-1.04s-1.81,.35-2.5,1.04c-.69,.69-1.04,1.53-1.04,2.5v3.93c0,.98,.35,1.81,1.04,2.5,.69,.69,1.53,1.04,2.5,1.04s1.82-.35,2.51-1.04Z" style="fill:#fff;"/><path d="M1297.13,345.03c-.12-.12-.18-.27-.18-.45v-2.22c0-.18,.06-.33,.18-.45,.12-.12,.27-.18,.45-.18h2.28v-10.32h-2.58c-.18,0-.33-.06-.45-.18s-.18-.27-.18-.45v-2.13c0-.18,.06-.33,.18-.45,.12-.12,.27-.18,.45-.18h4.65c.36,0,.67,.12,.92,.38,.25,.25,.38,.56,.38,.92v1.08l1.62-1.29c.6-.48,1.12-.81,1.56-1.01,.44-.19,.96-.28,1.56-.28h.93c.18,0,.33,.06,.45,.18,.12,.12,.18,.27,.18,.45v2.31c0,.18-.06,.33-.18,.45-.12,.12-.27,.18-.45,.18h-.78c-.52,0-.97,.09-1.35,.27s-.96,.58-1.74,1.2l-1.65,1.32v7.56h2.97c.18,0,.33,.06,.45,.18,.12,.12,.18,.27,.18,.45v2.22c0,.18-.06,.33-.18,.45-.12,.12-.27,.18-.45,.18h-8.76c-.18,0-.33-.06-.45-.18Z" style="fill:#fff;"/><path d="M1316.48,350.75c-.12-.17-.14-.37-.06-.58l1.56-4.44-5.88-16.74c-.04-.12-.06-.21-.06-.27,0-.2,.07-.36,.21-.5,.14-.13,.32-.19,.54-.19h2.1c.2,0,.38,.06,.56,.18,.17,.12,.28,.28,.34,.48l4.05,11.97,4.05-11.97c.06-.2,.17-.36,.35-.48,.17-.12,.35-.18,.55-.18h1.95c.22,0,.4,.06,.54,.19,.14,.13,.21,.3,.21,.5,0,.06-.02,.15-.06,.27l-7.53,21.36c-.08,.2-.2,.36-.36,.48-.16,.12-.35,.18-.57,.18h-1.98c-.22,0-.39-.09-.51-.25Z" style="fill:#fff;"/></g><path id="Rectangle-4-2" d="M1568.17,681.85h351.26v246.99h-351.26v-246.99Z" style="fill:#808e99; opacity:.7;"/><g><path d="M1616.53,777.38c-1.26-.68-2.27-1.61-3.03-2.79-.08-.1-.12-.24-.12-.42,0-.28,.11-.5,.33-.66l1.65-1.23c.14-.1,.27-.15,.39-.15,.22,0,.41,.11,.57,.33,.54,.78,1.19,1.4,1.95,1.84,.76,.45,1.52,.68,2.28,.68,.72,0,1.38-.18,2-.54,.61-.36,1.09-.86,1.46-1.49s.54-1.31,.54-2.05c0-1.04-.36-1.95-1.06-2.72-.71-.77-1.57-1.19-2.57-1.27l-.84,1.17c-.12,.18-.29,.27-.51,.27-.12,0-.25-.05-.39-.15l-1.71-1.23c-.18-.12-.27-.29-.27-.51,0-.14,.04-.26,.12-.36l4.35-6.12h-5.97c-.18,0-.33-.06-.45-.18s-.18-.27-.18-.45v-2.16c0-.18,.06-.33,.18-.45s.27-.18,.45-.18h8.85c.6,0,1.09,.19,1.47,.57s.57,.83,.57,1.35c0,.46-.14,.87-.42,1.23l-3.09,4.23c1.48,.48,2.69,1.35,3.63,2.62,.94,1.27,1.41,2.71,1.41,4.33,0,1.34-.34,2.58-1.02,3.73-.68,1.15-1.6,2.07-2.76,2.75s-2.42,1.02-3.78,1.02-2.76-.34-4.02-1.02Z" style="fill:#fff;"/><path d="M1631.41,777.83c-.12-.12-.18-.27-.18-.45v-2.22c0-.18,.06-.33,.18-.45s.27-.18,.45-.18h2.28v-10.32h-2.58c-.18,0-.33-.06-.45-.18s-.18-.27-.18-.45v-2.13c0-.18,.06-.33,.18-.45s.27-.18,.45-.18h4.65c.36,0,.67,.12,.92,.38s.38,.55,.38,.92v1.08l1.62-1.29c.6-.48,1.12-.82,1.56-1.01,.44-.19,.96-.28,1.56-.28h.93c.18,0,.33,.06,.45,.18s.18,.27,.18,.45v2.31c0,.18-.06,.33-.18,.45s-.27,.18-.45,.18h-.78c-.52,0-.97,.09-1.35,.27-.38,.18-.96,.58-1.74,1.2l-1.65,1.32v7.56h2.97c.18,0,.33,.06,.45,.18s.18,.27,.18,.45v2.22c0,.18-.06,.33-.18,.45s-.27,.18-.45,.18h-8.76c-.18,0-.33-.06-.45-.18Z" style="fill:#fff;"/><path d="M1649.38,777.45c-1.02-.63-1.84-1.47-2.45-2.54-.61-1.06-.92-2.2-.92-3.42v-4.17c0-1.22,.3-2.36,.9-3.42,.6-1.06,1.41-1.91,2.43-2.54,1.02-.63,2.13-.95,3.33-.95,.76,0,1.5,.12,2.21,.36s1.32,.58,1.84,1.02v-6.15c0-.18,.06-.33,.18-.45,.12-.12,.27-.18,.45-.18h2.34c.18,0,.33,.06,.45,.18s.18,.27,.18,.45v21.72c0,.18-.06,.33-.18,.45s-.27,.18-.45,.18h-1.95c-.18,0-.33-.06-.45-.18s-.18-.27-.18-.45v-1.44c-.54,.82-1.19,1.43-1.95,1.84-.76,.41-1.6,.62-2.52,.62-1.16,0-2.25-.32-3.27-.95Zm6.3-3.54c.7-.69,1.05-1.52,1.05-2.5v-3.99c0-.98-.35-1.81-1.05-2.5s-1.54-1.04-2.52-1.04-1.81,.34-2.5,1.04c-.69,.69-1.04,1.53-1.04,2.5v3.99c0,.98,.35,1.81,1.04,2.5,.69,.69,1.53,1.04,2.5,1.04s1.82-.34,2.52-1.04Z" style="fill:#fff;"/><path d="M1672.78,777.83c-.12-.12-.18-.27-.18-.45v-19.53c0-.36,.12-.66,.38-.92,.25-.25,.55-.38,.92-.38h5.34c1.26,0,2.42,.31,3.5,.93s1.92,1.46,2.55,2.52c.63,1.06,.95,2.21,.95,3.45s-.32,2.42-.95,3.48c-.63,1.06-1.48,1.9-2.55,2.52s-2.23,.93-3.5,.93h-2.97v6.99c0,.18-.06,.33-.18,.45s-.27,.18-.45,.18h-2.4c-.18,0-.33-.06-.45-.18Zm6.3-10.89c.96,0,1.78-.34,2.46-1.02s1.02-1.5,1.02-2.46-.34-1.75-1.02-2.43c-.68-.68-1.5-1.02-2.46-1.02h-2.82v6.93h2.82Z" style="fill:#fff;"/><path d="M1689.92,776.97c-1.05-.95-1.58-2.18-1.58-3.71,0-1.38,.48-2.52,1.44-3.43s2.31-1.5,4.05-1.79c.44-.04,.86-.1,1.26-.18,1.4-.16,2.25-.28,2.55-.36,.74-.12,1.11-.54,1.11-1.26s-.31-1.33-.92-1.79c-.61-.45-1.38-.67-2.29-.67-1.62,0-2.8,.59-3.54,1.77-.16,.26-.35,.39-.57,.39-.16,0-.29-.04-.39-.12l-1.68-1.14c-.18-.12-.27-.29-.27-.51,0-.06,.02-.15,.06-.27,.58-1.1,1.44-1.96,2.58-2.57,1.14-.61,2.43-.92,3.87-.92,1.32,0,2.48,.25,3.48,.75,1,.5,1.77,1.21,2.32,2.13,.55,.92,.83,1.98,.83,3.18v10.89c0,.18-.06,.33-.18,.45s-.27,.18-.45,.18h-2.04c-.18,0-.33-.05-.45-.17-.12-.11-.18-.26-.18-.46v-1.17c-1.38,1.46-3.02,2.19-4.92,2.19-1.68,0-3.04-.48-4.09-1.43Zm6.58-2.38c.7-.4,1.26-.92,1.69-1.58,.43-.65,.65-1.33,.65-2.05v-.6l-2.25,.33c-1.22,.14-2.01,.25-2.37,.33-1.64,.3-2.46,1.01-2.46,2.13,0,.62,.23,1.12,.69,1.48,.46,.37,1.07,.56,1.83,.56s1.52-.2,2.22-.6Z" style="fill:#fff;"/><path d="M1706.05,777.83c-.12-.12-.18-.27-.18-.45v-2.22c0-.18,.06-.33,.18-.45s.27-.18,.45-.18h2.28v-10.32h-2.58c-.18,0-.33-.06-.45-.18s-.18-.27-.18-.45v-2.13c0-.18,.06-.33,.18-.45s.27-.18,.45-.18h4.65c.36,0,.67,.12,.92,.38s.38,.55,.38,.92v1.08l1.62-1.29c.6-.48,1.12-.82,1.56-1.01,.44-.19,.96-.28,1.56-.28h.93c.18,0,.33,.06,.45,.18s.18,.27,.18,.45v2.31c0,.18-.06,.33-.18,.45s-.27,.18-.45,.18h-.78c-.52,0-.97,.09-1.35,.27-.38,.18-.96,.58-1.74,1.2l-1.65,1.32v7.56h2.97c.18,0,.33,.06,.45,.18s.18,.27,.18,.45v2.22c0,.18-.06,.33-.18,.45s-.27,.18-.45,.18h-8.76c-.18,0-.33-.06-.45-.18Z" style="fill:#fff;"/><path d="M1724.9,776.57c-.97-.96-1.46-2.22-1.46-3.78v-8.61h-2.07c-.18,0-.33-.06-.45-.18-.12-.12-.18-.27-.18-.45v-2.1c0-.18,.06-.33,.18-.45,.12-.12,.27-.18,.45-.18h2.07v-3.24c0-.18,.06-.33,.18-.45s.27-.18,.45-.18h2.34c.18,0,.33,.06,.45,.18s.18,.27,.18,.45v3.24h5.07c.18,0,.33,.06,.45,.18s.18,.27,.18,.45v2.13c0,.18-.06,.33-.18,.45s-.27,.18-.45,.18h-5.07v8.43c0,.6,.17,1.08,.53,1.44,.35,.36,.81,.54,1.39,.54l3.15,.03c.18,0,.33,.06,.45,.18s.18,.27,.18,.45v2.1c0,.18-.06,.33-.18,.45s-.27,.18-.45,.18h-3.42c-1.56,0-2.83-.48-3.79-1.44Z" style="fill:#fff;"/><path d="M1739.86,783.54c-.12-.17-.14-.37-.06-.58l1.56-4.44-5.88-16.74c-.04-.12-.06-.21-.06-.27,0-.2,.07-.36,.21-.5,.14-.13,.32-.19,.54-.19h2.1c.2,0,.38,.06,.56,.18,.17,.12,.28,.28,.34,.48l4.05,11.97,4.05-11.97c.06-.2,.17-.36,.35-.48,.17-.12,.35-.18,.55-.18h1.95c.22,0,.4,.06,.54,.19,.14,.13,.21,.3,.21,.5,0,.06-.02,.15-.06,.27l-7.53,21.36c-.08,.2-.2,.36-.36,.48s-.35,.18-.57,.18h-1.98c-.22,0-.39-.08-.51-.25Z" style="fill:#fff;"/><path d="M1765.04,777.33c-1.19-.71-2.13-1.67-2.83-2.88s-1.05-2.54-1.05-3.97v-6.39c0-1.44,.35-2.76,1.05-3.97s1.64-2.17,2.83-2.88c1.19-.71,2.49-1.07,3.88-1.07,1.22,0,2.36,.22,3.42,.67,1.06,.45,1.96,1.11,2.7,1.96,.12,.14,.18,.31,.18,.51s-.08,.4-.24,.6l-1.32,1.38c-.16,.16-.32,.24-.48,.24-.2,0-.38-.09-.54-.27-.96-1.06-2.19-1.59-3.69-1.59-.74,0-1.42,.2-2.05,.6s-1.14,.94-1.52,1.62-.57,1.41-.57,2.19v6.39c0,.78,.19,1.51,.57,2.19,.38,.68,.89,1.22,1.52,1.62,.63,.4,1.31,.6,2.05,.6,1.5,0,2.73-.53,3.69-1.59,.16-.18,.33-.27,.51-.27s.35,.08,.51,.24l1.32,1.38c.18,.18,.27,.38,.27,.6,0,.16-.06,.32-.18,.48-.76,.86-1.67,1.52-2.73,1.98-1.06,.46-2.2,.69-3.42,.69-1.4,0-2.7-.36-3.88-1.07Z" style="fill:#fff;"/><path d="M1781.87,777.45c-1.09-.63-1.96-1.49-2.59-2.57-.64-1.08-.96-2.25-.96-3.51v-3.93c0-1.26,.32-2.43,.96-3.51,.64-1.08,1.5-1.94,2.59-2.57s2.29-.95,3.58-.95,2.5,.32,3.58,.95,1.96,1.49,2.6,2.57c.64,1.08,.96,2.25,.96,3.51v3.93c0,1.26-.32,2.43-.96,3.51-.64,1.08-1.51,1.94-2.6,2.57s-2.29,.95-3.58,.95-2.5-.32-3.58-.95Zm6.09-3.57c.69-.69,1.03-1.52,1.03-2.5v-3.93c0-.98-.34-1.82-1.03-2.5s-1.53-1.04-2.51-1.04-1.81,.34-2.5,1.04-1.04,1.53-1.04,2.5v3.93c0,.98,.35,1.82,1.04,2.5s1.53,1.04,2.5,1.04,1.82-.34,2.51-1.04Z" style="fill:#fff;"/><path d="M1796.88,777.83c-.12-.12-.18-.27-.18-.45v-15.93c0-.18,.06-.33,.18-.45,.12-.12,.27-.18,.45-.18h2.34c.18,0,.33,.06,.45,.18s.18,.27,.18,.45v1.41c.56-.76,1.22-1.36,1.99-1.79,.77-.43,1.62-.65,2.54-.65,1.14,0,2.17,.27,3.08,.81s1.62,1.29,2.15,2.25c.52,.96,.78,2.04,.78,3.24v10.65c0,.18-.06,.33-.18,.45s-.27,.18-.45,.18h-2.34c-.18,0-.33-.06-.45-.18s-.18-.27-.18-.45v-10.2c0-1.06-.27-1.88-.81-2.44-.54-.57-1.3-.86-2.28-.86-1.18,0-2.12,.39-2.81,1.16-.69,.77-1.03,1.83-1.03,3.17v9.18c0,.18-.06,.33-.18,.45s-.27,.18-.45,.18h-2.34c-.18,0-.33-.06-.45-.18Z" style="fill:#fff;"/><path d="M1817.93,776.57c-.97-.96-1.46-2.22-1.46-3.78v-8.61h-2.07c-.18,0-.33-.06-.45-.18-.12-.12-.18-.27-.18-.45v-2.1c0-.18,.06-.33,.18-.45,.12-.12,.27-.18,.45-.18h2.07v-3.24c0-.18,.06-.33,.18-.45s.27-.18,.45-.18h2.34c.18,0,.33,.06,.45,.18s.18,.27,.18,.45v3.24h5.07c.18,0,.33,.06,.45,.18s.18,.27,.18,.45v2.13c0,.18-.06,.33-.18,.45s-.27,.18-.45,.18h-5.07v8.43c0,.6,.17,1.08,.53,1.44,.35,.36,.81,.54,1.39,.54l3.15,.03c.18,0,.33,.06,.45,.18s.18,.27,.18,.45v2.1c0,.18-.06,.33-.18,.45s-.27,.18-.45,.18h-3.42c-1.56,0-2.83-.48-3.79-1.44Z" style="fill:#fff;"/><path d="M1829.9,776.97c-1.05-.95-1.58-2.18-1.58-3.71,0-1.38,.48-2.52,1.44-3.43s2.31-1.5,4.05-1.79c.44-.04,.86-.1,1.26-.18,1.4-.16,2.25-.28,2.55-.36,.74-.12,1.11-.54,1.11-1.26s-.31-1.33-.92-1.79c-.61-.45-1.38-.67-2.29-.67-1.62,0-2.8,.59-3.54,1.77-.16,.26-.35,.39-.57,.39-.16,0-.29-.04-.39-.12l-1.68-1.14c-.18-.12-.27-.29-.27-.51,0-.06,.02-.15,.06-.27,.58-1.1,1.44-1.96,2.58-2.57,1.14-.61,2.43-.92,3.87-.92,1.32,0,2.48,.25,3.48,.75,1,.5,1.77,1.21,2.32,2.13,.55,.92,.83,1.98,.83,3.18v10.89c0,.18-.06,.33-.18,.45s-.27,.18-.45,.18h-2.04c-.18,0-.33-.05-.45-.17-.12-.11-.18-.26-.18-.46v-1.17c-1.38,1.46-3.02,2.19-4.92,2.19-1.68,0-3.04-.48-4.09-1.43Zm6.58-2.38c.7-.4,1.26-.92,1.69-1.58,.43-.65,.65-1.33,.65-2.05v-.6l-2.25,.33c-1.22,.14-2.01,.25-2.37,.33-1.64,.3-2.46,1.01-2.46,2.13,0,.62,.23,1.12,.69,1.48,.46,.37,1.07,.56,1.83,.56s1.52-.2,2.22-.6Z" style="fill:#fff;"/><path d="M1849.64,777.44c-1.09-.64-1.96-1.51-2.59-2.61-.64-1.1-.96-2.3-.96-3.6v-3.63c0-1.3,.32-2.5,.96-3.6,.64-1.1,1.5-1.97,2.59-2.61,1.09-.64,2.29-.96,3.58-.96,1,0,1.96,.21,2.88,.62,.92,.41,1.71,.99,2.37,1.72,.14,.14,.21,.3,.21,.48,0,.22-.09,.42-.27,.6l-1.29,1.29c-.14,.14-.3,.21-.48,.21s-.35-.09-.51-.27c-.78-.78-1.75-1.17-2.91-1.17-.98,0-1.81,.34-2.5,1.04s-1.04,1.53-1.04,2.5v3.93c0,.98,.35,1.82,1.04,2.5s1.53,1.04,2.5,1.04c1.16,0,2.13-.39,2.91-1.17,.16-.18,.33-.27,.51-.27s.34,.07,.48,.21l1.29,1.29c.18,.18,.27,.38,.27,.6,0,.18-.07,.34-.21,.48-.66,.74-1.45,1.32-2.37,1.73-.92,.41-1.88,.62-2.88,.62-1.3,0-2.5-.32-3.58-.96Z" style="fill:#fff;"/><path d="M1865.39,776.57c-.97-.96-1.46-2.22-1.46-3.78v-8.61h-2.07c-.18,0-.33-.06-.45-.18-.12-.12-.18-.27-.18-.45v-2.1c0-.18,.06-.33,.18-.45,.12-.12,.27-.18,.45-.18h2.07v-3.24c0-.18,.06-.33,.18-.45s.27-.18,.45-.18h2.34c.18,0,.33,.06,.45,.18s.18,.27,.18,.45v3.24h5.07c.18,0,.33,.06,.45,.18s.18,.27,.18,.45v2.13c0,.18-.06,.33-.18,.45s-.27,.18-.45,.18h-5.07v8.43c0,.6,.17,1.08,.53,1.44,.35,.36,.81,.54,1.39,.54l3.15,.03c.18,0,.33,.06,.45,.18s.18,.27,.18,.45v2.1c0,.18-.06,.33-.18,.45s-.27,.18-.45,.18h-3.42c-1.56,0-2.83-.48-3.79-1.44Z" style="fill:#fff;"/><path d="M1698.1,813.84c-1.05-.35-2.03-.83-2.93-1.46-.1-.06-.17-.17-.21-.31-.04-.15-.03-.29,.03-.41l1.05-1.89c.12-.24,.31-.36,.57-.36,.16,0,.31,.04,.45,.12,1.5,.94,2.9,1.41,4.2,1.41,1.06,0,1.9-.25,2.51-.77,.61-.51,.92-1.17,.92-1.99,0-.54-.15-1-.45-1.37s-.7-.68-1.2-.95c-.5-.26-1.23-.58-2.19-.96l-.87-.36c-1.36-.58-2.51-1.32-3.44-2.22-.93-.9-1.39-2.22-1.39-3.96,0-1.22,.27-2.3,.82-3.24,.55-.94,1.32-1.67,2.29-2.19,.98-.52,2.11-.78,3.39-.78,1.06,0,2.12,.18,3.17,.53s2,.83,2.83,1.46c.1,.06,.17,.17,.21,.31,.04,.15,.03,.29-.03,.41l-.99,1.89c-.12,.24-.31,.36-.57,.36-.16,0-.31-.04-.45-.12-.78-.5-1.53-.86-2.24-1.08-.71-.22-1.34-.33-1.9-.33-.9,0-1.61,.25-2.13,.74-.52,.49-.78,1.12-.78,1.88s.29,1.42,.85,1.93c.57,.51,1.49,1.03,2.75,1.54,.18,.06,.87,.34,2.05,.83,1.19,.49,2.13,1.21,2.83,2.15,.7,.94,1.05,2.05,1.05,3.33s-.3,2.34-.89,3.31c-.59,.97-1.42,1.72-2.47,2.26-1.06,.54-2.28,.81-3.66,.81-1.08,0-2.14-.18-3.19-.53Z" style="fill:#fff;"/><path d="M1715.26,813.45c-1.09-.63-1.96-1.49-2.59-2.57-.64-1.08-.96-2.25-.96-3.51v-3.93c0-1.26,.32-2.43,.96-3.51,.64-1.08,1.5-1.94,2.59-2.57s2.29-.95,3.58-.95,2.5,.32,3.58,.95,1.96,1.49,2.6,2.57c.64,1.08,.96,2.25,.96,3.51v3.93c0,1.26-.32,2.43-.96,3.51-.64,1.08-1.51,1.94-2.6,2.57s-2.29,.95-3.58,.95-2.5-.32-3.58-.95Zm6.09-3.57c.69-.69,1.03-1.52,1.03-2.5v-3.93c0-.98-.34-1.82-1.03-2.5s-1.53-1.04-2.51-1.04-1.81,.34-2.5,1.04-1.04,1.53-1.04,2.5v3.93c0,.98,.35,1.82,1.04,2.5s1.53,1.04,2.5,1.04,1.82-.34,2.51-1.04Z" style="fill:#fff;"/><path d="M1732.87,813.59c-.91-.54-1.62-1.29-2.15-2.25s-.78-2.04-.78-3.24v-10.65c0-.18,.06-.33,.18-.45s.27-.18,.45-.18h2.34c.18,0,.33,.06,.45,.18,.12,.12,.18,.27,.18,.45v10.2c0,1.06,.27,1.88,.81,2.44,.54,.57,1.3,.86,2.28,.86,1.18,0,2.12-.38,2.8-1.16,.69-.77,1.04-1.83,1.04-3.17v-9.18c0-.18,.06-.33,.18-.45,.12-.12,.27-.18,.45-.18h2.34c.18,0,.33,.06,.45,.18s.18,.27,.18,.45v15.93c0,.18-.06,.33-.18,.45s-.27,.18-.45,.18h-2.34c-.18,0-.33-.06-.45-.18-.12-.12-.18-.27-.18-.45v-1.41c-.56,.76-1.22,1.36-2,1.79-.77,.43-1.62,.65-2.53,.65-1.14,0-2.17-.27-3.08-.81Z" style="fill:#fff;"/><path d="M1748.3,813.83c-.12-.12-.18-.27-.18-.45v-2.22c0-.18,.06-.33,.18-.45s.27-.18,.45-.18h2.28v-10.32h-2.58c-.18,0-.33-.06-.45-.18s-.18-.27-.18-.45v-2.13c0-.18,.06-.33,.18-.45s.27-.18,.45-.18h4.65c.36,0,.67,.12,.92,.38s.38,.55,.38,.92v1.08l1.62-1.29c.6-.48,1.12-.82,1.56-1.01,.44-.19,.96-.28,1.56-.28h.93c.18,0,.33,.06,.45,.18s.18,.27,.18,.45v2.31c0,.18-.06,.33-.18,.45s-.27,.18-.45,.18h-.78c-.52,0-.97,.09-1.35,.27-.38,.18-.96,.58-1.74,1.2l-1.65,1.32v7.56h2.97c.18,0,.33,.06,.45,.18s.18,.27,.18,.45v2.22c0,.18-.06,.33-.18,.45s-.27,.18-.45,.18h-8.76c-.18,0-.33-.06-.45-.18Z" style="fill:#fff;"/><path d="M1766.46,813.44c-1.09-.64-1.96-1.51-2.59-2.61-.64-1.1-.96-2.3-.96-3.6v-3.63c0-1.3,.32-2.5,.96-3.6,.64-1.1,1.5-1.97,2.59-2.61,1.09-.64,2.29-.96,3.58-.96,1,0,1.96,.21,2.88,.62,.92,.41,1.71,.99,2.37,1.72,.14,.14,.21,.3,.21,.48,0,.22-.09,.42-.27,.6l-1.29,1.29c-.14,.14-.3,.21-.48,.21s-.35-.09-.51-.27c-.78-.78-1.75-1.17-2.91-1.17-.98,0-1.81,.34-2.5,1.04s-1.04,1.53-1.04,2.5v3.93c0,.98,.35,1.82,1.04,2.5s1.53,1.04,2.5,1.04c1.16,0,2.13-.39,2.91-1.17,.16-.18,.33-.27,.51-.27s.34,.07,.48,.21l1.29,1.29c.18,.18,.27,.38,.27,.6,0,.18-.07,.34-.21,.48-.66,.74-1.45,1.32-2.37,1.73-.92,.41-1.88,.62-2.88,.62-1.3,0-2.5-.32-3.58-.96Z" style="fill:#fff;"/><path d="M1781.83,813.05c-1.09-.64-1.96-1.51-2.59-2.61-.64-1.1-.96-2.3-.96-3.6v-3.24c0-1.3,.32-2.5,.96-3.6,.64-1.1,1.5-1.97,2.59-2.61,1.09-.64,2.29-.96,3.58-.96s2.5,.32,3.58,.96c1.09,.64,1.96,1.51,2.6,2.61,.64,1.1,.96,2.3,.96,3.6v2.01c0,.36-.12,.67-.38,.92-.25,.25-.56,.38-.92,.38h-9.39v.15c0,.98,.35,1.82,1.04,2.5s1.53,1.04,2.5,1.04h4.77c.18,0,.33,.06,.45,.18,.12,.12,.18,.27,.18,.45v2.16c0,.18-.06,.33-.18,.45s-.27,.18-.45,.18h-4.77c-1.3,0-2.5-.32-3.58-.96Zm7.12-9.39v-.27c0-.98-.34-1.81-1.03-2.5-.69-.69-1.53-1.04-2.51-1.04s-1.81,.35-2.5,1.04c-.69,.69-1.04,1.53-1.04,2.5v.27h7.08Z" style="fill:#fff;"/><path d="M1649.11,853.88c-1.3-1.6-2.4-3.54-3.29-5.8s-1.33-4.82-1.33-7.63,.45-5.37,1.33-7.64c.89-2.27,1.99-4.2,3.29-5.8,.16-.22,.37-.33,.63-.33,.18,0,.37,.08,.57,.24l.96,.78c.16,.12,.24,.29,.24,.51,0,.1-.03,.21-.09,.33-1,1.5-1.85,3.25-2.54,5.26-.69,2.01-1.04,4.23-1.04,6.65s.35,4.71,1.07,6.76c.71,2.05,1.58,3.83,2.62,5.35,.02,.02,.03,.07,.03,.15,0,.16-.1,.32-.3,.48l-.96,.78c-.2,.16-.39,.24-.57,.24-.26,0-.47-.11-.63-.33Z" style="fill:#fff;"/><path d="M1657.73,849.05c-1.09-.64-1.96-1.51-2.59-2.61-.64-1.1-.96-2.3-.96-3.6v-3.24c0-1.3,.32-2.5,.96-3.6,.64-1.1,1.5-1.97,2.59-2.61,1.09-.64,2.29-.96,3.58-.96s2.5,.32,3.58,.96c1.09,.64,1.96,1.51,2.6,2.61,.64,1.1,.96,2.3,.96,3.6v2.01c0,.36-.12,.67-.38,.92-.25,.25-.56,.38-.92,.38h-9.39v.15c0,.98,.35,1.82,1.04,2.5s1.53,1.04,2.5,1.04h4.77c.18,0,.33,.06,.45,.18,.12,.12,.18,.27,.18,.45v2.16c0,.18-.06,.33-.18,.45s-.27,.18-.45,.18h-4.77c-1.3,0-2.5-.32-3.58-.96Zm7.12-9.39v-.27c0-.98-.34-1.81-1.03-2.5-.69-.69-1.53-1.04-2.51-1.04s-1.81,.35-2.5,1.04c-.69,.69-1.04,1.53-1.04,2.5v.27h7.08Z" style="fill:#fff;"/><path d="M1671.86,850.01c-.49-.48-.74-1.07-.74-1.77s.25-1.29,.74-1.77c.49-.48,1.08-.72,1.79-.72s1.26,.25,1.74,.74c.48,.49,.72,1.08,.72,1.75s-.24,1.26-.72,1.75c-.48,.49-1.06,.74-1.74,.74s-1.29-.24-1.79-.72Z" style="fill:#fff;"/><path d="M1681.31,855.15c-1.19-.71-1.79-1.82-1.79-3.32,0-1.1,.38-2.05,1.14-2.85-.72-.58-1.08-1.38-1.08-2.4,0-.68,.17-1.32,.5-1.93,.33-.61,.78-1.13,1.36-1.58-.64-.54-1.13-1.2-1.48-1.96-.35-.77-.53-1.62-.53-2.54,0-1.22,.29-2.3,.88-3.24,.59-.94,1.39-1.67,2.4-2.17,1.01-.51,2.12-.76,3.34-.76,.88,0,1.72,.14,2.52,.42h5.91c.18,0,.33,.06,.45,.18s.18,.27,.18,.45v1.98c0,.18-.06,.33-.18,.45s-.27,.18-.45,.18h-2.34c.34,.78,.51,1.62,.51,2.52,0,1.2-.3,2.26-.89,3.2-.59,.93-1.38,1.65-2.38,2.16-1,.51-2.11,.77-3.33,.77-.92,0-1.83-.16-2.73-.48-.42,.42-.63,.86-.63,1.32,0,.4,.15,.67,.45,.83,.3,.15,.74,.25,1.32,.29,.8,.04,1.61,.06,2.43,.06l1.35,.03c1.68,.04,3.04,.34,4.09,.9,1.05,.56,1.58,1.62,1.58,3.18,0,1.8-.73,3.15-2.17,4.05-1.45,.9-3.34,1.35-5.66,1.35-2,0-3.6-.36-4.79-1.06Zm8.96-3.89c0-.52-.2-.86-.58-1.02s-.94-.24-1.63-.24h-2.94c-.74,0-1.35-.03-1.83-.09-.22,.36-.33,.78-.33,1.26,0,.76,.29,1.28,.89,1.54,.59,.27,1.43,.41,2.53,.41,2.6,0,3.9-.62,3.9-1.86Zm-1.98-10.53c.54-.54,.81-1.26,.81-2.16s-.27-1.63-.81-2.19c-.54-.56-1.28-.84-2.22-.84s-1.68,.28-2.23,.84c-.55,.56-.83,1.29-.83,2.19s.27,1.62,.83,2.16c.55,.54,1.29,.81,2.23,.81s1.68-.27,2.22-.81Z" style="fill:#fff;"/><path d="M1697.96,850.01c-.49-.48-.74-1.07-.74-1.77s.25-1.29,.74-1.77c.49-.48,1.08-.72,1.79-.72s1.26,.25,1.74,.74c.48,.49,.72,1.08,.72,1.75s-.24,1.26-.72,1.75c-.48,.49-1.06,.74-1.74,.74s-1.29-.24-1.79-.72Z" style="fill:#fff;"/><path d="M1717.04,849.33c-1.19-.71-2.13-1.67-2.83-2.88s-1.05-2.54-1.05-3.97v-6.39c0-1.44,.35-2.76,1.05-3.97s1.64-2.17,2.83-2.88c1.19-.71,2.49-1.07,3.88-1.07,1.22,0,2.36,.22,3.42,.67,1.06,.45,1.96,1.11,2.7,1.96,.12,.14,.18,.31,.18,.51s-.08,.4-.24,.6l-1.32,1.38c-.16,.16-.32,.24-.48,.24-.2,0-.38-.09-.54-.27-.96-1.06-2.19-1.59-3.69-1.59-.74,0-1.42,.2-2.05,.6s-1.14,.94-1.52,1.62-.57,1.41-.57,2.19v6.39c0,.78,.19,1.51,.57,2.19,.38,.68,.89,1.22,1.52,1.62,.63,.4,1.31,.6,2.05,.6,1.5,0,2.73-.53,3.69-1.59,.16-.18,.33-.27,.51-.27s.35,.08,.51,.24l1.32,1.38c.18,.18,.27,.38,.27,.6,0,.16-.06,.32-.18,.48-.76,.86-1.67,1.52-2.73,1.98-1.06,.46-2.2,.69-3.42,.69-1.4,0-2.7-.36-3.88-1.07Z" style="fill:#fff;"/><path d="M1731.27,849.83c-.12-.12-.18-.27-.18-.45v-19.53c0-.36,.12-.66,.38-.92,.25-.25,.55-.38,.92-.38h5.61c1.22,0,2.34,.29,3.36,.87,1.02,.58,1.83,1.37,2.43,2.37,.6,1,.9,2.09,.9,3.27,0,1.44-.43,2.72-1.29,3.85-.86,1.13-1.98,1.91-3.36,2.33l4.98,7.71c.08,.14,.12,.28,.12,.42,0,.18-.07,.33-.2,.45s-.29,.18-.49,.18h-2.46c-.34,0-.6-.14-.78-.42l-4.98-8.01h-1.47v7.8c0,.18-.06,.33-.18,.45s-.27,.18-.45,.18h-2.4c-.18,0-.33-.06-.45-.18Zm6.54-11.7c.92,0,1.67-.29,2.27-.85,.59-.57,.88-1.29,.88-2.18s-.29-1.64-.88-2.22c-.59-.58-1.35-.87-2.27-.87h-3.06v6.12h3.06Z" style="fill:#fff;"/><path d="M1758.65,850.01c-.17-.12-.29-.28-.35-.48l-3.96-12.12-.75-2.7-.3,2.79-1.29,11.76c-.04,.22-.14,.4-.3,.54-.16,.14-.34,.21-.54,.21h-2.25c-.22,0-.39-.07-.51-.21-.12-.14-.17-.32-.15-.54l2.49-19.89c.02-.26,.12-.47,.31-.65,.19-.17,.42-.25,.71-.25h2.73c.22,0,.42,.07,.58,.2s.29,.29,.34,.5l4.5,13.83,.6,2.07,.6-2.04,4.53-13.89c.06-.2,.17-.36,.34-.48,.17-.12,.36-.18,.58-.18h2.49c.28,0,.51,.09,.71,.25,.19,.17,.29,.39,.31,.65l2.49,19.89c.02,.22-.03,.4-.15,.54-.12,.14-.29,.21-.51,.21h-2.34c-.22,0-.41-.07-.57-.21-.16-.14-.25-.31-.27-.51l-1.35-12-.3-2.58-.78,2.82-3.87,11.97c-.06,.2-.18,.37-.35,.5s-.37,.2-.58,.2h-2.28c-.22,0-.42-.06-.58-.18Z" style="fill:#fff;"/><path d="M1775.91,853.28c-.12-.16-.15-.34-.09-.54l1.71-5.85c.04-.16,.13-.29,.27-.4,.14-.11,.3-.17,.48-.17h2.97c.2,0,.36,.06,.48,.18s.18,.26,.18,.42c0,.14-.03,.27-.09,.39l-3.48,6.21h-1.92c-.22,0-.39-.08-.51-.24Z" style="fill:#fff;"/><path d="M1793.36,849.63c-.25-.25-.38-.55-.38-.92v-18.87c0-.36,.12-.66,.38-.92,.25-.25,.55-.38,.92-.38h10.23c.18,0,.33,.06,.45,.18,.12,.12,.18,.27,.18,.45v2.25c0,.18-.06,.33-.18,.45-.12,.12-.27,.18-.45,.18h-7.86v5.1h5.85c.18,0,.33,.06,.45,.18,.12,.12,.18,.27,.18,.45v2.13c0,.18-.06,.33-.18,.45s-.27,.18-.45,.18h-5.85v5.94h7.86c.18,0,.33,.06,.45,.18,.12,.12,.18,.27,.18,.45v2.25c0,.18-.06,.33-.18,.45-.12,.12-.27,.18-.45,.18h-10.23c-.36,0-.67-.12-.92-.38Z" style="fill:#fff;"/><path d="M1809.45,849.83c-.12-.12-.18-.27-.18-.45v-19.53c0-.36,.12-.66,.38-.92,.25-.25,.55-.38,.92-.38h5.61c1.22,0,2.34,.29,3.36,.87,1.02,.58,1.83,1.37,2.43,2.37,.6,1,.9,2.09,.9,3.27,0,1.44-.43,2.72-1.29,3.85-.86,1.13-1.98,1.91-3.36,2.33l4.98,7.71c.08,.14,.12,.28,.12,.42,0,.18-.07,.33-.2,.45s-.29,.18-.49,.18h-2.46c-.34,0-.6-.14-.78-.42l-4.98-8.01h-1.47v7.8c0,.18-.06,.33-.18,.45s-.27,.18-.45,.18h-2.4c-.18,0-.33-.06-.45-.18Zm6.54-11.7c.92,0,1.67-.29,2.27-.85,.59-.57,.88-1.29,.88-2.18s-.29-1.64-.88-2.22c-.59-.58-1.35-.87-2.27-.87h-3.06v6.12h3.06Z" style="fill:#fff;"/><path d="M1827.24,849.83c-.12-.12-.18-.27-.18-.45v-19.53c0-.36,.12-.66,.38-.92,.25-.25,.55-.38,.92-.38h5.34c1.26,0,2.42,.31,3.5,.93s1.92,1.46,2.55,2.52c.63,1.06,.95,2.21,.95,3.45s-.32,2.42-.95,3.48c-.63,1.06-1.48,1.9-2.55,2.52s-2.23,.93-3.5,.93h-2.97v6.99c0,.18-.06,.33-.18,.45s-.27,.18-.45,.18h-2.4c-.18,0-.33-.06-.45-.18Zm6.3-10.89c.96,0,1.78-.34,2.46-1.02s1.02-1.5,1.02-2.46-.34-1.75-1.02-2.43c-.68-.68-1.5-1.02-2.46-1.02h-2.82v6.93h2.82Z" style="fill:#fff;"/><path d="M1844.76,853.97l-.96-.78c-.3-.26-.39-.47-.27-.63,1.04-1.52,1.92-3.3,2.62-5.35s1.06-4.3,1.06-6.76-.34-4.64-1.03-6.65c-.69-2.01-1.54-3.76-2.54-5.26-.06-.12-.09-.23-.09-.33,0-.22,.08-.39,.24-.51l.96-.78c.2-.16,.39-.24,.57-.24,.26,0,.47,.11,.63,.33,1.3,1.6,2.4,3.54,3.29,5.8,.89,2.27,1.33,4.82,1.33,7.64s-.45,5.37-1.33,7.63-1.99,4.2-3.29,5.8c-.16,.22-.37,.33-.63,.33-.18,0-.37-.08-.57-.24Z" style="fill:#fff;"/></g><text transform="translate(605.58 871.08)" style="fill:#fff; font-family:MiriamLibre-Bold, &apos;Miriam Libre&apos;; font-size:30px; font-weight:700;"><tspan x="0" y="0" style="letter-spacing:.01em;">A</tspan><tspan x="19.47" y="0" style="letter-spacing:0em;">z</tspan><tspan x="34.92" y="0">u</tspan><tspan x="53.46" y="0" style="letter-spacing:0em;">r</tspan><tspan x="68.16" y="0">e App </tspan><tspan x="156.66" y="0" style="letter-spacing:0em;">S</tspan><tspan x="173.16" y="0" style="letter-spacing:0em;">e</tspan><tspan x="190.56" y="0" style="letter-spacing:.03em;">r</tspan><tspan x="206.61" y="0" style="letter-spacing:.02em;">v</tspan><tspan x="224.19" y="0" style="letter-spacing:-.01em;">i</tspan><tspan x="235.77" y="0" style="letter-spacing:-.01em;">c</tspan><tspan x="251.13" y="0">e</tspan></text><text transform="translate(1187.25 608.08)" style="fill:#fff; font-family:MiriamLibre-Bold, &apos;Miriam Libre&apos;; font-size:30px; font-weight:700;"><tspan x="0" y="0">E</tspan><tspan x="16.29" y="0" style="letter-spacing:-.02em;">x</tspan><tspan x="32.79" y="0">chan</tspan><tspan x="102.87" y="0" style="letter-spacing:0em;">g</tspan><tspan x="120.66" y="0">e</tspan></text><text transform="translate(23.83 871.08)" style="fill:#fff; font-family:MiriamLibre-Bold, &apos;Miriam Libre&apos;; font-size:30px; font-weight:700;"><tspan x="0" y="0" style="letter-spacing:.01em;">C</tspan><tspan x="17.79" y="0" style="letter-spacing:0em;">l</tspan><tspan x="29.19" y="0" style="letter-spacing:0em;">i</tspan><tspan x="40.77" y="0">e</tspan><tspan x="58.32" y="0" style="letter-spacing:0em;">n</tspan><tspan x="76.68" y="0">t | App in </tspan><tspan x="218.01" y="0" style="letter-spacing:-.06em;">T</tspan><tspan x="233.64" y="0" style="letter-spacing:0em;">e</tspan><tspan x="250.89" y="0">ams</tspan></text><text transform="translate(1173.75 881.15)" style="fill:#fff; font-family:MiriamLibre-Bold, &apos;Miriam Libre&apos;; font-size:30px; font-weight:700;"><tspan x="0" y="0">Sh</tspan><tspan x="34.89" y="0" style="letter-spacing:0em;">a</tspan><tspan x="51.99" y="0" style="letter-spacing:0em;">r</tspan><tspan x="66.69" y="0" style="letter-spacing:0em;">ep</tspan><tspan x="102.96" y="0" style="letter-spacing:0em;">o</tspan><tspan x="120.42" y="0">i</tspan><tspan x="132.3" y="0" style="letter-spacing:0em;">n</tspan><tspan x="150.66" y="0">t</tspan></text><path d="M1265.96,448.38s-.09,.04-.13,.06l-56.88,10.73c-.97,.18-1.67,1.04-1.65,2.03v75.74c-.02,.99,.68,1.85,1.65,2.03l56.88,10.92c.59,.11,1.2-.04,1.67-.42,.46-.38,.74-.94,.75-1.55v-18.28h38.6c1.12,0,2.03-.91,2.03-2.03v-56.88c0-1.12-.91-2.03-2.03-2.03h-38.6v-18.28c0-.59-.25-1.14-.68-1.53-.44-.39-1.02-.57-1.6-.5Zm-1.78,4.44v17.27c-.12,.4-.12,.81,0,1.21v55.93c-.06,.27-.06,.56,0,.83v17.46l-52.82-10.22v-72.44l52.82-10.03Zm4.06,19.93h36.57v52.82h-36.57v-6.09h3.24c1.42-.21,13-15.02,11.17-16.44-1.42-1.42-6.3,6.46-12.19,10.73h-2.22v-13.59c3.14,2.1,6.06,3.52,6.73,2.86,1.04-1.04-2.82-3.71-6.73-7.36v-11.11h3.43l2.29,2.03c.4,.4,.8,.4,1.21,0l1.59-1.65c.4-.4,.4-.8,0-1.21l-4.63-4.7c-.21-.21-.62-.38-.83-.38h-3.05v-5.9Zm-21.97,5.71l-18.47,2.03v36.76l19.11,1.84v-7.55l-12-.57v-8.76l10.6,.19v-7.3l-10.6,.19v-8.51l11.36-.83v-7.49Zm38.85,.38c-1.42,.21-12.8,15.02-11.17,16.44,1.42,1.42,6.3-6.46,12.19-10.73h6.67v7.68l-2.03,2.03c-.4,.4-.4,.8,0,1.21l1.65,1.65c.4,.4,.8,.4,1.21,0l4.7-4.7c.21-.21,.38-.56,.38-.76v-11.43c0-.81-.6-1.4-1.21-1.4h-12.38Zm-2.79,16.32c-.2,0-.4,.02-.51,.13-1.42,1.42,6.71,6.11,10.98,12v6.48h-7.68l-2.29-2.03c-.4-.4-.8-.4-1.21,0l-1.59,1.65c-.4,.4-.4,.8,0,1.21l4.63,4.7c.21,.21,.62,.38,.83,.38h11.81c.61,0,1.21-.6,1.21-1.21v-12c0-1.52-13.2-11.4-16.19-11.3Z" style="fill:#fafbfc;"/><g><path d="M1262.76,783.68c-11.96,0-21.66,9.7-21.66,21.66s9.7,21.66,21.66,21.66,21.66-9.7,21.66-21.66-9.7-21.66-21.66-21.66Z" style="fill:none; stroke:#fff; stroke-miterlimit:10; stroke-width:5.67px;"/><g><g><line x1="1262.76" y1="779.18" x2="1262.76" y2="767.5" style="fill:none; stroke:#fff; stroke-miterlimit:10; stroke-width:5.67px;"/><path d="M1288.48,808.05c15.7,0,28.43-12.73,28.43-28.43,0-14.33-10.6-26.17-24.38-28.14" style="fill:none; stroke:#fff; stroke-miterlimit:10; stroke-width:5.67px;"/><path d="M1288.48,751.18c1.38,0,2.73,.1,4.05,.29" style="fill:none; stroke:#fff; stroke-miterlimit:10; stroke-width:5.67px;"/><path d="M1228.01,745.77h29.33c2.99,0,5.42,2.42,5.42,5.42v16.32" style="fill:none; stroke:#fff; stroke-miterlimit:10; stroke-width:5.67px;"/><path d="M1292.34,747.48c-1.84-16.2-15.59-28.79-32.29-28.79-14.83,0-27.34,9.94-31.23,23.52" style="fill:none; stroke:#fff; stroke-miterlimit:10; stroke-width:5.67px;"/><path d="M1288.48,751.18c-9.11,0-16.31,3.18-21.51,9.84" style="fill:none; stroke:#fff; stroke-miterlimit:10; stroke-width:5.67px;"/></g><path d="M1228.01,745.77h-14c-2.99,0-5.42,2.42-5.42,5.42v43.33c0,2.99,2.42,5.42,5.42,5.42h22.71" style="fill:none; stroke:#fff; stroke-miterlimit:10; stroke-width:5.67px;"/></g><path d="M1226.02,785.71v-6.22c1.15,.95,6.47,2.84,7.85,2.84,.81,0,5.79,.24,5.79-2.82,0-4.42-13.76-4.05-13.76-12.8,0-1.45,.18-8.28,11.19-8.28,2.82,0,6.15,.71,7.12,1.07v5.81c-.48-.32-2.41-1.94-6.76-1.94-5.08,0-5.52,2.39-5.52,2.82,0,3.68,13.53,4.18,13.53,12.76s-9.79,8.32-11.31,8.32c-1.56,0-7.1-1.04-8.13-1.56Z" style="fill:#fff; stroke:#fff; stroke-miterlimit:10; stroke-width:2.83px;"/></g><path d="M1267.29,167.54l-34.95,74.36-24.55-.27,27.41-47.17,32.09-26.92m3.77,5.87l44.42,77.7h-82.17l50.08-8.94-26.22-31.18,13.89-37.59Z" style="fill:#fff;"/><path d="M984.43,694.52l77.44,95.92m-13.75-9.79" style="fill:none; stroke:#f5c663; stroke-linecap:round; stroke-linejoin:round; stroke-width:5.67px;"/><g><g><path d="M192.09,425.9H90.63c-8.82,0-15.97,7.15-15.97,15.97v111.8c0,8.82,7.15,15.97,15.97,15.97H242.36c8.82,0,15.97-7.15,15.97-15.97v-59.63" style="fill:none; stroke:#fff; stroke-linecap:round; stroke-linejoin:round; stroke-width:5.1px;"/><path d="M74.66,462.64h123.96" style="fill:none; stroke:#fff; stroke-linecap:round; stroke-linejoin:round; stroke-width:5.1px;"/><path d="M102.61,447.86c-1.1,0-2-.89-2-2s.89-2,2-2" style="fill:none; stroke:#fff; stroke-miterlimit:66.67; stroke-width:5.1px;"/><path d="M102.61,447.86c1.1,0,2-.89,2-2s-.89-2-2-2" style="fill:none; stroke:#fff; stroke-miterlimit:66.67; stroke-width:5.1px;"/><g><path d="M126.56,447.86c-1.1,0-2-.89-2-2s.89-2,2-2" style="fill:none; stroke:#fff; stroke-miterlimit:66.67; stroke-width:5.1px;"/><path d="M126.56,447.86c1.1,0,2-.89,2-2s-.89-2-2-2" style="fill:none; stroke:#fff; stroke-miterlimit:66.67; stroke-width:5.1px;"/></g><g><path d="M150.52,447.86c-1.1,0-2-.89-2-2s.89-2,2-2" style="fill:none; stroke:#fff; stroke-miterlimit:66.67; stroke-width:5.1px;"/><path d="M150.52,447.86c1.1,0,2-.89,2-2s-.89-2-2-2" style="fill:none; stroke:#fff; stroke-miterlimit:66.67; stroke-width:5.1px;"/></g></g><path d="M270.57,430.83c-.99,0-1.91-.18-2.77-.55-.84-.37-1.58-.87-2.23-1.52-.65-.65-1.15-1.39-1.52-2.23-.37-.86-.55-1.79-.55-2.77s.18-1.88,.55-2.74c.37-.86,.87-1.6,1.52-2.23,.65-.65,1.39-1.15,2.23-1.52,.86-.39,1.79-.57,2.77-.55,.97-.02,1.88,.16,2.74,.55,.86,.37,1.61,.87,2.26,1.52,.62,.62,1.13,1.37,1.52,2.23,.37,.86,.55,1.77,.55,2.74s-.18,1.91-.55,2.77c-.37,.84-.87,1.58-1.52,2.23-.65,.65-1.4,1.15-2.26,1.52-.86,.37-1.77,.55-2.74,.55m0-10.07c-.84,0-1.58,.29-2.23,.87-.54,.58-.81,1.29-.81,2.13s.27,1.56,.81,2.16c.65,.54,1.39,.81,2.23,.81s1.55-.27,2.13-.81c.6-.54,.9-1.26,.9-2.16,0-.84-.3-1.55-.9-2.13-.58-.58-1.29-.87-2.13-.87m9.07,15.1v15.07c0,1.36-.26,2.65-.77,3.87-.56,1.23-1.28,2.29-2.16,3.19-.92,.92-2,1.65-3.23,2.16-1.27,.54-2.57,.81-3.9,.81-.82,0-1.63-.12-2.45-.35-.84-.15-1.6-.42-2.29-.81-.52,1.7-1.28,3.25-2.29,4.65-1.01,1.4-2.19,2.59-3.55,3.58-1.36,.99-2.85,1.74-4.48,2.26-1.63,.58-3.33,.87-5.1,.87-2.06,0-4.01-.35-5.84-1.06-1.76-.71-3.38-1.72-4.84-3.03-1.42-1.23-2.59-2.69-3.52-4.39-.95-1.72-1.56-3.59-1.84-5.61h-15.58c-.71,0-1.34-.27-1.9-.81-.52-.52-.77-1.14-.77-1.87v-26.91c0-.73,.26-1.37,.77-1.9,.56-.52,1.19-.77,1.9-.77h23.13c-.62-1.29-.94-2.63-.94-4.03,0-1.31,.25-2.55,.74-3.71,.47-1.08,1.14-2.06,2-2.97,.86-.84,1.87-1.51,3.03-2,1.08-.49,2.28-.74,3.61-.74,1.31,0,2.54,.25,3.68,.74s2.14,1.16,3,2c.86,.9,1.53,1.89,2,2.97,.49,1.16,.74,2.4,.74,3.71s-.25,2.52-.74,3.68c-.47,1.14-1.14,2.13-2,2.97-.86,.86-1.86,1.54-3,2.03-1.14,.49-2.37,.74-3.68,.74-.32,0-.66-.02-1-.06-.32-.04-.66-.1-1-.16v2.9h29.23c.84,0,1.56,.29,2.16,.87,.58,.58,.87,1.29,.87,2.13m-30.23-20.42c-.75,0-1.43,.12-2.03,.35-.71,.28-1.31,.67-1.81,1.16-.47,.49-.85,1.06-1.13,1.71-.28,.67-.42,1.37-.42,2.1s.14,1.45,.42,2.1c.28,.65,.66,1.22,1.13,1.71,.49,.47,1.1,.86,1.81,1.16,.6,.28,1.28,.42,2.03,.42s1.42-.14,2.06-.42c.65-.3,1.22-.69,1.71-1.16,.49-.49,.88-1.06,1.16-1.71,.3-.65,.45-1.34,.45-2.1s-.15-1.43-.45-2.1c-.28-.65-.67-1.22-1.16-1.71-.49-.49-1.06-.88-1.71-1.16-.65-.24-1.33-.35-2.06-.35m-15.65,19.94h6.07v-5.03h-17.16v5.03h6.07v16.13h5.03m27.75,3.52v-18.13h-14.13v17.49c0,.73-.26,1.36-.77,1.87-.56,.54-1.19,.81-1.9,.81h-7.26c.28,1.44,.79,2.79,1.52,4.03,.73,1.23,1.61,2.29,2.65,3.19,1.03,.88,2.22,1.58,3.55,2.1,1.31,.45,2.73,.68,4.26,.68,1.66,0,3.22-.29,4.68-.87,1.46-.65,2.75-1.52,3.87-2.61,1.1-1.1,1.96-2.38,2.58-3.84,.65-1.46,.97-3.03,.97-4.71m14.1-4.1v-14.03h-10.07v18.42c.54,.54,1.15,.95,1.84,1.23,.65,.26,1.38,.39,2.19,.39s1.62-.16,2.36-.48,1.37-.75,1.9-1.29c.56-.54,.99-1.18,1.29-1.94,.32-.73,.48-1.49,.48-2.29Z" style="fill:#fff;"/><g id="UC-UC-Free"><g><path d="M211.42,531.51v-.61c0-.61-.2-1.04-.61-1.47l-3.17-3.35c-.43-.43-.84-.61-1.27-.61s-.84,.2-1.27,.61c-2.31,2.51-5.45,3.78-9.03,3.78-1.88,0-3.57-.41-5.04-1.47s-2.74-2.31-3.78-4c-.84-1.65-1.47-3.35-1.47-5.23v-15.64c.02-1.86,.45-3.51,1.47-5.15,.47-.67,.96-1.33,1.49-1.96,.71-.76,1.47-1.43,2.29-2.02,1.47-1.04,3.14-1.47,5.04-1.47,3.8,0,6.72,1.49,9.03,4,.43,.43,.84,.61,1.27,.61s.84-.22,1.04-.43l.16-.18s.04-.02,.04-.02l3.14-3.35c.43-.43,.61-1.04,.61-1.47s-.22-.84-.43-1.27c-1.88-2.1-4-3.8-6.49-4.84-2.51-1.06-5.45-1.69-8.39-1.69-3.37,0-6.51,.82-9.45,2.51-2.31,1.31-4.21,3.04-5.74,5.23-.51,.67-.98,1.37-1.39,2.1-1.65,2.92-2.51,6.09-2.51,9.66v15.54c0,3.35,.82,6.72,2.51,9.66,1.69,2.94,4,5.25,6.92,7.15,2.31,1.27,3.96,1.63,6.47,2.06h0l18.4-6.51c.06-.02,.1-.06,.14-.16h0Z" style="fill:#fff;"/><path d="M172.58,485.56h-6.09c-.43,0-.82,.22-1.04,.43s-.43,.61-.43,1.04v31.26c0,3.35-1.04,6.27-2.92,8.39-1.86,2.06-4.35,3.1-7.45,3.12-3.1-.02-5.6-1.06-7.45-3.12-1.88-2.08-2.92-5.04-2.92-8.39v-31.26c0-.43-.22-.84-.43-1.04-.2-.22-.61-.43-1.04-.43h-6.09c-.43,0-.84,.22-1.04,.43-.22,.2-.43,.61-.43,1.04v30.84c0,3.96,.82,7.54,2.51,10.7,1.69,3.14,4,5.66,6.92,7.35,2.92,1.88,6.31,2.74,10.07,2.74,3.55,0,6.92-.84,9.84-2.74,2.92-1.69,5.23-4.19,6.92-7.35,1.65-3.14,2.51-6.7,2.51-10.7v-30.84c0-.43-.22-.84-.43-1.04-.18-.43-.59-.43-1.02-.43h0Z" style="fill:#fff;"/><path d="M212.03,475.52h0l-87.5-15.74,14.89,99.04,53.46-20.6h0c-2.51-.43-4.17-.8-6.47-2.06-2.92-1.88-5.23-4.19-6.92-7.15-1.69-2.92-2.51-6.31-2.51-9.66v-15.5c0-3.57,.84-6.72,2.51-9.66,.43-.74,.88-1.45,1.39-2.1,1.53-2.21,3.43-3.92,5.74-5.23,2.92-1.69,6.09-2.51,9.45-2.51,2.92,0,5.88,.61,8.39,1.69,2.51,1.04,4.62,2.74,6.49,4.84,.2,.43,.43,.84,.43,1.27s-.2,1.04-.61,1.47l-3.14,3.35s-.02,0-.04,.02l-.16,.18c-.2,.2-.61,.43-1.04,.43s-.84-.2-1.27-.61c-2.31-2.51-5.23-4-9.03-4-1.88,0-3.57,.43-5.04,1.47-.82,.59-1.57,1.27-2.29,2.02-.53,.61-1.02,1.29-1.49,1.96-1.02,1.63-1.45,3.29-1.47,5.15v15.64c0,1.88,.61,3.57,1.47,5.23,1.04,1.69,2.31,2.92,3.78,4,1.47,1.06,3.14,1.47,5.04,1.47,3.57,0,6.72-1.27,9.03-3.78,.43-.43,.84-.61,1.27-.61s.84,.2,1.27,.61l3.14,3.35c.43,.43,.61,.84,.61,1.47v.61c-.02,.08-.08,.14-.12,.18l.49-.16h0l14.95-5.66-14.68-50.42h0Zm-76.76,42.37v-30.84c0-.43,.2-.84,.43-1.04,.2-.2,.61-.43,1.04-.43h6.09c.43,0,.84,.2,1.04,.43,.2,.2,.43,.61,.43,1.04v31.26c0,3.35,1.04,6.31,2.92,8.39,1.86,2.06,4.35,3.1,7.45,3.12,3.1-.02,5.6-1.06,7.45-3.12,1.88-2.1,2.92-5.04,2.92-8.39v-31.26c0-.43,.2-.84,.43-1.04s.61-.43,1.04-.43h6.09c.43,0,.84,0,1.04,.43,.2,.2,.43,.61,.43,1.04v30.84c0,4-.84,7.54-2.51,10.7-1.69,3.14-4,5.66-6.92,7.35-2.92,1.88-6.31,2.74-9.84,2.74-3.78,0-7.15-.84-10.07-2.74-2.92-1.69-5.23-4.19-6.92-7.35-1.72-3.17-2.53-6.74-2.53-10.7Z" style="fill:#008087;"/></g><rect x="175.31" y="459.81" width="50.72" height="23.38" style="fill:#5cbbff;"/><path d="M182.45,478.91c-.06-.06-.08-.12-.08-.21v-13.3c0-.21,.07-.38,.22-.53s.32-.22,.53-.22h3.47c.82,0,1.58,.2,2.27,.6s1.23,.94,1.63,1.61c.4,.67,.6,1.42,.6,2.23s-.2,1.55-.6,2.23c-.4,.67-.94,1.21-1.63,1.61-.69,.4-1.44,.6-2.27,.6h-2.52v5.18c0,.08-.03,.15-.08,.21-.06,.06-.12,.08-.21,.08h-1.11c-.08,0-.15-.03-.21-.08h0Zm4.02-6.97c.52,0,1-.13,1.44-.38s.79-.6,1.04-1.04c.26-.44,.38-.91,.38-1.42s-.13-.98-.38-1.42c-.26-.44-.6-.79-1.04-1.04-.44-.26-.92-.38-1.44-.38h-2.41v5.69h2.41Z"/><path d="M195.56,478.91c-.06-.06-.08-.12-.08-.21v-13.3c0-.21,.07-.38,.22-.53s.32-.22,.53-.22h3.59c.77,0,1.47,.19,2.11,.56s1.15,.88,1.52,1.52c.37,.64,.56,1.34,.56,2.09,0,1-.32,1.88-.95,2.64-.63,.76-1.43,1.23-2.39,1.42l3.42,5.53c.04,.06,.06,.12,.06,.21,0,.11-.04,.2-.11,.27-.08,.07-.17,.1-.28,.1h-1.05c-.14,0-.24-.06-.31-.19l-3.61-5.84h-1.61v5.73c0,.08-.03,.15-.08,.21-.06,.06-.12,.08-.21,.08h-1.11c-.08,0-.15-.03-.21-.08h0Zm4.12-7.52c.74,0,1.36-.24,1.85-.72s.73-1.09,.73-1.82-.25-1.38-.73-1.87c-.49-.49-1.1-.73-1.85-.73h-2.52v5.14h2.52Z"/><path d="M211.23,478.58c-.78-.45-1.39-1.07-1.85-1.84s-.68-1.61-.68-2.52v-4.8c0-.91,.23-1.75,.68-2.52s1.07-1.38,1.85-1.84c.78-.45,1.62-.68,2.53-.68s1.75,.23,2.53,.68,1.39,1.07,1.85,1.84c.45,.77,.68,1.61,.68,2.52v4.8c0,.91-.23,1.75-.68,2.52s-1.07,1.38-1.85,1.84c-.78,.45-1.62,.68-2.53,.68s-1.75-.23-2.53-.68Zm4.21-1.38c.51-.32,.93-.74,1.23-1.27s.45-1.1,.45-1.7v-4.8c0-.6-.15-1.17-.45-1.7-.3-.53-.71-.95-1.23-1.27s-1.08-.47-1.68-.47-1.17,.16-1.68,.47c-.52,.32-.93,.74-1.23,1.27s-.45,1.1-.45,1.7v4.8c0,.6,.15,1.17,.45,1.7,.3,.53,.71,.95,1.23,1.27,.51,.32,1.08,.47,1.68,.47s1.17-.16,1.68-.47Z"/></g></g><rect x="462.22" y="1.65" width="1040" height="90.68" style="fill:#808e99;"/><text transform="translate(797.92 62.27)" style="fill:#fff;"><tspan x="0" y="0" style="font-family:MiriamLibre-Bold, &apos;Miriam Libre&apos;; font-size:45px; font-weight:700; letter-spacing:-.03em;">Y</tspan><tspan x="26.1" y="0" style="font-family:MiriamLibre-Bold, &apos;Miriam Libre&apos;; font-size:45px; font-weight:700; letter-spacing:0em;">O</tspan><tspan x="55.75" y="0" style="font-family:MiriamLibre-Bold, &apos;Miriam Libre&apos;; font-size:45px; font-weight:700;">UR </tspan><tspan x="124.74" y="0" style="font-family:MiriamLibre-Regular, &apos;Miriam Libre&apos;; font-size:35px; letter-spacing:.01em;">A</tspan><tspan x="146.51" y="0" style="font-family:MiriamLibre-Regular, &apos;Miriam Libre&apos;; font-size:35px; letter-spacing:0em;">z</tspan><tspan x="163.34" y="0" style="font-family:MiriamLibre-Regular, &apos;Miriam Libre&apos;; font-size:35px;">u</tspan><tspan x="184.13" y="0" style="font-family:MiriamLibre-Regular, &apos;Miriam Libre&apos;; font-size:35px; letter-spacing:-.01em;">r</tspan><tspan x="199.81" y="0" style="font-family:MiriamLibre-Regular, &apos;Miriam Libre&apos;; font-size:35px;">e </tspan><tspan x="228.76" y="0" style="font-family:MiriamLibre-Regular, &apos;Miriam Libre&apos;; font-size:35px; letter-spacing:-.06em;">T</tspan><tspan x="245.7" y="0" style="font-family:MiriamLibre-Regular, &apos;Miriam Libre&apos;; font-size:35px;">ena</tspan><tspan x="305.58" y="0" style="font-family:MiriamLibre-Regular, &apos;Miriam Libre&apos;; font-size:35px; letter-spacing:0em;">n</tspan><tspan x="326.2" y="0" style="font-family:MiriamLibre-Regular, &apos;Miriam Libre&apos;; font-size:35px;">t</tspan></text><path d="M813.48,408.54h0l-168.25-30.26,28.63,190.36,102.79-39.63h0c-4.83-.84-7.97-1.52-12.41-3.99-5.61-3.59-10.05-8.08-13.3-13.75-3.26-5.61-4.83-12.18-4.83-18.58v-29.81c0-6.9,1.63-12.91,4.83-18.58,.84-1.46,1.68-2.81,2.64-4.04,2.92-4.21,6.62-7.52,11-10.05,5.61-3.26,11.68-4.83,18.19-4.83,5.61,0,11.34,1.18,16.11,3.26,4.83,1.96,8.87,5.28,12.52,9.26,.39,.84,.84,1.63,.84,2.47s-.39,1.96-1.18,2.81l-6.06,6.4s-.06,0-.06,.06l-.34,.34c-.39,.39-1.18,.84-1.96,.84-.84,0-1.63-.39-2.47-1.18-4.49-4.72-10.1-7.58-17.4-7.58-3.59,0-6.9,.84-9.71,2.81-1.57,1.18-3.03,2.47-4.38,3.87-1.01,1.18-1.96,2.47-2.86,3.76-1.96,3.14-2.81,6.34-2.81,9.88v30.09c0,3.59,1.18,6.9,2.81,10.05,1.96,3.26,4.43,5.61,7.24,7.69,2.81,2.08,6.06,2.81,9.71,2.81,6.9,0,12.91-2.47,17.35-7.24,.84-.84,1.63-1.18,2.47-1.18s1.63,.39,2.47,1.18l6.06,6.4c.84,.84,1.18,1.63,1.18,2.81v1.18c-.06,.11-.11,.28-.22,.34l.95-.34h0l28.74-10.83-28.29-96.78Zm-147.59,81.46v-59.28c0-.84,.39-1.63,.84-1.96,.39-.39,1.18-.84,1.96-.84h11.68c.84,0,1.63,.39,1.96,.84,.39,.39,.84,1.18,.84,1.96v60.12c0,6.4,1.96,12.18,5.61,16.11,3.54,3.99,8.31,5.95,14.37,6.01,5.95-.06,10.72-2.08,14.37-6.01,3.59-4.04,5.61-9.71,5.61-16.11v-60.12c0-.84,.39-1.63,.84-1.96,.39-.39,1.18-.84,1.96-.84h11.68c.84,0,1.63,0,1.96,.84,.39,.39,.84,1.18,.84,1.96v59.28c0,7.69-1.63,14.48-4.83,20.55-3.26,6.06-7.69,10.83-13.3,14.15-5.61,3.59-12.18,5.28-18.92,5.28-7.24,0-13.75-1.63-19.31-5.28-5.61-3.26-10.05-8.08-13.3-14.15-3.31-6.06-4.88-12.97-4.88-20.55Z" style="fill:#fff;"/><text transform="translate(546.46 625.21)" style="fill:#fff; font-family:MiriamLibre-Regular, &apos;Miriam Libre&apos;; font-size:40px;"><tspan x="0" y="0" style="letter-spacing:0em;">Un</tspan><tspan x="51.4" y="0" style="letter-spacing:0em;">ifi</tspan><tspan x="97.6" y="0" style="letter-spacing:.01em;">ed</tspan><tspan x="144.28" y="0" style="letter-spacing:0em;">C</tspan><tspan x="166.32" y="0" style="letter-spacing:.01em;">o</tspan><tspan x="189.28" y="0" style="letter-spacing:0em;">nt</tspan><tspan x="231.16" y="0" style="letter-spacing:.02em;">a</tspan><tspan x="254.36" y="0" style="letter-spacing:0em;">cts </tspan><tspan x="322.96" y="0" style="letter-spacing:.02em;">P</tspan><tspan x="346.04" y="0" style="letter-spacing:0em;">r</tspan><tspan x="364.36" y="0" style="letter-spacing:0em;">o</tspan></text><g id="UC-UC-Free-2"><rect x="740.28" y="393.56" width="99.77" height="45.98" style="fill:#5cbbff;"/><path d="M754.34,431.11c-.11-.11-.17-.23-.17-.4v-26.18c0-.4,.11-.75,.4-1.03s.63-.4,1.03-.4h6.83c1.61,0,3.1,.4,4.48,1.15,1.38,.8,2.41,1.84,3.21,3.16,.8,1.32,1.15,2.81,1.15,4.36s-.4,3.04-1.15,4.36c-.8,1.32-1.84,2.35-3.21,3.16-1.38,.8-2.81,1.15-4.48,1.15h-4.94v10.16c0,.17-.06,.29-.17,.4s-.23,.17-.4,.17h-2.18c-.17,.11-.29,.06-.4-.06Zm7.86-13.66c1.03,0,1.95-.23,2.81-.75s1.55-1.21,2.07-2.07c.52-.86,.75-1.78,.75-2.81,0-.98-.23-1.95-.75-2.81-.52-.86-1.21-1.55-2.07-2.07s-1.84-.75-2.81-.75h-4.76v11.19h4.76v.06Z"/><path d="M780.12,431.11c-.11-.11-.17-.23-.17-.4v-26.18c0-.4,.11-.75,.4-1.03s.63-.4,1.03-.4h7.06c1.49,0,2.93,.34,4.13,1.09,1.26,.75,2.24,1.72,2.99,2.99s1.09,2.64,1.09,4.13c0,1.95-.63,3.73-1.84,5.17-1.26,1.49-2.81,2.41-4.71,2.81l6.72,10.85c.06,.11,.11,.23,.11,.4,0,.23-.06,.4-.23,.52-.17,.11-.34,.23-.57,.23h-2.07c-.29,0-.46-.11-.63-.34l-7.12-11.48h-3.16v11.25c0,.17-.06,.29-.17,.4s-.23,.17-.4,.17h-2.18c-.06,0-.17-.06-.29-.17Zm8.09-14.81c1.44,0,2.7-.46,3.62-1.44,.98-.92,1.44-2.12,1.44-3.56s-.46-2.7-1.44-3.67c-.98-.98-2.18-1.44-3.62-1.44h-4.94v10.1h4.94Z"/><path d="M810.95,430.48c-1.55-.92-2.76-2.07-3.62-3.62-.92-1.49-1.32-3.16-1.32-4.94v-9.47c0-1.78,.46-3.44,1.32-4.94,.92-1.49,2.12-2.7,3.62-3.62,1.55-.92,3.16-1.32,4.99-1.32s3.44,.46,4.99,1.32c1.55,.92,2.76,2.12,3.62,3.62,.92,1.49,1.32,3.16,1.32,4.94v9.47c0,1.78-.46,3.44-1.32,4.94-.92,1.49-2.12,2.7-3.62,3.62-1.55,.92-3.16,1.32-4.99,1.32s-3.5-.4-4.99-1.32Zm8.27-2.7c1.03-.63,1.84-1.44,2.41-2.47,.57-1.03,.92-2.18,.92-3.33v-9.47c0-1.21-.29-2.3-.92-3.33-.57-1.03-1.38-1.89-2.41-2.47-1.03-.63-2.12-.92-3.33-.92s-2.3,.29-3.33,.92-1.84,1.44-2.41,2.47-.92,2.18-.92,3.33v9.47c0,1.21,.29,2.3,.92,3.33,.57,1.03,1.38,1.89,2.41,2.47,1.03,.63,2.12,.92,3.33,.92s2.3-.29,3.33-.92Z"/></g><path d="M388.55,539.13h101m-101,0" style="fill:none; stroke:#f5c663; stroke-linecap:round; stroke-miterlimit:10; stroke-width:5.67px;"/><path d="M1452.85,808.05h101m-101,0" style="fill:none; stroke:#f5c663; stroke-linecap:round; stroke-miterlimit:10; stroke-width:5.67px;"/></svg>