<svg id="Ebene_3" data-name="Ebene 3" xmlns="http://www.w3.org/2000/svg" viewBox="0 0 191 64.75">
  <defs>
    <style>
      .cls-1{fill:#3f3f3f;}.cls-2{fill:#2687ce;}.cls-3{fill:#fff;}
    </style>
  </defs>
  <g id="Ebene_2" data-name="Ebene 2">
    <g id="Ebene_1-2" data-name="Ebene 1-2">
      <g id="Konnekt">
        <path class="cls-1" d="M47.22,46.17c-.12-.12-.12-.12-.12-.23V28.64a.31.31,0,0,1,.27-.35h1.47c.12,0,.23,0,.23.12s.12.11.12.23V36.3h.7l6.26-7.89a.63.63,0,0,1,.47-.23h1.62c.12,0,.24,0,.24.11s.11.12.11.23,0,.24-.11.24l-6.74,8.35,6.74,8.48c.11.11.11.11.11.23s0,.23-.11.23a.39.39,0,0,1-.24.12H56.62a.91.91,0,0,1-.47-.23L50,38.16h-.93v7.66c0,.12,0,.23-.11.23s-.12.12-.24.12H47.45C47.33,46.28,47.22,46.28,47.22,46.17Z"/>
        <path class="cls-1" d="M62.42,45.7a7.34,7.34,0,0,1-2.32-2.32,6.09,6.09,0,0,1-.93-3.13v-6a5.79,5.79,0,0,1,.93-3.13,7.34,7.34,0,0,1,2.32-2.32,6,6,0,0,1,6.27,0A7.34,7.34,0,0,1,71,31.08a6.09,6.09,0,0,1,.93,3.13v6A5.71,5.71,0,0,1,71,43.38a7.34,7.34,0,0,1-2.32,2.32A6,6,0,0,1,62.42,45.7ZM67.76,44a3.44,3.44,0,0,0,1.51-1.62,4.78,4.78,0,0,0,.58-2.09v-6a4.3,4.3,0,0,0-.58-2.09,4.64,4.64,0,0,0-1.51-1.51,3.9,3.9,0,0,0-4.18,0,3.61,3.61,0,0,0-1.51,1.63,4.78,4.78,0,0,0-.58,2.09v6a4.46,4.46,0,0,0,.58,2.09,5.12,5.12,0,0,0,1.51,1.63A3.66,3.66,0,0,0,67.76,44Z"/>
        <path class="cls-1" d="M74.84,46.17c-.11-.12-.11-.12-.11-.23V28.76a.54.54,0,0,1,.5-.58h1.59a.4.4,0,0,1,.34.11c.12.12.24.12.24.23L85.52,42.8V28.64a.31.31,0,0,1,.28-.35h1.35c.11,0,.23,0,.23.12s.12.11.12.23V45.82a.41.41,0,0,1-.34.46H85.52a.42.42,0,0,1-.35-.11c-.11-.12-.23-.12-.23-.23L76.82,31.66V45.94c0,.11,0,.23-.12.23s-.12.11-.23.11H75.19A.49.49,0,0,1,74.84,46.17Z"/>
        <path class="cls-1" d="M90.63,46.17c-.12-.12-.12-.12-.12-.23V28.76a.55.55,0,0,1,.51-.58H92.6a.41.41,0,0,1,.35.11c.12.12.23.12.23.23l8.13,14.28V28.64a.31.31,0,0,1,.27-.35h1.35c.12,0,.24,0,.24.12s.11.11.11.23V45.82c0,.23-.23.58-.46.58h-1.51a.41.41,0,0,1-.35-.12c-.12-.11-.23-.11-.23-.23L92.6,31.77V46.05c0,.12,0,.23-.11.23s-.12.12-.24.12H91C90.75,46.28,90.63,46.28,90.63,46.17Z"/>
        <path class="cls-1" d="M107.11,45.94c-.23-.12-.23-.47-.23-.7v-16a1.61,1.61,0,0,1,.23-.7c.12-.23.47-.23.7-.23h8.47c.12,0,.24,0,.24.12s.11.11.11.23v1.28c0,.11,0,.23-.11.23s-.12.12-.24.12H109v5.57h5.57c.12,0,.23,0,.23.11s.12.12.12.24v1.16a.3.3,0,0,1-.27.34.11.11,0,0,1-.08,0H109v6.62h7.31c.12,0,.24,0,.24.12s.11.11.11.23v1.28c0,.11,0,.23-.11.23s-.12.11-.24.11h-8.47A1,1,0,0,1,107.11,45.94Z"/>
        <path class="cls-1" d="M119,46.17c-.11-.12-.11-.12-.11-.23V28.64c0-.12,0-.23.11-.23s.12-.12.24-.12h1.39a.31.31,0,0,1,.35.28v.07h0V36.3h.69l6.27-7.89a.6.6,0,0,1,.47-.23H130c.12,0,.23,0,.23.11s.12.12.12.23,0,.24-.12.24l-6.73,8.35,6.73,8.48c.12.11.12.11.12.23s0,.23-.12.23-.11.12-.23.12h-1.62a.91.91,0,0,1-.47-.23l-6.15-7.78h-.93v7.66c0,.12,0,.23-.12.23a.35.35,0,0,1-.23.12H119C119.07,46.28,119.07,46.17,119,46.17Z"/>
        <path class="cls-1" d="M136,46.17c-.12-.12-.12-.12-.12-.23V30.27h-4.41c-.12,0-.23,0-.23-.12s-.12-.12-.12-.23V28.64c0-.12,0-.23.12-.23s.11-.12.23-.12h11.14c.12,0,.24,0,.24.12s.11.11.11.23v1.28c0,.11,0,.23-.11.23s-.12.12-.24.12h-4.41V45.94a.3.3,0,0,1-.27.34h-1.47C136.13,46.28,136.13,46.28,136,46.17Z"/>
        <polygon class="cls-2" points="3.57 22.49 35.72 10.88 33.05 53.83 12.51 43.03 3.57 22.49"/>
        <path class="cls-3" d="M26.79,46.75a1,1,0,0,1-.93-.47L18.2,36.65H16.8v9.4a.61.61,0,0,1-.23.47.91.91,0,0,1-.46.23H13.44a.6.6,0,0,1-.47-.23.91.91,0,0,1-.23-.47V23.18a.75.75,0,0,1,.7-.69h2.67a.67.67,0,0,1,.69.65v0h0V32.7H18l7.78-9.86a1.24,1.24,0,0,1,1.05-.47h3.13a.84.84,0,0,1,.7.7c0,.11-.12.35-.12.46L21.68,34.44,30.5,45.7c.12.12.12.24.12.47a.85.85,0,0,1-.7.7Z"/>
      </g>
    </g>
  </g>
</svg>
