<svg id="Scepman" xmlns="http://www.w3.org/2000/svg" viewBox="0 0 191 64.75">
	<defs>
		<style>
			.cls-1{fill:#3f3f3f;}.cls-2{fill:#fcd116;}.cls-3{fill:#fff;}
		</style>
	</defs>
	<path class="cls-1" d="M44.78,45.63a7.13,7.13,0,0,1-2.12-1,.29.29,0,0,1-.14-.17.36.36,0,0,1,0-.25l.56-1.12a.39.39,0,0,1,.35-.22.29.29,0,0,1,.2.05,7.09,7.09,0,0,0,3.63,1.13,4,4,0,0,0,2.57-.8,2.65,2.65,0,0,0,1-2.17,2.28,2.28,0,0,0-.44-1.47,3.41,3.41,0,0,0-1.12-.91c-.45-.23-1.06-.51-1.86-.86a20.74,20.74,0,0,1-2.51-1.1,4.92,4.92,0,0,1-1.64-1.47,4.2,4.2,0,0,1-.69-2.51,4.58,4.58,0,0,1,.73-2.62,4.39,4.39,0,0,1,2-1.6,6.59,6.59,0,0,1,2.67-.52,8.23,8.23,0,0,1,2.32.33,7.38,7.38,0,0,1,2,.91.26.26,0,0,1,.13.19.3.3,0,0,1,0,.26l-.54,1a.38.38,0,0,1-.23.2.36.36,0,0,1-.3-.05,6.38,6.38,0,0,0-3.32-1,3.65,3.65,0,0,0-2.42.74,2.53,2.53,0,0,0-.91,2,2.38,2.38,0,0,0,.45,1.48,3.58,3.58,0,0,0,1.12,1,18.49,18.49,0,0,0,1.87.85c.16.07.71.28,1.72.65a5.11,5.11,0,0,1,2.31,1.66A4.24,4.24,0,0,1,53,41a4.69,4.69,0,0,1-2.75,4.43,6.86,6.86,0,0,1-3,.61A8.87,8.87,0,0,1,44.78,45.63Z" />
	<path class="cls-1" d="M57.65,45.16a6,6,0,0,1-3-5.23V34.12a6.13,6.13,0,0,1,.79-3,5.85,5.85,0,0,1,2.17-2.19,5.58,5.58,0,0,1,3-.86,6.44,6.44,0,0,1,2.46.46,6,6,0,0,1,2,1.35.35.35,0,0,1,.11.3.51.51,0,0,1-.11.31c-.36.4-.58.65-.68.75a.62.62,0,0,1-.34.13.55.55,0,0,1-.38-.18A4.22,4.22,0,0,0,60.62,30a3.53,3.53,0,0,0-2,.57,4.23,4.23,0,0,0-1.42,1.52,4.31,4.31,0,0,0-.52,2v5.81a4.27,4.27,0,0,0,.52,2,4.18,4.18,0,0,0,1.42,1.53,3.61,3.61,0,0,0,2,.57,4.21,4.21,0,0,0,3.05-1.19.52.52,0,0,1,.72-.05l.68.74a.49.49,0,0,1,.11.33.41.41,0,0,1-.11.3,6,6,0,0,1-2,1.32A6.43,6.43,0,0,1,60.6,46,5.69,5.69,0,0,1,57.65,45.16Z" />
	<path class="cls-1" d="M67.88,45.4a.86.86,0,0,1-.26-.63V29.31a.87.87,0,0,1,.86-.86h8.16a.35.35,0,0,1,.35.35h0V30a.35.35,0,0,1-.35.35h-7v5.3H75a.32.32,0,0,1,.24.11.33.33,0,0,1,.1.25v1.16a.33.33,0,0,1-.32.35H69.65V43.8h7a.3.3,0,0,1,.24.09.33.33,0,0,1,.11.25v1.21a.33.33,0,0,1-.11.25.28.28,0,0,1-.24.1H68.49A.84.84,0,0,1,67.88,45.4Z" />
	<path class="cls-1" d="M79.73,45.56a.31.31,0,0,1-.1-.25v-16a.82.82,0,0,1,.26-.63.85.85,0,0,1,.63-.27h4.17a5.45,5.45,0,0,1,4.69,2.66,5.3,5.3,0,0,1-2,7.29,5.22,5.22,0,0,1-2.73.73h-3v6.22a.35.35,0,0,1-.35.35H80A.33.33,0,0,1,79.73,45.56Zm4.84-8.39a3.42,3.42,0,1,0,0-6.84H81.66v6.84Z" />
	<path class="cls-1" d="M92.56,45.56a.36.36,0,0,1-.11-.25V32a.36.36,0,0,1,.11-.25.35.35,0,0,1,.25-.09h1.24a.34.34,0,0,1,.24.09.36.36,0,0,1,.11.25V33.3A3.84,3.84,0,0,1,96,31.8a4.78,4.78,0,0,1,2.17-.51,5,5,0,0,1,2.72.73,4.15,4.15,0,0,1,1.65,2,4,4,0,0,1,1.61-2,4.43,4.43,0,0,1,2.48-.69A4.57,4.57,0,0,1,110,32.63a4.51,4.51,0,0,1,1.3,3.42v9.26a.33.33,0,0,1-.31.35h-1.28a.35.35,0,0,1-.35-.35h0V36.38a3.24,3.24,0,0,0-.86-2.42,3,3,0,0,0-2.24-.85,3.15,3.15,0,0,0-2.5,1.08,4.41,4.41,0,0,0-1,3v8.08a.34.34,0,0,1-.32.35h-1.27a.31.31,0,0,1-.25-.1.32.32,0,0,1-.1-.25V36.36a3.27,3.27,0,0,0-.85-2.42,3.07,3.07,0,0,0-2.25-.86,3.16,3.16,0,0,0-2.49,1.09,4.35,4.35,0,0,0-1,3v8.11a.33.33,0,0,1-.11.25.29.29,0,0,1-.25.1H92.75A.32.32,0,0,1,92.56,45.56Z" />
	<path class="cls-1" d="M114.64,44.91a3.92,3.92,0,0,1-.13-5.53l0,0A5.37,5.37,0,0,1,117.62,38l3.23-.45a1.6,1.6,0,0,0,1-.48,1.74,1.74,0,0,0,.32-1.11v-.23a2.33,2.33,0,0,0-.93-1.92A3.62,3.62,0,0,0,119,33.1a3.91,3.91,0,0,0-1.89.43,3.35,3.35,0,0,0-1.28,1.2.58.58,0,0,1-.5.33.53.53,0,0,1-.31-.13l-.68-.44a.6.6,0,0,1-.22-.42.44.44,0,0,1,.08-.25,5.13,5.13,0,0,1,2-1.88,6.56,6.56,0,0,1,5.56-.12,4.25,4.25,0,0,1,1.79,1.57,4.38,4.38,0,0,1,.65,2.36v9.56a.36.36,0,0,1-.11.25.32.32,0,0,1-.25.1h-1a.33.33,0,0,1-.34-.32V43.6a5.45,5.45,0,0,1-2,1.71,5.57,5.57,0,0,1-2.62.63A4.57,4.57,0,0,1,114.64,44.91Zm5.54-1.31A4.74,4.74,0,0,0,121.73,42a3.81,3.81,0,0,0,.55-1.91V39l-3.82.52-.7.09c-1.65.25-2.48,1-2.48,2.34a2,2,0,0,0,.75,1.63,2.88,2.88,0,0,0,1.93.63A4,4,0,0,0,120.18,43.6Z" />
	<path class="cls-1" d="M126.92,45.54a.38.38,0,0,1-.09-.25V32a.32.32,0,0,1,.3-.34h1.25a.33.33,0,0,1,.35.32v1.39a4.2,4.2,0,0,1,1.72-1.54,4.89,4.89,0,0,1,2.31-.52,4.65,4.65,0,0,1,3.43,1.29,4.58,4.58,0,0,1,1.3,3.42v9.31a.33.33,0,0,1-.11.25.3.3,0,0,1-.24.09H135.9a.37.37,0,0,1-.25-.09.35.35,0,0,1-.1-.25v-9a3.27,3.27,0,0,0-.85-2.42,3,3,0,0,0-2.24-.85,3.46,3.46,0,0,0-2.68,1.08,4.19,4.19,0,0,0-1,3v8.12a.34.34,0,0,1-.32.34h-1.27A.37.37,0,0,1,126.92,45.54Z" />
	<polygon class="cls-2" points="3.46 23.82 33.41 13.29 29.6 46.6 6.69 54.5 3.46 23.82" />
	<path class="cls-3" d="M13.77,50a12.59,12.59,0,0,1-3.18-1.58.6.6,0,0,1-.22-.34.66.66,0,0,1,0-.44l1.14-2a.67.67,0,0,1,.62-.39,1,1,0,0,1,.49.13,8.63,8.63,0,0,0,4.58,1.51A4.13,4.13,0,0,0,19.91,46a2.68,2.68,0,0,0,1-2.17,2.29,2.29,0,0,0-.48-1.48,4.26,4.26,0,0,0-1.3-1c-.78-.39-1.57-.74-2.38-1l-.94-.38a12.22,12.22,0,0,1-3.73-2.42,5.69,5.69,0,0,1-1.51-4.27,6.76,6.76,0,0,1,.86-3.52,6.11,6.11,0,0,1,2.49-2.37,7.66,7.66,0,0,1,3.67-.86,11.34,11.34,0,0,1,6.5,2.15.54.54,0,0,1,.23.34.66.66,0,0,1,0,.44l-1.08,2a.63.63,0,0,1-.61.39,1.05,1.05,0,0,1-.49-.13,10.32,10.32,0,0,0-2.41-1.11,7,7,0,0,0-2.07-.36,3.26,3.26,0,0,0-2.31.79,2.85,2.85,0,0,0,0,4l.11.11a10.84,10.84,0,0,0,3,1.71c.19.06.94.36,2.23.85a7.15,7.15,0,0,1,3.07,2.33,5.9,5.9,0,0,1,1.15,3.6,6.8,6.8,0,0,1-1,3.6,6.62,6.62,0,0,1-2.69,2.45,8.62,8.62,0,0,1-4,.86A11,11,0,0,1,13.77,50Z" />
</svg>
