<svg id="Ebene_2" data-name="Ebene 2" xmlns="http://www.w3.org/2000/svg" viewBox="0 0 191 64.75"><defs><style>.cls-1{fill:#3f3f3f;}.cls-2{fill:#f8842c;}.cls-3{fill:#fff;}</style></defs><path class="cls-1" d="M44.77,46.1a.32.32,0,0,1-.1-.26V29.52a.92.92,0,0,1,.91-.91H50a5.09,5.09,0,0,1,5.14,5.11,5,5,0,0,1-4.07,5l4.21,6.78a.59.59,0,0,1,.07.26.47.47,0,0,1-.14.33.49.49,0,0,1-.34.12h-1.3a.39.39,0,0,1-.37-.23l-4.43-7.16h-2v7a.34.34,0,0,1-.36.36H45A.35.35,0,0,1,44.77,46.1Zm5.06-9.24A3.07,3.07,0,0,0,52.09,36,3,3,0,0,0,53,33.77a3.1,3.1,0,0,0-.88-2.29,3,3,0,0,0-2.26-.87H46.72v6.3Z"/><path class="cls-1" d="M59.73,45.47A5.52,5.52,0,0,1,57,40.69V37.06a5.36,5.36,0,0,1,.73-2.76,5.51,5.51,0,0,1,7.51-2,5.31,5.31,0,0,1,2,2A5.46,5.46,0,0,1,68,37.06v1.75a.92.92,0,0,1-.91.92H58.94v1.08a3.56,3.56,0,0,0,1.74,3,3.45,3.45,0,0,0,1.75.47h3.66a.29.29,0,0,1,.25.1.36.36,0,0,1,.11.25v1.16a.36.36,0,0,1-.36.36H62.43A5.34,5.34,0,0,1,59.73,45.47ZM66,37.84V37a3.36,3.36,0,0,0-.47-1.75,3.39,3.39,0,0,0-1.27-1.28,3.5,3.5,0,0,0-4.79,1.21.16.16,0,0,1,0,.07A3.47,3.47,0,0,0,58.94,37v.87Z"/><path class="cls-1" d="M70.68,45.43a4,4,0,0,1-.14-5.63l0,0a5.45,5.45,0,0,1,3.15-1.36L77,38a1.59,1.59,0,0,0,1.06-.49,1.71,1.71,0,0,0,.33-1.13V36.1a2.35,2.35,0,0,0-1-2,3.71,3.71,0,0,0-2.36-.74,4,4,0,0,0-1.94.44,3.41,3.41,0,0,0-1.3,1.23.61.61,0,0,1-.51.33.59.59,0,0,1-.33-.13l-.68-.46a.54.54,0,0,1-.22-.42.59.59,0,0,1,.07-.26,5.27,5.27,0,0,1,2-1.91,6.06,6.06,0,0,1,3-.7,6.34,6.34,0,0,1,2.71.57,4.32,4.32,0,0,1,1.83,1.61,4.43,4.43,0,0,1,.64,2.41v9.74a.34.34,0,0,1-.32.36H78.91a.33.33,0,0,1-.25-.1.36.36,0,0,1-.11-.26V44.1a5.59,5.59,0,0,1-2,1.74,5.66,5.66,0,0,1-2.67.65A4.66,4.66,0,0,1,70.68,45.43Zm5.65-1.33a4.83,4.83,0,0,0,1.58-1.66,4,4,0,0,0,.57-2v-1l-3.9.53-.7.1c-1.69.25-2.54,1-2.54,2.38a2,2,0,0,0,.76,1.66,2.9,2.9,0,0,0,2,.64A4,4,0,0,0,76.33,44.1Z"/><path class="cls-1" d="M84.7,45.94a.84.84,0,0,1-.27-.65V28.86H82.07a.32.32,0,0,1-.25-.09.4.4,0,0,1-.1-.26V27.37a.35.35,0,0,1,.1-.25.37.37,0,0,1,.25-.1h3.42a.88.88,0,0,1,.65.26.92.92,0,0,1,.26.65v16.4h2.69a.31.31,0,0,1,.25.1.39.39,0,0,1,.1.25v1.16a.35.35,0,0,1-.33.36H85.34A.86.86,0,0,1,84.7,45.94Z"/><path class="cls-1" d="M91.56,46.1a.35.35,0,0,1-.1-.26V32.23a.34.34,0,0,1,.36-.35h1.26a.35.35,0,0,1,.26.1.32.32,0,0,1,.09.25V33.6a4.21,4.21,0,0,1,1.62-1.54,4.8,4.8,0,0,1,2.2-.51,5,5,0,0,1,2.78.74,4.18,4.18,0,0,1,1.67,2.06,4.08,4.08,0,0,1,1.64-2.05,4.61,4.61,0,0,1,2.53-.71,4.55,4.55,0,0,1,4.82,4.81v9.44a.35.35,0,0,1-.33.36h-1.29a.36.36,0,0,1-.36-.36h0V36.73a3.3,3.3,0,0,0-.87-2.46,3.09,3.09,0,0,0-2.29-.87A3.16,3.16,0,0,0,103,34.51a4.45,4.45,0,0,0-1,3.06v8.25a.33.33,0,0,1-.32.35h-1.3a.36.36,0,0,1-.35-.36h0v-9.1a3.35,3.35,0,0,0-.88-2.47,3.08,3.08,0,0,0-2.28-.88,3.25,3.25,0,0,0-2.55,1.11,4.53,4.53,0,0,0-1,3.06v8.28a.32.32,0,0,1-.09.25.36.36,0,0,1-.26.11H91.76A.5.5,0,0,1,91.56,46.1Z"/><path class="cls-1" d="M112.44,46.1a.39.39,0,0,1-.1-.27V44.66a.35.35,0,0,1,.31-.38h1.56a1.91,1.91,0,0,0,1.43-.56,2,2,0,0,0,.55-1.49V29a.35.35,0,0,1,.1-.26.33.33,0,0,1,.25-.1h1.37a.32.32,0,0,1,.25.1.35.35,0,0,1,.1.26V42.26a4.34,4.34,0,0,1-.45,2,3.5,3.5,0,0,1-1.28,1.47,3.77,3.77,0,0,1-2,.53h-1.75A.39.39,0,0,1,112.44,46.1Z"/><path class="cls-1" d="M123.51,45.8a5.36,5.36,0,0,1-2-2,5.5,5.5,0,0,1-.74-2.77V37.06a5.5,5.5,0,1,1,11-.43,3.09,3.09,0,0,1,0,.43V41a5.5,5.5,0,0,1-8.26,4.79Zm4.54-1.61a3.5,3.5,0,0,0,1.75-3V37a3.45,3.45,0,0,0-.47-1.75,3.47,3.47,0,0,0-3-1.74,3.35,3.35,0,0,0-1.75.46,3.57,3.57,0,0,0-1.28,1.28,3.37,3.37,0,0,0-.46,1.75v4.2a3.34,3.34,0,0,0,.46,1.74,3.49,3.49,0,0,0,1.28,1.28,3.45,3.45,0,0,0,1.75.47,3.58,3.58,0,0,0,1.75-.47Z"/><path class="cls-1" d="M136,45.94a.83.83,0,0,1-.26-.65V33.75h-2.62a.33.33,0,0,1-.35-.31V32.23a.33.33,0,0,1,.31-.35h3.74a.86.86,0,0,1,.64.26.89.89,0,0,1,.27.65V44.33h2.61a.36.36,0,0,1,.36.35h0v1.16a.32.32,0,0,1-.1.26.35.35,0,0,1-.26.1h-3.67A.84.84,0,0,1,136,45.94Zm-.13-16.14a.33.33,0,0,1-.11-.25V27.37a.36.36,0,0,1,.11-.25.32.32,0,0,1,.25-.1h1.21a.4.4,0,0,1,.26.1.38.38,0,0,1,.09.25v2.18a.38.38,0,0,1-.09.25.35.35,0,0,1-.26.1h-1.21a.29.29,0,0,1-.25-.1Z"/><path class="cls-1" d="M143,46.08a.36.36,0,0,1-.11-.25V32.23a.34.34,0,0,1,.33-.35h1.27a.33.33,0,0,1,.35.31v1.44a4.31,4.31,0,0,1,1.74-1.57,5.15,5.15,0,0,1,2.37-.54,4.77,4.77,0,0,1,3.49,1.32,4.67,4.67,0,0,1,1.33,3.49v9.5a.34.34,0,0,1-.32.35h-1.3a.35.35,0,0,1-.36-.33V36.69a3.31,3.31,0,0,0-.87-2.47,3.05,3.05,0,0,0-2.29-.87,3.54,3.54,0,0,0-2.74,1.11,4.36,4.36,0,0,0-1,3.06V45.8a.34.34,0,0,1-.32.35h-1.3A.34.34,0,0,1,143,46.08Z"/><polygon class="cls-2" points="7.24 9.91 32.96 22.13 37.12 49.19 3.08 43.08 7.24 9.91"/><path class="cls-3" d="M5.19,46.46A.62.62,0,0,1,5,46V24.38A1.41,1.41,0,0,1,6.37,23h6.24a7.38,7.38,0,0,1,3.71.93A7.19,7.19,0,0,1,19,26.5a7.07,7.07,0,0,1-.43,7.85A7.21,7.21,0,0,1,14.86,37l5.51,8.52a1,1,0,0,1,.13.47.6.6,0,0,1-.21.49.81.81,0,0,1-.55.21H17.05a1,1,0,0,1-.88-.47l-5.49-8.86H9V46a.7.7,0,0,1-.2.49.71.71,0,0,1-.49.21H5.7A.65.65,0,0,1,5.19,46.46Zm7.22-12.93a3.51,3.51,0,0,0,2.51-.92,3.21,3.21,0,0,0,1-2.41,3.32,3.32,0,0,0-1-2.46,3.48,3.48,0,0,0-2.51-1H9v6.77Z"/><path class="cls-3" d="M21.79,46.46A.65.65,0,0,1,21.6,46V43.55a.69.69,0,0,1,.65-.7h2.5a1.76,1.76,0,0,0,1.31-.51,2,2,0,0,0,.48-1.42V23.65a.7.7,0,0,1,.68-.7h2.64a.68.68,0,0,1,.69.66V40.92a6.11,6.11,0,0,1-.71,2.94,5.32,5.32,0,0,1-2,2,5.42,5.42,0,0,1-2.86.75H22.28A.7.7,0,0,1,21.79,46.46Z"/></svg>