<?xml version="1.0" encoding="utf-8"?>
<!-- Generator: Adobe Illustrator 25.3.0, SVG Export Plug-In . SVG Version: 6.00 Build 0)  -->
<svg version="1.1" id="Layer_1" xmlns="http://www.w3.org/2000/svg" xmlns:xlink="http://www.w3.org/1999/xlink" x="0px" y="0px"
	 viewBox="0 0 200.4 66.5" style="enable-background:new 0 0 200.4 66.5;" xml:space="preserve">
<style type="text/css">
	.st0{fill-rule:evenodd;clip-rule:evenodd;fill:#22D6B2;}
</style>
<path class="st0" d="M83.1,47.3c-0.9,0.1-2.9,0.3-4.7,0.3c-4.6,0-7.2-1.5-7.2-6.8V15.8c0-0.5,0.4-0.8,1-0.9l2.4-0.4h0.1
	c0.5,0,0.8,0.4,0.8,0.9v5.1h7.6c0.5,0,0.9,0.3,0.9,0.9v1.7c0,0.5-0.4,0.9-0.9,0.9h-7.6v16.9c0,2.8,0.9,3.3,3.6,3.3h3.9
	c0.7,0,1,0.2,1,0.7v1.7C84.1,46.9,83.8,47.2,83.1,47.3"/>
<path class="st0" d="M109.8,47.3h-3.4c-0.3,0-0.5-0.1-0.7-0.4l-6.9-10.1l-6.9,10.1c-0.3,0.4-0.4,0.5-0.8,0.5h-2.9
	c-0.4,0-0.6-0.2-0.6-0.5c0-0.1,0-0.4,0.2-0.6l8.7-12.5l-8.3-11.9c-0.1-0.2-0.2-0.4-0.2-0.6c0-0.3,0.3-0.6,0.7-0.6H92
	c0.4,0,0.6,0.1,1,0.7l6.2,9.1l6.2-9.1c0.4-0.6,0.6-0.7,1-0.7h2.8c0.4,0,0.6,0.2,0.6,0.6c0,0.2-0.1,0.4-0.2,0.6l-8.2,11.6l8.9,12.8
	c0.1,0.2,0.2,0.4,0.2,0.6C110.5,47,110.3,47.3,109.8,47.3"/>
<path class="st0" d="M126.3,47.3c-0.9,0.1-2.9,0.3-4.7,0.3c-4.6,0-7.2-1.5-7.2-6.8V15.8c0-0.5,0.4-0.8,1-0.9l2.4-0.4h0.1
	c0.5,0,0.8,0.4,0.8,0.9v5.1h7.6c0.5,0,0.9,0.3,0.9,0.9v1.7c0,0.5-0.4,0.9-0.9,0.9h-7.6v16.9c0,2.8,0.9,3.3,3.6,3.3h3.9
	c0.7,0,1,0.2,1,0.7v1.7C127.3,46.9,127,47.2,126.3,47.3"/>
<path class="st0" d="M142.2,47.6h-0.4c-3.3,0-10-1.8-10-11.4V21.5c0-0.5,0.3-1,0.9-1h2.5c0.5,0,0.9,0.4,0.9,1v14.7
	c0,5.8,2.5,7.7,5.7,7.7h0.4c3.3,0,5.7-1.8,5.7-7.7V21.5c0-0.5,0.3-1,0.9-1h2.5c0.5,0,0.9,0.4,0.9,1v14.7
	C152.2,45.8,145.5,47.6,142.2,47.6"/>
<path class="st0" d="M169.3,24c-3.3,0-4.9,0.1-6.7,0.5v21.9c0,0.5-0.3,1-0.9,1h-2.5c-0.5,0-0.9-0.4-0.9-1V22.7
	c0-0.5,0.3-0.9,0.9-1.1c2.8-1.2,6.1-1.4,10.1-1.4c0.6,0,1,0,1,0.7v2.2C170.3,23.7,170.2,24,169.3,24"/>
<path class="st0" d="M190.7,31.8c0-5.2-2.1-7.8-6.4-7.8c-4.2,0-6.5,2.8-6.5,7.8V32h12.9V31.8z M194.1,35.3h-16.3v0.6
	c0,5.6,2.6,8.2,7.1,8.2c2.8,0,6.1-0.3,8.3-0.7h0.2c0.4,0,0.8,0.2,0.8,0.7v1.7c0,0.6-0.2,1-1,1.1c-2.8,0.5-5.1,0.8-8.4,0.8
	c-5.6,0-11.4-2.7-11.4-12v-3.4c0-6.9,3.8-12,10.8-12c7.1,0,10.7,5,10.7,11.9v2C195,34.8,194.6,35.3,194.1,35.3L194.1,35.3z"/>
<path class="st0" d="M18,36.6l-5.3-3.1c-0.7-0.4-0.7-1,0-1.4L18,29l6.5,3.8l1.2,0.7l1.2,0.7l2,1.2c0.7,0.4,1.5,0.6,2.4,0.6
	c0.9,0,1.7-0.2,2.4-0.6l2-1.2l1.2-0.7l1.2-0.7l6.5-3.8l5.3,3.1c0.7,0.4,0.7,1,0,1.4l-5.3,3.1l-1.2,0.7L42.3,38l-9.8,5.6
	c-0.3,0.2-0.8,0.3-1.2,0.3c-0.4,0-0.9-0.1-1.2-0.3L20.4,38l-1.2-0.7L18,36.6z M31.4,11.3c0.4,0,0.9,0.1,1.2,0.3l17.6,10.1
	c0.7,0.4,0.7,1,0,1.4l-5.3,3.1l-1.2,0.7l-1.2,0.7l-6.5,3.8l-1.2,0.7l-1.2,0.7l-0.8,0.5c-0.3,0.2-0.8,0.3-1.2,0.3
	c-0.4,0-0.9-0.1-1.2-0.3l-0.8-0.5l-1.2-0.7l-1.2-0.7l-6.5-3.8l-1.2-0.7L18,26.2l-5.3-3.1c-0.7-0.4-0.7-1,0-1.4l17.6-10.1
	C30.5,11.4,30.9,11.3,31.4,11.3L31.4,11.3z M31.4,54.2c-0.4,0-0.9-0.1-1.2-0.3L12.6,43.8c-0.7-0.4-0.7-1,0-1.4l5.3-3.1l11,6.3
	c0.7,0.4,1.5,0.6,2.4,0.6c0.9,0,1.7-0.2,2.4-0.6l11-6.3l5.3,3.1c0.7,0.4,0.7,1,0,1.4L32.6,54C32.2,54.1,31.8,54.2,31.4,54.2
	L31.4,54.2z M54.4,18.8L32.1,5.9c-0.4-0.2-0.9-0.2-1.4,0L8.4,18.8c-0.3,0.2-0.6,0.6-0.6,1v25.9c0,0.4,0.2,0.8,0.6,1l22.4,12.9
	c0.3,0.2,0.8,0.2,1.1,0l22.4-12.9c0.3-0.2,0.6-0.6,0.6-1V19.8C54.9,19.4,54.7,19,54.4,18.8L54.4,18.8z"/>
</svg>
