<svg id="Ebene_5" data-name="Ebene 5" xmlns="http://www.w3.org/2000/svg" viewBox="0 0 223 55"><defs><style>.cls-1{fill:#3f3f3f;}.cls-2{fill:#543b9c;}.cls-3{fill:#fff;}</style></defs><path class="cls-1" d="M52.29,42.13a.38.38,0,0,1-.11-.29V23.14a1,1,0,0,1,.3-.74,1,1,0,0,1,.74-.31h5.05A5.8,5.8,0,0,1,63.37,25,5.75,5.75,0,0,1,64.15,28a5.6,5.6,0,0,1-1.33,3.71,5.69,5.69,0,0,1-3.37,2l4.82,7.78a.43.43,0,0,1,.09.28.5.5,0,0,1-.16.38.57.57,0,0,1-.4.15H62.33a.48.48,0,0,1-.44-.26l-5.07-8.21H54.55v8.06a.42.42,0,0,1-.11.29.4.4,0,0,1-.29.12H52.58A.4.4,0,0,1,52.29,42.13Zm5.8-10.58a3.54,3.54,0,0,0,2.6-1,3.47,3.47,0,0,0,1-2.55,3.6,3.6,0,0,0-1-2.63,3.55,3.55,0,0,0-2.6-1H54.55v7.23Z"/><path class="cls-1" d="M68.85,41.41a6.12,6.12,0,0,1-2.29-2.31,6.28,6.28,0,0,1-.84-3.18V31.78a6.3,6.3,0,0,1,.84-3.18,6.29,6.29,0,0,1,10.9,0,6.3,6.3,0,0,1,.84,3.18v2a1,1,0,0,1-1,1H68v1.28a4,4,0,0,0,.54,2A3.79,3.79,0,0,0,70,39.56a4,4,0,0,0,2,.54h4.21a.39.39,0,0,1,.4.41v1.33a.42.42,0,0,1-.11.29.4.4,0,0,1-.29.12H72A6.2,6.2,0,0,1,68.85,41.41ZM76,32.71V31.63a4.07,4.07,0,0,0-.53-2A4.07,4.07,0,0,0,70,28.14a3.86,3.86,0,0,0-1.46,1.46,4,4,0,0,0-.54,2v1.08Z"/><path class="cls-1" d="M81.41,41.36a4.55,4.55,0,0,1-.13-6.48,6.31,6.31,0,0,1,3.61-1.57l3.77-.52a1.84,1.84,0,0,0,1.22-.56,2,2,0,0,0,.37-1.29V30.7a2.71,2.71,0,0,0-1.09-2.24,4.23,4.23,0,0,0-2.71-.86,4.61,4.61,0,0,0-2.22.51,4,4,0,0,0-1.49,1.41.67.67,0,0,1-.58.37.71.71,0,0,1-.38-.14L81,29.23a.69.69,0,0,1-.26-.5.71.71,0,0,1,.09-.29,6,6,0,0,1,2.3-2.19,7.67,7.67,0,0,1,6.48-.14A4.93,4.93,0,0,1,91.72,28a5.12,5.12,0,0,1,.74,2.75V41.84a.41.41,0,0,1-.41.41H90.83a.4.4,0,0,1-.29-.12.38.38,0,0,1-.11-.29v-2a6.3,6.3,0,0,1-2.31,2,6.41,6.41,0,0,1-3.06.74A5.28,5.28,0,0,1,81.41,41.36Zm6.46-1.52a5.5,5.5,0,0,0,1.82-1.9,4.55,4.55,0,0,0,.65-2.25V34.5l-4.47.61-.81.12c-1.93.29-2.9,1.2-2.9,2.72A2.37,2.37,0,0,0,83,39.87a3.44,3.44,0,0,0,2.26.72A4.64,4.64,0,0,0,87.87,39.84Z"/><path class="cls-1" d="M96.88,41.94a1,1,0,0,1-.31-.74V22.38H93.88a.39.39,0,0,1-.41-.4V20.64a.4.4,0,0,1,.12-.29.36.36,0,0,1,.29-.11h3.91a1,1,0,0,1,1,1V40.1h3.07a.38.38,0,0,1,.29.12.37.37,0,0,1,.12.29v1.33a.41.41,0,0,1-.41.41H97.62A1,1,0,0,1,96.88,41.94Z"/><path class="cls-1" d="M114,42.52a.52.52,0,0,1-.22-.27l-5.57-16.13-1.91,15.63a.54.54,0,0,1-.19.37.65.65,0,0,1-.39.13h-1.36a.47.47,0,0,1-.37-.16.45.45,0,0,1-.1-.37l2.52-19.31a.44.44,0,0,1,.13-.23.33.33,0,0,1,.22-.09h2a.78.78,0,0,1,.35.1.38.38,0,0,1,.2.28L115.08,39l5.77-16.68a.33.33,0,0,1,.34-.26h2a.65.65,0,0,1,.39.13.58.58,0,0,1,.19.36l2.49,19.14v.06a.44.44,0,0,1-.13.32.43.43,0,0,1-.33.15h-1.4a.65.65,0,0,1-.39-.13.58.58,0,0,1-.19-.37l-1.91-15.57-5.57,16.07a.52.52,0,0,1-.22.27.56.56,0,0,1-.33.1h-1.45A.56.56,0,0,1,114,42.52Z"/><path class="cls-1" d="M131.3,41.94a1,1,0,0,1-.3-.74V28h-3a.38.38,0,0,1-.29-.12.37.37,0,0,1-.12-.29V26.24a.41.41,0,0,1,.41-.41h4.23a1.06,1.06,0,0,1,1,1.05V40.1h3a.39.39,0,0,1,.4.41v1.33a.42.42,0,0,1-.11.29.4.4,0,0,1-.29.12H132A1,1,0,0,1,131.3,41.94Zm-.16-18.49a.36.36,0,0,1-.11-.29V20.64a.38.38,0,0,1,.4-.4h1.39a.36.36,0,0,1,.29.11.4.4,0,0,1,.12.29v2.52a.41.41,0,0,1-.41.41h-1.39A.4.4,0,0,1,131.14,23.45Z"/><path class="cls-1" d="M140,47.21a3.3,3.3,0,0,1-1.72-3,4.23,4.23,0,0,1,.46-1.94A4.38,4.38,0,0,1,140,40.71a3.68,3.68,0,0,1-1.06-1,2.22,2.22,0,0,1-.34-1.23,3.16,3.16,0,0,1,.51-1.71,4.3,4.3,0,0,1,1.38-1.37,5.18,5.18,0,0,1-1.54-1.87,5.81,5.81,0,0,1,.25-5.41,5.41,5.41,0,0,1,2.16-2,6.57,6.57,0,0,1,3-.69,7.19,7.19,0,0,1,2.27.37h5.74a.41.41,0,0,1,.41.41v1.33a.37.37,0,0,1-.12.29.38.38,0,0,1-.29.12h-2.93a5.27,5.27,0,0,1,.9,3.07,5.43,5.43,0,0,1-.8,2.93,5.34,5.34,0,0,1-2.16,2,6.46,6.46,0,0,1-3,.7,7.67,7.67,0,0,1-2.29-.38,2.55,2.55,0,0,0-1,.76,1.61,1.61,0,0,0-.35,1,1,1,0,0,0,.58,1,4,4,0,0,0,1.36.38c.6.07,1.54.17,2.82.29l1.13.08a15,15,0,0,1,2.39.38,3.42,3.42,0,0,1,1.71,1,3.09,3.09,0,0,1,.71,2.2A4,4,0,0,1,149.47,47a9.18,9.18,0,0,1-5,1.25A8.82,8.82,0,0,1,140,47.21ZM148,45.58a2.09,2.09,0,0,0,1.27-2,1.38,1.38,0,0,0-.36-1,1.93,1.93,0,0,0-1-.48,17.85,17.85,0,0,0-1.85-.25l-1.23-.1c-.65-.05-1.36-.12-2.13-.22-.46-.05-.85-.11-1.16-.17a3.12,3.12,0,0,0-.91,1.07,2.72,2.72,0,0,0-.34,1.31,2,2,0,0,0,1.24,1.93,8.77,8.77,0,0,0,6.45-.05Zm-.94-11.93a3.78,3.78,0,0,0,0-5.19,4.27,4.27,0,0,0-5.49,0,3.81,3.81,0,0,0,0,5.19,4.27,4.27,0,0,0,5.49,0Z"/><path class="cls-1" d="M154.31,42.13a.38.38,0,0,1-.11-.29V40.51a.36.36,0,0,1,.11-.29.4.4,0,0,1,.29-.12H157V27.89H154.6a.44.44,0,0,1-.29-.11.39.39,0,0,1-.11-.29V26.24a.38.38,0,0,1,.11-.29.4.4,0,0,1,.29-.12h3.63a1,1,0,0,1,.74.31,1,1,0,0,1,.3.74v1.45L161,27a8.64,8.64,0,0,1,1.7-1.09,3.54,3.54,0,0,1,1.38-.27h.87a.41.41,0,0,1,.3.11.43.43,0,0,1,.1.29v1.43a.38.38,0,0,1-.4.4h-.64a3,3,0,0,0-1.36.31A11.06,11.06,0,0,0,161,29.52l-1.71,1.36V40.1h3.36a.41.41,0,0,1,.41.41v1.33a.38.38,0,0,1-.12.29.37.37,0,0,1-.29.12h-8A.4.4,0,0,1,154.31,42.13Z"/><path class="cls-1" d="M167.74,41.36a4.55,4.55,0,0,1-.13-6.48,6.31,6.31,0,0,1,3.61-1.57l3.77-.52a1.82,1.82,0,0,0,1.22-.56,2,2,0,0,0,.37-1.29V30.7a2.72,2.72,0,0,0-1.08-2.24,4.27,4.27,0,0,0-2.72-.86,4.54,4.54,0,0,0-2.21.51,3.91,3.91,0,0,0-1.5,1.41.67.67,0,0,1-.58.37.69.69,0,0,1-.37-.14l-.79-.52a.69.69,0,0,1-.26-.5.71.71,0,0,1,.09-.29,6,6,0,0,1,2.3-2.19,7.69,7.69,0,0,1,6.49-.14,5,5,0,0,1,2.1,1.84,5.12,5.12,0,0,1,.74,2.75V41.84a.41.41,0,0,1-.41.41h-1.22a.4.4,0,0,1-.29-.12.42.42,0,0,1-.11-.29v-2a6.3,6.3,0,0,1-2.31,2,6.41,6.41,0,0,1-3.06.74A5.29,5.29,0,0,1,167.74,41.36Zm6.47-1.52a5.57,5.57,0,0,0,1.81-1.9,4.55,4.55,0,0,0,.65-2.25V34.5l-4.47.61-.81.12c-1.93.29-2.9,1.2-2.9,2.72a2.37,2.37,0,0,0,.87,1.92,3.44,3.44,0,0,0,2.26.72A4.69,4.69,0,0,0,174.21,39.84Z"/><path class="cls-1" d="M184.47,41a4.44,4.44,0,0,1-1.19-3.17V28h-1.91a.38.38,0,0,1-.29-.12.37.37,0,0,1-.12-.29v-1.3a.41.41,0,0,1,.41-.41h1.91v-3a.37.37,0,0,1,.12-.29.38.38,0,0,1,.29-.12h1.45a.4.4,0,0,1,.29.12.36.36,0,0,1,.11.29v3h5.11a.4.4,0,0,1,.29.12.38.38,0,0,1,.11.29v1.33a.36.36,0,0,1-.11.29.4.4,0,0,1-.29.12h-5.11v9.57a2.43,2.43,0,0,0,.69,1.81,2.46,2.46,0,0,0,1.78.71l2.64,0a.4.4,0,0,1,.29.12.36.36,0,0,1,.11.29v1.33a.38.38,0,0,1-.11.29.4.4,0,0,1-.29.12h-2.9A4.26,4.26,0,0,1,184.47,41Z"/><path class="cls-1" d="M196.07,41.78a6.16,6.16,0,0,1-2.29-2.3,6.3,6.3,0,0,1-.84-3.18V31.78a6.3,6.3,0,0,1,.84-3.18,6.29,6.29,0,0,1,10.9,0,6.3,6.3,0,0,1,.84,3.18V36.3a6.3,6.3,0,0,1-.84,3.18,6.32,6.32,0,0,1-8.61,2.3Zm5.19-1.84a4,4,0,0,0,1.47-1.46,4.07,4.07,0,0,0,.53-2V31.63a4.07,4.07,0,0,0-.53-2,4.07,4.07,0,0,0-5.53-1.46,3.86,3.86,0,0,0-1.46,1.46,4,4,0,0,0-.54,2v4.82a4,4,0,0,0,.54,2,3.86,3.86,0,0,0,1.46,1.46,4.09,4.09,0,0,0,4.06,0Z"/><path class="cls-1" d="M207.38,42.13a.38.38,0,0,1-.12-.29V40.51a.37.37,0,0,1,.12-.29.38.38,0,0,1,.29-.12h2.41V27.89h-2.41a.42.42,0,0,1-.29-.11.4.4,0,0,1-.12-.29V26.24a.41.41,0,0,1,.41-.41h3.63a1,1,0,0,1,.74.31,1,1,0,0,1,.3.74v1.45L214,27a8.64,8.64,0,0,1,1.7-1.09,3.54,3.54,0,0,1,1.38-.27H218a.41.41,0,0,1,.3.11.43.43,0,0,1,.1.29v1.43a.38.38,0,0,1-.4.4h-.64a3.06,3.06,0,0,0-1.37.31,11.49,11.49,0,0,0-1.91,1.32l-1.71,1.36V40.1h3.36a.41.41,0,0,1,.41.41v1.33a.38.38,0,0,1-.12.29.37.37,0,0,1-.29.12h-8A.38.38,0,0,1,207.38,42.13Z"/><polygon class="cls-2" points="0.52 17.67 42.52 4.67 48.52 44.67 7.52 41.67 0.52 17.67"/><path class="cls-3" d="M4.59,41.51a.73.73,0,0,1-.2-.51V18.86A1.45,1.45,0,0,1,5.85,17.4h6.36a7.57,7.57,0,0,1,3.81,1,7.44,7.44,0,0,1,2.75,2.68,7.26,7.26,0,0,1-.44,8.08,7.36,7.36,0,0,1-3.81,2.63l5.65,8.74a1,1,0,0,1,.13.48.67.67,0,0,1-.22.51.82.82,0,0,1-.56.2H16.73a1,1,0,0,1-.88-.48L10.2,32.16H8.54V41a.7.7,0,0,1-.72.71H5.1A.73.73,0,0,1,4.59,41.51ZM12,28.25a3.57,3.57,0,0,0,2.57-1,3.29,3.29,0,0,0,1-2.47,3.34,3.34,0,0,0-1-2.51,3.5,3.5,0,0,0-2.57-1H8.54v6.94Z"/><path class="cls-3" d="M32.9,41.71a1,1,0,0,1-.39-.54L28,27.43l-.85-3.06-.34,3.16L25.37,40.86a1.06,1.06,0,0,1-.34.61.93.93,0,0,1-.62.24H21.86a.69.69,0,0,1-.57-.24.75.75,0,0,1-.17-.61l2.82-22.54a1,1,0,0,1,.36-.73,1.15,1.15,0,0,1,.79-.29h3.1a1,1,0,0,1,.66.22,1.1,1.1,0,0,1,.39.56l5.1,15.67L35,36.1l.68-2.31,5.14-15.74a.94.94,0,0,1,.39-.55,1.14,1.14,0,0,1,.66-.2h2.82a1.16,1.16,0,0,1,.8.29,1,1,0,0,1,.36.73l2.82,22.54a.78.78,0,0,1-.17.61.73.73,0,0,1-.58.24H45.29a1,1,0,0,1-.65-.24.85.85,0,0,1-.3-.58l-1.53-13.6-.34-2.92-.89,3.2L37.2,41.13a1.06,1.06,0,0,1-.39.56,1.08,1.08,0,0,1-.67.22H33.56A1.08,1.08,0,0,1,32.9,41.71Z"/></svg>