<?xml version="1.0" encoding="utf-8"?>
<!-- Generator: Adobe Illustrator 27.5.0, SVG Export Plug-In . SVG Version: 6.00 Build 0)  -->
<svg version="1.1" id="Ebene_3" xmlns="http://www.w3.org/2000/svg" xmlns:xlink="http://www.w3.org/1999/xlink" x="0px" y="0px"
	 viewBox="0 0 244.5 64.8" style="enable-background:new 0 0 244.5 64.8;" xml:space="preserve">
<style type="text/css">
	.st0{fill:#404040;}
	.st1{fill:#008187;}
	.st2{fill:#FFFFFF;}
</style>
<g id="UnfiedContacts">
	<g>
		<path class="st0" d="M55.8,46.2c-1-0.5-1.7-1.4-2.4-2.5c-0.5-1.1-0.8-2.3-0.8-3.6V28.7c0-0.1,0-0.2,0.1-0.3
			c0.1-0.1,0.2-0.1,0.3-0.1h1.5c0.1,0,0.2,0,0.3,0.1c0.1,0.1,0.1,0.2,0.1,0.3v11.5c0,0.9,0.2,1.8,0.5,2.5c0.4,0.7,0.9,1.3,1.5,1.6
			c0.6,0.4,1.4,0.5,2.2,0.5c0.8,0,1.5-0.2,2.2-0.5c0.6-0.4,1.2-0.9,1.5-1.6c0.4-0.7,0.5-1.5,0.5-2.5V28.7c0-0.1,0-0.2,0.1-0.3
			s0.2-0.1,0.3-0.1h1.5c0.1,0,0.2,0,0.3,0.1c0.1,0.1,0.1,0.2,0.1,0.3v11.4c0,1.4-0.3,2.5-0.8,3.6c-0.5,1.1-1.4,1.9-2.4,2.5
			c-1,0.5-2.1,0.9-3.3,0.9C57.9,47.1,56.8,46.8,55.8,46.2z"/>
		<path class="st0" d="M69.2,46.6c-0.1-0.1-0.1-0.2-0.1-0.3V32.2c0-0.1,0-0.2,0.1-0.3c0.1-0.1,0.2-0.1,0.3-0.1h1.3
			c0.1,0,0.2,0,0.3,0.1c0.1,0.1,0.1,0.2,0.1,0.3v1.5c0.5-0.7,1.1-1.3,1.8-1.6c0.7-0.4,1.5-0.5,2.5-0.5c1.5,0,2.7,0.5,3.6,1.4
			c0.9,0.9,1.4,2.1,1.4,3.6v9.9c0,0.1,0,0.2-0.1,0.3c-0.1,0-0.2,0-0.3,0h-1.4c-0.1,0-0.2,0-0.3-0.1c-0.1-0.1-0.1-0.2-0.1-0.3v-9.5
			c0-1.1-0.3-2-0.9-2.5c-0.5-0.5-1.4-0.9-2.4-0.9c-1.2,0-2.1,0.4-2.8,1.2c-0.7,0.8-1.1,1.8-1.1,3.2v8.6c0,0.1,0,0.2-0.1,0.3
			c-0.1,0.1-0.2,0-0.3,0h-1.3C69.3,46.7,69.2,46.7,69.2,46.6z"/>
		<path class="st0" d="M85.6,46.5c-0.2-0.2-0.3-0.4-0.3-0.6V33.7h-2.7c-0.1,0-0.2,0-0.3-0.1c-0.1-0.1-0.1-0.2-0.1-0.3v-1.2
			c0-0.1,0-0.2,0.1-0.3c0.1-0.1,0.2-0.1,0.3-0.1h3.8c0.3,0,0.5,0.1,0.6,0.3c0.2,0.2,0.3,0.4,0.3,0.6v12H90c0.1,0,0.2,0,0.3,0.1
			c0.1,0.1,0.1,0.2,0.1,0.3v1.2c0,0.1,0,0.2-0.1,0.3c-0.1,0.1-0.2,0.1-0.3,0.1h-3.8C86,46.8,85.7,46.7,85.6,46.5z M85.5,29.6
			c-0.1-0.1-0.1-0.2-0.1-0.3v-2.3c0-0.1,0-0.2,0.1-0.3s0.2-0.1,0.3-0.1H87c0.1,0,0.2,0,0.3,0.1c0.1,0.1,0.1,0.2,0.1,0.3v2.3
			c0,0.1,0,0.2-0.1,0.3s-0.2,0.1-0.3,0.1h-1.3C85.6,29.7,85.6,29.7,85.5,29.6z"/>
		<path class="st0" d="M93.4,46.7c-0.1-0.1-0.1-0.2-0.1-0.3V33.7h-2c-0.1,0-0.2,0-0.3-0.1s-0.1-0.2-0.1-0.3v-1.2
			c0-0.1,0-0.2,0.1-0.3s0.2-0.1,0.3-0.1h2v-1.1c0-1.2,0.4-2.1,1.1-2.9c0.7-0.7,1.7-1.2,3-1.2h2.1c0.1,0,0.2,0,0.3,0.1
			c0.1,0.1,0.1,0.2,0.1,0.3v1.1c0,0.1,0,0.2-0.1,0.3s-0.2,0.1-0.3,0.1h-2.2c-0.6,0-1.1,0.2-1.5,0.5c-0.4,0.4-0.5,0.9-0.5,1.5v1.2
			h9.6c0.3,0,0.5,0.1,0.6,0.3c0.2,0.2,0.3,0.4,0.3,0.6v12h2.7c0.1,0,0.2,0,0.3,0.1c0.1,0.1,0.1,0.2,0.1,0.3v1.2c0,0.1,0,0.2-0.1,0.3
			c-0.1,0.1-0.2,0.1-0.3,0.1h-3.8c-0.3,0-0.5-0.1-0.6-0.3c-0.2-0.2-0.3-0.4-0.3-0.6V33.7h-8.6v12.6c0,0.1,0,0.2-0.1,0.3
			c-0.1,0.1-0.2,0.1-0.3,0.1h-1.4C93.5,46.8,93.4,46.7,93.4,46.7z M103.9,29.1c-0.1-0.1-0.1-0.2-0.1-0.3v-2.3c0-0.1,0-0.2,0.1-0.3
			s0.2-0.1,0.3-0.1h1.3c0.1,0,0.2,0,0.3,0.1c0.1,0.1,0.1,0.2,0.1,0.3v2.3c0,0.1,0,0.2-0.1,0.3s-0.2,0.1-0.3,0.1h-1.3
			C104.1,29.2,104,29.2,103.9,29.1z"/>
		<path class="st0" d="M112.9,45.9c-0.9-0.5-1.5-1.2-2.1-2.1c-0.5-0.9-0.7-1.8-0.7-2.9v-3.7c0-1,0.3-2,0.7-2.9
			c0.5-0.9,1.2-1.5,2.1-2.1c0.9-0.5,1.8-0.7,2.9-0.7c1,0,2,0.3,2.9,0.7c0.9,0.5,1.5,1.2,2.1,2.1c0.5,0.9,0.7,1.8,0.7,2.9V39
			c0,0.3-0.1,0.5-0.3,0.6c-0.2,0.2-0.4,0.3-0.6,0.3h-8.5v1.2c0,0.6,0.2,1.3,0.5,1.8c0.4,0.5,0.7,1,1.4,1.4c0.5,0.4,1.2,0.5,1.8,0.5
			h3.8c0.1,0,0.2,0,0.3,0.1c0.1,0.1,0.1,0.2,0.1,0.3v1.2c0,0.1,0,0.2-0.1,0.3c-0.1,0.1-0.2,0.1-0.3,0.1h-3.8
			C114.8,46.8,113.8,46.5,112.9,45.9z M119.4,38v-1c0-0.6-0.2-1.3-0.5-1.8c-0.4-0.5-0.7-1-1.4-1.4c-0.5-0.4-1.2-0.5-1.8-0.5
			c-0.6,0-1.3,0.2-1.8,0.5c-0.5,0.4-1,0.7-1.4,1.4c-0.4,0.5-0.5,1.2-0.5,1.8v1H119.4z"/>
		<path class="st0" d="M126.1,46.3c-0.8-0.5-1.5-1.2-2-2s-0.7-1.7-0.7-2.7V37c0-1,0.3-1.9,0.7-2.7c0.5-0.8,1.2-1.5,2-2
			c0.8-0.5,1.8-0.7,2.8-0.7c0.7,0,1.5,0.1,2.1,0.4c0.6,0.3,1.3,0.6,1.8,1.1v-5.9c0-0.1,0-0.2,0.1-0.3s0.2-0.1,0.3-0.1h1.4
			c0.1,0,0.2,0,0.3,0.1s0.1,0.2,0.1,0.3v19.3c0,0.1,0,0.2-0.1,0.3c-0.1,0.1-0.2,0.1-0.3,0.1h-1.2c-0.1,0-0.2,0-0.3-0.1
			c-0.1-0.1-0.1-0.2-0.1-0.3v-1.2c-0.5,0.6-1.1,1.1-1.8,1.4c-0.7,0.4-1.5,0.5-2.3,0.5C128,47.1,127.1,46.8,126.1,46.3z M131.1,44.7
			c0.5-0.4,1-0.7,1.4-1.4c0.4-0.5,0.5-1.2,0.5-1.8v-4.4c0-0.6-0.2-1.3-0.5-1.8c-0.4-0.5-0.8-1-1.4-1.4c-0.5-0.4-1.2-0.5-1.8-0.5
			c-0.6,0-1.3,0.2-1.8,0.5c-0.5,0.4-1,0.7-1.4,1.4c-0.4,0.5-0.5,1.2-0.5,1.8v4.4c0,0.6,0.2,1.3,0.5,1.8c0.4,0.5,0.7,1,1.4,1.4
			c0.5,0.4,1.2,0.5,1.8,0.5C129.8,45.1,130.4,44.9,131.1,44.7z"/>
		<path class="st0" d="M141,46.2c-1-0.5-1.7-1.4-2.3-2.4c-0.5-1-0.8-2.1-0.8-3.2v-6.2c0-1.2,0.3-2.3,0.8-3.2c0.5-1,1.4-1.7,2.3-2.4
			c1-0.5,2-0.9,3.2-0.9c0.9,0,1.8,0.2,2.6,0.5c0.8,0.4,1.5,0.8,2.1,1.5c0.1,0.1,0.1,0.2,0.1,0.3s0,0.3-0.1,0.4
			c-0.4,0.5-0.6,0.7-0.7,0.8s-0.3,0.1-0.4,0.1c-0.2,0-0.3-0.1-0.4-0.2c-0.9-0.8-2-1.3-3.3-1.3c-0.7,0-1.5,0.2-2.1,0.6
			c-0.6,0.4-1.1,0.9-1.5,1.6c-0.4,0.6-0.5,1.4-0.5,2.2v6.2c0,0.8,0.2,1.5,0.5,2.2c0.4,0.6,0.9,1.2,1.5,1.6c0.6,0.4,1.4,0.6,2.1,0.6
			c1.3,0,2.4-0.5,3.3-1.3c0.1-0.1,0.3-0.2,0.4-0.2s0.3,0,0.4,0.1c0.1,0.1,0.4,0.4,0.7,0.8c0.1,0.1,0.1,0.2,0.1,0.4
			c0,0.1,0,0.3-0.1,0.3c-0.6,0.6-1.4,1.1-2.1,1.5c-0.8,0.4-1.6,0.5-2.6,0.5C143,47.1,141.9,46.8,141,46.2z"/>
		<path class="st0" d="M153.4,46.3c-0.9-0.5-1.5-1.2-2.1-2.1c-0.5-0.9-0.7-1.8-0.7-2.9v-4.1c0-1,0.3-2,0.7-2.9
			c0.5-0.9,1.2-1.5,2.1-2.1c0.9-0.5,1.8-0.7,2.9-0.7c1,0,2,0.3,2.9,0.7c0.9,0.5,1.5,1.2,2.1,2.1c0.5,0.9,0.7,1.8,0.7,2.9v4.1
			c0,1-0.3,2-0.7,2.9c-0.5,0.9-1.2,1.5-2.1,2.1s-1.8,0.7-2.9,0.7C155.4,47.1,154.3,46.8,153.4,46.3z M158.2,44.7
			c0.5-0.4,1-0.7,1.4-1.4c0.4-0.5,0.5-1.2,0.5-1.8v-4.4c0-0.6-0.2-1.3-0.5-1.8c-0.4-0.5-0.7-1-1.4-1.4c-0.5-0.4-1.2-0.5-1.8-0.5
			s-1.3,0.2-1.8,0.5c-0.5,0.4-1,0.7-1.4,1.4c-0.4,0.5-0.5,1.2-0.5,1.8v4.4c0,0.6,0.2,1.3,0.5,1.8c0.4,0.5,0.7,1,1.4,1.4
			c0.5,0.4,1.2,0.5,1.8,0.5C157,45.1,157.6,44.9,158.2,44.7z"/>
		<path class="st0" d="M165,46.6c-0.1-0.1-0.1-0.2-0.1-0.3V32.2c0-0.1,0-0.2,0.1-0.3c0.1-0.1,0.2-0.1,0.3-0.1h1.3
			c0.1,0,0.2,0,0.3,0.1c0.1,0.1,0.1,0.2,0.1,0.3v1.5c0.5-0.7,1.1-1.3,1.8-1.6c0.7-0.4,1.5-0.5,2.5-0.5c1.5,0,2.7,0.5,3.6,1.4
			c0.9,0.9,1.4,2.1,1.4,3.6v9.9c0,0.1,0,0.2-0.1,0.3c-0.1,0.1-0.2,0.1-0.3,0.1h-1.3c-0.1,0-0.2,0-0.3-0.1c-0.1-0.1-0.1-0.2-0.1-0.3
			v-9.6c0-1.1-0.3-2-0.9-2.5c-0.5-0.5-1.4-0.9-2.4-0.9c-1.2,0-2.1,0.4-2.8,1.2s-1.1,1.8-1.1,3.2v8.6c0,0.1,0,0.2-0.1,0.3
			c-0.1,0.1-0.2,0.1-0.3,0.1h-1.3C165.1,46.7,165,46.7,165,46.6z"/>
		<path class="st0" d="M180.9,45.6c-0.7-0.7-1.1-1.7-1.1-2.9v-9h-1.7c-0.1,0-0.2,0-0.3-0.1s-0.1-0.2-0.1-0.3v-1.2
			c0-0.1,0-0.2,0.1-0.3c0.1-0.1,0.2-0.1,0.3-0.1h1.7V29c0-0.1,0-0.2,0.1-0.3s0.2-0.1,0.3-0.1h1.4c0.1,0,0.2,0,0.3,0.1
			c0.1,0.1,0.1,0.2,0.1,0.3v2.7h4.6c0.1,0,0.2,0,0.3,0.1s0.1,0.2,0.1,0.3v1.2c0,0.1,0,0.2-0.1,0.3c-0.1,0.1-0.2,0.1-0.3,0.1h-4.6
			v8.7c0,0.7,0.2,1.3,0.6,1.6c0.5,0.5,0.9,0.6,1.6,0.6h2.4c0.1,0,0.2,0,0.3,0.1s0.1,0.2,0.1,0.3v1.2c0,0.1,0,0.2-0.1,0.3
			s-0.2,0.1-0.3,0.1h-2.6C182.6,46.8,181.6,46.4,180.9,45.6z"/>
		<path class="st0" d="M189.6,45.9c-0.8-0.7-1.3-1.7-1.3-3c0-1.2,0.4-2.1,1.2-2.9c0.8-0.7,1.9-1.3,3.3-1.5l3.5-0.5
			c0.5-0.1,0.9-0.3,1.1-0.5s0.4-0.6,0.4-1.2v-0.2c0-0.8-0.4-1.5-1-2c-0.6-0.5-1.5-0.8-2.5-0.8c-0.8,0-1.5,0.2-2,0.5
			c-0.5,0.3-1,0.7-1.4,1.3c-0.2,0.3-0.3,0.4-0.5,0.4c-0.1,0-0.2,0-0.4-0.1l-0.7-0.5c-0.2-0.2-0.3-0.3-0.3-0.5c0-0.1,0-0.2,0.1-0.3
			c0.5-0.8,1.2-1.5,2.1-2s1.9-0.7,3.1-0.7c1.1,0,2,0.2,2.8,0.6c0.8,0.4,1.5,0.9,1.9,1.6c0.5,0.7,0.6,1.5,0.6,2.5v10.1
			c0,0.1,0,0.2-0.1,0.3c-0.1,0.1-0.2,0.1-0.3,0.1h-1.1c-0.1,0-0.2,0-0.3-0.1c-0.1-0.1-0.1-0.2-0.1-0.3v-1.8
			c-0.5,0.8-1.3,1.5-2.1,1.8c-0.8,0.5-1.8,0.6-2.8,0.6C191.6,47.1,190.4,46.7,189.6,45.9z M195.5,44.6c0.7-0.5,1.3-1,1.6-1.7
			c0.4-0.7,0.6-1.4,0.6-2v-1.1c-0.5,0.1-1.8,0.3-4.1,0.5l-0.7,0.1c-1.7,0.3-2.6,1.1-2.6,2.5c0,0.7,0.3,1.3,0.8,1.7
			c0.5,0.5,1.2,0.6,2.1,0.6C193.9,45.2,194.8,45,195.5,44.6z"/>
		<path class="st0" d="M205.2,46.3c-0.9-0.5-1.5-1.2-2.1-2.1c-0.5-0.9-0.7-1.8-0.7-2.9v-4.1c0-1,0.3-2,0.7-2.9
			c0.5-0.9,1.2-1.5,2.1-2.1c0.9-0.5,1.8-0.7,2.9-0.7c0.7,0,1.5,0.2,2.2,0.5c0.6,0.3,1.3,0.6,1.8,1.2c0.1,0.1,0.2,0.3,0.2,0.4
			s-0.1,0.3-0.2,0.4c-0.2,0.2-0.4,0.4-0.6,0.6c-0.1,0.1-0.3,0.2-0.4,0.2c-0.2,0-0.3-0.1-0.5-0.2c-0.7-0.6-1.5-1-2.5-1
			c-0.6,0-1.3,0.2-1.8,0.5c-0.5,0.4-1,0.7-1.4,1.4c-0.4,0.5-0.5,1.2-0.5,1.8v4.4c0,0.6,0.2,1.3,0.5,1.8c0.4,0.5,0.7,1,1.4,1.4
			c0.5,0.4,1.2,0.5,1.8,0.5c1,0,1.8-0.4,2.5-1c0.1-0.1,0.3-0.2,0.5-0.2s0.3,0.1,0.4,0.2c0.2,0.2,0.5,0.4,0.6,0.6
			c0.1,0.1,0.2,0.3,0.2,0.4c0,0.2-0.1,0.3-0.2,0.4c-0.5,0.5-1.1,0.9-1.8,1.2c-0.6,0.3-1.4,0.5-2.2,0.5
			C207,47.1,206.1,46.8,205.2,46.3z"/>
		<path class="st0" d="M216.6,45.6c-0.7-0.7-1.1-1.7-1.1-2.9v-9h-1.7c-0.1,0-0.2,0-0.3-0.1s-0.1-0.2-0.1-0.3v-1.2
			c0-0.1,0-0.2,0.1-0.3c0.1-0.1,0.2-0.1,0.3-0.1h1.7V29c0-0.1,0-0.2,0.1-0.3s0.2-0.1,0.3-0.1h1.4c0.1,0,0.2,0,0.3,0.1
			s0.1,0.2,0.1,0.3v2.7h4.6c0.1,0,0.2,0,0.3,0.1s0.1,0.2,0.1,0.3v1.2c0,0.1,0,0.2-0.1,0.3c-0.1,0.1-0.2,0.1-0.3,0.1h-4.6v8.7
			c0,0.7,0.2,1.3,0.6,1.6c0.5,0.5,0.9,0.6,1.6,0.6h2.4c0.1,0,0.2,0,0.3,0.1s0.1,0.2,0.1,0.3v1.2c0,0.1,0,0.2-0.1,0.3
			s-0.2,0.1-0.3,0.1h-2.6C218.3,46.8,217.3,46.4,216.6,45.6z"/>
		<path class="st0" d="M226.3,46.7c-0.8-0.2-1.5-0.5-2-0.9c-0.1,0-0.1-0.1-0.2-0.2c0-0.1,0-0.2,0-0.3l0.5-1.1
			c0.1-0.2,0.2-0.2,0.4-0.2c0,0,0.1,0,0.2,0.1c1.2,0.7,2.4,1.1,3.5,1.1c0.9,0,1.6-0.2,2.2-0.6s0.8-1,0.8-1.7c0-0.5-0.1-0.8-0.4-1.1
			s-0.5-0.5-0.9-0.7c-0.4-0.2-1-0.5-1.8-0.7c-1.1-0.4-1.9-0.8-2.5-1.1s-1.1-0.8-1.5-1.4s-0.5-1.3-0.5-2.1c0-1.4,0.5-2.4,1.4-3.1
			s2.1-1.1,3.5-1.1c0.7,0,1.5,0.1,2.2,0.3c0.7,0.2,1.4,0.5,2,0.9c0.1,0,0.1,0.1,0.1,0.2s0,0.2,0,0.3l-0.5,1.1c0,0.1-0.1,0.2-0.2,0.2
			c-0.1,0-0.2,0-0.3-0.1c-1.1-0.6-2.2-1-3.3-1c-0.8,0-1.5,0.2-2,0.5c-0.5,0.4-0.7,0.9-0.7,1.6c0,0.5,0.1,1,0.4,1.3
			c0.3,0.4,0.5,0.5,0.9,0.7c0.4,0.2,1,0.4,1.7,0.7c1,0.4,1.8,0.7,2.5,1c0.6,0.3,1.1,0.7,1.5,1.3c0.4,0.5,0.5,1.2,0.5,2.1
			c0,1.4-0.5,2.5-1.5,3.2c-0.9,0.8-2.2,1.2-3.7,1.2C227.9,47,227.1,46.9,226.3,46.7z"/>
	</g>
</g>
<g>
	<path class="st1" d="M27.4,45.8c-0.7-1.3-1.1-2.7-1.1-4.2v-6.7c0-1.5,0.4-2.9,1.1-4.2c0.7-1.3,1.7-2.3,3-3.1
		c1.3-0.7,2.6-1.1,4.1-1.1c1.3,0,2.5,0.3,3.6,0.7c1.1,0.5,2.1,1.2,2.8,2.1c0.1,0.2,0.2,0.4,0.2,0.5s-0.1,0.5-0.3,0.6l-1.4,1.5
		c-0.1,0.1-0.3,0.2-0.5,0.2c-0.2,0-0.4-0.1-0.5-0.3c-1-1.1-2.3-1.7-3.9-1.7c-0.8,0-1.5,0.2-2.2,0.6c-0.6,0.5-1.2,1-1.6,1.7
		c-0.5,0.7-0.6,1.5-0.6,2.3v6.7c0,0.8,0.2,1.6,0.6,2.3c0.4,0.7,0.9,1.3,1.6,1.7c0.6,0.5,1.4,0.6,2.2,0.6c1.5,0,2.9-0.5,3.9-1.6
		c0.2-0.2,0.4-0.3,0.5-0.3s0.4,0.1,0.5,0.3l1.4,1.5c0.2,0.2,0.3,0.4,0.3,0.6c0,0.1,0,0.2-0.1,0.4l6.7-2.5l-6.4-21.8L3.6,15.7l6.5,43
		l23.4-8.8c-1.1-0.2-2-0.5-3-1C29.1,48,28.1,47,27.4,45.8z M25,40.9c0,1.7-0.4,3.3-1.1,4.6c-0.7,1.4-1.7,2.5-3,3.2s-2.7,1.2-4.3,1.2
		c-1.6,0-3.1-0.4-4.4-1.2c-1.3-0.8-2.3-1.8-3-3.2s-1.1-2.9-1.1-4.6V27.6c0-0.2,0.1-0.4,0.2-0.5s0.3-0.2,0.5-0.2h2.5
		c0.2,0,0.4,0.1,0.5,0.2c0.1,0.1,0.2,0.3,0.2,0.5v13.6c0,1.5,0.5,2.7,1.3,3.6c0.8,0.9,1.9,1.4,3.3,1.4s2.5-0.5,3.3-1.4
		c0.8-0.9,1.3-2.2,1.3-3.6V27.6c0-0.2,0.1-0.4,0.2-0.5s0.3-0.2,0.5-0.2h2.5c0.2,0,0.4,0.1,0.5,0.2s0.2,0.3,0.2,0.5L25,40.9L25,40.9z
		"/>
	<path class="st2" d="M41.2,46.6c0-0.3-0.1-0.5-0.3-0.6l-1.4-1.5c-0.2-0.2-0.4-0.3-0.5-0.3c-0.2,0-0.4,0.1-0.5,0.3
		c-1,1.1-2.3,1.6-3.9,1.6c-0.8,0-1.5-0.2-2.2-0.6c-0.6-0.5-1.2-1-1.6-1.7c-0.4-0.7-0.6-1.5-0.6-2.3v-6.7c0-0.8,0.2-1.6,0.6-2.3
		c0.5-0.6,0.9-1.3,1.6-1.7c0.6-0.5,1.4-0.6,2.2-0.6c1.5,0,2.9,0.5,3.9,1.7c0.2,0.2,0.4,0.3,0.5,0.3s0.4-0.1,0.5-0.3l1.4-1.5
		c0.2-0.2,0.3-0.5,0.3-0.6s-0.1-0.4-0.2-0.5c-0.8-0.9-1.7-1.6-2.8-2.1c-1.1-0.5-2.4-0.7-3.6-0.7c-1.5,0-2.8,0.4-4.1,1.1
		c-1.3,0.7-2.3,1.7-3,3.1c-0.7,1.3-1.1,2.7-1.1,4.2v6.7c0,1.5,0.4,2.9,1.1,4.2s1.7,2.3,3,3.1c0.9,0.5,1.9,0.9,3,1l7.7-2.9
		C41.2,46.8,41.2,46.8,41.2,46.6z"/>
	<path class="st2" d="M24.4,26.9h-2.5c-0.2,0-0.4,0.1-0.5,0.2s-0.2,0.3-0.2,0.5v13.6c0,1.5-0.5,2.7-1.3,3.6
		c-0.8,0.9-1.9,1.4-3.3,1.4s-2.5-0.5-3.3-1.4s-1.3-2.2-1.3-3.6V27.6c0-0.2-0.1-0.4-0.2-0.5c-0.1-0.1-0.3-0.2-0.5-0.2H8.8
		c-0.2,0-0.4,0.1-0.5,0.2s-0.2,0.3-0.2,0.5v13.4c0,1.7,0.4,3.3,1.1,4.6c0.7,1.4,1.7,2.5,3,3.2c1.3,0.8,2.7,1.2,4.4,1.2
		c1.5,0,3-0.4,4.3-1.2c1.3-0.7,2.3-1.8,3-3.2c0.7-1.4,1.1-2.9,1.1-4.6V27.6c0-0.2-0.1-0.4-0.2-0.5C24.8,26.9,24.6,26.9,24.4,26.9z"
		/>
</g>
</svg>
