<?xml version="1.0" encoding="UTF-8"?><svg id="Ebene_9" xmlns="http://www.w3.org/2000/svg" viewBox="0 0 1921.43 983.91"><g id="Group-3"><path id="Rectangle" d="M725.92,138.37h454.41v507.99h-454.41V138.37Z" style="fill:#008187;"/></g><path id="Rectangle-2" d="M1325.85,405.73h364.2v246.99h-364.2v-246.99Z" style="fill:#808e99; opacity:.7;"/><path id="Rectangle-4" d="M1325.85,138.37h364.2v246.99h-364.2V138.37Z" style="fill:#808e99; opacity:.7;"/><path id="Rectangle-5" d="M212.02,138.37h364.2v507.99H212.02V138.37Z" style="fill:#808e99; opacity:.7;"/><g><path d="M1388.86,313.01c-.14-.13-.21-.29-.21-.5,0-.1,0-.18,.03-.24l6.51-20.01c.06-.2,.17-.36,.34-.48s.36-.18,.58-.18h2.34c.22,0,.42,.06,.58,.18s.29,.28,.34,.48l6.51,20.01c.02,.06,.03,.14,.03,.24,0,.2-.07,.37-.21,.5-.14,.13-.31,.19-.51,.19h-2.16c-.22,0-.42-.06-.58-.19-.17-.13-.29-.29-.34-.5l-1.35-4.32h-7.02l-1.35,4.32c-.06,.2-.18,.37-.35,.5-.17,.13-.37,.19-.58,.19h-2.1c-.2,0-.37-.06-.51-.19Zm10.86-8.21l-2.46-8.01-2.46,8.01h4.92Z" style="fill:#fff;"/><path d="M1410.04,313.11c-.44,0-.82-.17-1.14-.53-.32-.35-.48-.74-.48-1.18,0-.3,.08-.57,.24-.81l7.53-11.16h-6.81c-.18,0-.33-.06-.45-.18-.12-.12-.18-.27-.18-.45v-2.16c0-.18,.06-.33,.18-.45,.12-.12,.27-.18,.45-.18h10.14c.46,0,.84,.17,1.16,.51,.31,.34,.46,.73,.46,1.17,0,.32-.08,.6-.24,.84l-7.59,11.25h7.32c.18,0,.33,.06,.46,.19,.13,.13,.2,.29,.2,.47l-.03,2.13c0,.2-.06,.35-.18,.46-.12,.11-.27,.17-.45,.17l-10.59-.09Z" style="fill:#fff;"/><path d="M1427.58,312.78c-.91-.54-1.62-1.29-2.15-2.25s-.78-2.04-.78-3.24v-10.65c0-.18,.06-.33,.18-.45,.12-.12,.27-.18,.45-.18h2.34c.18,0,.33,.06,.45,.18,.12,.12,.18,.27,.18,.45v10.2c0,1.06,.27,1.88,.81,2.44s1.3,.85,2.28,.85c1.18,0,2.12-.38,2.8-1.15,.69-.77,1.04-1.83,1.04-3.17v-9.18c0-.18,.06-.33,.18-.45,.12-.12,.27-.18,.45-.18h2.34c.18,0,.33,.06,.45,.18,.12,.12,.18,.27,.18,.45v15.93c0,.18-.06,.33-.18,.45-.12,.12-.27,.18-.45,.18h-2.34c-.18,0-.33-.06-.45-.18-.12-.12-.18-.27-.18-.45v-1.41c-.56,.76-1.22,1.35-2,1.79-.77,.43-1.62,.65-2.53,.65-1.14,0-2.17-.27-3.08-.81Z" style="fill:#fff;"/><path d="M1443.01,313.02c-.12-.12-.18-.27-.18-.45v-2.22c0-.18,.06-.33,.18-.45,.12-.12,.27-.18,.45-.18h2.28v-10.32h-2.58c-.18,0-.33-.06-.45-.18s-.18-.27-.18-.45v-2.13c0-.18,.06-.33,.18-.45,.12-.12,.27-.18,.45-.18h4.65c.36,0,.67,.12,.92,.38,.25,.25,.38,.56,.38,.92v1.08l1.62-1.29c.6-.48,1.12-.81,1.56-1.01,.44-.19,.96-.28,1.56-.28h.93c.18,0,.33,.06,.45,.18,.12,.12,.18,.27,.18,.45v2.31c0,.18-.06,.33-.18,.45-.12,.12-.27,.18-.45,.18h-.78c-.52,0-.97,.09-1.35,.27s-.96,.58-1.74,1.2l-1.65,1.32v7.56h2.97c.18,0,.33,.06,.45,.18,.12,.12,.18,.27,.18,.45v2.22c0,.18-.06,.33-.18,.45-.12,.12-.27,.18-.45,.18h-8.76c-.18,0-.33-.06-.45-.18Z" style="fill:#fff;"/><path d="M1461.18,312.24c-1.09-.64-1.96-1.51-2.59-2.61-.64-1.1-.96-2.3-.96-3.6v-3.24c0-1.3,.32-2.5,.96-3.6,.64-1.1,1.5-1.97,2.59-2.61,1.09-.64,2.29-.96,3.58-.96s2.5,.32,3.58,.96c1.09,.64,1.96,1.51,2.6,2.61,.64,1.1,.96,2.3,.96,3.6v2.01c0,.36-.12,.67-.38,.92-.25,.25-.56,.38-.92,.38h-9.39v.15c0,.98,.35,1.81,1.04,2.5,.69,.69,1.53,1.04,2.5,1.04h4.77c.18,0,.33,.06,.45,.18,.12,.12,.18,.27,.18,.45v2.16c0,.18-.06,.33-.18,.45-.12,.12-.27,.18-.45,.18h-4.77c-1.3,0-2.5-.32-3.58-.96Zm7.12-9.39v-.27c0-.98-.34-1.81-1.03-2.5-.69-.69-1.53-1.04-2.51-1.04s-1.81,.35-2.5,1.04c-.69,.69-1.04,1.53-1.04,2.5v.27h7.08Z" style="fill:#fff;"/><path d="M1482.07,313.01c-.14-.13-.21-.29-.21-.5,0-.1,0-.18,.03-.24l6.51-20.01c.06-.2,.17-.36,.34-.48s.36-.18,.58-.18h2.34c.22,0,.42,.06,.58,.18s.29,.28,.34,.48l6.51,20.01c.02,.06,.03,.14,.03,.24,0,.2-.07,.37-.21,.5-.14,.13-.31,.19-.51,.19h-2.16c-.22,0-.42-.06-.58-.19-.17-.13-.29-.29-.34-.5l-1.35-4.32h-7.02l-1.35,4.32c-.06,.2-.18,.37-.35,.5-.17,.13-.37,.19-.58,.19h-2.1c-.2,0-.37-.06-.51-.19Zm10.86-8.21l-2.46-8.01-2.46,8.01h4.92Z" style="fill:#fff;"/><path d="M1505.18,312.63c-1.09-.64-1.96-1.51-2.59-2.61-.64-1.1-.96-2.3-.96-3.6v-3.63c0-1.3,.32-2.5,.96-3.6,.64-1.1,1.5-1.97,2.59-2.61,1.09-.64,2.29-.96,3.58-.96,1,0,1.96,.21,2.88,.62,.92,.41,1.71,.99,2.37,1.72,.14,.14,.21,.3,.21,.48,0,.22-.09,.42-.27,.6l-1.29,1.29c-.14,.14-.3,.21-.48,.21s-.35-.09-.51-.27c-.78-.78-1.75-1.17-2.91-1.17-.98,0-1.81,.35-2.5,1.04-.69,.69-1.04,1.53-1.04,2.5v3.93c0,.98,.35,1.81,1.04,2.5,.69,.69,1.53,1.04,2.5,1.04,1.16,0,2.13-.39,2.91-1.17,.16-.18,.33-.27,.51-.27s.34,.07,.48,.21l1.29,1.29c.18,.18,.27,.38,.27,.6,0,.18-.07,.34-.21,.48-.66,.74-1.45,1.32-2.37,1.73-.92,.41-1.88,.62-2.88,.62-1.3,0-2.5-.32-3.58-.96Z" style="fill:#fff;"/><path d="M1520.93,311.76c-.97-.96-1.46-2.22-1.46-3.78v-8.61h-2.07c-.18,0-.33-.06-.45-.18-.12-.12-.18-.27-.18-.45v-2.1c0-.18,.06-.33,.18-.45,.12-.12,.27-.18,.45-.18h2.07v-3.24c0-.18,.06-.33,.18-.45s.27-.18,.45-.18h2.34c.18,0,.33,.06,.45,.18s.18,.27,.18,.45v3.24h5.07c.18,0,.33,.06,.45,.18,.12,.12,.18,.27,.18,.45v2.13c0,.18-.06,.33-.18,.45s-.27,.18-.45,.18h-5.07v8.43c0,.6,.17,1.08,.53,1.44,.35,.36,.81,.54,1.39,.54l3.15,.03c.18,0,.33,.06,.45,.18,.12,.12,.18,.27,.18,.45v2.1c0,.18-.06,.33-.18,.45-.12,.12-.27,.18-.45,.18h-3.42c-1.56,0-2.83-.48-3.79-1.44Z" style="fill:#fff;"/><path d="M1534.97,312.77c-.29-.29-.44-.65-.44-1.06v-12.27h-2.43c-.18,0-.33-.06-.45-.18-.12-.12-.18-.27-.18-.45v-2.16c0-.18,.06-.33,.18-.45,.12-.12,.27-.18,.45-.18h4.53c.42,0,.77,.15,1.06,.44s.44,.65,.44,1.06v12.27h2.43c.18,0,.33,.06,.45,.18,.12,.12,.18,.27,.18,.45v2.16c0,.18-.06,.33-.18,.45-.12,.12-.27,.18-.45,.18h-4.53c-.42,0-.78-.15-1.06-.44Zm-.11-18.94c-.12-.12-.18-.27-.18-.45v-3.27c0-.18,.06-.33,.18-.45,.12-.12,.27-.18,.45-.18h2.04c.18,0,.33,.06,.45,.18,.12,.12,.18,.27,.18,.45v3.27c0,.18-.06,.33-.18,.45s-.27,.18-.45,.18h-2.04c-.18,0-.33-.06-.45-.18Z" style="fill:#fff;"/><path d="M1548.76,313.38c-.46,0-.77-.21-.93-.63l-5.55-15.78c-.04-.12-.06-.21-.06-.27,0-.2,.07-.36,.21-.5,.14-.13,.32-.19,.54-.19h2.1c.2,0,.38,.06,.56,.18,.17,.12,.28,.28,.34,.48l4.05,12.06,4.05-12.06c.06-.2,.17-.36,.35-.48,.17-.12,.35-.18,.55-.18h1.95c.22,0,.4,.06,.54,.19,.14,.13,.21,.3,.21,.5,0,.06-.02,.15-.06,.27l-5.55,15.78c-.08,.2-.21,.36-.38,.48-.17,.12-.36,.18-.55,.18l-2.37-.03Z" style="fill:#fff;"/><path d="M1563.44,312.24c-1.09-.64-1.96-1.51-2.59-2.61-.64-1.1-.96-2.3-.96-3.6v-3.24c0-1.3,.32-2.5,.96-3.6,.64-1.1,1.5-1.97,2.59-2.61,1.09-.64,2.29-.96,3.58-.96s2.5,.32,3.58,.96c1.09,.64,1.96,1.51,2.6,2.61,.64,1.1,.96,2.3,.96,3.6v2.01c0,.36-.12,.67-.38,.92-.25,.25-.56,.38-.92,.38h-9.39v.15c0,.98,.35,1.81,1.04,2.5,.69,.69,1.53,1.04,2.5,1.04h4.77c.18,0,.33,.06,.45,.18,.12,.12,.18,.27,.18,.45v2.16c0,.18-.06,.33-.18,.45-.12,.12-.27,.18-.45,.18h-4.77c-1.3,0-2.5-.32-3.58-.96Zm7.12-9.39v-.27c0-.98-.34-1.81-1.03-2.5-.69-.69-1.53-1.04-2.51-1.04s-1.81,.35-2.5,1.04c-.69,.69-1.04,1.53-1.04,2.5v.27h7.08Z" style="fill:#fff;"/><path d="M1585.94,312.83c-.25-.25-.38-.56-.38-.92v-18.87c0-.36,.12-.66,.38-.92,.25-.25,.55-.38,.92-.38h5.88c1.54,0,2.94,.37,4.2,1.11,1.26,.74,2.25,1.75,2.99,3.03,.73,1.28,1.09,2.69,1.09,4.23v4.71c0,1.54-.37,2.95-1.09,4.23-.73,1.28-1.73,2.29-2.99,3.03-1.26,.74-2.66,1.11-4.2,1.11h-5.88c-.36,0-.67-.12-.92-.38Zm6.65-3.13c.86,0,1.65-.21,2.38-.65,.73-.43,1.31-1.01,1.74-1.74,.43-.73,.64-1.53,.64-2.42v-4.86c0-.86-.21-1.65-.64-2.39-.43-.73-1.01-1.31-1.74-1.74-.73-.43-1.53-.65-2.38-.65h-3.36v14.43h3.36Z" style="fill:#fff;"/><path d="M1607.48,312.77c-.29-.29-.44-.65-.44-1.06v-12.27h-2.43c-.18,0-.33-.06-.45-.18-.12-.12-.18-.27-.18-.45v-2.16c0-.18,.06-.33,.18-.45,.12-.12,.27-.18,.45-.18h4.53c.42,0,.77,.15,1.06,.44s.44,.65,.44,1.06v12.27h2.43c.18,0,.33,.06,.45,.18,.12,.12,.18,.27,.18,.45v2.16c0,.18-.06,.33-.18,.45-.12,.12-.27,.18-.45,.18h-4.53c-.42,0-.78-.15-1.06-.44Zm-.11-18.94c-.12-.12-.18-.27-.18-.45v-3.27c0-.18,.06-.33,.18-.45,.12-.12,.27-.18,.45-.18h2.04c.18,0,.33,.06,.45,.18,.12,.12,.18,.27,.18,.45v3.27c0,.18-.06,.33-.18,.45s-.27,.18-.45,.18h-2.04c-.18,0-.33-.06-.45-.18Z" style="fill:#fff;"/><path d="M1617.19,305.52c-.12-.12-.18-.27-.18-.45v-2.22c0-.18,.06-.33,.18-.45,.12-.12,.27-.18,.45-.18h8.19c.18,0,.33,.06,.45,.18,.12,.12,.18,.27,.18,.45v2.22c0,.18-.06,.33-.18,.45-.12,.12-.27,.18-.45,.18h-8.19c-.18,0-.33-.06-.45-.18Z" style="fill:#fff;"/><path d="M1453.75,349.02c-.12-.12-.18-.27-.18-.45v-2.22c0-.18,.06-.33,.18-.45,.12-.12,.27-.18,.45-.18h2.28v-10.32h-2.58c-.18,0-.33-.06-.45-.18s-.18-.27-.18-.45v-2.13c0-.18,.06-.33,.18-.45,.12-.12,.27-.18,.45-.18h4.65c.36,0,.67,.12,.92,.38,.25,.25,.38,.56,.38,.92v1.08l1.62-1.29c.6-.48,1.12-.81,1.56-1.01,.44-.19,.96-.28,1.56-.28h.93c.18,0,.33,.06,.45,.18,.12,.12,.18,.27,.18,.45v2.31c0,.18-.06,.33-.18,.45-.12,.12-.27,.18-.45,.18h-.78c-.52,0-.97,.09-1.35,.27s-.96,.58-1.74,1.2l-1.65,1.32v7.56h2.97c.18,0,.33,.06,.45,.18,.12,.12,.18,.27,.18,.45v2.22c0,.18-.06,.33-.18,.45-.12,.12-.27,.18-.45,.18h-8.76c-.18,0-.33-.06-.45-.18Z" style="fill:#fff;"/><path d="M1471.92,348.24c-1.09-.64-1.96-1.51-2.59-2.61-.64-1.1-.96-2.3-.96-3.6v-3.24c0-1.3,.32-2.5,.96-3.6,.64-1.1,1.5-1.97,2.59-2.61,1.09-.64,2.29-.96,3.58-.96s2.5,.32,3.58,.96c1.09,.64,1.96,1.51,2.6,2.61,.64,1.1,.96,2.3,.96,3.6v2.01c0,.36-.12,.67-.38,.92-.25,.25-.56,.38-.92,.38h-9.39v.15c0,.98,.35,1.81,1.04,2.5,.69,.69,1.53,1.04,2.5,1.04h4.77c.18,0,.33,.06,.45,.18,.12,.12,.18,.27,.18,.45v2.16c0,.18-.06,.33-.18,.45-.12,.12-.27,.18-.45,.18h-4.77c-1.3,0-2.5-.32-3.58-.96Zm7.12-9.39v-.27c0-.98-.34-1.81-1.03-2.5-.69-.69-1.53-1.04-2.51-1.04s-1.81,.35-2.5,1.04c-.69,.69-1.04,1.53-1.04,2.5v.27h7.08Z" style="fill:#fff;"/><path d="M1489.62,348.63c-1.09-.64-1.96-1.51-2.59-2.61-.64-1.1-.96-2.3-.96-3.6v-3.63c0-1.3,.32-2.5,.96-3.6,.64-1.1,1.5-1.97,2.59-2.61,1.09-.64,2.29-.96,3.58-.96,1,0,1.96,.21,2.88,.62,.92,.41,1.71,.99,2.37,1.72,.14,.14,.21,.3,.21,.48,0,.22-.09,.42-.27,.6l-1.29,1.29c-.14,.14-.3,.21-.48,.21s-.35-.09-.51-.27c-.78-.78-1.75-1.17-2.91-1.17-.98,0-1.81,.35-2.5,1.04-.69,.69-1.04,1.53-1.04,2.5v3.93c0,.98,.35,1.81,1.04,2.5,.69,.69,1.53,1.04,2.5,1.04,1.16,0,2.13-.39,2.91-1.17,.16-.18,.33-.27,.51-.27s.34,.07,.48,.21l1.29,1.29c.18,.18,.27,.38,.27,.6,0,.18-.07,.34-.21,.48-.66,.74-1.45,1.32-2.37,1.73-.92,.41-1.88,.62-2.88,.62-1.3,0-2.5-.32-3.58-.96Z" style="fill:#fff;"/><path d="M1505.37,347.76c-.97-.96-1.46-2.22-1.46-3.78v-8.61h-2.07c-.18,0-.33-.06-.45-.18-.12-.12-.18-.27-.18-.45v-2.1c0-.18,.06-.33,.18-.45,.12-.12,.27-.18,.45-.18h2.07v-3.24c0-.18,.06-.33,.18-.45s.27-.18,.45-.18h2.34c.18,0,.33,.06,.45,.18s.18,.27,.18,.45v3.24h5.07c.18,0,.33,.06,.45,.18,.12,.12,.18,.27,.18,.45v2.13c0,.18-.06,.33-.18,.45s-.27,.18-.45,.18h-5.07v8.43c0,.6,.17,1.08,.53,1.44,.35,.36,.81,.54,1.39,.54l3.15,.03c.18,0,.33,.06,.45,.18,.12,.12,.18,.27,.18,.45v2.1c0,.18-.06,.33-.18,.45-.12,.12-.27,.18-.45,.18h-3.42c-1.56,0-2.83-.48-3.79-1.44Z" style="fill:#fff;"/><path d="M1519.52,348.65c-1.09-.63-1.96-1.48-2.59-2.56-.64-1.08-.96-2.25-.96-3.51v-3.93c0-1.26,.32-2.43,.96-3.51,.64-1.08,1.5-1.94,2.59-2.56,1.09-.63,2.29-.95,3.58-.95s2.5,.31,3.58,.95c1.09,.63,1.96,1.48,2.6,2.56,.64,1.08,.96,2.25,.96,3.51v3.93c0,1.26-.32,2.43-.96,3.51-.64,1.08-1.51,1.94-2.6,2.56-1.09,.63-2.29,.95-3.58,.95s-2.5-.31-3.58-.95Zm6.09-3.57c.69-.69,1.03-1.52,1.03-2.5v-3.93c0-.98-.34-1.81-1.03-2.5-.69-.69-1.53-1.04-2.51-1.04s-1.81,.35-2.5,1.04c-.69,.69-1.04,1.53-1.04,2.5v3.93c0,.98,.35,1.81,1.04,2.5,.69,.69,1.53,1.04,2.5,1.04s1.82-.35,2.51-1.04Z" style="fill:#fff;"/><path d="M1533.37,349.02c-.12-.12-.18-.27-.18-.45v-2.22c0-.18,.06-.33,.18-.45,.12-.12,.27-.18,.45-.18h2.28v-10.32h-2.58c-.18,0-.33-.06-.45-.18s-.18-.27-.18-.45v-2.13c0-.18,.06-.33,.18-.45,.12-.12,.27-.18,.45-.18h4.65c.36,0,.67,.12,.92,.38,.25,.25,.38,.56,.38,.92v1.08l1.62-1.29c.6-.48,1.12-.81,1.56-1.01,.44-.19,.96-.28,1.56-.28h.93c.18,0,.33,.06,.45,.18,.12,.12,.18,.27,.18,.45v2.31c0,.18-.06,.33-.18,.45-.12,.12-.27,.18-.45,.18h-.78c-.52,0-.97,.09-1.35,.27s-.96,.58-1.74,1.2l-1.65,1.32v7.56h2.97c.18,0,.33,.06,.45,.18,.12,.12,.18,.27,.18,.45v2.22c0,.18-.06,.33-.18,.45-.12,.12-.27,.18-.45,.18h-8.76c-.18,0-.33-.06-.45-.18Z" style="fill:#fff;"/><path d="M1552.72,354.74c-.12-.17-.14-.37-.06-.58l1.56-4.44-5.88-16.74c-.04-.12-.06-.21-.06-.27,0-.2,.07-.36,.21-.5,.14-.13,.32-.19,.54-.19h2.1c.2,0,.38,.06,.56,.18,.17,.12,.28,.28,.34,.48l4.05,11.97,4.05-11.97c.06-.2,.17-.36,.35-.48,.17-.12,.35-.18,.55-.18h1.95c.22,0,.4,.06,.54,.19,.14,.13,.21,.3,.21,.5,0,.06-.02,.15-.06,.27l-7.53,21.36c-.08,.2-.2,.36-.36,.48-.16,.12-.35,.18-.57,.18h-1.98c-.22,0-.39-.09-.51-.25Z" style="fill:#fff;"/></g><text transform="translate(902.98 609.26)" style="fill:#fff; font-family:MiriamLibre-Bold, &apos;Miriam Libre&apos;; font-size:30px; font-weight:700;"><tspan x="0" y="0" style="letter-spacing:0em;">B</tspan><tspan x="17.91" y="0">ac</tspan><tspan x="50.97" y="0" style="letter-spacing:-.02em;">k</tspan><tspan x="67.92" y="0">e</tspan><tspan x="85.47" y="0" style="letter-spacing:0em;">n</tspan><tspan x="104.13" y="0">d</tspan></text><text transform="translate(1439.22 609.07)" style="fill:#fff; font-family:MiriamLibre-Bold, &apos;Miriam Libre&apos;; font-size:30px; font-weight:700;"><tspan x="0" y="0">E</tspan><tspan x="16.29" y="0" style="letter-spacing:-.02em;">x</tspan><tspan x="32.79" y="0">chan</tspan><tspan x="102.87" y="0" style="letter-spacing:0em;">g</tspan><tspan x="120.66" y="0">e</tspan></text><path d="M1517.93,449.37s-.09,.04-.13,.06l-56.88,10.73c-.97,.18-1.67,1.04-1.65,2.03v75.74c-.02,.99,.68,1.85,1.65,2.03l56.88,10.92c.59,.11,1.2-.04,1.67-.42,.46-.38,.74-.94,.75-1.55v-18.28h38.6c1.12,0,2.03-.91,2.03-2.03v-56.88c0-1.12-.91-2.03-2.03-2.03h-38.6v-18.28c0-.59-.25-1.14-.68-1.53-.44-.39-1.02-.57-1.6-.5Zm-1.78,4.44v17.27c-.12,.4-.12,.81,0,1.21v55.93c-.06,.27-.06,.56,0,.83v17.46l-52.82-10.22v-72.44l52.82-10.03Zm4.06,19.93h36.57v52.82h-36.57v-6.09h3.24c1.42-.21,13-15.02,11.17-16.44-1.42-1.42-6.3,6.46-12.19,10.73h-2.22v-13.59c3.14,2.1,6.06,3.52,6.73,2.86,1.04-1.04-2.82-3.71-6.73-7.36v-11.11h3.43l2.29,2.03c.4,.4,.8,.4,1.21,0l1.59-1.65c.4-.4,.4-.8,0-1.21l-4.63-4.7c-.21-.21-.62-.38-.83-.38h-3.05v-5.9Zm-21.97,5.71l-18.47,2.03v36.76l19.11,1.84v-7.55l-12-.57v-8.76l10.6,.19v-7.3l-10.6,.19v-8.51l11.36-.83v-7.49Zm38.85,.38c-1.42,.21-12.8,15.02-11.17,16.44,1.42,1.42,6.3-6.46,12.19-10.73h6.67v7.68l-2.03,2.03c-.4,.4-.4,.8,0,1.21l1.65,1.65c.4,.4,.8,.4,1.21,0l4.7-4.7c.21-.21,.38-.56,.38-.76v-11.43c0-.81-.6-1.4-1.21-1.4h-12.38Zm-2.79,16.32c-.2,0-.4,.02-.51,.13-1.42,1.42,6.71,6.11,10.98,12v6.48h-7.68l-2.29-2.03c-.4-.4-.8-.4-1.21,0l-1.59,1.65c-.4,.4-.4,.8,0,1.21l4.63,4.7c.21,.21,.62,.38,.83,.38h11.81c.61,0,1.21-.6,1.21-1.21v-12c0-1.52-13.2-11.4-16.19-11.3Z" style="fill:#fafbfc;"/><path d="M1519.26,171.53l-34.95,74.36-24.55-.27,27.41-47.17,32.09-26.92m3.77,5.87l44.42,77.7h-82.17l50.08-8.94-26.22-31.18,13.89-37.59Z" style="fill:#fff;"/><g><g><path d="M420.12,297.21h-99.78c-8.67,0-15.71,7.03-15.71,15.71v109.94c0,8.67,7.03,15.71,15.71,15.71h149.2c8.67,0,15.71-7.03,15.71-15.71v-58.64" style="fill:none; stroke:#fff; stroke-linecap:round; stroke-linejoin:round; stroke-width:5.1px;"/><path d="M304.64,333.34h121.9" style="fill:none; stroke:#fff; stroke-linecap:round; stroke-linejoin:round; stroke-width:5.1px;"/><path d="M332.12,318.81c-1.08,0-1.96-.88-1.96-1.96s.88-1.96,1.96-1.96" style="fill:none; stroke:#fff; stroke-miterlimit:66.67; stroke-width:5.1px;"/><path d="M332.12,318.81c1.08,0,1.96-.88,1.96-1.96s-.88-1.96-1.96-1.96" style="fill:none; stroke:#fff; stroke-miterlimit:66.67; stroke-width:5.1px;"/><g><path d="M355.68,318.81c-1.08,0-1.96-.88-1.96-1.96s.88-1.96,1.96-1.96" style="fill:none; stroke:#fff; stroke-miterlimit:66.67; stroke-width:5.1px;"/><path d="M355.68,318.81c1.08,0,1.96-.88,1.96-1.96s-.88-1.96-1.96-1.96" style="fill:none; stroke:#fff; stroke-miterlimit:66.67; stroke-width:5.1px;"/></g><g><path d="M379.24,318.81c-1.08,0-1.96-.88-1.96-1.96s.88-1.96,1.96-1.96" style="fill:none; stroke:#fff; stroke-miterlimit:66.67; stroke-width:5.1px;"/><path d="M379.24,318.81c1.08,0,1.96-.88,1.96-1.96s-.88-1.96-1.96-1.96" style="fill:none; stroke:#fff; stroke-miterlimit:66.67; stroke-width:5.1px;"/></g></g><path d="M497.29,302.07c-.97,0-1.88-.18-2.73-.54-.82-.36-1.55-.86-2.19-1.49-.63-.63-1.13-1.36-1.49-2.19-.36-.85-.54-1.76-.54-2.73s.18-1.85,.54-2.7c.36-.85,.86-1.58,1.49-2.19,.63-.63,1.36-1.13,2.19-1.49,.85-.38,1.76-.56,2.73-.54,.95-.02,1.85,.16,2.7,.54,.85,.36,1.59,.86,2.22,1.49,.61,.61,1.11,1.34,1.49,2.19,.36,.85,.54,1.74,.54,2.7s-.18,1.88-.54,2.73c-.36,.82-.86,1.55-1.49,2.19-.63,.63-1.37,1.13-2.22,1.49-.85,.36-1.74,.54-2.7,.54m0-9.9c-.82,0-1.55,.29-2.19,.86-.53,.57-.79,1.27-.79,2.09s.26,1.53,.79,2.13c.63,.53,1.36,.79,2.19,.79s1.52-.26,2.09-.79c.59-.53,.89-1.24,.89-2.13,0-.82-.3-1.52-.89-2.09-.57-.57-1.27-.86-2.09-.86m8.91,14.85v14.82c0,1.33-.25,2.6-.76,3.81-.55,1.21-1.26,2.25-2.13,3.14-.91,.91-1.97,1.62-3.17,2.13-1.25,.53-2.53,.79-3.84,.79-.8,0-1.61-.12-2.41-.35-.82-.15-1.58-.41-2.25-.79-.51,1.67-1.26,3.19-2.25,4.57-.99,1.37-2.16,2.55-3.49,3.52-1.33,.97-2.8,1.71-4.41,2.22-1.61,.57-3.28,.86-5.01,.86-2.03,0-3.94-.35-5.74-1.05-1.73-.7-3.32-1.69-4.76-2.98-1.4-1.21-2.55-2.64-3.46-4.31-.93-1.69-1.53-3.53-1.81-5.52h-15.32c-.7,0-1.32-.26-1.87-.79-.51-.51-.76-1.12-.76-1.84v-26.46c0-.72,.25-1.34,.76-1.87,.55-.51,1.17-.76,1.87-.76h22.75c-.61-1.27-.92-2.59-.92-3.97,0-1.29,.24-2.51,.73-3.65,.47-1.06,1.12-2.03,1.97-2.92,.85-.82,1.84-1.48,2.98-1.97,1.06-.49,2.24-.73,3.55-.73,1.29,0,2.5,.24,3.62,.73,1.12,.49,2.1,1.14,2.95,1.97,.85,.89,1.5,1.86,1.97,2.92,.49,1.14,.73,2.36,.73,3.65s-.24,2.47-.73,3.62c-.47,1.12-1.12,2.09-1.97,2.92-.85,.85-1.83,1.51-2.95,2-1.12,.49-2.33,.73-3.62,.73-.32,0-.65-.02-.98-.06-.32-.04-.65-.1-.98-.16v2.86h28.74c.82,0,1.53,.29,2.13,.86,.57,.57,.86,1.27,.86,2.09m-29.73-20.08c-.74,0-1.41,.12-2,.35-.7,.27-1.29,.66-1.78,1.14-.47,.49-.84,1.05-1.11,1.68-.27,.66-.41,1.34-.41,2.06s.14,1.43,.41,2.06c.27,.63,.65,1.19,1.11,1.68,.49,.47,1.08,.85,1.78,1.14,.59,.27,1.26,.41,2,.41s1.4-.14,2.03-.41c.63-.3,1.19-.68,1.68-1.14,.49-.49,.87-1.05,1.14-1.68,.3-.63,.44-1.32,.44-2.06s-.15-1.41-.44-2.06c-.27-.63-.66-1.2-1.14-1.68-.49-.49-1.05-.87-1.68-1.14-.63-.23-1.31-.35-2.03-.35m-15.39,19.61h5.96v-4.95h-16.88v4.95h5.96v15.86h4.95m27.28,3.46v-17.83h-13.9v17.2c0,.72-.25,1.33-.76,1.84-.55,.53-1.17,.79-1.87,.79h-7.14c.27,1.42,.77,2.74,1.49,3.97,.72,1.21,1.59,2.25,2.6,3.14,1.02,.87,2.18,1.55,3.49,2.06,1.29,.44,2.69,.67,4.19,.67,1.63,0,3.16-.29,4.6-.86,1.44-.63,2.71-1.49,3.81-2.57,1.08-1.08,1.92-2.34,2.54-3.78,.63-1.44,.95-2.98,.95-4.63m13.86-4.03v-13.8h-9.9v18.12c.53,.53,1.13,.93,1.81,1.21,.63,.25,1.35,.38,2.16,.38s1.6-.16,2.32-.48,1.34-.74,1.87-1.27c.55-.53,.97-1.16,1.27-1.9,.32-.72,.48-1.47,.48-2.25Z" style="fill:#fff;"/><g id="UC-UC-Free"><g><path d="M439.16,401.08v-.6c0-.6-.2-1.02-.6-1.45l-3.11-3.29c-.42-.42-.82-.6-1.25-.6s-.82,.2-1.25,.6c-2.27,2.47-5.36,3.72-8.88,3.72-1.85,0-3.52-.4-4.96-1.45-1.45-1.04-2.69-2.27-3.72-3.94-.82-1.63-1.45-3.29-1.45-5.14v-15.39c.02-1.83,.44-3.46,1.45-5.06,.46-.66,.94-1.31,1.47-1.93,.7-.74,1.45-1.41,2.25-1.99,1.45-1.02,3.09-1.45,4.96-1.45,3.74,0,6.61,1.47,8.88,3.94,.42,.42,.82,.6,1.25,.6s.82-.22,1.02-.42l.16-.18s.04-.02,.04-.02l3.09-3.29c.42-.42,.6-1.02,.6-1.45s-.22-.82-.42-1.25c-1.85-2.07-3.94-3.74-6.39-4.76-2.47-1.04-5.36-1.67-8.26-1.67-3.31,0-6.41,.8-9.3,2.47-2.27,1.29-4.14,2.99-5.65,5.14-.5,.66-.96,1.35-1.37,2.07-1.63,2.87-2.47,5.99-2.47,9.5v15.29c0,3.29,.8,6.61,2.47,9.5,1.67,2.89,3.94,5.16,6.81,7.03,2.27,1.25,3.9,1.61,6.37,2.03h0l18.1-6.41c.06-.02,.1-.06,.14-.16h0Z" style="fill:#fff;"/><path d="M400.95,355.87h-5.99c-.42,0-.8,.22-1.02,.42s-.42,.6-.42,1.02v30.76c0,3.29-1.02,6.17-2.87,8.26-1.83,2.03-4.28,3.05-7.33,3.07-3.05-.02-5.5-1.04-7.33-3.07-1.85-2.05-2.87-4.96-2.87-8.26v-30.76c0-.42-.22-.82-.42-1.02-.2-.22-.6-.42-1.02-.42h-5.99c-.42,0-.82,.22-1.02,.42-.22,.2-.42,.6-.42,1.02v30.33c0,3.9,.8,7.41,2.47,10.53,1.67,3.09,3.94,5.56,6.81,7.23,2.87,1.85,6.21,2.69,9.9,2.69,3.5,0,6.81-.82,9.68-2.69,2.87-1.67,5.14-4.12,6.81-7.23,1.63-3.09,2.47-6.59,2.47-10.53v-30.33c0-.42-.22-.82-.42-1.02-.18-.42-.58-.42-1-.42h0Z" style="fill:#fff;"/><path d="M439.76,345.97h0l-86.08-15.49,14.65,97.43,52.59-20.27h0c-2.47-.42-4.1-.78-6.37-2.03-2.87-1.85-5.14-4.12-6.81-7.03-1.67-2.87-2.47-6.21-2.47-9.5v-15.25c0-3.52,.82-6.61,2.47-9.5,.42-.72,.86-1.43,1.37-2.07,1.51-2.17,3.38-3.86,5.65-5.14,2.87-1.67,5.99-2.47,9.3-2.47,2.87,0,5.79,.6,8.26,1.67,2.47,1.02,4.54,2.69,6.39,4.76,.2,.42,.42,.82,.42,1.25s-.2,1.02-.6,1.45l-3.09,3.29s-.02,0-.04,.02l-.16,.18c-.2,.2-.6,.42-1.02,.42s-.82-.2-1.25-.6c-2.27-2.47-5.14-3.94-8.88-3.94-1.85,0-3.52,.42-4.96,1.45-.8,.58-1.55,1.25-2.25,1.99-.52,.6-1,1.27-1.47,1.93-1,1.61-1.43,3.23-1.45,5.06v15.39c0,1.85,.6,3.52,1.45,5.14,1.02,1.67,2.27,2.87,3.72,3.94,1.45,1.04,3.09,1.45,4.96,1.45,3.52,0,6.61-1.25,8.88-3.72,.42-.42,.82-.6,1.25-.6s.82,.2,1.25,.6l3.09,3.29c.42,.42,.6,.82,.6,1.45v.6c-.02,.08-.08,.14-.12,.18l.48-.16h0l14.71-5.56-14.44-49.6h0Zm-75.52,41.69v-30.33c0-.42,.2-.82,.42-1.02,.2-.2,.6-.42,1.02-.42h5.99c.42,0,.82,.2,1.02,.42,.2,.2,.42,.6,.42,1.02v30.76c0,3.29,1.02,6.21,2.87,8.26,1.83,2.03,4.28,3.05,7.33,3.07,3.05-.02,5.5-1.04,7.33-3.07,1.85-2.07,2.87-4.96,2.87-8.26v-30.76c0-.42,.2-.82,.42-1.02s.6-.42,1.02-.42h5.99c.42,0,.82,0,1.02,.42,.2,.2,.42,.6,.42,1.02v30.33c0,3.94-.82,7.41-2.47,10.53-1.67,3.09-3.94,5.56-6.81,7.23-2.87,1.85-6.21,2.69-9.68,2.69-3.72,0-7.03-.82-9.9-2.69-2.87-1.67-5.14-4.12-6.81-7.23-1.69-3.11-2.49-6.63-2.49-10.53Z" style="fill:#008087;"/></g><rect x="403.64" y="330.52" width="49.9" height="23" style="fill:#f5c663;"/><path d="M430.92,349.18c-.14-.14-.21-.32-.21-.52v-12.64c0-.2,.07-.38,.21-.52s.32-.21,.52-.21h6.68c.08,0,.15,.03,.2,.08,.05,.05,.08,.12,.08,.2v.99c0,.08-.03,.15-.08,.2-.05,.05-.12,.08-.2,.08h-5.74v4.34h4.38c.08,0,.15,.03,.2,.08,.05,.05,.08,.12,.08,.2v.95c0,.08-.03,.15-.08,.2-.05,.05-.12,.08-.2,.08h-4.38v5.11h5.74c.08,0,.15,.03,.2,.08,.05,.05,.08,.12,.08,.2v.99c0,.08-.03,.15-.08,.2-.05,.05-.12,.08-.2,.08h-6.68c-.2,0-.38-.07-.52-.21h0Z"/><path d="M442.37,349.18c-.14-.14-.21-.32-.21-.52v-12.64c0-.2,.07-.38,.21-.52s.32-.21,.52-.21h6.68c.08,0,.15,.03,.2,.08,.05,.05,.08,.12,.08,.2v.99c0,.08-.03,.15-.08,.2-.05,.05-.12,.08-.2,.08h-5.74v4.34h4.38c.08,0,.15,.03,.2,.08,.05,.05,.08,.12,.08,.2v.95c0,.08-.03,.15-.08,.2-.05,.05-.12,.08-.2,.08h-4.38v5.11h5.74c.08,0,.15,.03,.2,.08,.05,.05,.08,.12,.08,.2v.99c0,.08-.03,.15-.08,.2-.05,.05-.12,.08-.2,.08h-6.68c-.2,0-.38-.07-.52-.21h0Z"/><path d="M408.25,349.31c-.05-.05-.08-.12-.08-.2v-13.09c0-.2,.07-.38,.21-.52s.32-.21,.52-.21h6.68c.08,0,.15,.03,.2,.08,.05,.05,.08,.12,.08,.2v.99c0,.08-.03,.15-.08,.2-.05,.05-.12,.08-.2,.08h-5.74v4.75h4.38c.08,0,.15,.03,.2,.08,.05,.05,.08,.12,.08,.2v.95c0,.08-.03,.15-.08,.2-.05,.05-.12,.08-.2,.08h-4.38v5.98c0,.08-.03,.15-.08,.2-.05,.05-.12,.08-.2,.08h-1.09c-.08,0-.15-.03-.2-.08h0Z"/><path d="M418.96,349.31c-.05-.05-.08-.12-.08-.2v-13.09c0-.2,.07-.38,.21-.52s.32-.21,.52-.21h3.53c.76,0,1.45,.18,2.08,.55s1.13,.86,1.49,1.49c.37,.63,.55,1.32,.55,2.06,0,.99-.31,1.85-.93,2.6-.62,.74-1.41,1.21-2.35,1.4l3.37,5.44c.04,.05,.06,.12,.06,.2,0,.11-.04,.2-.11,.26-.07,.07-.17,.1-.27,.1h-1.03c-.13,0-.24-.06-.3-.18l-3.55-5.74h-1.58v5.64c0,.08-.03,.15-.08,.2-.05,.05-.12,.08-.2,.08h-1.09c-.08,0-.15-.03-.2-.08h0Zm4.06-7.4c.73,0,1.34-.24,1.82-.71,.48-.47,.72-1.07,.72-1.79s-.24-1.36-.72-1.84c-.48-.48-1.08-.72-1.82-.72h-2.48v5.05h2.48Z"/></g></g><text transform="translate(234.06 609.07)" style="fill:#fff; font-family:MiriamLibre-Bold, &apos;Miriam Libre&apos;; font-size:30px; font-weight:700;"><tspan x="0" y="0" style="letter-spacing:.01em;">C</tspan><tspan x="17.79" y="0" style="letter-spacing:0em;">l</tspan><tspan x="29.19" y="0" style="letter-spacing:0em;">i</tspan><tspan x="40.77" y="0">e</tspan><tspan x="58.32" y="0" style="letter-spacing:0em;">n</tspan><tspan x="76.68" y="0">t | App in </tspan><tspan x="218.01" y="0" style="letter-spacing:-.06em;">T</tspan><tspan x="233.64" y="0" style="letter-spacing:0em;">e</tspan><tspan x="250.89" y="0">ams</tspan></text><text transform="translate(750.03 490.37)" style="fill:#fff; font-family:MiriamLibre-Regular, &apos;Miriam Libre&apos;; font-size:40px;"><tspan x="0" y="0" style="letter-spacing:0em;">Un</tspan><tspan x="51.4" y="0" style="letter-spacing:0em;">ifi</tspan><tspan x="97.6" y="0" style="letter-spacing:.01em;">ed</tspan><tspan x="144.28" y="0" style="letter-spacing:0em;">C</tspan><tspan x="166.32" y="0" style="letter-spacing:.01em;">o</tspan><tspan x="189.28" y="0" style="letter-spacing:0em;">nt</tspan><tspan x="231.16" y="0" style="letter-spacing:.02em;">a</tspan><tspan x="254.36" y="0" style="letter-spacing:0em;">cts </tspan><tspan x="322.96" y="0" style="letter-spacing:0em;">F</tspan><tspan x="342.92" y="0" style="letter-spacing:0em;">r</tspan><tspan x="361.24" y="0" style="letter-spacing:.01em;">ee</tspan></text><g><path d="M1025.5,273.7h0l-168.25-30.26,28.63,190.36,102.79-39.63h0c-4.83-.84-7.97-1.52-12.41-3.99-5.61-3.59-10.05-8.08-13.3-13.75-3.26-5.61-4.83-12.18-4.83-18.58v-29.81c0-6.9,1.63-12.91,4.83-18.58,.84-1.46,1.68-2.81,2.64-4.04,2.92-4.21,6.62-7.52,11-10.05,5.61-3.26,11.68-4.83,18.19-4.83,5.61,0,11.34,1.18,16.11,3.26,4.83,1.96,8.87,5.28,12.52,9.26,.39,.84,.84,1.63,.84,2.47s-.39,1.96-1.18,2.81l-6.06,6.4s-.06,0-.06,.06l-.34,.34c-.39,.39-1.18,.84-1.96,.84-.84,0-1.63-.39-2.47-1.18-4.49-4.72-10.1-7.58-17.4-7.58-3.59,0-6.9,.84-9.71,2.81-1.57,1.18-3.03,2.47-4.38,3.87-1.01,1.18-1.96,2.47-2.86,3.76-1.96,3.14-2.81,6.34-2.81,9.88v30.09c0,3.59,1.18,6.9,2.81,10.05,1.96,3.26,4.43,5.61,7.24,7.69,2.81,2.08,6.06,2.81,9.71,2.81,6.9,0,12.91-2.47,17.35-7.24,.84-.84,1.63-1.18,2.47-1.18s1.63,.39,2.47,1.18l6.06,6.4c.84,.84,1.18,1.63,1.18,2.81v1.18c-.06,.11-.11,.28-.22,.34l.95-.34h0l28.74-10.83-28.29-96.78Zm-147.59,81.46v-59.28c0-.84,.39-1.63,.84-1.96,.39-.39,1.18-.84,1.96-.84h11.68c.84,0,1.63,.39,1.96,.84,.39,.39,.84,1.18,.84,1.96v60.12c0,6.4,1.96,12.18,5.61,16.11,3.54,3.99,8.31,5.95,14.37,6.01,5.95-.06,10.72-2.08,14.37-6.01,3.59-4.04,5.61-9.71,5.61-16.11v-60.12c0-.84,.39-1.63,.84-1.96,.39-.39,1.18-.84,1.96-.84h11.68c.84,0,1.63,0,1.96,.84,.39,.39,.84,1.18,.84,1.96v59.28c0,7.69-1.63,14.48-4.83,20.55-3.26,6.06-7.69,10.83-13.3,14.15-5.61,3.59-12.18,5.28-18.92,5.28-7.24,0-13.75-1.63-19.31-5.28-5.61-3.26-10.05-8.08-13.3-14.15-3.31-6.06-4.88-12.97-4.88-20.55Z" style="fill:#fff;"/><g><rect x="955.53" y="237.11" width="99.77" height="45.98" style="fill:#f5c663;"/><text transform="translate(960.95 274.84)" style="font-family:MiriamLibre-Regular, &apos;Miriam Libre&apos;; font-size:40.54px; isolation:isolate; letter-spacing:.01em;"><tspan x="0" y="0">FR</tspan></text><text transform="translate(1006 274.84)" style="font-family:MiriamLibre-Regular, &apos;Miriam Libre&apos;; font-size:40.54px; isolation:isolate; letter-spacing:.03em;"><tspan x="0" y="0">E</tspan></text><text transform="translate(1028.85 274.84)" style="font-family:MiriamLibre-Regular, &apos;Miriam Libre&apos;; font-size:40.54px; isolation:isolate;"><tspan x="0" y="0">E</tspan></text><path d="M964.77,274.66c-.11-.11-.17-.23-.17-.4v-26.18c0-.4,.11-.75,.4-1.03,.29-.29,.63-.4,1.03-.4h13.32c.17,0,.29,.06,.4,.17,.11,.11,.17,.23,.17,.4v2.01c0,.17-.06,.29-.17,.4s-.23,.17-.4,.17h-11.48v9.47h8.78c.17,0,.29,.06,.4,.17,.11,.11,.17,.23,.17,.4v1.89c0,.17-.06,.29-.17,.4s-.23,.17-.4,.17h-8.78v11.94c0,.17-.06,.29-.17,.4s-.23,.17-.4,.17h-2.18c-.11,0-.23-.06-.34-.17Z"/><path d="M986.07,274.66c-.11-.11-.17-.23-.17-.4v-26.18c0-.4,.11-.75,.4-1.03s.63-.4,1.03-.4h7.06c1.49,0,2.87,.34,4.13,1.09s2.24,1.72,2.99,2.99c.75,1.26,1.09,2.64,1.09,4.13,0,1.95-.63,3.73-1.84,5.17-1.26,1.49-2.81,2.41-4.71,2.81l6.72,10.85c.06,.11,.11,.23,.11,.4,0,.23-.06,.4-.23,.52-.17,.11-.34,.23-.57,.23h-2.07c-.29,0-.46-.11-.63-.34l-7.12-11.48h-3.16v11.25c0,.17-.06,.29-.17,.4s-.23,.17-.4,.17h-2.18s-.17-.06-.29-.17Zm8.15-14.75c1.44,0,2.64-.46,3.62-1.44,.98-.92,1.44-2.12,1.44-3.56s-.46-2.7-1.44-3.67c-.98-.98-2.18-1.44-3.62-1.44h-4.94v10.1h4.94Z"/><path d="M1010.07,274.43c-.29-.29-.4-.63-.4-1.03v-25.26c0-.4,.11-.75,.4-1.03s.63-.4,1.03-.4h13.32c.17,0,.29,.06,.4,.17,.11,.11,.17,.23,.17,.4v2.01c0,.17-.06,.29-.17,.4s-.23,.17-.4,.17h-11.48v8.67h8.78c.17,0,.29,.06,.4,.17,.11,.11,.17,.23,.17,.4v1.89c0,.17-.06,.29-.17,.4s-.23,.17-.4,.17h-8.78v10.22h11.48c.17,0,.29,.06,.4,.17,.11,.11,.17,.23,.17,.4v2.01c0,.17-.06,.29-.17,.4s-.23,.17-.4,.17h-13.32c-.4-.11-.75-.23-1.03-.52Z"/><path d="M1032.91,274.43c-.29-.29-.4-.63-.4-1.03v-25.26c0-.4,.11-.75,.4-1.03s.63-.4,1.03-.4h13.32c.17,0,.29,.06,.4,.17,.11,.11,.17,.23,.17,.4v2.01c0,.17-.06,.29-.17,.4-.11,.11-.23,.17-.4,.17h-11.48v8.67h8.78c.17,0,.29,.06,.4,.17,.11,.11,.17,.23,.17,.4v1.89c0,.17-.06,.29-.17,.4-.11,.11-.23,.17-.4,.17h-8.78v10.22h11.48c.17,0,.29,.06,.4,.17,.11,.11,.17,.23,.17,.4v2.01c0,.17-.06,.29-.17,.4-.11,.11-.23,.17-.4,.17h-13.32c-.4-.11-.75-.23-1.03-.52Z"/></g></g><path d="M600.57,384.29h101m-101,0" style="fill:none; stroke:#f5c663; stroke-linecap:round; stroke-miterlimit:10; stroke-width:5.67px;"/><path d="M1201.51,261.87h101m-101,0" style="fill:none; stroke:#f5c663; stroke-linecap:round; stroke-miterlimit:10; stroke-width:5.67px;"/><path d="M1204.16,529.22h101m-101,0" style="fill:none; stroke:#f5c663; stroke-linecap:round; stroke-miterlimit:10; stroke-width:5.67px;"/><rect x="725.64" y=".37" width="454.69" height="111.31" style="fill:#808e99;"/><text transform="translate(750.12 68.27)" style="fill:#fff;"><tspan x="0" y="0" style="font-family:MiriamLibre-Bold, &apos;Miriam Libre&apos;; font-size:40px; font-weight:700; letter-spacing:0em;">O</tspan><tspan x="26.36" y="0" style="font-family:MiriamLibre-Bold, &apos;Miriam Libre&apos;; font-size:40px; font-weight:700;">UR </tspan><tspan x="87.68" y="0" style="font-family:MiriamLibre-Regular, &apos;Miriam Libre&apos;; font-size:30px; letter-spacing:.01em;">A</tspan><tspan x="106.34" y="0" style="font-family:MiriamLibre-Regular, &apos;Miriam Libre&apos;; font-size:30px; letter-spacing:0em;">z</tspan><tspan x="120.77" y="0" style="font-family:MiriamLibre-Regular, &apos;Miriam Libre&apos;; font-size:30px;">u</tspan><tspan x="138.59" y="0" style="font-family:MiriamLibre-Regular, &apos;Miriam Libre&apos;; font-size:30px; letter-spacing:-.01em;">r</tspan><tspan x="152.03" y="0" style="font-family:MiriamLibre-Regular, &apos;Miriam Libre&apos;; font-size:30px;">e </tspan><tspan x="176.84" y="0" style="font-family:MiriamLibre-Regular, &apos;Miriam Libre&apos;; font-size:30px; letter-spacing:-.06em;">T</tspan><tspan x="191.36" y="0" style="font-family:MiriamLibre-Regular, &apos;Miriam Libre&apos;; font-size:30px;">ena</tspan><tspan x="242.69" y="0" style="font-family:MiriamLibre-Regular, &apos;Miriam Libre&apos;; font-size:30px; letter-spacing:0em;">n</tspan><tspan x="260.36" y="0" style="font-family:MiriamLibre-Regular, &apos;Miriam Libre&apos;; font-size:30px;">t</tspan><tspan x="273.65" y="0" style="font-family:MiriamLibre-Regular, &apos;Miriam Libre&apos;; font-size:30px; letter-spacing:0em;">(</tspan><tspan x="283.82" y="0" style="font-family:MiriamLibre-Regular, &apos;Miriam Libre&apos;; font-size:30px;">s)</tspan></text><rect x="1325.6" y=".37" width="364.45" height="112.13" style="fill:#808e99;"/><g><path d="M1351.07,50.91c-.16-.16-.24-.36-.24-.6v-12.24l-8.44-14.12c-.11-.13-.16-.31-.16-.52,0-.24,.09-.45,.28-.62,.19-.17,.41-.26,.68-.26h3.32c.37,0,.64,.15,.8,.44l5.92,10.28h.08l5.92-10.28c.16-.29,.43-.44,.8-.44h3.32c.27,0,.49,.09,.68,.26,.19,.17,.28,.38,.28,.62,0,.21-.05,.39-.16,.52l-8.44,14.12v12.24c0,.24-.08,.44-.24,.6-.16,.16-.36,.24-.6,.24h-3.2c-.24,0-.44-.08-.6-.24Z" style="fill:#fff;"/><path d="M1371.91,50.25c-1.63-.95-2.91-2.23-3.86-3.84-.95-1.61-1.42-3.38-1.42-5.3v-8.52c0-1.92,.47-3.69,1.42-5.3,.95-1.61,2.23-2.89,3.86-3.84,1.63-.95,3.4-1.42,5.32-1.42s3.69,.47,5.32,1.42c1.63,.95,2.91,2.23,3.86,3.84,.95,1.61,1.42,3.38,1.42,5.3v8.52c0,1.92-.47,3.69-1.42,5.3-.95,1.61-2.23,2.89-3.86,3.84-1.63,.95-3.4,1.42-5.32,1.42s-3.69-.47-5.32-1.42Zm8.16-4.06c.88-.53,1.58-1.25,2.1-2.16,.52-.91,.78-1.88,.78-2.92v-8.52c0-1.04-.26-2.01-.78-2.92-.52-.91-1.22-1.63-2.1-2.16-.88-.53-1.83-.8-2.84-.8s-1.96,.27-2.84,.8c-.88,.53-1.58,1.25-2.1,2.16-.52,.91-.78,1.88-.78,2.92v8.52c0,1.04,.26,2.01,.78,2.92,.52,.91,1.22,1.63,2.1,2.16,.88,.53,1.83,.8,2.84,.8s1.96-.27,2.84-.8Z" style="fill:#fff;"/><path d="M1398.85,50.19c-1.61-.99-2.88-2.34-3.8-4.06s-1.38-3.66-1.38-5.82V23.39c0-.24,.08-.44,.24-.6s.36-.24,.6-.24h3.2c.24,0,.44,.08,.6,.24,.16,.16,.24,.36,.24,.6v17.12c0,1.92,.53,3.47,1.58,4.64,1.05,1.17,2.45,1.76,4.18,1.76s3.09-.59,4.14-1.76c1.05-1.17,1.58-2.72,1.58-4.64V23.39c0-.24,.08-.44,.24-.6,.16-.16,.36-.24,.6-.24h3.2c.24,0,.44,.08,.6,.24s.24,.36,.24,.6v16.92c0,2.16-.46,4.11-1.38,5.84-.92,1.73-2.19,3.09-3.8,4.06-1.61,.97-3.42,1.46-5.42,1.46s-3.85-.49-5.46-1.48Z" style="fill:#fff;"/><path d="M1421.51,50.91c-.16-.16-.24-.36-.24-.6V24.27c0-.48,.17-.89,.5-1.22s.74-.5,1.22-.5h7.48c1.63,0,3.12,.39,4.48,1.16,1.36,.77,2.44,1.83,3.24,3.16s1.2,2.79,1.2,4.36c0,1.92-.57,3.63-1.72,5.14-1.15,1.51-2.64,2.54-4.48,3.1l6.64,10.28c.11,.19,.16,.37,.16,.56,0,.24-.09,.44-.26,.6-.17,.16-.39,.24-.66,.24h-3.28c-.45,0-.8-.19-1.04-.56l-6.64-10.68h-1.96v10.4c0,.24-.08,.44-.24,.6-.16,.16-.36,.24-.6,.24h-3.2c-.24,0-.44-.08-.6-.24Zm8.72-15.6c1.23,0,2.23-.38,3.02-1.14,.79-.76,1.18-1.73,1.18-2.9s-.39-2.19-1.18-2.96c-.79-.77-1.79-1.16-3.02-1.16h-4.08v8.16h4.08Z" style="fill:#fff;"/><path d="M1464.27,51.44c-.11-.07-.19-.17-.22-.29l-5.76-16.68-1.98,16.17c-.02,.16-.09,.28-.19,.38-.11,.09-.25,.13-.41,.13h-1.41c-.16,0-.29-.05-.38-.17-.09-.11-.13-.23-.1-.38l2.61-19.98c.02-.1,.06-.18,.13-.24,.07-.06,.15-.09,.23-.09h2.1c.12,0,.24,.04,.36,.1,.12,.07,.19,.17,.21,.29l5.91,17.13,5.97-17.25c.06-.18,.18-.27,.36-.27h2.07c.16,0,.29,.04,.41,.14,.11,.09,.17,.21,.19,.38l2.58,19.8v.06c0,.12-.04,.23-.14,.33-.09,.1-.21,.15-.34,.15h-1.44c-.16,0-.3-.04-.41-.13-.11-.09-.18-.21-.19-.38l-1.98-16.11-5.76,16.62c-.04,.12-.12,.21-.22,.29-.11,.07-.23,.1-.35,.1h-1.5c-.12,0-.24-.04-.35-.1Z" style="fill:#fff;"/><path d="M1483.95,50.84c-.21-.21-.31-.46-.31-.77v-13.68h-3.12c-.12,0-.22-.04-.3-.12-.08-.08-.12-.18-.12-.3v-1.38c0-.12,.04-.22,.12-.3,.08-.08,.18-.12,.3-.12h4.38c.3,0,.56,.1,.77,.31s.31,.46,.31,.77v13.68h3.09c.12,0,.22,.04,.3,.12,.08,.08,.12,.18,.12,.3v1.38c0,.12-.04,.22-.12,.3s-.18,.12-.3,.12h-4.35c-.3,0-.56-.1-.77-.31Zm-.17-19.12c-.08-.08-.12-.18-.12-.3v-2.61c0-.12,.04-.22,.12-.3s.18-.12,.3-.12h1.44c.12,0,.22,.04,.3,.12,.08,.08,.12,.18,.12,.3v2.61c0,.12-.04,.22-.12,.3s-.18,.12-.3,.12h-1.44c-.12,0-.22-.04-.3-.12Z" style="fill:#fff;"/><path d="M1495.43,50.67c-1-.58-1.79-1.38-2.37-2.39-.58-1.01-.87-2.1-.87-3.28v-4.68c0-1.18,.29-2.27,.87-3.29,.58-1.01,1.37-1.8,2.37-2.38,1-.58,2.09-.87,3.27-.87,.86,0,1.67,.16,2.44,.48,.77,.32,1.44,.76,2.03,1.32,.12,.12,.18,.26,.18,.42,0,.14-.06,.29-.18,.45-.2,.22-.43,.45-.69,.69-.14,.12-.29,.18-.45,.18-.18,0-.34-.07-.48-.21-.8-.74-1.75-1.11-2.85-1.11-.76,0-1.46,.19-2.1,.55-.64,.37-1.15,.88-1.51,1.52-.37,.64-.56,1.34-.56,2.1v4.98c0,.76,.18,1.46,.56,2.1,.37,.64,.87,1.15,1.51,1.52s1.34,.55,2.1,.55c1.1,0,2.05-.37,2.85-1.11,.14-.14,.3-.21,.48-.21,.16,0,.31,.06,.45,.18,.24,.2,.47,.43,.69,.69,.12,.12,.18,.27,.18,.45,0,.16-.06,.3-.18,.42-.58,.56-1.26,1-2.03,1.32-.77,.32-1.58,.48-2.44,.48-1.18,0-2.27-.29-3.27-.87Z" style="fill:#fff;"/><path d="M1506.77,51.03c-.08-.08-.12-.18-.12-.3v-1.38c0-.12,.04-.22,.12-.3s.18-.12,.3-.12h2.49v-12.63h-2.49c-.12,0-.22-.04-.3-.12-.08-.08-.12-.18-.12-.3v-1.29c0-.12,.04-.22,.12-.3s.18-.12,.3-.12h3.75c.3,0,.56,.1,.77,.31s.31,.46,.31,.77v1.5l1.74-1.35c.72-.56,1.3-.93,1.75-1.12,.45-.19,.92-.29,1.42-.29h.9c.14,0,.24,.04,.31,.12,.07,.08,.11,.18,.11,.3v1.47c0,.12-.04,.22-.12,.3-.08,.08-.18,.12-.3,.12h-.66c-.5,0-.97,.1-1.41,.31-.44,.21-1.1,.67-1.98,1.37l-1.77,1.41v9.54h3.48c.12,0,.22,.04,.3,.12,.08,.08,.12,.18,.12,.3v1.38c0,.12-.04,.22-.12,.3-.08,.08-.18,.12-.3,.12h-8.31c-.12,0-.22-.04-.3-.12Z" style="fill:#fff;"/><path d="M1523.78,50.67c-1-.58-1.79-1.38-2.37-2.39-.58-1.01-.87-2.1-.87-3.28v-4.68c0-1.18,.29-2.27,.87-3.29,.58-1.01,1.37-1.8,2.37-2.38,1-.58,2.09-.87,3.27-.87s2.27,.29,3.27,.87c1,.58,1.79,1.38,2.37,2.38,.58,1.01,.87,2.11,.87,3.29v4.68c0,1.18-.29,2.28-.87,3.28-.58,1.01-1.37,1.81-2.37,2.39-1,.58-2.09,.87-3.27,.87s-2.27-.29-3.27-.87Zm5.37-1.9c.64-.37,1.14-.88,1.52-1.52,.37-.64,.55-1.34,.55-2.1v-4.98c0-.76-.19-1.46-.55-2.1-.37-.64-.88-1.14-1.52-1.52-.64-.37-1.34-.55-2.1-.55s-1.46,.19-2.1,.55c-.64,.37-1.15,.88-1.51,1.52-.37,.64-.56,1.34-.56,2.1v4.98c0,.76,.18,1.46,.56,2.1,.37,.64,.87,1.15,1.51,1.52s1.34,.55,2.1,.55,1.46-.18,2.1-.55Z" style="fill:#fff;"/><path d="M1539.44,51.09c-.88-.24-1.64-.59-2.28-1.05-.08-.04-.13-.1-.17-.2-.03-.09-.02-.18,.02-.28l.63-1.26c.1-.16,.23-.24,.39-.24,.04,0,.12,.02,.24,.06,1.32,.8,2.65,1.2,3.99,1.2,1.06,0,1.9-.23,2.5-.71,.61-.47,.92-1.13,.92-1.99,0-.52-.13-.95-.4-1.28-.27-.33-.63-.6-1.06-.81-.44-.21-1.13-.49-2.07-.85-1.22-.46-2.18-.89-2.88-1.29-.7-.4-1.25-.91-1.65-1.53-.4-.62-.6-1.41-.6-2.37,0-1.54,.51-2.71,1.53-3.51,1.02-.8,2.33-1.2,3.93-1.2,.84,0,1.67,.12,2.51,.36,.83,.24,1.57,.58,2.23,1.02,.08,.04,.13,.11,.15,.21,.02,.1,0,.19-.03,.27l-.6,1.23c-.04,.12-.12,.2-.23,.24-.11,.04-.23,.02-.35-.06-1.28-.76-2.51-1.14-3.69-1.14-.98,0-1.75,.21-2.29,.63-.55,.42-.82,1.03-.82,1.83,0,.62,.15,1.12,.45,1.5,.3,.38,.66,.67,1.08,.85s1.09,.46,2.01,.79c1.18,.42,2.11,.81,2.79,1.17,.68,.36,1.24,.84,1.68,1.44,.44,.6,.66,1.38,.66,2.34,0,1.54-.54,2.76-1.6,3.65-1.07,.89-2.5,1.33-4.28,1.33-.92,0-1.82-.12-2.7-.36Z" style="fill:#fff;"/><path d="M1554.8,50.67c-1-.58-1.79-1.38-2.37-2.39-.58-1.01-.87-2.1-.87-3.28v-4.68c0-1.18,.29-2.27,.87-3.29,.58-1.01,1.37-1.8,2.37-2.38,1-.58,2.09-.87,3.27-.87s2.27,.29,3.27,.87c1,.58,1.79,1.38,2.37,2.38,.58,1.01,.87,2.11,.87,3.29v4.68c0,1.18-.29,2.28-.87,3.28-.58,1.01-1.37,1.81-2.37,2.39-1,.58-2.09,.87-3.27,.87s-2.27-.29-3.27-.87Zm5.37-1.9c.64-.37,1.14-.88,1.52-1.52,.37-.64,.55-1.34,.55-2.1v-4.98c0-.76-.19-1.46-.55-2.1-.37-.64-.88-1.14-1.52-1.52-.64-.37-1.34-.55-2.1-.55s-1.46,.19-2.1,.55c-.64,.37-1.15,.88-1.51,1.52-.37,.64-.56,1.34-.56,2.1v4.98c0,.76,.18,1.46,.56,2.1,.37,.64,.87,1.15,1.51,1.52s1.34,.55,2.1,.55,1.46-.18,2.1-.55Z" style="fill:#fff;"/><path d="M1570.1,51.03c-.08-.08-.12-.18-.12-.3v-14.34h-2.28c-.12,0-.22-.04-.3-.12-.08-.08-.12-.18-.12-.3v-1.38c0-.12,.04-.22,.12-.3,.08-.08,.18-.12,.3-.12h2.28v-1.2c0-1.32,.41-2.42,1.23-3.28,.82-.87,1.95-1.31,3.39-1.31h2.4c.12,0,.22,.04,.3,.12,.08,.08,.12,.18,.12,.3v1.29c0,.12-.04,.22-.12,.3-.08,.08-.18,.12-.3,.12h-2.43c-.68,0-1.23,.22-1.64,.65-.41,.43-.61,1-.61,1.7v1.32h4.08c.12,0,.22,.04,.3,.12,.08,.08,.12,.18,.12,.3v1.38c0,.12-.04,.22-.12,.3s-.18,.12-.3,.12h-4.08v14.34c0,.12-.04,.22-.12,.3s-.18,.12-.3,.12h-1.5c-.12,0-.22-.04-.3-.12Z" style="fill:#fff;"/><path d="M1583.15,49.85c-.82-.87-1.23-1.96-1.23-3.28v-10.2h-1.98c-.12,0-.22-.04-.3-.12-.08-.08-.12-.18-.12-.3v-1.35c0-.12,.04-.22,.12-.3,.08-.08,.18-.12,.3-.12h1.98v-3.15c0-.12,.04-.22,.12-.3s.18-.12,.3-.12h1.5c.12,0,.22,.04,.3,.12,.08,.08,.12,.18,.12,.3v3.15h5.28c.12,0,.22,.04,.3,.12,.08,.08,.12,.18,.12,.3v1.38c0,.12-.04,.22-.12,.3s-.18,.12-.3,.12h-5.28v9.9c0,.78,.23,1.41,.71,1.88,.47,.47,1.08,.72,1.85,.73l2.73,.03c.12,0,.22,.04,.3,.12,.08,.08,.12,.18,.12,.3v1.38c0,.12-.04,.22-.12,.3s-.18,.12-.3,.12h-3c-1.44,0-2.57-.44-3.39-1.31Z" style="fill:#fff;"/><path d="M1344.47,92.55c-1.18-.64-2.12-1.52-2.82-2.64-.04-.08-.06-.16-.06-.24,0-.18,.08-.33,.24-.45l1.02-.72c.1-.06,.2-.09,.3-.09,.2,0,.36,.09,.48,.27,.6,.8,1.31,1.44,2.13,1.91,.82,.47,1.65,.71,2.49,.71s1.61-.21,2.31-.63c.7-.42,1.25-.99,1.67-1.71,.41-.72,.62-1.5,.62-2.34s-.21-1.61-.62-2.31c-.41-.7-.96-1.25-1.63-1.67-.68-.41-1.42-.61-2.22-.61-.22,0-.38,.01-.48,.03l-.63,.84c-.06,.12-.17,.18-.33,.18-.1,0-.18-.03-.24-.09l-1.14-.81c-.1-.06-.15-.16-.15-.3,0-.12,.03-.21,.09-.27l5.01-7.02h-6.75c-.12,0-.22-.04-.3-.12-.08-.08-.12-.18-.12-.3v-1.44c0-.12,.04-.22,.12-.3s.18-.12,.3-.12h8.49c.42,0,.77,.13,1.04,.39,.27,.26,.4,.57,.4,.93,0,.3-.1,.59-.3,.87l-3.96,5.46c1.1,.16,2.09,.56,2.97,1.19,.88,.63,1.57,1.42,2.07,2.37,.5,.95,.75,1.99,.75,3.1,0,1.24-.32,2.39-.95,3.45s-1.48,1.9-2.55,2.52c-1.07,.62-2.23,.93-3.47,.93-1.34,0-2.6-.32-3.78-.96Z" style="fill:#fff;"/><path d="M1362.27,92.66c-1.03-.59-1.84-1.4-2.43-2.43s-.88-2.17-.88-3.41c0-2.16,.07-3.92,.23-5.27,.15-1.35,.48-2.58,1-3.7,.84-1.74,2.05-3.1,3.63-4.08,1.58-.98,3.36-1.47,5.34-1.47,.14,0,.25,.04,.33,.12,.08,.08,.12,.18,.12,.3v1.35c0,.1-.04,.2-.12,.29-.08,.09-.17,.13-.27,.13-1.48,0-2.79,.33-3.94,.99-1.15,.66-2.07,1.59-2.75,2.77-.68,1.19-1.06,2.56-1.14,4.12,.44-.68,1.1-1.23,2-1.67,.89-.43,1.75-.65,2.6-.65,1.2,0,2.29,.31,3.28,.92,.99,.61,1.77,1.43,2.33,2.46,.56,1.03,.84,2.16,.84,3.38s-.31,2.32-.92,3.35c-.61,1.03-1.43,1.85-2.46,2.46-1.03,.61-2.16,.92-3.38,.92s-2.38-.3-3.4-.89Zm5.58-1.95c.67-.41,1.2-.96,1.6-1.65,.4-.69,.6-1.43,.6-2.23s-.2-1.55-.6-2.25c-.4-.7-.94-1.25-1.6-1.67-.67-.41-1.4-.61-2.18-.61s-1.53,.2-2.19,.6c-.66,.4-1.18,.94-1.56,1.63s-.57,1.46-.57,2.29,.19,1.6,.57,2.29,.9,1.23,1.56,1.62c.66,.39,1.39,.58,2.19,.58s1.5-.2,2.18-.61Z" style="fill:#fff;"/><path d="M1377.9,92.67c-1.19-.66-2.15-1.56-2.87-2.7-.04-.04-.06-.12-.06-.24,0-.16,.07-.28,.21-.36l1.02-.75c.1-.06,.21-.09,.33-.09,.22,0,.38,.08,.48,.24,.56,.82,1.26,1.47,2.12,1.95,.85,.48,1.71,.72,2.59,.72s1.65-.21,2.39-.63c.73-.42,1.3-1,1.72-1.74,.42-.74,.63-1.55,.63-2.43s-.21-1.65-.63-2.37c-.42-.72-.98-1.29-1.68-1.7-.7-.41-1.47-.61-2.31-.61-1.28,0-2.5,.48-3.66,1.44-.2,.16-.42,.21-.66,.15l-.84-.24c-.1-.02-.18-.08-.23-.18-.05-.1-.06-.21-.04-.33l1.53-9.63c.04-.26,.15-.47,.34-.63s.42-.24,.68-.24h7.92c.12,0,.22,.04,.3,.12,.08,.08,.12,.18,.12,.3v1.38c0,.12-.04,.22-.12,.3s-.18,.12-.3,.12h-6.93l-.93,5.97c.98-.46,1.96-.69,2.94-.69,1.22,0,2.35,.31,3.39,.92,1.04,.61,1.87,1.44,2.49,2.49,.62,1.05,.93,2.19,.93,3.44s-.32,2.43-.96,3.51c-.64,1.08-1.5,1.94-2.58,2.56s-2.25,.94-3.51,.94c-1.36,0-2.64-.33-3.82-.99Z" style="fill:#fff;"/><path d="M1405.43,93.03c-.08-.08-.12-.18-.12-.3v-18.12h-5.19c-.12,0-.22-.04-.3-.12-.08-.08-.12-.18-.12-.3v-1.47c0-.12,.04-.22,.12-.3s.18-.12,.3-.12h12.84c.12,0,.22,.04,.3,.12,.08,.08,.12,.18,.12,.3v1.47c0,.12-.04,.22-.12,.3s-.18,.12-.3,.12h-5.19v18.12c0,.12-.04,.22-.12,.3s-.18,.12-.3,.12h-1.62c-.12,0-.22-.04-.3-.12Z" style="fill:#fff;"/><path d="M1418.09,92.28c-1-.58-1.79-1.37-2.37-2.38-.58-1.01-.87-2.1-.87-3.29v-4.29c0-1.18,.29-2.27,.87-3.29,.58-1.01,1.37-1.8,2.37-2.38,1-.58,2.09-.87,3.27-.87s2.27,.29,3.27,.87c1,.58,1.79,1.38,2.37,2.38,.58,1.01,.87,2.11,.87,3.29v2.04c0,.3-.1,.56-.32,.77-.21,.21-.46,.31-.76,.31h-9.6v1.32c0,.76,.18,1.46,.56,2.1,.37,.64,.87,1.15,1.51,1.52s1.34,.55,2.1,.55h4.35c.12,0,.22,.04,.3,.12,.08,.08,.12,.18,.12,.3v1.38c0,.12-.04,.22-.12,.3s-.18,.12-.3,.12h-4.35c-1.18,0-2.27-.29-3.27-.87Zm7.44-9v-1.11c0-.76-.19-1.46-.55-2.1-.37-.64-.88-1.14-1.52-1.52-.64-.37-1.34-.55-2.1-.55s-1.46,.19-2.1,.55c-.64,.37-1.15,.88-1.51,1.52-.37,.64-.56,1.34-.56,2.1v1.11h8.34Z" style="fill:#fff;"/><path d="M1432.43,93c-.08-.08-.12-.18-.12-.3v-16.11c0-.12,.04-.22,.12-.3,.08-.08,.18-.12,.3-.12h1.5c.12,0,.22,.04,.3,.12,.08,.08,.12,.18,.12,.3v1.65c.52-.82,1.19-1.44,2.02-1.86,.83-.42,1.77-.63,2.81-.63,1.7,0,3.07,.52,4.12,1.56,1.05,1.04,1.57,2.41,1.57,4.11v11.28c0,.12-.04,.22-.12,.3-.08,.08-.18,.12-.3,.12h-1.5c-.12,0-.22-.04-.3-.12-.08-.08-.12-.18-.12-.3v-10.83c0-1.28-.33-2.25-1-2.93-.67-.67-1.58-1-2.72-1-1.34,0-2.42,.44-3.24,1.32-.82,.88-1.23,2.09-1.23,3.63v9.81c0,.12-.04,.22-.12,.3s-.18,.12-.3,.12h-1.5c-.12,0-.22-.04-.3-.12Z" style="fill:#fff;"/><path d="M1450.4,92.24c-.98-.87-1.47-2.01-1.47-3.44,0-1.32,.44-2.41,1.33-3.27,.89-.86,2.13-1.4,3.73-1.62l3.9-.54c.58-.08,1-.27,1.26-.59,.26-.31,.39-.75,.39-1.33v-.24c0-.96-.38-1.73-1.12-2.33-.75-.59-1.69-.88-2.81-.88-.88,0-1.65,.18-2.29,.52-.65,.35-1.17,.84-1.54,1.46-.16,.26-.36,.39-.6,.39-.12,0-.25-.05-.39-.15l-.81-.54c-.18-.16-.27-.33-.27-.51,0-.08,.03-.18,.09-.3,.58-.96,1.37-1.71,2.38-2.27,1.01-.55,2.18-.83,3.5-.83,1.2,0,2.27,.23,3.21,.68,.94,.45,1.67,1.08,2.17,1.9,.51,.82,.77,1.77,.77,2.85v11.52c0,.12-.04,.22-.12,.3-.08,.08-.18,.12-.3,.12h-1.26c-.12,0-.22-.04-.3-.12-.08-.08-.12-.18-.12-.3v-2.07c-.62,.9-1.42,1.61-2.38,2.12-.97,.51-2.02,.77-3.17,.77-1.54,0-2.8-.44-3.78-1.31Zm6.69-1.58c.8-.52,1.42-1.17,1.88-1.96,.45-.79,.67-1.56,.67-2.32v-1.23c-.48,.06-2.02,.27-4.62,.63l-.84,.12c-2,.3-3,1.24-3,2.82,0,.82,.3,1.48,.9,1.98,.6,.5,1.38,.75,2.34,.75s1.87-.26,2.67-.78Z" style="fill:#fff;"/><path d="M1467.05,93c-.08-.08-.12-.18-.12-.3v-16.11c0-.12,.04-.22,.12-.3,.08-.08,.18-.12,.3-.12h1.5c.12,0,.22,.04,.3,.12,.08,.08,.12,.18,.12,.3v1.65c.52-.82,1.19-1.44,2.02-1.86,.83-.42,1.77-.63,2.81-.63,1.7,0,3.07,.52,4.12,1.56,1.05,1.04,1.57,2.41,1.57,4.11v11.28c0,.12-.04,.22-.12,.3-.08,.08-.18,.12-.3,.12h-1.5c-.12,0-.22-.04-.3-.12-.08-.08-.12-.18-.12-.3v-10.83c0-1.28-.33-2.25-1-2.93-.67-.67-1.58-1-2.72-1-1.34,0-2.42,.44-3.24,1.32-.82,.88-1.23,2.09-1.23,3.63v9.81c0,.12-.04,.22-.12,.3s-.18,.12-.3,.12h-1.5c-.12,0-.22-.04-.3-.12Z" style="fill:#fff;"/><path d="M1486.73,91.85c-.82-.87-1.23-1.96-1.23-3.28v-10.2h-1.98c-.12,0-.22-.04-.3-.12-.08-.08-.12-.18-.12-.3v-1.35c0-.12,.04-.22,.12-.3,.08-.08,.18-.12,.3-.12h1.98v-3.15c0-.12,.04-.22,.12-.3s.18-.12,.3-.12h1.5c.12,0,.22,.04,.3,.12,.08,.08,.12,.18,.12,.3v3.15h5.28c.12,0,.22,.04,.3,.12,.08,.08,.12,.18,.12,.3v1.38c0,.12-.04,.22-.12,.3s-.18,.12-.3,.12h-5.28v9.9c0,.78,.23,1.41,.71,1.88,.47,.47,1.08,.72,1.85,.73l2.73,.03c.12,0,.22,.04,.3,.12,.08,.08,.12,.18,.12,.3v1.38c0,.12-.04,.22-.12,.3s-.18,.12-.3,.12h-3c-1.44,0-2.57-.44-3.39-1.31Z" style="fill:#fff;"/></g></svg>