<?xml version="1.0" encoding="UTF-8"?><svg id="Ebene_7" xmlns="http://www.w3.org/2000/svg" viewBox="0 0 961.03 1752.34"><g><path id="Rectangle-5" d="M.24,.87H958.85V297.78H.24V.87Z" style="fill:#808e99; opacity:.7;"/><text transform="translate(320.15 251.76)" style="fill:#fff; font-family:MiriamLibre-Bold, &apos;Miriam Libre&apos;; font-size:30px; font-weight:700;"><tspan x="0" y="0" style="letter-spacing:.01em;">C</tspan><tspan x="17.79" y="0" style="letter-spacing:0em;">l</tspan><tspan x="29.19" y="0" style="letter-spacing:0em;">i</tspan><tspan x="40.77" y="0">e</tspan><tspan x="58.32" y="0" style="letter-spacing:0em;">n</tspan><tspan x="76.68" y="0">t | App in </tspan><tspan x="218.01" y="0" style="letter-spacing:-.06em;">T</tspan><tspan x="233.64" y="0" style="letter-spacing:0em;">e</tspan><tspan x="250.89" y="0">ams</tspan></text><g><g><path d="M497.84,48.66h-99.78c-8.67,0-15.71,7.03-15.71,15.71v109.94c0,8.67,7.03,15.71,15.71,15.71h149.2c8.67,0,15.71-7.03,15.71-15.71v-58.64" style="fill:none; stroke:#fff; stroke-linecap:round; stroke-linejoin:round; stroke-width:5.1px;"/><path d="M382.36,84.79h121.9" style="fill:none; stroke:#fff; stroke-linecap:round; stroke-linejoin:round; stroke-width:5.1px;"/><path d="M409.84,70.25c-1.08,0-1.96-.88-1.96-1.96s.88-1.96,1.96-1.96" style="fill:none; stroke:#fff; stroke-miterlimit:66.67; stroke-width:5.1px;"/><path d="M409.84,70.25c1.08,0,1.96-.88,1.96-1.96s-.88-1.96-1.96-1.96" style="fill:none; stroke:#fff; stroke-miterlimit:66.67; stroke-width:5.1px;"/><g><path d="M433.4,70.25c-1.08,0-1.96-.88-1.96-1.96s.88-1.96,1.96-1.96" style="fill:none; stroke:#fff; stroke-miterlimit:66.67; stroke-width:5.1px;"/><path d="M433.4,70.25c1.08,0,1.96-.88,1.96-1.96s-.88-1.96-1.96-1.96" style="fill:none; stroke:#fff; stroke-miterlimit:66.67; stroke-width:5.1px;"/></g><g><path d="M456.96,70.25c-1.08,0-1.96-.88-1.96-1.96s.88-1.96,1.96-1.96" style="fill:none; stroke:#fff; stroke-miterlimit:66.67; stroke-width:5.1px;"/><path d="M456.96,70.25c1.08,0,1.96-.88,1.96-1.96s-.88-1.96-1.96-1.96" style="fill:none; stroke:#fff; stroke-miterlimit:66.67; stroke-width:5.1px;"/></g></g><path d="M575.01,53.51c-.97,0-1.88-.18-2.73-.54-.82-.36-1.55-.86-2.19-1.49-.63-.63-1.13-1.36-1.49-2.19-.36-.85-.54-1.76-.54-2.73s.18-1.85,.54-2.7c.36-.85,.86-1.58,1.49-2.19,.63-.63,1.36-1.13,2.19-1.49,.85-.38,1.76-.56,2.73-.54,.95-.02,1.85,.16,2.7,.54,.85,.36,1.59,.86,2.22,1.49,.61,.61,1.11,1.34,1.49,2.19,.36,.85,.54,1.74,.54,2.7s-.18,1.88-.54,2.73c-.36,.82-.86,1.55-1.49,2.19-.63,.63-1.37,1.13-2.22,1.49-.85,.36-1.74,.54-2.7,.54m0-9.9c-.82,0-1.55,.29-2.19,.86-.53,.57-.79,1.27-.79,2.09s.26,1.53,.79,2.13c.63,.53,1.36,.79,2.19,.79s1.52-.26,2.09-.79c.59-.53,.89-1.24,.89-2.13,0-.82-.3-1.52-.89-2.09-.57-.57-1.27-.86-2.09-.86m8.91,14.85v14.82c0,1.33-.25,2.6-.76,3.81-.55,1.21-1.26,2.25-2.13,3.14-.91,.91-1.97,1.62-3.17,2.13-1.25,.53-2.53,.79-3.84,.79-.8,0-1.61-.12-2.41-.35-.82-.15-1.58-.41-2.25-.79-.51,1.67-1.26,3.19-2.25,4.57-.99,1.37-2.16,2.55-3.49,3.52-1.33,.97-2.8,1.71-4.41,2.22-1.61,.57-3.28,.86-5.01,.86-2.03,0-3.94-.35-5.74-1.05-1.73-.7-3.32-1.69-4.76-2.98-1.4-1.21-2.55-2.64-3.46-4.31-.93-1.69-1.53-3.53-1.81-5.52h-15.32c-.7,0-1.32-.26-1.87-.79-.51-.51-.76-1.12-.76-1.84v-26.46c0-.72,.25-1.34,.76-1.87,.55-.51,1.17-.76,1.87-.76h22.75c-.61-1.27-.92-2.59-.92-3.97,0-1.29,.24-2.51,.73-3.65,.47-1.06,1.12-2.03,1.97-2.92,.85-.82,1.84-1.48,2.98-1.97,1.06-.49,2.24-.73,3.55-.73,1.29,0,2.5,.24,3.62,.73s2.1,1.14,2.95,1.97c.85,.89,1.5,1.86,1.97,2.92,.49,1.14,.73,2.36,.73,3.65s-.24,2.47-.73,3.62c-.47,1.12-1.12,2.09-1.97,2.92-.85,.85-1.83,1.51-2.95,2-1.12,.49-2.33,.73-3.62,.73-.32,0-.65-.02-.98-.06-.32-.04-.65-.1-.98-.16v2.86h28.74c.82,0,1.53,.29,2.13,.86,.57,.57,.86,1.27,.86,2.09m-29.73-20.08c-.74,0-1.41,.12-2,.35-.7,.27-1.29,.66-1.78,1.14-.47,.49-.84,1.05-1.11,1.68-.27,.66-.41,1.34-.41,2.06s.14,1.43,.41,2.06c.27,.63,.65,1.19,1.11,1.68,.49,.47,1.08,.85,1.78,1.14,.59,.27,1.26,.41,2,.41s1.4-.14,2.03-.41c.63-.3,1.19-.68,1.68-1.14,.49-.49,.87-1.05,1.14-1.68,.3-.63,.44-1.32,.44-2.06s-.15-1.41-.44-2.06c-.27-.63-.66-1.2-1.14-1.68-.49-.49-1.05-.87-1.68-1.14-.63-.23-1.31-.35-2.03-.35m-15.39,19.61h5.96v-4.95h-16.88v4.95h5.96v15.86h4.95m27.28,3.46v-17.83h-13.9v17.2c0,.72-.25,1.33-.76,1.84-.55,.53-1.17,.79-1.87,.79h-7.14c.27,1.42,.77,2.74,1.49,3.97,.72,1.21,1.59,2.25,2.6,3.14,1.02,.87,2.18,1.55,3.49,2.06,1.29,.44,2.69,.67,4.19,.67,1.63,0,3.16-.29,4.6-.86,1.44-.63,2.71-1.49,3.81-2.57,1.08-1.08,1.92-2.34,2.54-3.78,.63-1.44,.95-2.98,.95-4.63m13.86-4.03v-13.8h-9.9v18.12c.53,.53,1.13,.93,1.81,1.21,.63,.25,1.35,.38,2.16,.38s1.6-.16,2.32-.48,1.34-.74,1.87-1.27c.55-.53,.97-1.16,1.27-1.9,.32-.72,.48-1.47,.48-2.25Z" style="fill:#fff;"/><g id="UC-UC-Free"><g><path d="M516.88,152.52v-.6c0-.6-.2-1.02-.6-1.45l-3.11-3.29c-.42-.42-.82-.6-1.25-.6s-.82,.2-1.25,.6c-2.27,2.47-5.36,3.72-8.88,3.72-1.85,0-3.52-.4-4.96-1.45s-2.69-2.27-3.72-3.94c-.82-1.63-1.45-3.29-1.45-5.14v-15.39c.02-1.83,.44-3.46,1.45-5.06,.46-.66,.94-1.31,1.47-1.93,.7-.74,1.45-1.41,2.25-1.99,1.45-1.02,3.09-1.45,4.96-1.45,3.74,0,6.61,1.47,8.88,3.94,.42,.42,.82,.6,1.25,.6s.82-.22,1.02-.42l.16-.18s.04-.02,.04-.02l3.09-3.29c.42-.42,.6-1.02,.6-1.45s-.22-.82-.42-1.25c-1.85-2.07-3.94-3.74-6.39-4.76-2.47-1.04-5.36-1.67-8.26-1.67-3.31,0-6.41,.8-9.3,2.47-2.27,1.29-4.14,2.99-5.65,5.14-.5,.66-.96,1.35-1.37,2.07-1.63,2.87-2.47,5.99-2.47,9.5v15.29c0,3.29,.8,6.61,2.47,9.5,1.67,2.89,3.94,5.16,6.81,7.03,2.27,1.25,3.9,1.61,6.37,2.03h0l18.1-6.41c.06-.02,.1-.06,.14-.16h0Z" style="fill:#fff;"/><path d="M478.67,107.32h-5.99c-.42,0-.8,.22-1.02,.42s-.42,.6-.42,1.02v30.76c0,3.29-1.02,6.17-2.87,8.26-1.83,2.03-4.28,3.05-7.33,3.07-3.05-.02-5.5-1.04-7.33-3.07-1.85-2.05-2.87-4.96-2.87-8.26v-30.76c0-.42-.22-.82-.42-1.02-.2-.22-.6-.42-1.02-.42h-5.99c-.42,0-.82,.22-1.02,.42-.22,.2-.42,.6-.42,1.02v30.33c0,3.9,.8,7.41,2.47,10.53,1.67,3.09,3.94,5.56,6.81,7.23,2.87,1.85,6.21,2.69,9.9,2.69,3.5,0,6.81-.82,9.68-2.69,2.87-1.67,5.14-4.12,6.81-7.23,1.63-3.09,2.47-6.59,2.47-10.53v-30.33c0-.42-.22-.82-.42-1.02-.18-.42-.58-.42-1-.42h0Z" style="fill:#fff;"/><path d="M517.48,97.42h0l-86.08-15.49,14.65,97.43,52.59-20.27h0c-2.47-.42-4.1-.78-6.37-2.03-2.87-1.85-5.14-4.12-6.81-7.03-1.67-2.87-2.47-6.21-2.47-9.5v-15.25c0-3.52,.82-6.61,2.47-9.5,.42-.72,.86-1.43,1.37-2.07,1.51-2.17,3.38-3.86,5.65-5.14,2.87-1.67,5.99-2.47,9.3-2.47,2.87,0,5.79,.6,8.26,1.67,2.47,1.02,4.54,2.69,6.39,4.76,.2,.42,.42,.82,.42,1.25s-.2,1.02-.6,1.45l-3.09,3.29s-.02,0-.04,.02l-.16,.18c-.2,.2-.6,.42-1.02,.42s-.82-.2-1.25-.6c-2.27-2.47-5.14-3.94-8.88-3.94-1.85,0-3.52,.42-4.96,1.45-.8,.58-1.55,1.25-2.25,1.99-.52,.6-1,1.27-1.47,1.93-1,1.61-1.43,3.23-1.45,5.06v15.39c0,1.85,.6,3.52,1.45,5.14,1.02,1.67,2.27,2.87,3.72,3.94,1.45,1.04,3.09,1.45,4.96,1.45,3.52,0,6.61-1.25,8.88-3.72,.42-.42,.82-.6,1.25-.6s.82,.2,1.25,.6l3.09,3.29c.42,.42,.6,.82,.6,1.45v.6c-.02,.08-.08,.14-.12,.18l.48-.16h0l14.71-5.56-14.44-49.6h0Zm-75.52,41.69v-30.33c0-.42,.2-.82,.42-1.02,.2-.2,.6-.42,1.02-.42h5.99c.42,0,.82,.2,1.02,.42,.2,.2,.42,.6,.42,1.02v30.76c0,3.29,1.02,6.21,2.87,8.26,1.83,2.03,4.28,3.05,7.33,3.07,3.05-.02,5.5-1.04,7.33-3.07,1.85-2.07,2.87-4.96,2.87-8.26v-30.76c0-.42,.2-.82,.42-1.02s.6-.42,1.02-.42h5.99c.42,0,.82,0,1.02,.42,.2,.2,.42,.6,.42,1.02v30.33c0,3.94-.82,7.41-2.47,10.53-1.67,3.09-3.94,5.56-6.81,7.23-2.87,1.85-6.21,2.69-9.68,2.69-3.72,0-7.03-.82-9.9-2.69-2.87-1.67-5.14-4.12-6.81-7.23-1.69-3.11-2.49-6.63-2.49-10.53Z" style="fill:#008087;"/></g><rect x="481.36" y="81.97" width="49.9" height="23" style="fill:#f5c663;"/><path d="M508.64,100.63c-.14-.14-.21-.32-.21-.52v-12.64c0-.2,.07-.38,.21-.52s.32-.21,.52-.21h6.68c.08,0,.15,.03,.2,.08,.05,.05,.08,.12,.08,.2v.99c0,.08-.03,.15-.08,.2-.05,.05-.12,.08-.2,.08h-5.74v4.34h4.38c.08,0,.15,.03,.2,.08,.05,.05,.08,.12,.08,.2v.95c0,.08-.03,.15-.08,.2-.05,.05-.12,.08-.2,.08h-4.38v5.11h5.74c.08,0,.15,.03,.2,.08,.05,.05,.08,.12,.08,.2v.99c0,.08-.03,.15-.08,.2-.05,.05-.12,.08-.2,.08h-6.68c-.2,0-.38-.07-.52-.21h0Z"/><path d="M520.09,100.63c-.14-.14-.21-.32-.21-.52v-12.64c0-.2,.07-.38,.21-.52s.32-.21,.52-.21h6.68c.08,0,.15,.03,.2,.08,.05,.05,.08,.12,.08,.2v.99c0,.08-.03,.15-.08,.2-.05,.05-.12,.08-.2,.08h-5.74v4.34h4.38c.08,0,.15,.03,.2,.08,.05,.05,.08,.12,.08,.2v.95c0,.08-.03,.15-.08,.2-.05,.05-.12,.08-.2,.08h-4.38v5.11h5.74c.08,0,.15,.03,.2,.08,.05,.05,.08,.12,.08,.2v.99c0,.08-.03,.15-.08,.2-.05,.05-.12,.08-.2,.08h-6.68c-.2,0-.38-.07-.52-.21h0Z"/><path d="M485.97,100.76c-.05-.05-.08-.12-.08-.2v-13.09c0-.2,.07-.38,.21-.52s.32-.21,.52-.21h6.68c.08,0,.15,.03,.2,.08,.05,.05,.08,.12,.08,.2v.99c0,.08-.03,.15-.08,.2-.05,.05-.12,.08-.2,.08h-5.74v4.75h4.38c.08,0,.15,.03,.2,.08,.05,.05,.08,.12,.08,.2v.95c0,.08-.03,.15-.08,.2-.05,.05-.12,.08-.2,.08h-4.38v5.98c0,.08-.03,.15-.08,.2-.05,.05-.12,.08-.2,.08h-1.09c-.08,0-.15-.03-.2-.08h0Z"/><path d="M496.68,100.76c-.05-.05-.08-.12-.08-.2v-13.09c0-.2,.07-.38,.21-.52s.32-.21,.52-.21h3.53c.76,0,1.45,.18,2.08,.55s1.13,.86,1.49,1.49c.37,.63,.55,1.32,.55,2.06,0,.99-.31,1.85-.93,2.6-.62,.74-1.41,1.21-2.35,1.4l3.37,5.44c.04,.05,.06,.12,.06,.2,0,.11-.04,.2-.11,.26-.07,.07-.17,.1-.27,.1h-1.03c-.13,0-.24-.06-.3-.18l-3.55-5.74h-1.58v5.64c0,.08-.03,.15-.08,.2-.05,.05-.12,.08-.2,.08h-1.09c-.08,0-.15-.03-.2-.08h0Zm4.06-7.4c.73,0,1.34-.24,1.82-.71,.48-.47,.72-1.07,.72-1.79s-.24-1.36-.72-1.84c-.48-.48-1.08-.72-1.82-.72h-2.48v5.05h2.48Z"/></g></g></g><line x1="474.05" y1="274.4" x2="472.05" y2="354.69" style="fill:none; stroke:#f5c663; stroke-linecap:round; stroke-miterlimit:10; stroke-width:5.67px;"/><g><path id="Rectangle-2" d="M587.98,1246.75h370v246.99h-370v-246.99Z" style="fill:#808e99; opacity:.7;"/><text transform="translate(702.43 1450.09)" style="fill:#fff; font-family:MiriamLibre-Bold, &apos;Miriam Libre&apos;; font-size:30px; font-weight:700;"><tspan x="0" y="0">E</tspan><tspan x="16.29" y="0" style="letter-spacing:-.02em;">x</tspan><tspan x="32.79" y="0">chan</tspan><tspan x="102.87" y="0" style="letter-spacing:0em;">g</tspan><tspan x="120.66" y="0">e</tspan></text><path d="M781.14,1290.38s-.09,.04-.13,.06l-56.88,10.73c-.97,.18-1.67,1.04-1.65,2.03v75.74c-.02,.99,.68,1.85,1.65,2.03l56.88,10.92c.59,.11,1.2-.04,1.67-.42,.46-.38,.74-.94,.75-1.55v-18.28h38.6c1.12,0,2.03-.91,2.03-2.03v-56.88c0-1.12-.91-2.03-2.03-2.03h-38.6v-18.28c0-.59-.25-1.14-.68-1.53-.44-.39-1.02-.57-1.6-.5Zm-1.78,4.44v17.27c-.12,.4-.12,.81,0,1.21v55.93c-.06,.27-.06,.56,0,.83v17.46l-52.82-10.22v-72.44l52.82-10.03Zm4.06,19.93h36.57v52.82h-36.57v-6.09h3.24c1.42-.21,13-15.02,11.17-16.44-1.42-1.42-6.3,6.46-12.19,10.73h-2.22v-13.59c3.14,2.1,6.06,3.52,6.73,2.86,1.04-1.04-2.82-3.71-6.73-7.36v-11.11h3.43l2.29,2.03c.4,.4,.8,.4,1.21,0l1.59-1.65c.4-.4,.4-.8,0-1.21l-4.63-4.7c-.21-.21-.62-.38-.83-.38h-3.05v-5.9Zm-21.97,5.71l-18.47,2.03v36.76l19.11,1.84v-7.55l-12-.57v-8.76l10.6,.19v-7.3l-10.6,.19v-8.51l11.36-.83v-7.49Zm38.85,.38c-1.42,.21-12.8,15.02-11.17,16.44,1.42,1.42,6.3-6.46,12.19-10.73h6.67v7.68l-2.03,2.03c-.4,.4-.4,.8,0,1.21l1.65,1.65c.4,.4,.8,.4,1.21,0l4.7-4.7c.21-.21,.38-.56,.38-.76v-11.43c0-.81-.6-1.4-1.21-1.4h-12.38Zm-2.79,16.32c-.2,0-.4,.02-.51,.13-1.42,1.42,6.71,6.11,10.98,12v6.48h-7.68l-2.29-2.03c-.4-.4-.8-.4-1.21,0l-1.59,1.65c-.4,.4-.4,.8,0,1.21l4.63,4.7c.21,.21,.62,.38,.83,.38h11.81c.61,0,1.21-.6,1.21-1.21v-12c0-1.52-13.2-11.4-16.19-11.3Z" style="fill:#fafbfc;"/></g><g><path id="Rectangle-4" d="M4.99,1246.75H375.36v246.99H4.99v-246.99Z" style="fill:#808e99; opacity:.7;"/><g><path d="M96.02,1421.38c-.14-.13-.21-.29-.21-.5,0-.1,0-.18,.03-.24l6.51-20.01c.06-.2,.17-.36,.34-.48s.36-.18,.58-.18h2.34c.22,0,.42,.06,.58,.18s.29,.28,.34,.48l6.51,20.01c.02,.06,.03,.14,.03,.24,0,.2-.07,.37-.21,.5-.14,.13-.31,.2-.51,.2h-2.16c-.22,0-.42-.06-.58-.2-.17-.13-.29-.29-.34-.5l-1.35-4.32h-7.02l-1.35,4.32c-.06,.2-.18,.37-.35,.5-.17,.13-.37,.2-.58,.2h-2.1c-.2,0-.37-.06-.51-.2Zm10.86-8.21l-2.46-8.01-2.46,8.01h4.92Z" style="fill:#fff;"/><path d="M117.2,1421.49c-.44,0-.82-.17-1.14-.53-.32-.35-.48-.75-.48-1.18,0-.3,.08-.57,.24-.81l7.53-11.16h-6.81c-.18,0-.33-.06-.45-.18s-.18-.27-.18-.45v-2.16c0-.18,.06-.33,.18-.45,.12-.12,.27-.18,.45-.18h10.14c.46,0,.84,.17,1.16,.51,.31,.34,.46,.73,.46,1.17,0,.32-.08,.6-.24,.84l-7.59,11.25h7.32c.18,0,.33,.06,.46,.19,.13,.13,.2,.29,.2,.47l-.03,2.13c0,.2-.06,.35-.18,.46s-.27,.17-.45,.17l-10.59-.09Z" style="fill:#fff;"/><path d="M134.74,1421.16c-.91-.54-1.62-1.29-2.15-2.25s-.78-2.04-.78-3.24v-10.65c0-.18,.06-.33,.18-.45,.12-.12,.27-.18,.45-.18h2.34c.18,0,.33,.06,.45,.18s.18,.27,.18,.45v10.2c0,1.06,.27,1.88,.81,2.45,.54,.57,1.3,.85,2.28,.85,1.18,0,2.12-.38,2.8-1.15,.69-.77,1.04-1.83,1.04-3.17v-9.18c0-.18,.06-.33,.18-.45,.12-.12,.27-.18,.45-.18h2.34c.18,0,.33,.06,.45,.18,.12,.12,.18,.27,.18,.45v15.93c0,.18-.06,.33-.18,.45-.12,.12-.27,.18-.45,.18h-2.34c-.18,0-.33-.06-.45-.18-.12-.12-.18-.27-.18-.45v-1.41c-.56,.76-1.22,1.35-2,1.79-.77,.43-1.62,.64-2.53,.64-1.14,0-2.17-.27-3.08-.81Z" style="fill:#fff;"/><path d="M150.17,1421.4c-.12-.12-.18-.27-.18-.45v-2.22c0-.18,.06-.33,.18-.45,.12-.12,.27-.18,.45-.18h2.28v-10.32h-2.58c-.18,0-.33-.06-.45-.18s-.18-.27-.18-.45v-2.13c0-.18,.06-.33,.18-.45,.12-.12,.27-.18,.45-.18h4.65c.36,0,.67,.12,.92,.38,.25,.25,.38,.56,.38,.92v1.08l1.62-1.29c.6-.48,1.12-.81,1.56-1,.44-.19,.96-.29,1.56-.29h.93c.18,0,.33,.06,.45,.18,.12,.12,.18,.27,.18,.45v2.31c0,.18-.06,.33-.18,.45-.12,.12-.27,.18-.45,.18h-.78c-.52,0-.97,.09-1.35,.27-.38,.18-.96,.58-1.74,1.2l-1.65,1.32v7.56h2.97c.18,0,.33,.06,.45,.18,.12,.12,.18,.27,.18,.45v2.22c0,.18-.06,.33-.18,.45-.12,.12-.27,.18-.45,.18h-8.76c-.18,0-.33-.06-.45-.18Z" style="fill:#fff;"/><path d="M168.34,1420.62c-1.09-.64-1.96-1.51-2.59-2.61-.64-1.1-.96-2.3-.96-3.6v-3.24c0-1.3,.32-2.5,.96-3.6,.64-1.1,1.5-1.97,2.59-2.61,1.09-.64,2.29-.96,3.58-.96s2.5,.32,3.58,.96c1.09,.64,1.96,1.51,2.6,2.61,.64,1.1,.96,2.3,.96,3.6v2.01c0,.36-.12,.67-.38,.92-.25,.25-.56,.38-.92,.38h-9.39v.15c0,.98,.35,1.81,1.04,2.5,.69,.69,1.53,1.04,2.5,1.04h4.77c.18,0,.33,.06,.45,.18s.18,.27,.18,.45v2.16c0,.18-.06,.33-.18,.45-.12,.12-.27,.18-.45,.18h-4.77c-1.3,0-2.5-.32-3.58-.96Zm7.12-9.39v-.27c0-.98-.34-1.82-1.03-2.5s-1.53-1.04-2.51-1.04-1.81,.34-2.5,1.04-1.04,1.53-1.04,2.5v.27h7.08Z" style="fill:#fff;"/><path d="M189.23,1421.38c-.14-.13-.21-.29-.21-.5,0-.1,0-.18,.03-.24l6.51-20.01c.06-.2,.17-.36,.34-.48s.36-.18,.58-.18h2.34c.22,0,.42,.06,.58,.18s.29,.28,.34,.48l6.51,20.01c.02,.06,.03,.14,.03,.24,0,.2-.07,.37-.21,.5-.14,.13-.31,.2-.51,.2h-2.16c-.22,0-.42-.06-.58-.2-.17-.13-.29-.29-.34-.5l-1.35-4.32h-7.02l-1.35,4.32c-.06,.2-.18,.37-.35,.5-.17,.13-.37,.2-.58,.2h-2.1c-.2,0-.37-.06-.51-.2Zm10.86-8.21l-2.46-8.01-2.46,8.01h4.92Z" style="fill:#fff;"/><path d="M212.34,1421.01c-1.09-.64-1.96-1.51-2.59-2.61-.64-1.1-.96-2.3-.96-3.6v-3.63c0-1.3,.32-2.5,.96-3.6,.64-1.1,1.5-1.97,2.59-2.61,1.09-.64,2.29-.96,3.58-.96,1,0,1.96,.21,2.88,.62,.92,.41,1.71,.99,2.37,1.72,.14,.14,.21,.3,.21,.48,0,.22-.09,.42-.27,.6l-1.29,1.29c-.14,.14-.3,.21-.48,.21s-.35-.09-.51-.27c-.78-.78-1.75-1.17-2.91-1.17-.98,0-1.81,.35-2.5,1.04-.69,.69-1.04,1.53-1.04,2.5v3.93c0,.98,.35,1.81,1.04,2.5,.69,.69,1.53,1.04,2.5,1.04,1.16,0,2.13-.39,2.91-1.17,.16-.18,.33-.27,.51-.27s.34,.07,.48,.21l1.29,1.29c.18,.18,.27,.38,.27,.6,0,.18-.07,.34-.21,.48-.66,.74-1.45,1.32-2.37,1.72-.92,.41-1.88,.62-2.88,.62-1.3,0-2.5-.32-3.58-.96Z" style="fill:#fff;"/><path d="M228.09,1420.14c-.97-.96-1.46-2.22-1.46-3.78v-8.61h-2.07c-.18,0-.33-.06-.45-.18s-.18-.27-.18-.45v-2.1c0-.18,.06-.33,.18-.45,.12-.12,.27-.18,.45-.18h2.07v-3.24c0-.18,.06-.33,.18-.45s.27-.18,.45-.18h2.34c.18,0,.33,.06,.45,.18s.18,.27,.18,.45v3.24h5.07c.18,0,.33,.06,.45,.18,.12,.12,.18,.27,.18,.45v2.13c0,.18-.06,.33-.18,.45s-.27,.18-.45,.18h-5.07v8.43c0,.6,.17,1.08,.53,1.44,.35,.36,.81,.54,1.39,.54l3.15,.03c.18,0,.33,.06,.45,.18,.12,.12,.18,.27,.18,.45v2.1c0,.18-.06,.33-.18,.45-.12,.12-.27,.18-.45,.18h-3.42c-1.56,0-2.83-.48-3.79-1.44Z" style="fill:#fff;"/><path d="M242.13,1421.14c-.29-.29-.44-.64-.44-1.06v-12.27h-2.43c-.18,0-.33-.06-.45-.18s-.18-.27-.18-.45v-2.16c0-.18,.06-.33,.18-.45,.12-.12,.27-.18,.45-.18h4.53c.42,0,.77,.15,1.06,.44s.44,.64,.44,1.06v12.27h2.43c.18,0,.33,.06,.45,.18s.18,.27,.18,.45v2.16c0,.18-.06,.33-.18,.45-.12,.12-.27,.18-.45,.18h-4.53c-.42,0-.78-.15-1.06-.44Zm-.11-18.94c-.12-.12-.18-.27-.18-.45v-3.27c0-.18,.06-.33,.18-.45,.12-.12,.27-.18,.45-.18h2.04c.18,0,.33,.06,.45,.18,.12,.12,.18,.27,.18,.45v3.27c0,.18-.06,.33-.18,.45s-.27,.18-.45,.18h-2.04c-.18,0-.33-.06-.45-.18Z" style="fill:#fff;"/><path d="M255.92,1421.76c-.46,0-.77-.21-.93-.63l-5.55-15.78c-.04-.12-.06-.21-.06-.27,0-.2,.07-.37,.21-.5,.14-.13,.32-.2,.54-.2h2.1c.2,0,.38,.06,.56,.18,.17,.12,.28,.28,.34,.48l4.05,12.06,4.05-12.06c.06-.2,.17-.36,.35-.48,.17-.12,.35-.18,.55-.18h1.95c.22,0,.4,.07,.54,.2,.14,.13,.21,.29,.21,.5,0,.06-.02,.15-.06,.27l-5.55,15.78c-.08,.2-.21,.36-.38,.48-.17,.12-.36,.18-.55,.18l-2.37-.03Z" style="fill:#fff;"/><path d="M270.6,1420.62c-1.09-.64-1.96-1.51-2.59-2.61-.64-1.1-.96-2.3-.96-3.6v-3.24c0-1.3,.32-2.5,.96-3.6,.64-1.1,1.5-1.97,2.59-2.61,1.09-.64,2.29-.96,3.58-.96s2.5,.32,3.58,.96c1.09,.64,1.96,1.51,2.6,2.61,.64,1.1,.96,2.3,.96,3.6v2.01c0,.36-.12,.67-.38,.92-.25,.25-.56,.38-.92,.38h-9.39v.15c0,.98,.35,1.81,1.04,2.5,.69,.69,1.53,1.04,2.5,1.04h4.77c.18,0,.33,.06,.45,.18s.18,.27,.18,.45v2.16c0,.18-.06,.33-.18,.45-.12,.12-.27,.18-.45,.18h-4.77c-1.3,0-2.5-.32-3.58-.96Zm7.12-9.39v-.27c0-.98-.34-1.82-1.03-2.5s-1.53-1.04-2.51-1.04-1.81,.34-2.5,1.04-1.04,1.53-1.04,2.5v.27h7.08Z" style="fill:#fff;"/><path d="M119.53,1457.2c-.25-.25-.38-.56-.38-.92v-18.87c0-.36,.12-.67,.38-.92s.55-.38,.92-.38h5.88c1.54,0,2.94,.37,4.2,1.11s2.25,1.75,2.99,3.03c.73,1.28,1.09,2.69,1.09,4.23v4.71c0,1.54-.37,2.95-1.09,4.23-.73,1.28-1.73,2.29-2.99,3.03-1.26,.74-2.66,1.11-4.2,1.11h-5.88c-.36,0-.67-.12-.92-.38Zm6.65-3.13c.86,0,1.65-.21,2.38-.65,.73-.43,1.31-1.01,1.74-1.74,.43-.73,.64-1.53,.64-2.42v-4.86c0-.86-.21-1.66-.64-2.39-.43-.73-1.01-1.31-1.74-1.74-.73-.43-1.53-.65-2.38-.65h-3.36v14.43h3.36Z" style="fill:#fff;"/><path d="M141.07,1457.14c-.29-.29-.44-.64-.44-1.06v-12.27h-2.43c-.18,0-.33-.06-.45-.18s-.18-.27-.18-.45v-2.16c0-.18,.06-.33,.18-.45,.12-.12,.27-.18,.45-.18h4.53c.42,0,.77,.15,1.06,.44s.44,.64,.44,1.06v12.27h2.43c.18,0,.33,.06,.45,.18s.18,.27,.18,.45v2.16c0,.18-.06,.33-.18,.45-.12,.12-.27,.18-.45,.18h-4.53c-.42,0-.78-.15-1.06-.44Zm-.11-18.94c-.12-.12-.18-.27-.18-.45v-3.27c0-.18,.06-.33,.18-.45,.12-.12,.27-.18,.45-.18h2.04c.18,0,.33,.06,.45,.18,.12,.12,.18,.27,.18,.45v3.27c0,.18-.06,.33-.18,.45s-.27,.18-.45,.18h-2.04c-.18,0-.33-.06-.45-.18Z" style="fill:#fff;"/><path d="M150.05,1457.4c-.12-.12-.18-.27-.18-.45v-2.22c0-.18,.06-.33,.18-.45,.12-.12,.27-.18,.45-.18h2.28v-10.32h-2.58c-.18,0-.33-.06-.45-.18s-.18-.27-.18-.45v-2.13c0-.18,.06-.33,.18-.45,.12-.12,.27-.18,.45-.18h4.65c.36,0,.67,.12,.92,.38,.25,.25,.38,.56,.38,.92v1.08l1.62-1.29c.6-.48,1.12-.81,1.56-1,.44-.19,.96-.29,1.56-.29h.93c.18,0,.33,.06,.45,.18,.12,.12,.18,.27,.18,.45v2.31c0,.18-.06,.33-.18,.45-.12,.12-.27,.18-.45,.18h-.78c-.52,0-.97,.09-1.35,.27-.38,.18-.96,.58-1.74,1.2l-1.65,1.32v7.56h2.97c.18,0,.33,.06,.45,.18,.12,.12,.18,.27,.18,.45v2.22c0,.18-.06,.33-.18,.45-.12,.12-.27,.18-.45,.18h-8.76c-.18,0-.33-.06-.45-.18Z" style="fill:#fff;"/><path d="M168.22,1456.62c-1.09-.64-1.96-1.51-2.59-2.61-.64-1.1-.96-2.3-.96-3.6v-3.24c0-1.3,.32-2.5,.96-3.6,.64-1.1,1.5-1.97,2.59-2.61,1.09-.64,2.29-.96,3.58-.96s2.5,.32,3.58,.96c1.09,.64,1.96,1.51,2.6,2.61,.64,1.1,.96,2.3,.96,3.6v2.01c0,.36-.12,.67-.38,.92-.25,.25-.56,.38-.92,.38h-9.39v.15c0,.98,.35,1.81,1.04,2.5,.69,.69,1.53,1.04,2.5,1.04h4.77c.18,0,.33,.06,.45,.18s.18,.27,.18,.45v2.16c0,.18-.06,.33-.18,.45-.12,.12-.27,.18-.45,.18h-4.77c-1.3,0-2.5-.32-3.58-.96Zm7.12-9.39v-.27c0-.98-.34-1.82-1.03-2.5s-1.53-1.04-2.51-1.04-1.81,.34-2.5,1.04-1.04,1.53-1.04,2.5v.27h7.08Z" style="fill:#fff;"/><path d="M185.92,1457.01c-1.09-.64-1.96-1.51-2.59-2.61-.64-1.1-.96-2.3-.96-3.6v-3.63c0-1.3,.32-2.5,.96-3.6,.64-1.1,1.5-1.97,2.59-2.61,1.09-.64,2.29-.96,3.58-.96,1,0,1.96,.21,2.88,.62,.92,.41,1.71,.99,2.37,1.72,.14,.14,.21,.3,.21,.48,0,.22-.09,.42-.27,.6l-1.29,1.29c-.14,.14-.3,.21-.48,.21s-.35-.09-.51-.27c-.78-.78-1.75-1.17-2.91-1.17-.98,0-1.81,.35-2.5,1.04-.69,.69-1.04,1.53-1.04,2.5v3.93c0,.98,.35,1.81,1.04,2.5,.69,.69,1.53,1.04,2.5,1.04,1.16,0,2.13-.39,2.91-1.17,.16-.18,.33-.27,.51-.27s.34,.07,.48,.21l1.29,1.29c.18,.18,.27,.38,.27,.6,0,.18-.07,.34-.21,.48-.66,.74-1.45,1.32-2.37,1.72-.92,.41-1.88,.62-2.88,.62-1.3,0-2.5-.32-3.58-.96Z" style="fill:#fff;"/><path d="M201.67,1456.14c-.97-.96-1.46-2.22-1.46-3.78v-8.61h-2.07c-.18,0-.33-.06-.45-.18s-.18-.27-.18-.45v-2.1c0-.18,.06-.33,.18-.45,.12-.12,.27-.18,.45-.18h2.07v-3.24c0-.18,.06-.33,.18-.45s.27-.18,.45-.18h2.34c.18,0,.33,.06,.45,.18s.18,.27,.18,.45v3.24h5.07c.18,0,.33,.06,.45,.18,.12,.12,.18,.27,.18,.45v2.13c0,.18-.06,.33-.18,.45s-.27,.18-.45,.18h-5.07v8.43c0,.6,.17,1.08,.53,1.44,.35,.36,.81,.54,1.39,.54l3.15,.03c.18,0,.33,.06,.45,.18,.12,.12,.18,.27,.18,.45v2.1c0,.18-.06,.33-.18,.45-.12,.12-.27,.18-.45,.18h-3.42c-1.56,0-2.83-.48-3.79-1.44Z" style="fill:#fff;"/><path d="M215.82,1457.02c-1.09-.63-1.96-1.48-2.59-2.56-.64-1.08-.96-2.25-.96-3.51v-3.93c0-1.26,.32-2.43,.96-3.51,.64-1.08,1.5-1.93,2.59-2.56,1.09-.63,2.29-.95,3.58-.95s2.5,.31,3.58,.95c1.09,.63,1.96,1.48,2.6,2.56,.64,1.08,.96,2.25,.96,3.51v3.93c0,1.26-.32,2.43-.96,3.51-.64,1.08-1.51,1.93-2.6,2.56-1.09,.63-2.29,.95-3.58,.95s-2.5-.31-3.58-.95Zm6.09-3.57c.69-.69,1.03-1.53,1.03-2.5v-3.93c0-.98-.34-1.81-1.03-2.5-.69-.69-1.53-1.04-2.51-1.04s-1.81,.35-2.5,1.04c-.69,.69-1.04,1.53-1.04,2.5v3.93c0,.98,.35,1.81,1.04,2.5,.69,.69,1.53,1.04,2.5,1.04s1.82-.35,2.51-1.04Z" style="fill:#fff;"/><path d="M229.67,1457.4c-.12-.12-.18-.27-.18-.45v-2.22c0-.18,.06-.33,.18-.45,.12-.12,.27-.18,.45-.18h2.28v-10.32h-2.58c-.18,0-.33-.06-.45-.18s-.18-.27-.18-.45v-2.13c0-.18,.06-.33,.18-.45,.12-.12,.27-.18,.45-.18h4.65c.36,0,.67,.12,.92,.38,.25,.25,.38,.56,.38,.92v1.08l1.62-1.29c.6-.48,1.12-.81,1.56-1,.44-.19,.96-.29,1.56-.29h.93c.18,0,.33,.06,.45,.18,.12,.12,.18,.27,.18,.45v2.31c0,.18-.06,.33-.18,.45-.12,.12-.27,.18-.45,.18h-.78c-.52,0-.97,.09-1.35,.27-.38,.18-.96,.58-1.74,1.2l-1.65,1.32v7.56h2.97c.18,0,.33,.06,.45,.18,.12,.12,.18,.27,.18,.45v2.22c0,.18-.06,.33-.18,.45-.12,.12-.27,.18-.45,.18h-8.76c-.18,0-.33-.06-.45-.18Z" style="fill:#fff;"/><path d="M249.02,1463.11c-.12-.17-.14-.37-.06-.58l1.56-4.44-5.88-16.74c-.04-.12-.06-.21-.06-.27,0-.2,.07-.37,.21-.5,.14-.13,.32-.2,.54-.2h2.1c.2,0,.38,.06,.56,.18,.17,.12,.28,.28,.34,.48l4.05,11.97,4.05-11.97c.06-.2,.17-.36,.35-.48,.17-.12,.35-.18,.55-.18h1.95c.22,0,.4,.07,.54,.2,.14,.13,.21,.29,.21,.5,0,.06-.02,.15-.06,.27l-7.53,21.36c-.08,.2-.2,.36-.36,.48-.16,.12-.35,.18-.57,.18h-1.98c-.22,0-.39-.09-.51-.25Z" style="fill:#fff;"/></g><path d="M199.84,1279.91l-34.95,74.36-24.55-.27,27.41-47.17,32.09-26.92m3.77,5.87l44.42,77.7h-82.17l50.08-8.94-26.22-31.18,13.89-37.59Z" style="fill:#fff;"/></g><g><g id="Group-3"><path id="Rectangle" d="M1.84,491.53H960.45V1009.52H1.84V491.53Z" style="fill:#008187;"/></g><text transform="translate(361.44 962.42)" style="fill:#fff; font-family:MiriamLibre-Bold, &apos;Miriam Libre&apos;; font-size:30px; font-weight:700;"><tspan x="0" y="0" style="letter-spacing:.01em;">A</tspan><tspan x="19.47" y="0" style="letter-spacing:0em;">z</tspan><tspan x="34.92" y="0">u</tspan><tspan x="53.46" y="0" style="letter-spacing:0em;">r</tspan><tspan x="68.16" y="0">e App </tspan><tspan x="156.66" y="0" style="letter-spacing:0em;">S</tspan><tspan x="173.16" y="0" style="letter-spacing:0em;">e</tspan><tspan x="190.56" y="0" style="letter-spacing:.03em;">r</tspan><tspan x="206.61" y="0" style="letter-spacing:.02em;">v</tspan><tspan x="224.19" y="0" style="letter-spacing:0em;">i</tspan><tspan x="235.77" y="0" style="letter-spacing:-.02em;">c</tspan><tspan x="251.13" y="0">e</tspan></text><g><text transform="translate(278.59 853.53)" style="fill:#fff; font-family:MiriamLibre-Regular, &apos;Miriam Libre&apos;; font-size:40px;"><tspan x="0" y="0" style="letter-spacing:0em;">Un</tspan><tspan x="51.4" y="0" style="letter-spacing:0em;">ifi</tspan><tspan x="97.6" y="0" style="letter-spacing:.01em;">ed</tspan><tspan x="144.28" y="0" style="letter-spacing:0em;">C</tspan><tspan x="166.32" y="0" style="letter-spacing:.01em;">o</tspan><tspan x="189.28" y="0" style="letter-spacing:0em;">nt</tspan><tspan x="231.16" y="0" style="letter-spacing:.02em;">a</tspan><tspan x="254.36" y="0" style="letter-spacing:0em;">cts </tspan><tspan x="322.96" y="0" style="letter-spacing:.02em;">P</tspan><tspan x="346.04" y="0" style="letter-spacing:0em;">r</tspan><tspan x="364.36" y="0" style="letter-spacing:0em;">o</tspan></text><g><path d="M565,637.05h0l-168.25-30.26,28.63,190.36,102.79-39.63h0c-4.83-.84-7.97-1.52-12.41-3.99-5.61-3.59-10.05-8.08-13.3-13.75-3.26-5.61-4.83-12.18-4.83-18.58v-29.81c0-6.9,1.63-12.91,4.83-18.58,.84-1.46,1.68-2.81,2.64-4.04,2.92-4.21,6.62-7.52,11-10.05,5.61-3.26,11.68-4.83,18.19-4.83,5.61,0,11.34,1.18,16.11,3.26,4.83,1.96,8.87,5.28,12.52,9.26,.39,.84,.84,1.63,.84,2.47s-.39,1.96-1.18,2.81l-6.06,6.4s-.06,0-.06,.06l-.34,.34c-.39,.39-1.18,.84-1.96,.84-.84,0-1.63-.39-2.47-1.18-4.49-4.72-10.1-7.58-17.4-7.58-3.59,0-6.9,.84-9.71,2.81-1.57,1.18-3.03,2.47-4.38,3.87-1.01,1.18-1.96,2.47-2.86,3.76-1.96,3.14-2.81,6.34-2.81,9.88v30.09c0,3.59,1.18,6.9,2.81,10.05,1.96,3.26,4.43,5.61,7.24,7.69,2.81,2.08,6.06,2.81,9.71,2.81,6.9,0,12.91-2.47,17.35-7.24,.84-.84,1.63-1.18,2.47-1.18s1.63,.39,2.47,1.18l6.06,6.4c.84,.84,1.18,1.63,1.18,2.81v1.18c-.06,.11-.11,.28-.22,.34l.95-.34h0l28.74-10.83-28.29-96.78Zm-147.59,81.46v-59.28c0-.84,.39-1.63,.84-1.96,.39-.39,1.18-.84,1.96-.84h11.68c.84,0,1.63,.39,1.96,.84,.39,.39,.84,1.18,.84,1.96v60.12c0,6.4,1.96,12.18,5.61,16.11,3.54,3.99,8.31,5.95,14.37,6.01,5.95-.06,10.72-2.08,14.37-6.01,3.59-4.04,5.61-9.71,5.61-16.11v-60.12c0-.84,.39-1.63,.84-1.96,.39-.39,1.18-.84,1.96-.84h11.68c.84,0,1.63,0,1.96,.84,.39,.39,.84,1.18,.84,1.96v59.28c0,7.69-1.63,14.48-4.83,20.55-3.26,6.06-7.69,10.83-13.3,14.15-5.61,3.59-12.18,5.28-18.92,5.28-7.24,0-13.75-1.63-19.31-5.28-5.61-3.26-10.05-8.08-13.3-14.15-3.31-6.06-4.88-12.97-4.88-20.55Z" style="fill:#fff;"/><g><rect x="495.03" y="600.46" width="99.77" height="45.98" style="fill:#f5c663;"/><text transform="translate(500.45 638.19)" style="font-family:MiriamLibre-Regular, &apos;Miriam Libre&apos;; font-size:40.54px; isolation:isolate; letter-spacing:.01em;"><tspan x="0" y="0">FR</tspan></text><text transform="translate(545.5 638.19)" style="font-family:MiriamLibre-Regular, &apos;Miriam Libre&apos;; font-size:40.54px; isolation:isolate; letter-spacing:.03em;"><tspan x="0" y="0">E</tspan></text><text transform="translate(568.35 638.19)" style="font-family:MiriamLibre-Regular, &apos;Miriam Libre&apos;; font-size:40.54px; isolation:isolate;"><tspan x="0" y="0">E</tspan></text><path d="M504.27,638c-.11-.11-.17-.23-.17-.4v-26.18c0-.4,.11-.75,.4-1.03,.29-.29,.63-.4,1.03-.4h13.32c.17,0,.29,.06,.4,.17,.11,.11,.17,.23,.17,.4v2.01c0,.17-.06,.29-.17,.4s-.23,.17-.4,.17h-11.48v9.47h8.78c.17,0,.29,.06,.4,.17,.11,.11,.17,.23,.17,.4v1.89c0,.17-.06,.29-.17,.4s-.23,.17-.4,.17h-8.78v11.94c0,.17-.06,.29-.17,.4s-.23,.17-.4,.17h-2.18c-.11,0-.23-.06-.34-.17Z"/><path d="M525.57,638c-.11-.11-.17-.23-.17-.4v-26.18c0-.4,.11-.75,.4-1.03s.63-.4,1.03-.4h7.06c1.49,0,2.87,.34,4.13,1.09s2.24,1.72,2.99,2.99,1.09,2.64,1.09,4.13c0,1.95-.63,3.73-1.84,5.17-1.26,1.49-2.81,2.41-4.71,2.81l6.72,10.85c.06,.11,.11,.23,.11,.4,0,.23-.06,.4-.23,.52-.17,.11-.34,.23-.57,.23h-2.07c-.29,0-.46-.11-.63-.34l-7.12-11.48h-3.16v11.25c0,.17-.06,.29-.17,.4s-.23,.17-.4,.17h-2.18s-.17-.06-.29-.17Zm8.15-14.75c1.44,0,2.64-.46,3.62-1.44,.98-.92,1.44-2.12,1.44-3.56s-.46-2.7-1.44-3.67c-.98-.98-2.18-1.44-3.62-1.44h-4.94v10.1h4.94Z"/><path d="M549.57,637.77c-.29-.29-.4-.63-.4-1.03v-25.26c0-.4,.11-.75,.4-1.03s.63-.4,1.03-.4h13.32c.17,0,.29,.06,.4,.17,.11,.11,.17,.23,.17,.4v2.01c0,.17-.06,.29-.17,.4s-.23,.17-.4,.17h-11.48v8.67h8.78c.17,0,.29,.06,.4,.17,.11,.11,.17,.23,.17,.4v1.89c0,.17-.06,.29-.17,.4s-.23,.17-.4,.17h-8.78v10.22h11.48c.17,0,.29,.06,.4,.17,.11,.11,.17,.23,.17,.4v2.01c0,.17-.06,.29-.17,.4s-.23,.17-.4,.17h-13.32c-.4-.11-.75-.23-1.03-.52Z"/><path d="M572.41,637.77c-.29-.29-.4-.63-.4-1.03v-25.26c0-.4,.11-.75,.4-1.03s.63-.4,1.03-.4h13.32c.17,0,.29,.06,.4,.17,.11,.11,.17,.23,.17,.4v2.01c0,.17-.06,.29-.17,.4-.11,.11-.23,.17-.4,.17h-11.48v8.67h8.78c.17,0,.29,.06,.4,.17,.11,.11,.17,.23,.17,.4v1.89c0,.17-.06,.29-.17,.4-.11,.11-.23,.17-.4,.17h-8.78v10.22h11.48c.17,0,.29,.06,.4,.17,.11,.11,.17,.23,.17,.4v2.01c0,.17-.06,.29-.17,.4-.11,.11-.23,.17-.4,.17h-13.32c-.4-.11-.75-.23-1.03-.52Z"/></g></g></g></g><path d="M771.56,1027.56v84.8m-50.5-42.4" style="fill:none; stroke:#f5c663; stroke-linecap:round; stroke-miterlimit:10; stroke-width:5.67px;"/><path d="M203.11,1027.56v84.8m-50.5-42.4" style="fill:none; stroke:#f5c663; stroke-linecap:round; stroke-miterlimit:10; stroke-width:5.67px;"/><rect x="4.99" y="1132.2" width="953.46" height="90.68" style="fill:#808e99;"/><text transform="translate(47.78 1188.99)" style="fill:#fff;"><tspan x="0" y="0" style="font-family:MiriamLibre-Bold, &apos;Miriam Libre&apos;; font-size:40px; font-weight:700; letter-spacing:-.03em;">Y</tspan><tspan x="23.2" y="0" style="font-family:MiriamLibre-Bold, &apos;Miriam Libre&apos;; font-size:40px; font-weight:700; letter-spacing:0em;">O</tspan><tspan x="49.56" y="0" style="font-family:MiriamLibre-Bold, &apos;Miriam Libre&apos;; font-size:40px; font-weight:700;">UR </tspan><tspan x="110.88" y="0" style="font-family:MiriamLibre-Regular, &apos;Miriam Libre&apos;; font-size:30px; letter-spacing:0em;">M</tspan><tspan x="137.76" y="0" style="font-family:MiriamLibre-Regular, &apos;Miriam Libre&apos;; font-size:30px; letter-spacing:0em;">i</tspan><tspan x="149.25" y="0" style="font-family:MiriamLibre-Regular, &apos;Miriam Libre&apos;; font-size:30px; letter-spacing:0em;">c</tspan><tspan x="164.16" y="0" style="font-family:MiriamLibre-Regular, &apos;Miriam Libre&apos;; font-size:30px; letter-spacing:-.02em;">r</tspan><tspan x="177.6" y="0" style="font-family:MiriamLibre-Regular, &apos;Miriam Libre&apos;; font-size:30px; letter-spacing:0em;">o</tspan><tspan x="194.37" y="0" style="font-family:MiriamLibre-Regular, &apos;Miriam Libre&apos;; font-size:30px; letter-spacing:0em;">s</tspan><tspan x="208.62" y="0" style="font-family:MiriamLibre-Regular, &apos;Miriam Libre&apos;; font-size:30px; letter-spacing:-.01em;">o</tspan><tspan x="225.09" y="0" style="font-family:MiriamLibre-Regular, &apos;Miriam Libre&apos;; font-size:30px;">ft 365 </tspan><tspan x="316.11" y="0" style="font-family:MiriamLibre-Regular, &apos;Miriam Libre&apos;; font-size:30px; letter-spacing:-.06em;">T</tspan><tspan x="330.63" y="0" style="font-family:MiriamLibre-Regular, &apos;Miriam Libre&apos;; font-size:30px;">ena</tspan><tspan x="381.96" y="0" style="font-family:MiriamLibre-Regular, &apos;Miriam Libre&apos;; font-size:30px; letter-spacing:0em;">n</tspan><tspan x="399.62" y="0" style="font-family:MiriamLibre-Regular, &apos;Miriam Libre&apos;; font-size:30px;">t</tspan></text><rect x="1.84" y="374.31" width="958.61" height="90.68" style="fill:#808e99;"/><text transform="translate(41.03 434.93)" style="fill:#fff;"><tspan x="0" y="0" style="font-family:MiriamLibre-Bold, &apos;Miriam Libre&apos;; font-size:45px; font-weight:700; letter-spacing:0em;">O</tspan><tspan x="29.65" y="0" style="font-family:MiriamLibre-Bold, &apos;Miriam Libre&apos;; font-size:45px; font-weight:700;">UR </tspan><tspan x="98.64" y="0" style="font-family:MiriamLibre-Regular, &apos;Miriam Libre&apos;; font-size:35px; letter-spacing:.01em;">A</tspan><tspan x="120.41" y="0" style="font-family:MiriamLibre-Regular, &apos;Miriam Libre&apos;; font-size:35px; letter-spacing:0em;">z</tspan><tspan x="137.24" y="0" style="font-family:MiriamLibre-Regular, &apos;Miriam Libre&apos;; font-size:35px;">u</tspan><tspan x="158.03" y="0" style="font-family:MiriamLibre-Regular, &apos;Miriam Libre&apos;; font-size:35px; letter-spacing:-.01em;">r</tspan><tspan x="173.71" y="0" style="font-family:MiriamLibre-Regular, &apos;Miriam Libre&apos;; font-size:35px;">e </tspan><tspan x="202.66" y="0" style="font-family:MiriamLibre-Regular, &apos;Miriam Libre&apos;; font-size:35px; letter-spacing:-.06em;">T</tspan><tspan x="219.6" y="0" style="font-family:MiriamLibre-Regular, &apos;Miriam Libre&apos;; font-size:35px;">ena</tspan><tspan x="279.48" y="0" style="font-family:MiriamLibre-Regular, &apos;Miriam Libre&apos;; font-size:35px; letter-spacing:0em;">n</tspan><tspan x="300.1" y="0" style="font-family:MiriamLibre-Regular, &apos;Miriam Libre&apos;; font-size:35px;">t</tspan></text></svg>