<?xml version="1.0" encoding="utf-8"?>
<svg width="300px" version="1.0" id="Layer_1" xmlns="http://www.w3.org/2000/svg" x="0" y="0" viewBox="0 0 483 490.8" xml:space="preserve">
	<path d="M448.5 252.2c-5.9-43.8-43.4-77.5-88.8-77.5-32.9 0-61.6 17.7-77.2 44.1 43 44.6 109.1 57.9 166 33.4z" fill="#5CBBFF" />
	<path d="M481.5 489.3c-20.5-58.5-75.7-97.7-137.7-97.8h-.1c-62 .1-117.1 39.3-137.7 97.8" fill="none" stroke="#000000" stroke-width="3" stroke-linecap="round" stroke-linejoin="round" />
	<path d="M266.5 223.9c43 44.6 109.1 57.8 166.1 33.4" fill="none" stroke="#000000" stroke-width="3" stroke-linecap="round" stroke-linejoin="round" />
	<circle cx="343.7" cy="269.4" r="89.6" fill="none" stroke="#000000" stroke-width="3" stroke-linecap="round" stroke-linejoin="round" />
	<path d="M263.6 178.4H231v48.9l-65.2-48.9H68.1c-18 0-32.6-14.6-32.6-32.6V48.1c0-18 14.6-32.6 32.6-32.6h195.5c18 0 32.6 14.6 32.6 32.6v97.8c0 18-14.6 32.5-32.6 32.5z" fill="#FCD116" />
	<path d="M229.6 164.4H197v48.9l-65.2-48.9H34.1c-18 0-32.6-14.6-32.6-32.6V34.1c0-18 14.6-32.6 32.6-32.6h195.5c18 0 32.6 14.6 32.6 32.6v97.8c0 18-14.6 32.5-32.6 32.5z" fill="none" stroke="#000000" stroke-width="3" stroke-linecap="round" stroke-linejoin="round" />
	<path fill="none" stroke="#F8842C" stroke-width="8" stroke-linecap="round" stroke-miterlimit="10" d="M174.2 64.4H92.7" />
	<path fill="none" stroke="#F8842C" stroke-width="8" stroke-linecap="round" stroke-miterlimit="10" d="M223 113.3H92.7" />
	<path fill="none" stroke="#000000" stroke-width="3" stroke-linecap="round" stroke-linejoin="round" d="M168.2 59.4H86.7" />
	<path fill="none" stroke="#000000" stroke-width="3" stroke-linecap="round" stroke-linejoin="round" d="M217 108.3H86.7" />
	<circle cx="106.7" cy="326.4" r="65.2" fill="none" stroke="#000000" stroke-width="3" stroke-linecap="round" stroke-linejoin="round" />
	<path d="M164.6 443.3c-16.7-12.5-37-19.2-57.8-19.2-41.3.1-78.1 26.2-91.8 65.2" fill="none" stroke="#000000" stroke-width="3" stroke-linecap="round" stroke-linejoin="round" />
	<path fill="none" stroke="#000000" stroke-width="3" stroke-linecap="round" stroke-linejoin="round" d="M343.7 444.2v45.1" />
</svg>
