<?xml version="1.0" encoding="utf-8"?>
<!-- Generator: Adobe Illustrator 26.0.3, SVG Export Plug-In . SVG Version: 6.00 Build 0) -->
<svg version="1.1" id="Layer_1" xmlns="http://www.w3.org/2000/svg" xmlns:xlink="http://www.w3.org/1999/xlink" x="0px" y="0px" width="715.1px" height="754px" viewBox="0 0 715.1 754" style="enable-background:new 0 0 715.1 754;" xml:space="preserve">
	<style type="text/css">
		.st0{fill:none;stroke:#FFFFFF;stroke-width:3;stroke-linecap:round;stroke-linejoin:round;}
		.st1{fill:none;stroke:#ACCA57;stroke-width:3;stroke-linecap:round;stroke-linejoin:round;}
		.st2{fill:none;stroke:#EF8331;stroke-width:3;stroke-linecap:round;stroke-linejoin:round;}
		.st3{clip-path:url(#SVGID_00000033331504697098666500000016843743639627276973_);}
		.st4{clip-path:url(#SVGID_00000179633443726313696670000004250579122634117304_);}
		.st5{fill:#72B4DF;}
		.st6{fill:none;stroke:#FFFFFF;stroke-width:4;stroke-linecap:round;stroke-linejoin:round;}
		.st7{fill:none;stroke:#3286C3;stroke-width:3;stroke-linecap:round;stroke-linejoin:round;}
		.st8{fill:none;stroke:#FDD117;stroke-width:3;stroke-linecap:round;stroke-linejoin:round;}
		.st9{fill:none;}
	</style>
	<g>
		<g>
			<line class="st0" x1="55.4" y1="118.7" x2="68.8" y2="168.7" />
			<line class="st0" x1="87.1" y1="137" x2="37.1" y2="150.4" />
			<line class="st1" x1="79.1" y1="407.2" x2="92.5" y2="457.2" />
			<line class="st1" x1="110.8" y1="425.5" x2="60.8" y2="438.9" />
			<line class="st2" x1="567.6" y1="329.9" x2="581" y2="379.9" />
			<line class="st2" x1="599.3" y1="348.2" x2="549.3" y2="361.6" />
			<line class="st0" x1="464.4" y1="545.1" x2="477.8" y2="595.1" />
			<line class="st0" x1="496.1" y1="563.4" x2="446.1" y2="576.8" />
			<path class="st0" d="M5.5,232.6c3.4-0.9,7,1.1,7.9,4.6c0,0,0,0,0,0" />
			<path class="st0" d="M1,240.5c-0.9-3.5,1.1-7,4.6-7.9" />
			<path class="st0" d="M8.9,245.1c-3.5,0.9-7-1.1-7.9-4.6" />
			<path class="st0" d="M13.5,237.2c0.9,3.5-1.1,7-4.6,7.9" />
			<path class="st2" d="M494,155.3c3.5-0.9,7,1.1,7.9,4.6" />
			<path class="st2" d="M489.4,163.2c-0.9-3.5,1.1-7,4.6-7.9" />
			<path class="st2" d="M497.3,167.8c-3.4,0.9-7-1.1-7.9-4.6c0,0,0,0,0,0" />
			<path class="st2" d="M501.9,159.9c0.9,3.5-1.1,7-4.6,7.9" />
			<path class="st0" d="M324.4,522.4c3.4-0.9,7,1.1,7.9,4.6c0,0,0,0,0,0" />
			<path class="st0" d="M319.8,530.3c-0.9-3.5,1.1-7,4.6-7.9" />
			<path class="st0" d="M327.7,534.9c-3.5,0.9-7-1.1-7.9-4.6" />
			<path class="st0" d="M332.3,526.9c0.9,3.4-1.1,7-4.5,7.9c0,0,0,0,0,0" />
			<line class="st0" x1="121.8" y1="664.1" x2="180.1" y2="561.8" />
		</g>
	</g>
	<g>
		<defs>
			<path id="SVGID_1_" d="M215.4,552.3c-7.1,12.4-23,16.6-35.4,9.5c-12.4-7.1-16.6-23-9.5-35.4l116.5-201.8
			c7.5-12.2,23.4-16,35.6-8.5c11.7,7.2,15.8,22.3,9.2,34.4L215.4,552.3z" />
		</defs>
		<clipPath id="SVGID_00000041996310566788636110000013930903476385201843_">
			<use xlink:href="#SVGID_1_" style="overflow:visible;" />
		</clipPath>
		<g style="clip-path:url(#SVGID_00000041996310566788636110000013930903476385201843_);">
			<g>
				<defs>
					<rect id="SVGID_00000045608557756825031630000011856690627069819827_" x="-1117.2" y="-215.4" width="2000.2" height="2057.1" />
				</defs>
				<clipPath id="SVGID_00000177473503720805144810000007660062795187867282_">
					<use xlink:href="#SVGID_00000045608557756825031630000011856690627069819827_" style="overflow:visible;" />
				</clipPath>
				<g style="clip-path:url(#SVGID_00000177473503720805144810000007660062795187867282_);">
					<rect x="131.7" y="288.9" transform="matrix(0.9659 -0.2588 0.2588 0.9659 -104.9197 79.9692)" class="st5" width="239.1" height="299.1" />
				</g>
			</g>
		</g>
	</g>
	<g>
		<g>
			<path class="st6" d="M215.4,552.3c-7.1,12.4-23,16.6-35.4,9.5c-12.4-7.1-16.6-23-9.5-35.4l116.5-201.8c7.5-12.2,23.4-16,35.6-8.5
			c11.7,7.2,15.8,22.3,9.2,34.4L215.4,552.3z" />
			<path class="st7" d="M85.6,231.2c52.2-10,106.1,5.4,145.1,41.5" />
			<path class="st1" d="M259.7,131c16.8,30.7,26,65,26.8,100" />
			<path class="st1" d="M355.7,239.3c17.5-60.7,55.4-113.5,107.4-149.4" />
			<path class="st7" d="M385,298.4c0,0,59.2-29.3,106.7-1.8" />
			<path class="st8" d="M389.2,364.3c47,8.7,88.4,36.4,114.3,76.6" />
			<line class="st0" x1="377.6" y1="421" x2="394.3" y2="483.5" />
			<path class="st8" d="M163.3,371.3c17.4-13.8,37.6-23.8,59.2-29.2" />
		</g>
	</g>
	<rect x="599.3" y="314.3" class="st9" width="100" height="100" />
</svg>
