<svg width="807" height="593" viewBox="0 0 359 264" fill="none"
  xmlns="http://www.w3.org/2000/svg">
  <path d="M359 179.5C359 203.376 354.339 226.162 345.876 247C345.876 247 250.26 247 175 247C99.7404 247 13.1238 247 13.1238 247C4.66141 226.162 0 203.376 0 179.5C0 80.3649 80.3649 0 179.5 0C278.635 0 359 80.3649 359 179.5Z" fill="#FCD116"/>
  <path fill-rule="evenodd" clip-rule="evenodd" d="M179.113 69.7488C168.618 69.75 159.02 72.0245 156.844 73.5412C151.51 67.0941 138.922 54.2 131.241 54.2C121.64 54.2 94.3731 157.985 146.347 171.385C141.995 175.346 132.598 186.377 129.833 198.816C126.419 199.364 117.877 201.724 111.015 206.78C108.924 204.463 103.206 201.073 97.4454 204.252C93.0929 206.654 91.7701 213.228 93.0929 215.377C92.7089 215.082 91.8128 214.112 91.3007 212.595C90.6606 210.699 88.8684 210.194 87.5883 210.573C86.3081 210.952 84.772 213.101 85.6681 215.377C86.5642 217.652 91.3007 229.535 109.095 229.282C107.943 230.42 105.638 234.566 105.638 242.05C105.638 251.404 113.319 263.793 129.833 263.793H228.393C244.907 263.793 252.587 251.404 252.587 242.05C252.587 234.566 250.283 230.42 249.131 229.282C266.925 229.535 271.662 217.652 272.558 215.377C273.454 213.101 271.918 210.952 270.637 210.573C269.357 210.194 267.565 210.699 266.925 212.595C266.413 214.112 265.517 215.082 265.133 215.377C266.456 213.228 265.133 206.654 260.78 204.252C255.02 201.073 249.302 204.463 247.211 206.78C240.349 201.724 231.806 199.364 228.393 198.816C225.628 186.377 216.231 175.346 211.879 171.385C263.853 157.985 236.586 54.2 226.984 54.2C219.304 54.2 206.716 67.0941 201.382 73.5412C199.206 72.0245 189.608 69.75 179.113 69.7488ZM252.661 209.226C251.341 211.483 251.851 214.215 253.802 215.327C255.752 216.439 258.403 215.51 259.723 213.252C261.044 210.994 260.533 208.262 258.582 207.15C256.632 206.039 253.981 206.968 252.661 209.226ZM105.49 215.327C107.44 214.215 107.951 211.483 106.631 209.226C105.311 206.968 102.659 206.039 100.709 207.15C98.7588 208.262 98.2479 210.994 99.5681 213.252C100.888 215.51 103.539 216.439 105.49 215.327Z" fill="#000520"/>
  <path d="M132.528 126.129C132.528 104.28 156.832 101.229 179.153 101.229C201.474 101.229 225.778 104.28 225.778 126.129C225.778 156.342 199.297 137.633 179.153 137.633C159.008 137.633 132.528 156.342 132.528 126.129Z" fill="white"/>
  <path d="M200.229 123.98C199.027 123.98 198.032 124.963 198.254 126.144C198.608 128.018 199.416 129.753 200.603 131.131C202.235 133.028 204.449 134.093 206.758 134.093C209.067 134.093 211.281 133.028 212.913 131.131C214.099 129.753 214.908 128.018 215.261 126.144C215.484 124.963 214.489 123.98 213.287 123.98C212.085 123.98 211.152 124.989 210.707 126.105C210.494 126.639 210.201 127.131 209.836 127.555C209.019 128.504 207.912 129.036 206.758 129.036C205.604 129.036 204.496 128.504 203.68 127.555C203.315 127.131 203.022 126.639 202.809 126.105C202.363 124.989 201.431 123.98 200.229 123.98Z" fill="#000520"/>
  <path d="M145.183 123.98C143.981 123.98 142.986 124.963 143.209 126.144C143.562 128.018 144.37 129.753 145.557 131.131C147.189 133.028 149.403 134.093 151.712 134.093C154.021 134.093 156.235 133.028 157.867 131.131C159.054 129.753 159.862 128.018 160.215 126.144C160.438 124.963 159.443 123.98 158.241 123.98C157.039 123.98 156.106 124.989 155.661 126.105C155.448 126.639 155.155 127.131 154.79 127.555C153.973 128.504 152.866 129.036 151.712 129.036C150.558 129.036 149.451 128.504 148.634 127.555C148.269 127.131 147.976 126.639 147.763 126.105C147.318 124.989 146.385 123.98 145.183 123.98Z" fill="#000520"/>
  <path d="M183.84 218.352L183.774 209.73C183.77 209.138 183.294 208.652 182.696 208.627C164.427 207.858 150.773 211.099 143.936 213.743C142.466 214.311 142.829 216.02 144.401 216.157L182.612 219.473C183.275 219.531 183.845 219.011 183.84 218.352Z" fill="white"/>
  <path d="M202.644 209.907L211.387 210.791C212.264 210.879 212.926 211.619 212.908 212.492L212.774 218.982C212.756 219.892 212.005 220.621 211.085 220.623L204.704 220.637C203.841 220.638 203.115 219.999 203.017 219.151L202.026 210.526C201.985 210.172 202.286 209.871 202.644 209.907Z" fill="white"/>
  <path d="M198.402 212.085C197.722 205.522 189.69 207.681 188.732 209.635C187.773 211.588 188.224 215.866 188.224 215.866C188.733 221.158 190.174 222.29 193.211 222.432C196.247 222.574 197.766 221.364 198.146 220.742C198.587 220.295 199.032 218.168 198.402 212.085Z" fill="white"/>
  <path d="M200.328 224.729L198.572 225.934C198.11 226.25 197.954 226.855 198.205 227.352L205.786 242.318C206.401 243.531 207.948 243.912 209.021 243.065C209.859 242.403 210.908 241.54 212.08 240.495C213.944 238.833 214.764 237.235 215.116 236.28C215.323 235.718 215.162 235.114 214.773 234.655C212.32 231.763 207 226.524 201.298 224.587C200.971 224.476 200.612 224.534 200.328 224.729Z" fill="white"/>
  <path d="M192.501 226.24L190.367 226.367C190.022 226.388 189.704 226.562 189.516 226.85C186.246 231.858 185.339 239.23 185.219 243.003C185.2 243.602 185.451 244.175 185.965 244.49C186.839 245.026 188.482 245.78 190.986 245.946C192.561 246.05 193.924 246.088 194.997 246.095C196.369 246.104 197.347 244.859 197.072 243.529L193.675 227.13C193.562 226.586 193.062 226.206 192.501 226.24Z" fill="white"/>
</svg>
