<svg class="square vue-component" data-name="square" xmlns="http://www.w3.org/2000/svg" viewBox="0 0 400 400" width="400" height="400" xml:space="preserve" version="1.1" xmlns:xlink="http://www.w3.org/1999" style="width: 200px;">
	<g class="shape-square-forward vue-component" name="shape-security-eye">
		<clipPath id="ub7a60930-1852-shape-security-eye__clip-path">
			<rect x="0" y="0" width="400" height="400">
			</rect>
		</clipPath>
		<g style="clip-path: url(&quot;#ub7a60930-1852-shape-security-eye__clip-path&quot;);">
			<g id="_R_G" style="transform: scale(0.46) translate(-106px, -90px);">
				<defs>
					<linearGradient id="sonar">
						<stop offset="0" stop-color="#000">
						</stop>
						<stop offset="0" stop-color="#000">
						</stop>
						<stop offset="0.5" stop-color="#000">
						</stop>
						<stop offset="0.6" stop-color="#ddd">
						</stop>
						<stop offset="1" stop-color="#fff">
						</stop>
					</linearGradient>
					<mask id="sonarMask">
						<path d="M 128,128 L 48,0 L 188,0 z" stroke="none" fill="url(#sonar)">
						</path>
					</mask>
				</defs>
				<g id="background">
					<rect fill="#543b9c" width="1080" height="1080">
					</rect>
				</g>
				<g id="eyeForm">
					<path fill="#5cbbff" fill-opacity="1" fill-rule="nonzero" d=" M530.2 321.91 C343.96,321.91 118.52,537.66 118.52,537.66 C118.52,537.66 961.48,537.66 961.48,537.66 C888.78,468.09 716.43,321.91 530.2,321.91z ">
					</path>
					<path fill="#ffffff" fill-opacity="1" fill-rule="nonzero" d=" M551.43 758.09 C705,758.09 961.48,537.66 961.48,537.66 C961.48,537.66 118.52,537.66 118.52,537.66 C205.92,621.29 397.87,758.09 551.43,758.09z ">
					</path>
				</g>
				<g id="irisRing1" transform=" translate(540, 540.5) scale(0.47, 0.47) translate(0, 0)">
					<path stroke="#543b9c" stroke-linecap="round" stroke-linejoin="round" fill="none" stroke-width="332" stroke-opacity="1" d=" M0 -176.5 C97.41,-176.5 176.5,-97.41 176.5,0 C176.5,97.41 97.41,176.5 0,176.5 C-97.41,176.5 -176.5,97.41 -176.5,0 C-176.5,-97.41 -97.41,-176.5 0,-176.5z ">
					</path>
				</g>
				<g id="irisLine4" transform=" translate(543, 540.5) scale(0.77, 0.77) translate(0, 0)">
					<path stroke="#f8842c" stroke-linecap="round" stroke-linejoin="round" fill="none" stroke-width="2" stroke-opacity="1" d=" M0 -50 C27.6,-50 50,-27.59 50,0 C50,27.6 27.6,50 0,50 C-27.59,50 -50,27.6 -50,0 C-50,-27.59 -27.59,-50 0,-50z ">
					</path>
				</g>
				<g id="irisLine3" transform=" translate(543, 540.5) scale(1.55, 1.55) translate(0, 0)">
					<path stroke="#f8842c" stroke-linecap="round" stroke-linejoin="round" fill="none" stroke-width="1" stroke-opacity="1" d=" M0 -50 C27.6,-50 50,-27.59 50,0 C50,27.6 27.6,50 0,50 C-27.59,50 -50,27.6 -50,0 C-50,-27.59 -27.59,-50 0,-50z ">
					</path>
				</g>
				<g id="irisLine2" transform=" translate(543, 540.5) scale(2.2, 2.2) translate(0, 0)">
					<path stroke="#f8842c" stroke-linecap="round" stroke-linejoin="round" fill="none" stroke-width="1" stroke-opacity="1" d=" M0 -50 C27.6,-50 50,-27.59 50,0 C50,27.6 27.6,50 0,50 C-27.59,50 -50,27.6 -50,0 C-50,-27.59 -27.59,-50 0,-50z ">
					</path>
				</g>
				<g id="irisLine1" transform=" translate(543, 540.5) scale(2.72, 2.72) translate(0, 0)">
					<path stroke="#f8842c" stroke-linecap="round" stroke-linejoin="round" fill="none" stroke-width="1" stroke-opacity="1" d=" M0 -50 C27.6,-50 50,-27.59 50,0 C50,27.6 27.6,50 0,50 C-27.59,50 -50,27.6 -50,0 C-50,-27.59 -27.59,-50 0,-50z ">
					</path>
				</g>
				<g id="centerDot" transform=" translate(543, 540.5) scale(0.29, 0.29) translate(0, 0)">
					<path fill="#f8842c" fill-opacity="1" fill-rule="nonzero" d=" M0 -50 C27.6,-50 50,-27.59 50,0 C50,27.6 27.6,50 0,50 C-27.59,50 -50,27.6 -50,0 C-50,-27.59 -27.59,-50 0,-50z ">
					</path>
				</g>
				<g id="rightUpperSonar" opacity="0">
					<g transform="translate(570, 510)">
						<circle id="rightUpperSonarCircle" cx="70" cy="-86" r="40" stroke="#ffffff" stroke-width="80" fill="none" style="transform-box: fill-box; transform-origin: center center;">
						</circle>
					</g>
					<animate id="rightUpperSonarStep1" dur="1s" begin="0.2s;rightUpperSonarStep1.end+9s" href="#rightUpperSonar" attributeName="opacity" keyTimes="0;0.1;0.5;0.6;1" values="0;0.3;0.5;0.6;0" fill="freeze">
					</animate>
					<animate id="rightUpperSonarStep3" dur="1s" begin="0.21000000000000002s;rightUpperSonarStep1.end+9s" href="#rightUpperSonarCircle" attributeName="stroke-width" from="80" to="5" fill="freeze">
					</animate>
					<animateTransform id="rightUpperSonarStep2" dur="1s" begin="0.22s;rightUpperSonarStep1.end+9s" href="#rightUpperSonarCircle" attributeName="transform" from="0.01" to="0.6" type="scale" fill="freeze" calcMode="paced">
					</animateTransform>
				</g>
				<g id="leftUpperSonar" opacity="0">
					<g transform="translate(434, 562)">
						<circle id="leftUpperSonarCircle" cx="70" cy="-86" r="40" stroke="#ffffff" stroke-width="80" fill="none" style="transform-box: fill-box; transform-origin: center center;">
						</circle>
					</g>
					<animate id="leftUpperSonarStep1" dur="1s" begin="8.44s;leftUpperSonarStep1.end+9s" href="#leftUpperSonar" attributeName="opacity" keyTimes="0;0.1;0.5;0.6;1" values="0;0.3;0.5;0.6;0" fill="freeze">
					</animate>
					<animate id="leftUpperSonarStep3" dur="1s" begin="8.45s;leftUpperSonarStep1.end+9s" href="#leftUpperSonarCircle" attributeName="stroke-width" from="80" to="5" fill="freeze">
					</animate>
					<animateTransform id="leftUpperSonarStep2" dur="1s" begin="8.459999999999999s;leftUpperSonarStep1.end+9s" href="#leftUpperSonarCircle" attributeName="transform" from="0.01" to="0.6" type="scale" fill="freeze" calcMode="paced">
					</animateTransform>
				</g>
				<g id="rightBottomSonar" opacity="0">
					<g transform="translate(590, 720)">
						<circle id="rightBottomSonarCircle" cx="70" cy="-86" r="40" stroke="#ffffff" stroke-width="80" fill="none" style="transform-box: fill-box; transform-origin: center center;">
						</circle>
					</g>
					<animate id="rightBottomSonarStep1" dur="1s" begin="2.5s;rightBottomSonarStep1.end+9s" href="#rightBottomSonar" attributeName="opacity" keyTimes="0;0.1;0.5;0.6;1" values="0;0.3;0.5;0.6;0" fill="freeze">
					</animate>
					<animate id="rightBottomSonarStep3" dur="1s" begin="2.51s;rightBottomSonarStep1.end+9s" href="#rightBottomSonarCircle" attributeName="stroke-width" from="80" to="5" fill="freeze">
					</animate>
					<animateTransform id="rightBottomSonarStep2" dur="1s" begin="2.52s;rightBottomSonarStep1.end+9s" href="#rightBottomSonarCircle" attributeName="transform" from="0.01" to="0.6" type="scale" fill="freeze" calcMode="paced">
					</animateTransform>
				</g>
				<g transform="translate(375, 375) scale(1.3, 1.3)">
					<path xmlns="http://www.w3.org/2000/svg" d="M 128,128 L 48,0 L 188,0 z" stroke="none" fill="#f8842c" mask="url(#sonarMask)">
						<animateTransform attributeName="transform" type="rotate" dur="10.0" from="0,128,128" to="360,128,128" repeatCount="indefinite">
						</animateTransform>
					</path>
				</g>
				<g id="yellowIris">
					<path fill="#fcd116" fill-opacity="1" fill-rule="nonzero" d=" M540 318.99 C418.03,318.99 319.17,417.95 319.17,540.02 C319.17,662.09 418.03,761.01 540,761.01 C661.97,761.01 760.83,662.05 760.83,539.98 C760.83,417.91 661.97,318.99 540,318.99z  M540.05 701.37 C447.56,701.45 373.17,623.67 378.9,529.91 C383.8,449.58 449.12,384.13 529.45,379.07 C623.2,373.15 701.13,447.4 701.21,539.9 C701.21,539.95 701.21,540 701.21,540.05 C701.23,629.08 629.08,701.27 540.05,701.32 C540.05,701.32 540.05,701.37 540.05,701.37z ">
					</path>
				</g>
				<g id="leftBottomSonar" opacity="0">
					<g transform="translate(384, 708)">
						<circle id="leftBottomSonarCircle" cx="70" cy="-86" r="40" stroke="#ffffff" stroke-width="80" fill="none" style="transform-box: fill-box; transform-origin: center center;">
						</circle>
					</g>
					<animate id="leftBottomSonarStep1" dur="1s" begin="5.5s;leftBottomSonarStep1.end+9s" href="#leftBottomSonar" attributeName="opacity" keyTimes="0;0.1;0.5;0.6;1" values="0;0.3;0.5;0.6;0" fill="freeze">
					</animate>
					<animate id="leftBottomSonarStep3" dur="1s" begin="5.51s;leftBottomSonarStep1.end+9s" href="#leftBottomSonarCircle" attributeName="stroke-width" from="80" to="5" fill="freeze">
					</animate>
					<animateTransform id="leftBottomSonarStep2" dur="1s" begin="5.52s;leftBottomSonarStep1.end+9s" href="#leftBottomSonarCircle" attributeName="transform" from="0.01" to="0.6" type="scale" fill="freeze" calcMode="paced">
					</animateTransform>
				</g>
			</g>
		</g>
	</g>
</svg>
