<?xml version="1.0" encoding="utf-8"?>
<svg version="1.0" id="Layer_1" xmlns="http://www.w3.org/2000/svg" x="0" y="0" viewBox="0 0 511.5 447.6" xml:space="preserve">
  <path d="M64.1 21.5h404.8c23.5 0 42.6 19.1 42.6 42.6V405c0 23.5-19.1 42.6-42.6 42.6H64.1c-23.5 0-42.6-19.1-42.6-42.6V64.1c0-23.5 19.1-42.6 42.6-42.6z" fill="#fff"/>
  <path d="M44.1 1.5h404.8c23.5 0 42.6 19.1 42.6 42.6V385c0 23.5-19.1 42.6-42.6 42.6H44.1c-23.5 0-42.6-19.1-42.6-42.6V44.1c0-23.5 19.1-42.6 42.6-42.6z" fill="none" stroke="#000000" stroke-width="3" stroke-linecap="round" stroke-linejoin="round"/>
  <path fill="none" stroke="#000000" stroke-width="3" stroke-linecap="round" stroke-linejoin="round" d="M1.5 107h490"/>
  <g>
    <path d="M80.1 51.4c2.9 0 5.3 2.4 5.3 5.3S83 62 80.1 62s-5.3-2.4-5.3-5.3 2.3-5.3 5.3-5.3" fill="#FCD116"/>
    <path d="M144 51.4c2.9 0 5.3 2.4 5.3 5.3S146.9 62 144 62s-5.3-2.4-5.3-5.3 2.3-5.3 5.3-5.3" fill="#FCD116"/>
    <path d="M207.9 51.4c2.9 0 5.3 2.4 5.3 5.3s-2.4 5.3-5.3 5.3-5.3-2.4-5.3-5.3 2.3-5.3 5.3-5.3" fill="#FCD116"/>
  </g>
  <g>
    <path d="M76.1 49.4c2.9 0 5.3 2.4 5.3 5.3S79 60 76.1 60s-5.3-2.4-5.3-5.3 2.3-5.3 5.3-5.3" fill="none" stroke="#000000" stroke-width="3" stroke-linecap="round" stroke-linejoin="round"/>
    <path d="M140 49.4c2.9 0 5.3 2.4 5.3 5.3S142.9 60 140 60s-5.3-2.4-5.3-5.3 2.3-5.3 5.3-5.3" fill="none" stroke="#000000" stroke-width="3" stroke-linecap="round" stroke-linejoin="round"/>
    <path d="M203.9 49.4c2.9 0 5.3 2.4 5.3 5.3s-2.4 5.3-5.3 5.3-5.3-2.4-5.3-5.3 2.3-5.3 5.3-5.3" fill="none" stroke="#000000" stroke-width="3" stroke-linecap="round" stroke-linejoin="round"/>
  </g>
  <g>
    <path d="M107.3 200.2H150c5.9 0 10.7 4.8 10.7 10.7v42.6c0 5.9-4.8 10.7-10.7 10.7h-42.6c-5.9 0-10.7-4.8-10.7-10.7v-42.6c0-5.9 4.8-10.7 10.6-10.7z" fill="#FCD116"/>
    <path d="M107.3 306.8H150c5.9 0 10.7 4.8 10.7 10.7V360c0 5.9-4.8 10.7-10.7 10.7h-42.6c-5.9 0-10.7-4.8-10.7-10.7v-42.6c0-5.9 4.8-10.6 10.6-10.6z" fill="#FCD116"/>
    <path d="M235.2 200.2h42.6c5.9 0 10.7 4.8 10.7 10.7v42.6c0 5.9-4.8 10.7-10.7 10.7h-42.6c-5.9 0-10.7-4.8-10.7-10.7v-42.6c0-5.9 4.8-10.7 10.7-10.7z" fill="#FCD116"/>
    <path d="M235.2 306.8h42.6c5.9 0 10.7 4.8 10.7 10.7V360c0 5.9-4.8 10.7-10.7 10.7h-42.6c-5.9 0-10.7-4.8-10.7-10.7v-42.6c0-5.9 4.8-10.6 10.7-10.6z" fill="#FCD116"/>
    <path d="M363 200.2h42.6c5.9 0 10.7 4.8 10.7 10.7v42.6c0 5.9-4.8 10.7-10.7 10.7H363c-5.9 0-10.7-4.8-10.7-10.7v-42.6c0-5.9 4.8-10.7 10.7-10.7z" fill="#FCD116"/>
    <path d="M363 306.8h42.6c5.9 0 10.7 4.8 10.7 10.7V360c0 5.9-4.8 10.7-10.7 10.7H363c-5.9 0-10.7-4.8-10.7-10.7v-42.6c0-5.9 4.8-10.6 10.7-10.6z" fill="#FCD116"/>
  </g>
  <g>
    <path d="M97.3 192.2H140c5.9 0 10.7 4.8 10.7 10.7v42.6c0 5.9-4.8 10.7-10.7 10.7H97.3c-5.9 0-10.7-4.8-10.7-10.7v-42.6c.1-5.9 4.9-10.7 10.7-10.7z" fill="none" stroke="#000000" stroke-width="3" stroke-miterlimit="10"/>
    <path d="M97.3 298.8H140c5.9 0 10.7 4.8 10.7 10.7V352c0 5.9-4.8 10.7-10.7 10.7H97.3c-5.9 0-10.7-4.8-10.7-10.7v-42.6c.1-5.9 4.9-10.6 10.7-10.6z" fill="none" stroke="#000000" stroke-width="3" stroke-miterlimit="10"/>
    <path d="M225.2 192.2h42.6c5.9 0 10.7 4.8 10.7 10.7v42.6c0 5.9-4.8 10.7-10.7 10.7h-42.6c-5.9 0-10.7-4.8-10.7-10.7v-42.6c0-5.9 4.8-10.7 10.7-10.7z" fill="none" stroke="#000000" stroke-width="3" stroke-miterlimit="10"/>
    <path d="M225.2 298.8h42.6c5.9 0 10.7 4.8 10.7 10.7V352c0 5.9-4.8 10.7-10.7 10.7h-42.6c-5.9 0-10.7-4.8-10.7-10.7v-42.6c0-5.9 4.8-10.6 10.7-10.6z" fill="none" stroke="#000000" stroke-width="3" stroke-miterlimit="10"/>
    <path d="M353 192.2h42.6c5.9 0 10.7 4.8 10.7 10.7v42.6c0 5.9-4.8 10.7-10.7 10.7H353c-5.9 0-10.7-4.8-10.7-10.7v-42.6c0-5.9 4.8-10.7 10.7-10.7z" fill="none" stroke="#000000" stroke-width="3" stroke-miterlimit="10"/>
    <path d="M353 298.8h42.6c5.9 0 10.7 4.8 10.7 10.7V352c0 5.9-4.8 10.7-10.7 10.7H353c-5.9 0-10.7-4.8-10.7-10.7v-42.6c0-5.9 4.8-10.6 10.7-10.6z" fill="none" stroke="#000000" stroke-width="3" stroke-miterlimit="10"/>
  </g>
</svg>
