<?xml version="1.0" encoding="UTF-8"?><svg xmlns="http://www.w3.org/2000/svg" viewBox="0 0 80.15 67.43"><g id="a"/><g id="b"/><g id="c"><g><path d="M28.72,46.16V8.84h-.21c-1.07,0-1.95,.87-1.95,1.95V48.52c0,1.07,.87,1.94,1.95,1.94h29.65c.72,0,1.35-.4,1.68-.98h-27.79c-1.83,0-3.32-1.49-3.32-3.32Z" fill="none"/><path d="M60.09,10.79c0-1.07-.87-1.95-1.95-1.95H28.72V46.16c0,1.83,1.49,3.32,3.32,3.32h27.79c.16-.28,.26-.61,.26-.96V10.79Zm-6.21,32.26c0,.41-.34,.75-.75,.75s-.75-.34-.75-.75c0-.6-.07-1.19-.19-1.76h-14.83c0-1.48,.36-2.88,1-4.11-1.52,1.5-2.46,3.57-2.46,5.87,0,.41-.34,.75-.75,.75s-.75-.34-.75-.75c0-4.5,3.08-8.29,7.23-9.4,.32-.2,.66-.38,1.01-.54-2.58-.67-4.5-3.01-4.5-5.8,0-2.98,2.19-5.45,5.03-5.91,.88-.68,1.98-1.1,3.18-1.1,2.9,0,5.25,2.35,5.25,5.25,0,1.62-.75,3.05-1.91,4.02-.47,1.15-1.29,2.13-2.33,2.79,4.49,.5,7.99,4.31,7.99,8.93h-1.63c.11,.57,.17,1.16,.17,1.76Z" fill="#008187"/><path d="M61.65,5h-29.62c-1.48,0-2.73,.99-3.15,2.34h29.27c1.9,0,3.45,1.55,3.45,3.45V48.52c0,.34-.06,.65-.15,.96h.22c1.83,0,3.32-1.49,3.32-3.32V8.32c0-1.83-1.49-3.32-3.32-3.32Z" fill="#008187"/><path d="M47.03,30.72c-.22,.03-.44,.07-.67,.07-2.9,0-5.25-2.35-5.25-5.25,0-.64,.13-1.25,.34-1.82-1.09,.82-1.81,2.11-1.81,3.58,0,2.48,2.02,4.5,4.5,4.5,1.11,0,2.11-.42,2.89-1.08Z" fill="#008187"/><path d="M51.68,53.49c-.41,0-.75,.34-.75,.75,0,1.07-.87,1.95-1.95,1.95H22.7c-1.07,0-1.94-.87-1.94-1.95v-12.95c0-.41-.34-.75-.75-.75s-.75,.34-.75,.75v12.95c0,1.9,1.54,3.45,3.44,3.45h26.28c1.9,0,3.45-1.55,3.45-3.45,0-.41-.34-.75-.75-.75Z"/><path d="M61.59,10.79c0-1.9-1.55-3.45-3.45-3.45H28.5c-1.9,0-3.45,1.55-3.45,3.45V48.52c0,1.9,1.55,3.44,3.45,3.44h29.65c1.56,0,2.87-1.05,3.29-2.48,.09-.31,.15-.62,.15-.96V10.79Zm-3.45,39.67H28.5c-1.07,0-1.95-.87-1.95-1.94V10.79c0-1.07,.87-1.95,1.95-1.95h29.65c1.07,0,1.95,.87,1.95,1.95V48.52c0,.35-.1,.68-.26,.96-.34,.58-.96,.98-1.68,.98Z"/><path d="M46.84,58.99c-.41,0-.75,.34-.75,.75,0,1.07-.87,1.95-1.95,1.95H17.87c-1.07,0-1.95-.87-1.95-1.95v-12.95c0-.41-.34-.75-.75-.75s-.75,.34-.75,.75v12.95c0,1.9,1.55,3.45,3.45,3.45h26.28c1.9,0,3.45-1.55,3.45-3.45,0-.41-.34-.75-.75-.75Z"/><path d="M50.14,27.31c0,.8-.16,1.56-.44,2.26,1.16-.96,1.91-2.39,1.91-4.02,0-2.9-2.35-5.25-5.25-5.25-1.2,0-2.29,.42-3.18,1.1,.31-.05,.63-.08,.96-.08,3.31,0,6,2.69,6,6Z" fill="#f5c663"/><path d="M46.36,30.79c.23,0,.45-.04,.67-.07,.97-.83,1.61-2.04,1.61-3.42,0-2.48-2.02-4.5-4.5-4.5-1.01,0-1.93,.35-2.69,.91-.21,.57-.34,1.18-.34,1.82,0,2.9,2.35,5.25,5.25,5.25Z" fill="#f5c663"/><path d="M47.37,32.35c-.93,.6-2.04,.95-3.22,.95-.52,0-1.02-.07-1.5-.2-.35,.16-.68,.34-1.01,.54,.8-.21,1.64-.34,2.51-.34,4.77,0,8.74,3.45,9.58,7.98h1.63c0-4.63-3.49-8.43-7.99-8.93Z" fill="#f5c663"/><path d="M44.14,34.81c-2.25,0-4.29,.91-5.78,2.37-.63,1.23-1,2.63-1,4.11h14.83c-.81-3.7-4.11-6.48-8.05-6.48Z" fill="#f5c663"/><path d="M47.37,32.35c1.04-.67,1.86-1.64,2.33-2.79,.28-.7,.44-1.46,.44-2.26,0-3.31-2.69-6-6-6-.33,0-.65,.03-.96,.08-2.85,.46-5.03,2.93-5.03,5.91,0,2.79,1.91,5.13,4.5,5.8,.48,.12,.98,.2,1.5,.2,1.19,0,2.29-.35,3.22-.95Zm-7.72-5.05c0-1.47,.72-2.76,1.81-3.58,.75-.57,1.68-.91,2.69-.91,2.48,0,4.5,2.02,4.5,4.5,0,1.37-.63,2.59-1.61,3.42-.78,.66-1.78,1.08-2.89,1.08-2.48,0-4.5-2.02-4.5-4.5Z"/><path d="M44.14,33.31c-.87,0-1.71,.13-2.51,.34-4.16,1.11-7.23,4.9-7.23,9.4,0,.41,.34,.75,.75,.75s.75-.34,.75-.75c0-2.3,.94-4.37,2.46-5.87,1.49-1.47,3.53-2.37,5.78-2.37,3.94,0,7.24,2.78,8.05,6.48,.12,.57,.19,1.16,.19,1.76,0,.41,.34,.75,.75,.75s.75-.34,.75-.75c0-.6-.06-1.19-.17-1.76-.83-4.53-4.81-7.98-9.58-7.98Z"/></g></g></svg>