<?xml version="1.0" encoding="UTF-8"?><svg xmlns="http://www.w3.org/2000/svg" viewBox="0 0 80.15 67.43"><g id="a"/><g id="b"/><g id="c"><g id="d"><g><path d="M11.87,35.13h-.48c-.62,0-1.12,.5-1.12,1.12v15.19h1.6v-16.31Z" fill="none"/><rect x="38.6" y="49.43" width="5.51" height="5.51" fill="none"/><path d="M16.51,53.68c.05,.12,.08,.25,.08,.39,0,.54-.44,.98-.98,.98s-.98-.44-.98-.98c0-.14,.03-.27,.08-.39h-.96c-.6,0-1.14-.29-1.48-.73h-2v1.12c0,.62,.5,1.12,1.12,1.12h8.44c.62,0,1.12-.5,1.12-1.12v-.39h-4.44Z" fill="none"/><path d="M17.8,19.72v11.52h4.38c1.73-.1,2.74,1.35,2.74,2.74v12.04h42.57V19.72H17.8Z" fill="#008187"/><path d="M69.04,19.72h-.04v26.14c.99-.37,1.71-1.32,1.71-2.43V21.39c0-.92-.74-1.66-1.66-1.66Z" fill="#008187"/><path d="M20.95,51.44v-15.19c0-.62-.5-1.12-1.12-1.12h-7.96v16.31h9.08Z" fill="#f5c663"/><path d="M22.18,32.12H13.74c-.91,0-1.67,.65-1.84,1.52h7.92c1.45,0,2.62,1.18,2.62,2.62v17.39c.91-.13,1.6-.9,1.6-1.85v-17.81c0-1.04-.84-1.87-1.87-1.87Z" fill="#f5c663"/><path d="M13.74,53.68h.96c.15-.35,.5-.59,.9-.59s.75,.25,.9,.59h4.44v-.73H12.26c.34,.44,.87,.73,1.48,.73Z" fill="#f5c663"/><polygon points="20.95 52.94 20.95 51.44 11.87 51.44 10.26 51.44 10.26 52.94 12.26 52.94 20.95 52.94"/><path d="M22.45,36.26c0-1.45-1.18-2.62-2.62-2.62H11.39c-1.45,0-2.62,1.18-2.62,2.62v17.81c0,1.45,1.18,2.62,2.62,2.62h8.44c1.45,0,2.62-1.18,2.62-2.62v-17.81Zm-2.62,18.94H11.39c-.62,0-1.12-.5-1.12-1.12v-17.81c0-.62,.5-1.12,1.12-1.12h8.44c.62,0,1.12,.5,1.12,1.12v17.81c0,.62-.5,1.12-1.12,1.12Z"/><path d="M15.6,53.08c-.4,0-.75,.25-.9,.59-.05,.12-.08,.25-.08,.39,0,.54,.44,.98,.98,.98v-1.97Z"/><path d="M15.6,53.08v1.97c.54,0,.98-.44,.98-.98,0-.14-.03-.27-.08-.39-.15-.35-.5-.59-.9-.59Z"/><path d="M37.85,47.93h-10.51c-.41,0-.75,.34-.75,.75s.34,.75,.75,.75h9.76v-.75c0-.41,.34-.75,.75-.75Z"/><path d="M38.6,48.68v.75h5.51v-.75c0-.41,.34-.75,.75-.75h-7.01c.41,0,.75,.34,.75,.75Z"/><path d="M68.99,15.95c0-1.7-1.38-3.09-3.09-3.09H16.81c-1.7,0-3.09,1.38-3.09,3.09v12.35c0,.41,.34,.75,.75,.75s.75-.34,.75-.75V15.95c0-.88,.71-1.59,1.59-1.59h49.1c.88,0,1.59,.71,1.59,1.59v30.39c0,.88-.71,1.59-1.59,1.59h-21.04c.41,0,.75,.34,.75,.75v.75h20.29c1.7,0,3.09-1.38,3.09-3.09V15.95Z"/><path d="M37.1,55.69v-.75h-8.63c-.41,0-.75,.34-.75,.75s.34,.75,.75,.75h9.38c-.41,0-.75-.34-.75-.75Z"/><path d="M44.87,56.44h9.33c.41,0,.75-.34,.75-.75s-.34-.75-.75-.75h-8.58v.75c0,.41-.34,.75-.75,.75Z"/><path d="M44.12,55.69v-.75h-5.51v.75c0,.41-.34,.75-.75,.75h7.01c-.41,0-.75-.34-.75-.75Z"/><path d="M38.6,55.69v-7.01c0-.41-.34-.75-.75-.75s-.75,.34-.75,.75v7.01c0,.41,.34,.75,.75,.75s.75-.34,.75-.75Z"/><path d="M44.87,47.93c-.41,0-.75,.34-.75,.75v7.01c0,.41,.34,.75,.75,.75s.75-.34,.75-.75v-7.01c0-.41-.34-.75-.75-.75Z"/><path d="M19.21,18.05c.25-.25,.25-.65,0-.9-.25-.25-.65-.25-.9,0s-.25,.65,0,.9c.25,.25,.65,.25,.9,0Z" fill="#020202"/><path d="M22.17,18.05c.25-.25,.25-.65,0-.9-.25-.25-.65-.25-.9,0s-.25,.65,0,.9c.25,.25,.65,.25,.9,0Z" fill="#020202"/><path d="M25.09,18.05c.25-.25,.25-.65,0-.9s-.65-.25-.9,0c-.25,.25-.25,.65,0,.9s.65,.25,.9,0Z" fill="#020202"/></g></g></g></svg>