<svg data-name="Layer 1" xmlns="http://www.w3.org/2000/svg" width="81.33" height="90">
    <path d="M74.28 30.9 11.93 0 0 76.45 81.33 90z" fill="#f8842c"/>
    <path d="M40.2 82.16a1.88 1.88 0 0 0 1.28-.47 1.55 1.55 0 0 0 .5-1.16 2.12 2.12 0 0 0-.31-1.09l-12.9-19.95a16.81 16.81 0 0 0 8.7-6 16.54 16.54 0 0 0 1-18.44 17 17 0 0 0-6.29-6.13 17.32 17.32 0 0 0-8.7-2.25H9a3.55 3.55 0 0 0-1.25.23l-2.1 13.41v37.12L15.12 79V60.31h3.8l12.85 20.76a2.27 2.27 0 0 0 .88.83l1.56.26zM15.12 51.41V35.58H23a8 8 0 0 1 5.86 2.25 7.71 7.71 0 0 1 2.29 5.74 7.45 7.45 0 0 1-2.25 5.63 8.07 8.07 0 0 1-5.9 2.21zm34.16 30.75h6.49a13 13 0 0 0 6.68-1.75 12.42 12.42 0 0 0 4.62-4.81 14.19 14.19 0 0 0 1.67-6.87V28.16l-3-1.48H60.9a1.57 1.57 0 0 0-1.63 1.51v40.57a4.68 4.68 0 0 1-1.13 3.3 4 4 0 0 1-3.07 1.2h-5.74a1.57 1.57 0 0 0-1.63 1.51v5.79a1.59 1.59 0 0 0 1.55 1.63h.08z" fill="#fff"/>
</svg>
