<svg data-name="Layer 17" xmlns="http://www.w3.org/2000/svg" width="83.97" height="90">
    <g data-name="MDATP copy">
        <path d="M83.9 16.13c0-1.2-.57-1.38-1.54-1.54A76.28 76.28 0 0 1 53.57 3.53a21 21 0 0 0-23.35 0 75.67 75.67 0 0 1-28.78 11c-1.11.17-1.47.54-1.44 1.62.06 2.16 0 4.32 0 6.48a68.32 68.32 0 0 0 1.36 13.38q7.53 35.43 39 53.45a2.9 2.9 0 0 0 3.22 0 77.61 77.61 0 0 0 31.84-32.9c6.51-12.66 8.99-26.25 8.48-40.43zm-13.06 39a67 67 0 0 1-27.51 28.42 2.47 2.47 0 0 1-2.78 0Q13.35 68.01 6.9 37.37a59 59 0 0 1-1.18-11.56v-5.6c0-.93.29-1.25 1.24-1.4a65.18 65.18 0 0 0 24.86-9.5 18.11 18.11 0 0 1 20.17 0 66 66 0 0 0 24.88 9.55c.84.14 1.3.3 1.33 1.33.44 12.27-1.7 24-7.36 34.98z" fill="#0072c6"/>
        <path d="M11.43 28.49v-4.72c0-.79.24-1.06 1-1.19a54.92 54.92 0 0 0 21-8 15.29 15.29 0 0 1 17 0 55.63 55.63 0 0 0 21 8.05c.71.11 1.09.25 1.13 1.12a58.63 58.63 0 0 1-6.28 29.43A56.43 56.43 0 0 1 43.1 77.13a2.08 2.08 0 0 1-2.34 0Q17.84 64.03 12.4 38.22a49.07 49.07 0 0 1-.97-9.73z" fill="#0072c6"/>
        <path d="M52.17 28.01c-.91 1.86-1.71 3.52-2.54 5.18s-1.74 3.51-2.66 5.24c-.54 1-.53 1.47.85 1.43 3.06-.08 6.12 0 9.18 0 .22 0 .45 0 .35-.15l-24.91 25 3.72-7.5c1.2-2.4 2.4-4.79 3.58-7.19.67-1.35.66-1.36-.9-1.36h-6.18c-.83 0-1-.19-.61-1q4.75-9.48 9.49-19c.2-.4.42-.73 1-.73 3.1.09 6.24.08 9.63.08z" fill="#f6fbfc"/>
    </g>
</svg>
