<svg xmlns="http://www.w3.org/2000/svg"
  xmlns:xlink="http://www.w3.org/1999/xlink" viewBox="0 0 240 240">
  <defs>
    <style>.cls-1,.cls-2,.cls-8,.cls-9{fill:none;}.cls-1{clip-rule:evenodd;}.cls-3{clip-path:url(#clip-path);}.cls-4{clip-path:url(#clip-path-2);}.cls-5{fill:#f8842c;}.cls-6{clip-path:url(#clip-path-3);}.cls-7{fill:#008187;}.cls-8{stroke:#fff;}.cls-8,.cls-9{stroke-linecap:round;stroke-linejoin:round;stroke-width:2px;}.cls-9{stroke:#fcd116;}</style>
    <clipPath id="clip-path">
      <path class="cls-1" d="M63.76,205.76c0-9.94,15.9-18,35.5-18s35.5,8.06,35.5,18Z"/>
    </clipPath>
    <clipPath id="clip-path-2">
      <rect class="cls-2" x="-101.24" y="-493.24" width="907" height="2536"/>
    </clipPath>
    <clipPath id="clip-path-3">
      <path class="cls-1" d="M129.85,138.6a48.15,48.15,0,0,1,47.91-48V40.38a5.65,5.65,0,0,0-5.64-5.62H15.41a5.65,5.65,0,0,0-5.65,5.62V147.14a5.65,5.65,0,0,0,5.65,5.62H132a48,48,0,0,1-2.13-14.16"/>
    </clipPath>
  </defs>
  <g class="cls-3">
    <g class="cls-4">
      <rect class="cls-5" x="62.76" y="186.76" width="73" height="20"/>
    </g>
  </g>
  <g class="cls-6">
    <g class="cls-4">
      <rect class="cls-7" x="8.76" y="33.76" width="170" height="120"/>
    </g>
  </g>
  <g class="cls-4">
    <path class="cls-8" d="M114.62,159.76H28.89a7.13,7.13,0,0,1-7.13-7.12V52.89a7.13,7.13,0,0,1,7.13-7.13H178.63a7.13,7.13,0,0,1,7.13,7.13V81.14"/>
    <path class="cls-8" d="M103.76,184.36a67.78,67.78,0,0,1,14,1.4l-3.3-26H93.06l-3.3,26A67.85,67.85,0,0,1,103.76,184.36Z"/>
    <path class="cls-8" d="M68.76,202.76c0-9.94,15.9-18,35.5-18s35.5,8.06,35.5,18Z"/>
    <line class="cls-8" x1="85.76" y1="88.76" x2="85.76" y2="102.76"/>
    <line class="cls-8" x1="121.76" y1="88.76" x2="121.76" y2="102.76"/>
    <path class="cls-8" d="M132.76,119.76a42.41,42.41,0,0,1-57,0"/>
    <polyline class="cls-9" points="199.76 145.76 184.76 145.76 184.76 123.76"/>
    <circle class="cls-8" cx="185.26" cy="144.26" r="44.5"/>
  </g>
</svg>
