<?xml version="1.0" encoding="UTF-8"?><svg xmlns="http://www.w3.org/2000/svg" viewBox="0 0 80.15 67.43"><g id="a"/><g id="b"/><g id="c"><g id="d"><g><path d="M15.13,56.75c-3.44,0-6.26-2.82-6.26-6.26V21.65c0-.36,.04-.72,.1-1.06-1.83,.79-3.12,2.61-3.12,4.72v29.45c0,2.83,2.31,5.14,5.14,5.14H55.16c2.25,0,4.14-1.46,4.84-3.47-.61,.2-1.25,.31-1.92,.31H15.13Z" fill="none"/><path d="M60.3,25.32c0-2.83-2.31-5.14-5.14-5.14H10.99c-.72,0-1.4,.15-2.02,.42-.06,.35-.1,.7-.1,1.06v28.83c0,3.44,2.82,6.26,6.26,6.26H58.07c.67,0,1.32-.11,1.92-.31,.18-.53,.3-1.08,.3-1.67V25.32Zm-22.59,4.88h12.8c.41,0,.75,.34,.75,.75s-.34,.75-.75,.75h-12.8c-.41,0-.75-.34-.75-.75s.34-.75,.75-.75Zm-1.88,21.78c0,.41-.34,.75-.75,.75s-.75-.34-.75-.75c0-.69-.08-1.36-.22-2H16.14c0-.78,.1-1.54,.26-2.27-.65,1.29-1.03,2.74-1.03,4.28,0,.41-.34,.75-.75,.75s-.75-.34-.75-.75c0-4.13,2.29-7.72,5.67-9.6,.92-.83,1.99-1.49,3.17-1.94-2.65-.9-4.57-3.41-4.57-6.36,0-2.69,1.6-5.01,3.89-6.08,1.09-1.16,2.63-1.88,4.34-1.88,3.29,0,5.97,2.67,5.97,5.97,0,1.13-.32,2.18-.86,3.08-.33,2.04-1.58,3.77-3.32,4.76,4.79,.85,8.44,5.02,8.44,10.06h-.96c.12,.65,.19,1.32,.19,2Zm18.94-14.6h-17.06c-.41,0-.75-.34-.75-.75s.34-.75,.75-.75h17.06c.41,0,.75,.34,.75,.75s-.34,.75-.75,.75Z" fill="#008187"/><path d="M28.69,37.56c-.72,.3-1.5,.47-2.33,.47-3.29,0-5.97-2.67-5.97-5.97,0-.27,.02-.53,.06-.79-.52,.81-.83,1.76-.83,2.79,0,2.88,2.34,5.21,5.21,5.21,1.53,0,2.89-.67,3.85-1.72Z" fill="#008187"/><path d="M58.07,15.39H15.13c-2.43,0-4.55,1.41-5.58,3.45,.46-.1,.94-.16,1.44-.16H55.16c3.66,0,6.64,2.98,6.64,6.64v29.45c0,.26-.02,.52-.05,.77,1.56-1.14,2.59-2.98,2.59-5.05V21.65c0-3.44-2.82-6.26-6.26-6.26Z" fill="#008187"/><path d="M61.8,25.32c0-3.66-2.98-6.64-6.64-6.64H10.99c-.49,0-.97,.06-1.44,.16-2.97,.66-5.2,3.31-5.2,6.48v29.45c0,3.66,2.98,6.64,6.64,6.64H55.16c3.4,0,6.21-2.57,6.59-5.87,.03-.25,.05-.51,.05-.77V25.32Zm-6.64,34.59H10.99c-2.83,0-5.14-2.31-5.14-5.14V25.32c0-2.12,1.29-3.94,3.12-4.72,.62-.27,1.3-.42,2.02-.42H55.16c2.83,0,5.14,2.31,5.14,5.14v29.45c0,.59-.12,1.15-.3,1.67-.7,2.01-2.59,3.47-4.84,3.47Z"/><path d="M66.94,6.03H22.77c-3.66,0-6.64,2.98-6.64,6.64,0,.41,.34,.75,.75,.75s.75-.34,.75-.75c0-2.83,2.31-5.14,5.14-5.14h44.17c2.83,0,5.14,2.3,5.14,5.14v29.92c0,2.83-2.31,5.14-5.14,5.14-.41,0-.75,.34-.75,.75s.34,.75,.75,.75c3.66,0,6.64-2.98,6.64-6.64V12.66c0-3.66-2.98-6.64-6.64-6.64Z"/><path d="M31.56,34.07c0,.37-.04,.73-.09,1.08,.54-.9,.86-1.95,.86-3.08,0-3.29-2.67-5.97-5.97-5.97-1.71,0-3.25,.73-4.34,1.88,.86-.4,1.81-.63,2.82-.63,3.7,0,6.71,3.01,6.71,6.71Z" fill="#f5c663"/><path d="M26.37,38.04c.83,0,1.61-.17,2.33-.47,.84-.93,1.37-2.14,1.37-3.49,0-2.88-2.34-5.21-5.21-5.21-1.85,0-3.46,.97-4.39,2.42-.03,.26-.06,.52-.06,.79,0,3.29,2.67,5.97,5.97,5.97Z" fill="#f5c663"/><path d="M24.85,42.5c-3.69,0-6.88,2.12-8.44,5.2-.17,.73-.26,1.49-.26,2.27h17.97c-.92-4.27-4.72-7.47-9.26-7.47Z" fill="#f5c663"/><path d="M28.15,39.91c-.98,.56-2.1,.88-3.31,.88-.75,0-1.47-.13-2.14-.36-1.18,.45-2.25,1.12-3.17,1.94,1.58-.88,3.39-1.38,5.31-1.38,5.37,0,9.84,3.88,10.78,8.97h.96c0-5.04-3.65-9.21-8.44-10.06Z" fill="#f5c663"/><path d="M28.15,39.91c1.73-.99,2.98-2.72,3.32-4.76,.06-.35,.09-.71,.09-1.08,0-3.7-3.01-6.71-6.71-6.71-1.01,0-1.96,.23-2.82,.63-2.29,1.07-3.89,3.39-3.89,6.08,0,2.95,1.92,5.46,4.57,6.36,.67,.23,1.39,.36,2.14,.36,1.2,0,2.33-.32,3.31-.88Zm-8.52-5.84c0-1.03,.31-1.98,.83-2.79,.93-1.45,2.54-2.42,4.39-2.42,2.88,0,5.21,2.34,5.21,5.21,0,1.35-.53,2.56-1.37,3.49-.95,1.05-2.32,1.72-3.85,1.72-2.88,0-5.21-2.34-5.21-5.21Z"/><path d="M24.85,41c-1.93,0-3.74,.5-5.31,1.38-3.37,1.87-5.67,5.47-5.67,9.6,0,.41,.34,.75,.75,.75s.75-.34,.75-.75c0-1.54,.38-2.99,1.03-4.28,1.57-3.08,4.76-5.2,8.44-5.2,4.54,0,8.34,3.21,9.26,7.47,.14,.65,.22,1.32,.22,2,0,.41,.34,.75,.75,.75s.75-.34,.75-.75c0-.68-.07-1.35-.19-2-.95-5.1-5.42-8.97-10.78-8.97Z"/><path d="M37.71,31.69h12.8c.41,0,.75-.34,.75-.75s-.34-.75-.75-.75h-12.8c-.41,0-.75,.34-.75,.75s.34,.75,.75,.75Z"/><path d="M54.77,35.88h-17.06c-.41,0-.75,.34-.75,.75s.34,.75,.75,.75h17.06c.41,0,.75-.34,.75-.75s-.34-.75-.75-.75Z"/></g></g></g></svg>