<svg id="Ebene_2" data-name="Ebene 2" xmlns="http://www.w3.org/2000/svg" xmlns:xlink="http://www.w3.org/1999/xlink" viewBox="0 0 341.78 342.67">
	<defs>
		<style>
			.cls-1,.cls-3{fill:none;}.cls-2{clip-path:url(#clip-path);}.cls-3{stroke:#fcd116;stroke-linecap:round;stroke-linejoin:round;stroke-width:4px;}
		</style>
		<clipPath id="clip-path">
			<rect class="cls-1" x="-735.35" y="-8513.27" width="1142.78" height="10435.83" />
		</clipPath>
	</defs>
	<g class="cls-2">
		<path class="cls-3" d="M162.74,110.6A13.34,13.34,0,0,0,149.41,124v46.74a20,20,0,1,0,40,0V124a13.34,13.34,0,0,0-13.33-13.35Z" />
		<path class="cls-3" d="M202.72,110.6A13.34,13.34,0,0,0,189.39,124v46.74a20,20,0,1,0,40,0V124A13.34,13.34,0,0,0,216,110.6Z" />
		<path class="cls-3" d="M242.69,270.84v-7a13.4,13.4,0,0,1,4.48-10,66.21,66.21,0,0,0,22.18-49.77V77.21a20,20,0,1,0-40,0V137.3" />
		<path class="cls-3" d="M149.41,124V37.15a20,20,0,1,0-40,0V170.69l-40-41.4A16,16,0,0,0,46,150.66s33.06,53,56,89.18a66.08,66.08,0,0,0,15.59,16.91,13.31,13.31,0,0,1,5.21,10.61v3.48" />
		<rect class="cls-3" x="109.43" y="270.83" width="146.59" height="53.41" rx="0.79" />
		<path class="cls-3" d="M139.42,294.2a3.34,3.34,0,0,1,3.33,3.34" />
		<path class="cls-3" d="M136.09,297.54a3.34,3.34,0,0,1,3.33-3.34" />
		<path class="cls-3" d="M139.42,300.88a3.33,3.33,0,0,1-3.33-3.34" />
		<path class="cls-3" d="M142.75,297.54a3.33,3.33,0,0,1-3.33,3.34" />
		<path class="cls-3" d="M182.73,294.2a3.34,3.34,0,0,1,3.33,3.34" />
		<path class="cls-3" d="M179.4,297.54a3.34,3.34,0,0,1,3.33-3.34" />
		<path class="cls-3" d="M182.73,300.88a3.33,3.33,0,0,1-3.33-3.34" />
		<path class="cls-3" d="M186.06,297.54a3.33,3.33,0,0,1-3.33,3.34" />
		<path class="cls-3" d="M226,294.2a3.34,3.34,0,0,1,3.33,3.34" />
		<path class="cls-3" d="M222.71,297.54A3.34,3.34,0,0,1,226,294.2" />
		<path class="cls-3" d="M226,300.88a3.33,3.33,0,0,1-3.33-3.34" />
		<path class="cls-3" d="M229.37,297.54a3.33,3.33,0,0,1-3.33,3.34" />
	</g>
</svg>
