<?xml version="1.0" encoding="UTF-8"?><svg xmlns="http://www.w3.org/2000/svg" viewBox="0 0 80.15 67.43"><g id="a"/><g id="b"/><g id="c"><g id="d"><path d="M56.54,56.97c-1.15,2.14-4.04,2.49-4.04,2.49l-25.44,.04s-6.19-.28-6.19-5.74c0-5.94,6.19-6.51,6.19-6.51V5.04h24.71l8.13,.11-2.32,6.97-.21,40.43s.01,2.86-.83,4.43Z" fill="#008187"/><path d="M34.68,8.05h24.74c-3.25,0-5.89,2.64-5.89,5.89V56.36c0,3.25-2.64,5.89-5.89,5.89" fill="none" stroke="#000" stroke-linecap="round" stroke-linejoin="round" stroke-width="1.5"/><line x1="22.9" y1="50.47" x2="22.9" y2="41.04" fill="none" stroke="#000" stroke-linecap="round" stroke-linejoin="round" stroke-width="1.5"/><circle cx="59.42" cy="13.94" r="5.89" fill="none" stroke="#000" stroke-linecap="round" stroke-linejoin="round" stroke-width="1.5"/><path d="M47.64,62.25c-3.25,0-5.89-2.64-5.89-5.89s2.64-5.89,5.89-5.89H22.9c-3.25,0-5.89,2.64-5.89,5.89s2.64,5.89,5.89,5.89h24.74Z" fill="none" stroke="#000" stroke-linecap="round" stroke-linejoin="round" stroke-width="1.5"/><path d="M24.86,24.54c-1.65,0-3.28-.43-4.71-1.26v11.87l4.71-3.53,4.71,3.53v-11.87c-1.43,.83-3.06,1.26-4.71,1.26Z" fill="#f5c663"/><path d="M22.9,26.9c-1.65,0-3.28-.43-4.71-1.26v11.87l4.71-3.53,4.71,3.53v-11.87c-1.43,.83-3.06,1.26-4.71,1.26Z" fill="none" stroke="#000" stroke-linecap="round" stroke-linejoin="round" stroke-width="1.5"/><circle cx="24.86" cy="16.12" r="9.43" fill="#f5c663"/><circle cx="22.9" cy="17.48" r="9.43" fill="none" stroke="#000" stroke-linecap="round" stroke-linejoin="round" stroke-width="1.5"/><circle cx="22.9" cy="17.48" r="3.53" fill="none" stroke="#000" stroke-linecap="round" stroke-linejoin="round" stroke-width="1.5"/></g></g></svg>