<?xml version="1.0" encoding="utf-8"?>
<!-- Generator: Adobe Illustrator 25.4.1, SVG Export Plug-In . SVG Version: 6.00 Build 0) -->
<svg version="1.1" id="Layer_1" xmlns="http://www.w3.org/2000/svg" xmlns:xlink="http://www.w3.org/1999/xlink" x="0px" y="0px" width="608px" height="811px" viewBox="0 0 608 811" style="enable-background:new 0 0 608 811;" xml:space="preserve">
	<style type="text/css">
		.st0{clip-path:url(#SVGID_00000088096729302049373580000007154890973555026594_);fill:#F3F5F6;}
		.st1{clip-path:url(#SVGID_00000044893922627058555870000007479950871597918107_);fill:#FCB975;}
		.st2{clip-path:url(#SVGID_00000071537594806442134750000010031105926692613800_);fill:#ABCB57;}
		.st3{fill:none;stroke:#071F32;stroke-width:2;stroke-linecap:round;stroke-linejoin:round;stroke-miterlimit:10;}
		.st4{fill:none;stroke:#000000;stroke-width:3;stroke-linecap:round;stroke-linejoin:round;stroke-miterlimit:10;}
	</style>
	<g>
		<g>
			<defs>
				<rect id="SVGID_1_" width="608" height="811" />
			</defs>
			<clipPath id="SVGID_00000099627405385051576470000004619812741713089940_">
				<use xlink:href="#SVGID_1_" style="overflow:visible;" />
			</clipPath>
			<rect x="-1" y="-1" style="clip-path:url(#SVGID_00000099627405385051576470000004619812741713089940_);fill:#F3F5F6;" width="610" height="813" />
		</g>
	</g>
	<g>
		<g>
			<defs>
				<path id="SVGID_00000165198607490387475630000001581511936802764467_" d="M160,251.3v117.2c0.9,79.3,51.3,149.6,126,176l17.2,6.4
				c11.5,4.2,24.1,4.2,35.6,0l17.2-6.4c74.8-26.4,125.1-96.7,126-176V251.3c0-9.4-5.7-17.9-14.3-21.6
				c-46.5-19.4-96.4-29.2-146.7-28.7c-50.3-0.5-100.2,9.3-146.7,28.7C165.7,233.4,160,241.9,160,251.3z" />
			</defs>
			<clipPath id="SVGID_00000107549171804992544740000001123106660464082317_">
				<use xlink:href="#SVGID_00000165198607490387475630000001581511936802764467_" style="overflow:visible;" />
			</clipPath>
			<rect x="159" y="199.5" style="clip-path:url(#SVGID_00000107549171804992544740000001123106660464082317_);fill:#FCB975;" width="324" height="356.5" />
		</g>
	</g>
	<g>
		<g>
			<defs>
				<path id="SVGID_00000071559131695108657970000012758205689383281563_" d="M342.1,285.8l20.9,43.1h40.6c4.2-0.2,8.1,2.3,9.7,6.2
				c1.6,3.9,0.5,8.4-2.6,11.2l-35.3,36.9l19.5,45c1.8,4.2,0.7,9.1-2.8,12.1c-3.4,3-8.4,3.5-12.4,1.2l-47.3-26.6l-47.2,26.6
				c-4,2.3-8.9,1.8-12.4-1.2c-3.4-3-4.6-7.9-2.8-12.1l19.5-45l-35.3-36.9c-3.2-2.8-4.2-7.3-2.6-11.2c1.6-3.9,5.4-6.4,9.7-6.2h40.7
				l20.9-43.1c1.9-3.6,5.5-5.8,9.5-5.8S340.2,282.2,342.1,285.8z" />
			</defs>
			<clipPath id="SVGID_00000138572451345293934880000008993680068836419519_">
				<use xlink:href="#SVGID_00000071559131695108657970000012758205689383281563_" style="overflow:visible;" />
			</clipPath>
			<rect x="249.1" y="279" style="clip-path:url(#SVGID_00000138572451345293934880000008993680068836419519_);fill:#ABCB57;" width="166.7" height="165.9" />
		</g>
	</g>
	<g>
		<path class="st3" d="M316.5,295.4l19.6,40.4h38.1c4-0.2,7.6,2.2,9.1,5.8s0.5,7.9-2.5,10.5l-33.1,34.6l18.3,42.3
		c1.7,4,0.6,8.6-2.6,11.4c-3.2,2.8-7.9,3.3-11.6,1.1l-44.4-25l-44.3,25c-3.7,2.2-8.4,1.7-11.6-1.1c-3.2-2.8-4.3-7.4-2.6-11.4
		l18.3-42.3l-33.1-34.6c-3-2.6-3.9-6.8-2.5-10.5c1.5-3.7,5.1-6,9.1-5.8H279l19.6-40.4c1.7-3.3,5.2-5.4,9-5.4
		S314.8,292.1,316.5,295.4z" />
		<path class="st4" d="M147,262.3v117.2c0.9,79.3,51.3,149.6,126,176l17.2,6.4c11.5,4.2,24.1,4.2,35.6,0l17.2-6.4
		c74.8-26.4,125.1-96.7,126-176V262.3c0-9.4-5.7-17.9-14.3-21.6c-46.5-19.4-96.4-29.2-146.7-28.7c-50.3-0.5-100.2,9.3-146.7,28.7
		C152.7,244.4,147,252.9,147,262.3z" />
	</g>
</svg>
