<svg width="148" height="136" viewBox="0 0 148 136" fill="none"
  xmlns="http://www.w3.org/2000/svg">
  <g clip-path="url(#clip0_5900_323)">
    <mask id="mask0_5900_323" style="mask-type:luminance" maskUnits="userSpaceOnUse" x="0" y="0" width="148" height="136">
      <path d="M147.09 0H0V135.6H147.09V0Z" fill="white"/>
    </mask>
    <g mask="url(#mask0_5900_323)">
      <path d="M89.7402 41.8496C86.0702 45.8896 83.0102 50.4196 79.7602 54.7096C79.0102 55.3996 78.9702 56.5597 79.6602 57.3097C79.6902 57.3396 79.7202 57.3797 79.7602 57.4096C80.5002 58.1497 81.7002 58.1596 82.4402 57.4096H82.4502C86.4902 53.9096 90.6502 50.5396 94.7002 46.9296C97.2702 44.5996 99.7202 42.0896 102.36 39.8896C104.99 37.6796 107.81 34.9296 110.44 32.3596C111.68 31.2296 112.82 29.9997 113.87 28.6896C114.72 27.8596 114.73 26.5096 113.9 25.6596C113.89 25.6496 113.88 25.6396 113.87 25.6296C113.02 24.8096 111.66 24.8096 110.81 25.6296C109.65 26.6096 108.42 27.4696 107.2 28.3196C104.14 30.4596 101.08 32.2996 97.8902 34.4396C95.0202 36.7296 92.3002 39.2096 89.7502 41.8496" fill="#F08332"/>
      <path d="M31.8196 35.9097C33.1096 37.3797 34.4496 38.8497 35.8596 40.1997C37.2696 41.5497 38.6796 42.7097 40.0796 43.9397C42.7096 45.9597 45.2196 48.0997 47.8596 50.0597C50.4996 52.0197 53.3696 54.0397 56.1896 56.1797C57.0596 57.0297 58.4496 57.0197 59.3096 56.1497C60.1596 55.2797 60.1496 53.8797 59.2796 53.0297C59.1396 52.8997 58.9896 52.7797 58.8296 52.6897L44.8696 38.4897L38.7496 33.4097C36.7296 31.8197 34.5896 30.4097 32.6296 28.6897C30.9896 27.2897 29.5096 25.7097 28.2196 23.9797C27.6496 23.1097 26.4896 22.8397 25.5896 23.3697C24.6796 23.8897 24.3696 25.0497 24.8896 25.9597C24.8896 25.9697 24.9096 25.9897 24.9096 25.9997C26.7596 29.5997 29.0896 32.9297 31.8296 35.9197" fill="#F08332"/>
      <path d="M42.2901 22.1898C48.3101 15.3398 56.2801 10.4898 65.1301 8.28979C69.3201 7.20979 73.6901 6.91979 77.9901 7.42979C82.3001 7.93979 86.4701 9.30979 90.2401 11.4698C91.91 12.4398 93.43 13.6398 94.7701 15.0198C96.2701 16.4498 97.6601 17.9798 98.9301 19.6098C99.6401 20.5598 100.98 20.7498 101.93 20.0398C102.87 19.3798 103.1 18.0798 102.43 17.1398C102.41 17.1098 102.38 17.0698 102.36 17.0398C101.07 14.7798 99.59 12.6298 97.9501 10.6098C96.6001 9.10979 95.0801 7.76979 93.4201 6.62979C89.1301 3.54979 84.2201 1.45979 79.0301 0.509786C73.7601 -0.410214 68.3601 -0.100214 63.2301 1.42979C53.4101 4.68979 44.9801 11.1598 39.2901 19.7998C38.6501 20.6298 38.8001 21.8198 39.6301 22.4598C40.4601 23.0998 41.6501 22.9498 42.2901 22.1198V22.1798V22.1898Z" fill="#030303"/>
      <path d="M119.93 111.41C122.87 112.91 125.16 115.44 126.36 118.51C127.33 121.06 126.32 123.93 123.97 125.31C120.81 127.18 117.23 128.23 113.56 128.37C107.59 129.01 101.55 128.68 95.68 127.39C93.98 127.1 92.31 126.61 90.72 125.92C89.78 125.6 88.93 125.07 88.21 124.39C87.14 123.33 86.38 121.99 86.01 120.53C85.31 118.18 84.9 115.75 84.79 113.31H87.85C95.4 113.64 102.96 113.54 110.5 113C113.57 112.64 116.6 112 119.56 111.1L119.93 111.41ZM51.9 121.26C51.35 122.84 50.35 124.22 49.02 125.24C48.34 125.61 47.59 125.82 46.82 125.85C45.07 125.94 43.31 125.94 41.55 125.85C38.1 126.03 34.65 126.03 31.2 125.85C27.78 125.65 24.39 125.19 21.04 124.5C19.39 124.5 17.49 124.07 15.71 123.58C15.03 123.46 14.4 123.16 13.87 122.72C12.51 121.36 12.02 119.36 12.59 117.52C13.22 115.22 14.62 113.2 16.57 111.83C17.51 111.37 18.5 110.99 19.51 110.73C20.71 110.32 21.94 110.02 23.18 109.81C31.17 112.07 39.38 113.41 47.67 113.79H53.79C53.33 116.32 52.69 118.82 51.89 121.26M146.93 72.9499C146.2 64.7699 142.77 57.0599 137.19 51.0299C135.5 49.2799 133.56 47.7999 131.44 46.6199C128.45 45.0299 125.37 43.6299 122.19 42.4599C121.03 42.0899 119.79 42.7299 119.42 43.8899C119.1 44.8999 119.54 45.9999 120.48 46.4999C123.44 47.6599 126.32 49.0099 129.11 50.5399C130.81 51.5599 132.36 52.8099 133.7 54.2799C138.34 59.6099 141.1 66.3299 141.54 73.3799C142.17 80.3299 140.3 87.2799 136.27 92.9699C134.65 95.1299 132.71 97.0299 130.51 98.5999C128.21 100.18 125.77 101.55 123.22 102.7C119.04 104.57 114.57 105.71 110 106.07C102.77 106.68 95.49 106.07 88.08 106.07C75.22 106.07 61.57 106.93 48.22 106.38C39.59 106.25 31.01 105.01 22.69 102.71C15.09 100.6 9.08996 94.7599 6.76996 87.2199C4.36996 79.3699 4.84996 70.9299 8.11996 63.3999C9.54996 59.6399 11.67 56.1699 14.37 53.1699C16.03 51.3799 18.15 50.0699 20.49 49.3699C21.5 49.1299 22.15 48.1299 21.96 47.1099C21.72 46.0899 20.72 45.4499 19.69 45.6399C16.51 46.3699 13.59 47.9599 11.24 50.2299C8.07996 53.5799 5.56996 57.4799 3.82996 61.7399C-0.190038 70.2299 -1.08004 79.8599 1.31996 88.9399C3.44996 96.9099 8.88996 103.6 16.26 107.31C15.55 107.5 14.85 107.74 14.18 108.04C10.22 110.14 7.39996 113.88 6.46996 118.27C5.75996 121.6 6.66996 125.08 8.91996 127.64C9.85996 128.75 11.06 129.61 12.41 130.15C14.71 131 17.09 131.59 19.51 131.93C23.16 132.62 26.87 132.99 30.59 133.03C34.33 133.11 38.08 132.95 41.8 132.54C44.21 132.42 46.61 132.09 48.96 131.56C50.23 131.2 51.42 130.6 52.45 129.78C54.05 128.41 55.29 126.66 56.06 124.7C57.19 121.14 57.93 117.46 58.26 113.74C65.85 113.74 73.44 113.74 80.79 113.37C80.71 116.16 80.89 118.95 81.34 121.7C81.76 123.93 82.7 126.03 84.1 127.82C85.18 129.07 86.47 130.12 87.9 130.94C89.86 131.99 91.9 132.85 94.02 133.51C100.62 135.38 107.52 136.01 114.35 135.35C119.28 134.94 124 133.14 127.94 130.14C131.41 127.6 133.08 123.27 132.23 119.06C131.14 114.84 128.46 111.2 124.76 108.9L125.86 108.47C128.76 107.04 131.52 105.36 134.12 103.45C136.67 101.48 138.92 99.1499 140.79 96.5299C145.54 89.6299 147.71 81.2899 146.91 72.9599" fill="#030303"/>
      <path d="M35.6702 57.7697V56.8497C35.9602 56.3997 36.3102 55.9897 36.7102 55.6297C37.3202 55.7997 37.8502 56.1897 38.1802 56.7297C39.0402 58.0097 35.7902 59.4197 35.6702 57.4597V57.7697ZM44.2502 55.6297C42.7002 51.8397 38.3802 50.0197 34.5902 51.5697C32.1302 52.5797 30.3902 54.8297 30.0502 57.4697C29.7702 60.0897 30.8002 62.6797 32.8002 64.3897C34.4602 65.8897 36.7802 66.4297 38.9202 65.7997C43.0702 64.6997 45.5502 60.4497 44.4502 56.2997C44.3902 56.0797 44.3202 55.8497 44.2502 55.6397" fill="#030303"/>
      <path d="M104.07 54.8897C104.8 54.4597 105.42 54.8897 105.85 55.3797C106.26 55.8797 106.19 56.6097 105.69 57.0197C105.62 57.0697 105.55 57.1197 105.48 57.1597C104.81 57.5897 99.1104 58.0797 104.07 54.8997M109.58 63.0997C112.82 60.6597 113.47 56.0497 111.03 52.8097C111.02 52.7897 111 52.7697 110.99 52.7497C108.2 49.1797 103.04 48.5497 99.4704 51.3397C98.6004 52.0197 97.8704 52.8797 97.3304 53.8497C96.6904 54.9497 96.3104 56.1897 96.2304 57.4597C96.0404 60.1297 97.6104 62.5997 100.09 63.5797C103.13 65.0697 106.71 64.8797 109.58 63.0897" fill="#030303"/>
      <path d="M54.6002 86.2397C52.8002 87.7597 51.1002 89.3997 49.5202 91.1397V89.2997C49.9702 86.4797 50.6002 83.6997 51.4202 80.9697V79.0097C52.6002 79.1297 53.7502 79.4797 54.7902 80.0497C56.3702 80.8897 57.8602 81.8797 59.2602 82.9897C57.6002 83.9097 56.0502 84.9997 54.6102 86.2297M93.9702 78.4597L94.2802 78.0297C94.4202 78.4097 94.5502 78.7997 94.6502 79.1897C95.3002 80.5497 95.7502 81.9897 96.0002 83.4797C96.3802 86.0197 96.6002 88.5697 96.6702 91.1397C96.6002 92.3197 97.5002 93.3397 98.6902 93.3997C99.8702 93.4697 100.89 92.5697 100.96 91.3897C101.5 88.6397 101.83 85.8497 101.94 83.0597C101.99 80.9997 101.76 78.9397 101.27 76.9297C100.76 75.2297 99.9902 73.6297 99.0002 72.1597C98.2702 71.1397 97.2402 70.3697 96.0602 69.9597C94.9002 69.5297 93.6102 69.6597 92.5702 70.3297C91.3902 71.2597 90.3002 72.3097 89.3302 73.4497C87.8902 75.1397 86.5602 76.9097 85.3502 78.7797C84.5502 80.0697 83.8202 81.4097 83.1502 82.6997C81.1902 81.7597 79.1402 81.0197 77.0302 80.4997C72.8002 79.5497 68.4002 79.6797 64.2302 80.8697C62.0702 78.2297 59.5302 75.9197 56.7002 74.0097C54.2202 72.2897 51.1402 71.6697 48.1902 72.2997C46.9602 72.6197 45.9702 73.5397 45.5602 74.7497C45.1002 76.3597 44.7802 77.9897 44.5802 79.6497C44.4602 81.6897 44.4602 83.7297 44.5802 85.7697C44.6402 88.8697 44.9502 91.9597 45.5002 95.0097C45.5802 95.7697 46.1102 96.3997 46.8502 96.5997C47.5902 97.3497 48.7902 97.3497 49.5302 96.6097C49.5302 96.6097 49.5302 96.6097 49.5402 96.5997C51.7902 94.7197 54.1402 92.9697 56.5802 91.3297C58.8902 89.8597 61.4102 88.7397 64.0502 88.0297C66.4002 87.2497 68.8602 86.8797 71.3402 86.9297C73.8802 86.8897 76.4102 87.2097 78.8702 87.8497C84.0902 89.2897 88.9302 91.8397 93.0802 95.3197C93.9102 96.1597 95.2602 96.1797 96.1102 95.3497C96.1202 95.3397 96.1302 95.3297 96.1402 95.3197C96.9602 94.4697 96.9602 93.1097 96.1402 92.2597C93.5402 89.3797 90.5702 86.8497 87.3202 84.7297C88.1102 83.7897 88.9502 82.8897 89.8302 82.0297C91.1502 80.7697 92.5402 79.5897 93.9902 78.4797" fill="#030303"/>
      <path d="M90.6397 32.4997C86.5497 37.3297 83.1897 42.6897 79.6097 47.7797C78.7797 48.6097 78.7697 49.9497 79.6097 50.7897C79.6497 50.8297 79.6897 50.8697 79.7297 50.8997C80.6097 51.7297 81.9996 51.6897 82.8396 50.7997C82.8396 50.7997 82.8397 50.7997 82.8497 50.7897C87.3797 46.5897 92.0697 42.5197 96.5997 38.1797C99.4797 35.3797 102.22 32.3797 105.17 29.7197C108.13 27.0597 111.27 23.7597 114.22 20.6797C115.6 19.3197 116.88 17.8497 118.04 16.2897C118.98 15.2997 118.95 13.7297 117.95 12.7797C117.94 12.7697 117.93 12.7597 117.91 12.7397C116.89 11.8197 115.32 11.8697 114.37 12.8597C113.06 14.0397 111.68 15.0797 110.3 16.1197C106.84 18.7197 103.37 20.9697 99.7797 23.5797C96.5497 26.3497 93.4997 29.3197 90.6597 32.4797" fill="#09101E"/>
      <path d="M72.0698 43.1396C73.9698 42.3096 75.7198 41.2096 77.5098 40.2296C77.8698 40.0996 78.0698 39.7096 77.9398 39.3496C77.9398 39.3296 77.9298 39.3196 77.9198 39.2996C77.7798 38.9296 77.3598 38.7396 76.9898 38.8796C75.0498 39.4596 73.0898 39.9896 71.1298 40.6196C69.8798 41.0296 68.6398 41.5196 67.3898 41.8796C66.1398 42.2396 64.7398 42.7596 63.4298 43.2396C62.8298 43.4396 62.2398 43.6896 61.6798 43.9796C61.2598 44.1396 61.0398 44.6096 61.1998 45.0296C61.1998 45.0296 61.1998 45.0396 61.1998 45.0496C61.3698 45.4696 61.8398 45.6796 62.2598 45.5196C62.8098 45.3596 63.3698 45.2496 63.9298 45.1396C65.3198 44.8696 66.6598 44.7096 68.0998 44.4496C69.4498 44.0996 70.7698 43.6596 72.0598 43.1396" fill="#09101E"/>
      <path d="M69.7495 36.9496C71.6495 36.1196 73.3995 35.0196 75.1895 34.0396C75.5495 33.9096 75.7495 33.5196 75.6195 33.1596C75.6195 33.1396 75.6095 33.1296 75.5995 33.1096C75.4595 32.7396 75.0395 32.5496 74.6695 32.6896C72.7295 33.2696 70.7695 33.7996 68.8095 34.4296C67.5595 34.8396 66.3195 35.3296 65.0695 35.6896C63.8195 36.0496 62.4195 36.5696 61.1095 37.0496C60.5095 37.2496 59.9195 37.4996 59.3595 37.7896C58.9395 37.9496 58.7195 38.4196 58.8795 38.8396C58.8795 38.8396 58.8795 38.8496 58.8795 38.8596C59.0495 39.2796 59.5195 39.4896 59.9395 39.3296C60.4895 39.1696 61.0495 39.0596 61.6095 38.9496C62.9995 38.6796 64.3395 38.5196 65.7795 38.2596C67.1295 37.9096 68.4495 37.4696 69.7395 36.9496" fill="#09101E"/>
    </g>
  </g>
  <defs>
    <clipPath id="clip0_5900_323">
      <rect width="147.09" height="135.6" fill="white"/>
    </clipPath>
  </defs>
</svg>
